G04 DipTrace 3.0.0.2*
G04 hobo.gts*
%MOIN*%
G04 #@! TF.FileFunction,Soldermask,Top*
G04 #@! TF.Part,Single*
%AMOUTLINE0*5,1,8,0,0,0.06,-22.499559*%
%ADD24R,0.051181X0.059055*%
%ADD25R,0.059055X0.051181*%
%ADD31R,0.06X0.06*%
%ADD38R,0.03937X0.043307*%
%ADD42C,0.108268*%
%ADD46R,0.07874X0.023622*%
%ADD48R,0.047244X0.051181*%
%ADD50R,0.066929X0.033465*%
%ADD52R,0.021654X0.041339*%
%ADD54R,0.041724X0.035433*%
%ADD62R,0.070866X0.094488*%
%ADD64R,0.041339X0.027559*%
%ADD66R,0.031496X0.086614*%
%ADD68R,0.066929X0.059055*%
%ADD70R,0.059055X0.066929*%
%ADD75OUTLINE0*%
%FSLAX26Y26*%
G04*
G70*
G90*
G75*
G01*
G04 TopMask*
%LPD*%
D70*
X1724982Y1231188D3*
X1799785D3*
D68*
X2669072Y994988D3*
Y920185D3*
D70*
X1531201Y1237451D3*
X1456398D3*
D66*
X668701Y1168701D3*
X618701D3*
X568701D3*
X518701D3*
Y877362D3*
X568701D3*
X618701D3*
X668701D3*
D42*
X531496Y1437008D3*
Y531496D3*
X2814961D3*
Y1437008D3*
D64*
X2024951Y1099951D3*
Y1137353D3*
Y1174755D3*
X1910778D3*
Y1137353D3*
Y1099951D3*
D62*
X1967865Y1137353D3*
D31*
X723228Y1387008D3*
D75*
Y1487008D3*
X823228Y1387008D3*
Y1487008D3*
X923228Y1387008D3*
Y1487008D3*
X1023228Y1387008D3*
Y1487008D3*
X1123228Y1387008D3*
Y1487008D3*
X1223228Y1387008D3*
Y1487008D3*
X1323228Y1387008D3*
Y1487008D3*
X1423228Y1387008D3*
Y1487008D3*
X1523228Y1387008D3*
Y1487008D3*
X1623228Y1387008D3*
Y1487008D3*
X1723228Y1387008D3*
Y1487008D3*
X1823228Y1387008D3*
Y1487008D3*
X1923228Y1387008D3*
Y1487008D3*
X2023228Y1387008D3*
Y1487008D3*
X2123228Y1387008D3*
Y1487008D3*
X2223228Y1387008D3*
Y1487008D3*
X2323228Y1387008D3*
Y1487008D3*
X2423228Y1387008D3*
Y1487008D3*
X2523228Y1387008D3*
Y1487008D3*
X2623228Y1387008D3*
Y1487008D3*
D54*
X912451Y524950D3*
Y465895D3*
X982451D3*
Y524950D3*
X1431096Y524937D3*
Y465882D3*
X1501096D3*
Y524937D3*
X1193710Y524966D3*
Y465911D3*
X1263710D3*
Y524966D3*
X1874795Y524937D3*
Y465882D3*
X1944795D3*
Y524937D3*
X1637320D3*
Y465882D3*
X1707320D3*
Y524937D3*
D52*
X2791455Y984517D3*
X2817046D3*
X2842636D3*
Y1059320D3*
X2817046D3*
X2791455D3*
D50*
X2817046Y1021919D3*
D70*
X1419416Y1128710D3*
X1344613D3*
D25*
X1749951Y1149951D3*
Y1075148D3*
D24*
X1924950Y949951D3*
X1999753D3*
D68*
X2564825Y1070951D3*
Y996148D3*
X2413008Y1069798D3*
Y994995D3*
X2284094Y1071990D3*
Y997186D3*
D48*
X1012451Y674950D3*
Y608021D3*
X1531201Y674950D3*
Y608021D3*
X1162463Y674950D3*
Y608021D3*
X1974785Y674921D3*
Y607992D3*
X1737310Y673108D3*
Y606178D3*
D38*
X949957Y674950D3*
Y608021D3*
D48*
X1406098Y674921D3*
Y607992D3*
X1224957Y674950D3*
Y608021D3*
X1912291Y674921D3*
Y607992D3*
X1674950Y674950D3*
Y608021D3*
X887463Y674950D3*
Y608021D3*
X1468701Y674950D3*
Y608021D3*
X1287450Y674950D3*
Y608021D3*
X1849798Y674921D3*
Y607992D3*
X1612451Y674950D3*
Y608021D3*
D46*
X1031134Y1068630D3*
Y1043039D3*
Y1017449D3*
Y991858D3*
Y966268D3*
Y940677D3*
Y915087D3*
Y889496D3*
Y863906D3*
Y838315D3*
Y812724D3*
Y787134D3*
X1259488D3*
X1259480Y812724D3*
Y838315D3*
Y863906D3*
Y889496D3*
Y915087D3*
Y940677D3*
Y966268D3*
Y991858D3*
Y1017449D3*
Y1043039D3*
Y1068630D3*
M02*
