G04 DipTrace 3.0.0.2*
G04 hobo.gbl*
%MOIN*%
G04 #@! TF.FileFunction,Copper,L2,Bot*
G04 #@! TF.Part,Single*
%ADD32C,0.06*%
%ADD33C,0.055433*%
G04 #@! TA.AperFunction,Conductor*
%ADD14C,0.012992*%
G04 #@! TA.AperFunction,CopperBalancing*
%ADD17C,0.025*%
G04 #@! TA.AperFunction,ViaPad*
%ADD40C,0.04*%
%FSLAX26Y26*%
G04*
G70*
G90*
G75*
G01*
G04 Bottom_Plane*
%LPD*%
X1024950Y1118701D2*
D14*
X1056202D1*
X1062451Y1124950D1*
X1262450Y1106201D2*
Y1099950D1*
X1255420D1*
X937450Y437451D2*
X956201D1*
X1418701D2*
X1399951D1*
X1599950Y449950D2*
X1587450D1*
X1581201Y443701D1*
X1831201Y449950D2*
X1812450D1*
X1806201Y443701D1*
X1149951Y499950D2*
X1156201Y493701D1*
X1381201Y1231201D2*
X1149951D1*
X2087451Y1149951D2*
Y1162451D1*
X2099951Y1174951D1*
X1623228Y1487008D2*
X1625394D1*
X1668701Y1443701D1*
X1866535D1*
X1923228Y1387008D1*
X1924507D1*
X1974950Y1437451D1*
X2073672D1*
X2123228Y1487008D1*
X2144144D1*
X2193701Y1437451D1*
X2273672D1*
X2323228Y1487008D1*
X568701Y1256201D2*
Y1306201D1*
X618701Y1256201D2*
Y1306201D1*
X668701Y1256201D2*
Y1306201D1*
X643701Y1331201D1*
X618701Y793701D2*
Y756201D1*
X923228Y1487008D2*
Y1489173D1*
X874950Y1537451D1*
X662451D1*
X637451Y1512451D1*
Y1487451D1*
X1323228Y1487008D2*
X1318257D1*
X1274950Y1443701D1*
X1179921D1*
X1144873Y1408652D1*
X1123228Y1387008D1*
X1323228Y1487008D2*
X1331644D1*
X1381201Y1437451D1*
X1573672D1*
X1623228Y1487008D1*
X923228D2*
X956643D1*
X999950Y1443701D1*
X1109824D1*
X1144873Y1408652D1*
X1849950Y1249950D2*
X1881201D1*
X1037451Y756201D2*
Y731201D1*
X1031201Y724950D1*
X2817046Y923427D2*
Y899564D1*
X2819395Y897215D1*
X2669451Y814009D2*
Y661589D1*
X2723717Y1199958D2*
X2638034Y1285640D1*
X1068701Y674950D2*
X1349951D1*
X1081201Y606201D2*
X1343701D1*
X1468701Y731201D1*
X2202766Y1069374D2*
X2114097D1*
X2087496Y1042773D1*
X1574239Y1003469D2*
X1792575D1*
X2552352Y1122844D2*
X2196772D1*
X1530571Y1044774D2*
X1883450D1*
X1918856Y1009369D1*
D40*
X1024950Y1118701D3*
X1262450Y1106201D3*
X937450Y437451D3*
X1418701D3*
X1599950Y449950D3*
X1831201D3*
X1149951Y499950D3*
X1381201Y1231201D3*
X2087451Y1149951D3*
X568701Y1256201D3*
X618701D3*
X668701D3*
X618701Y793701D3*
X1849950Y1249950D3*
X1037451Y756201D3*
X2817046Y923427D3*
X2669451Y814009D3*
X2723717Y1199958D3*
X2638034Y1285640D3*
X1068701Y674950D3*
X1349951D3*
X1081201Y606201D3*
X1468701Y731201D3*
X2202766Y1069374D3*
X2087496Y1042773D3*
X1574239Y1003469D3*
X1792575D3*
X2552352Y1122844D3*
X2196772D3*
X1530571Y1044774D3*
X1918856Y1009369D3*
X518701Y1256201D3*
X458701Y1506479D2*
D17*
X498842D1*
X564145D2*
X675405D1*
X871030D2*
X975405D1*
X1271030D2*
X1375405D1*
X1571030D2*
X1675405D1*
X2071030D2*
X2175405D1*
X2271030D2*
X2375405D1*
X2671030D2*
X2769790D1*
X2860141D2*
X2880288D1*
X458701Y1481611D2*
X467788D1*
X595200D2*
X671694D1*
X874741D2*
X971694D1*
X1274741D2*
X1371694D1*
X1574741D2*
X1671694D1*
X2074741D2*
X2171694D1*
X2274741D2*
X2371694D1*
X2674741D2*
X2744204D1*
X607114Y1456742D2*
X681801D1*
X764682D2*
X781801D1*
X864682D2*
X981801D1*
X1064682D2*
X1081801D1*
X1164682D2*
X1181801D1*
X1264682D2*
X1381801D1*
X1464682D2*
X1481801D1*
X1564682D2*
X1681801D1*
X1764682D2*
X1781801D1*
X1864682D2*
X1881801D1*
X1964682D2*
X1981801D1*
X2064682D2*
X2181801D1*
X2264682D2*
X2381801D1*
X2464682D2*
X2481801D1*
X2564682D2*
X2581801D1*
X2664682D2*
X2733364D1*
X609555Y1431873D2*
X695229D1*
X751206D2*
X800258D1*
X846176D2*
X900258D1*
X946176D2*
X1000258D1*
X1046176D2*
X1200258D1*
X1246176D2*
X1300258D1*
X1346176D2*
X1400258D1*
X1446176D2*
X1500258D1*
X1546176D2*
X1600258D1*
X1646176D2*
X1700258D1*
X1746176D2*
X1800258D1*
X1846176D2*
X2000258D1*
X2046176D2*
X2100258D1*
X2146176D2*
X2200258D1*
X2246176D2*
X2300258D1*
X2346176D2*
X2400258D1*
X2446176D2*
X2500258D1*
X2546176D2*
X2731118D1*
X603549Y1407004D2*
X673159D1*
X1070786D2*
X1175649D1*
X1870786D2*
X1975649D1*
X2570786D2*
X2736635D1*
X458701Y1382136D2*
X476821D1*
X586167D2*
X669350D1*
X1074790D2*
X1171645D1*
X1874790D2*
X1971645D1*
X2574790D2*
X2752163D1*
X458701Y1357267D2*
X678579D1*
X767905D2*
X781411D1*
X865073D2*
X881411D1*
X965073D2*
X981411D1*
X1065073D2*
X1181411D1*
X1265073D2*
X1281411D1*
X1365073D2*
X1381411D1*
X1465073D2*
X1481411D1*
X1565073D2*
X1581411D1*
X1665073D2*
X1681411D1*
X1765073D2*
X1781411D1*
X1865073D2*
X1981411D1*
X2065073D2*
X2081411D1*
X2165073D2*
X2181411D1*
X2265073D2*
X2281411D1*
X2365073D2*
X2381411D1*
X2465073D2*
X2481411D1*
X2565073D2*
X2795473D1*
X2834458D2*
X2880044D1*
X458701Y1332398D2*
X2879995D1*
X458701Y1307529D2*
X2600161D1*
X2675913D2*
X2879995D1*
X458701Y1282661D2*
X2594057D1*
X2683237D2*
X2879946D1*
X458701Y1257792D2*
X2604653D1*
X2708090D2*
X2879897D1*
X458701Y1232923D2*
X2648549D1*
X2751596D2*
X2879897D1*
X458701Y1208054D2*
X2673403D1*
X2767026D2*
X2879848D1*
X458701Y1183185D2*
X950942D1*
X1466147D2*
X2683169D1*
X2764292D2*
X2879799D1*
X458701Y1158317D2*
X950844D1*
X1486362D2*
X2172573D1*
X2220981D2*
X2528139D1*
X2576596D2*
X2879751D1*
X458701Y1133448D2*
X950844D1*
X1506577D2*
X2154067D1*
X2595053D2*
X2879751D1*
X458701Y1108579D2*
X950844D1*
X1526792D2*
X2155190D1*
X2593930D2*
X2879702D1*
X458701Y1083710D2*
X950844D1*
X1547690D2*
X2077651D1*
X2244321D2*
X2535756D1*
X2568930D2*
X2879653D1*
X458701Y1058842D2*
X950893D1*
X1911606D2*
X2046645D1*
X2245493D2*
X2879604D1*
X458701Y1033973D2*
X950893D1*
X1954917D2*
X2044350D1*
X2130649D2*
X2178432D1*
X2227085D2*
X2879604D1*
X458701Y1009104D2*
X950893D1*
X1836264D2*
X1874770D1*
X1962973D2*
X2060561D1*
X2114438D2*
X2879555D1*
X458701Y984235D2*
X950893D1*
X1831967D2*
X1883217D1*
X1954477D2*
X2879506D1*
X458701Y959367D2*
X952993D1*
X1648129D2*
X2879458D1*
X458701Y934498D2*
X1088393D1*
X1668344D2*
X2879458D1*
X458701Y909629D2*
X1088393D1*
X1688559D2*
X2879409D1*
X458701Y884760D2*
X1088393D1*
X1708774D2*
X2879360D1*
X458701Y859891D2*
X1088393D1*
X1729038D2*
X2879360D1*
X458701Y835023D2*
X1088393D1*
X1749253D2*
X2879311D1*
X458701Y810154D2*
X1088393D1*
X1769467D2*
X2879262D1*
X458701Y785285D2*
X1088393D1*
X1434555D2*
X1467495D1*
X1789682D2*
X2879213D1*
X458701Y760416D2*
X1088393D1*
X1402378D2*
X1436587D1*
X1809897D2*
X2879213D1*
X458701Y735548D2*
X1088393D1*
X1370200D2*
X1424819D1*
X1830112D2*
X2879165D1*
X458701Y710679D2*
X1044887D1*
X1373764D2*
X1405971D1*
X1507358D2*
X1533315D1*
X1850327D2*
X2879116D1*
X458701Y685810D2*
X1026040D1*
X1465512D2*
X1507631D1*
X1870542D2*
X2879067D1*
X458701Y660941D2*
X1027016D1*
X1440659D2*
X1481948D1*
X1890805D2*
X2879067D1*
X458701Y636073D2*
X1049770D1*
X1112631D2*
X1331362D1*
X1415756D2*
X1456264D1*
X1911020D2*
X2879018D1*
X458701Y611204D2*
X511879D1*
X551108D2*
X1037417D1*
X1390903D2*
X1430532D1*
X1931235D2*
X2795327D1*
X2834604D2*
X2878969D1*
X458701Y586335D2*
X468667D1*
X594321D2*
X1042153D1*
X1366049D2*
X1404848D1*
X1951450D2*
X2752114D1*
X609799Y561466D2*
X1379165D1*
X1971665D2*
X2736635D1*
X615366Y536598D2*
X854262D1*
X1991879D2*
X2731069D1*
X613071Y511729D2*
X850844D1*
X2005258D2*
X2733364D1*
X602231Y486860D2*
X850844D1*
X2005258D2*
X2744253D1*
X458701Y461991D2*
X486391D1*
X576596D2*
X850844D1*
X2005258D2*
X2769838D1*
X2860092D2*
X2878774D1*
X458701Y437122D2*
X850844D1*
X2005258D2*
X2878725D1*
X606991Y1431066D2*
X605132Y1419329D1*
X601460Y1408028D1*
X596065Y1397440D1*
X589080Y1387826D1*
X580678Y1379424D1*
X571064Y1372439D1*
X560476Y1367044D1*
X549174Y1363372D1*
X537438Y1361513D1*
X525554D1*
X513818Y1363372D1*
X502516Y1367044D1*
X491928Y1372439D1*
X482314Y1379424D1*
X473912Y1387826D1*
X466927Y1397440D1*
X461532Y1408028D1*
X457860Y1419329D1*
X456190Y1429475D1*
X456201Y562793D1*
X461981Y574095D1*
X469501Y584445D1*
X478547Y593491D1*
X488897Y601011D1*
X500296Y606819D1*
X512464Y610772D1*
X525099Y612774D1*
X537893D1*
X550529Y610772D1*
X562696Y606819D1*
X574095Y601011D1*
X584445Y593491D1*
X593491Y584445D1*
X601011Y574095D1*
X606819Y562696D1*
X610772Y550529D1*
X612774Y537893D1*
Y525099D1*
X610772Y512464D1*
X606819Y500296D1*
X601011Y488897D1*
X593491Y478547D1*
X584445Y469501D1*
X574095Y461981D1*
X562696Y456173D1*
X550529Y452220D1*
X537893Y450219D1*
X525099D1*
X512464Y452220D1*
X500296Y456173D1*
X488897Y461981D1*
X478547Y469501D1*
X469501Y478547D1*
X461981Y488897D1*
X456184Y500274D1*
X456201Y431201D1*
X853356D1*
X853621Y528328D1*
X854999Y533214D1*
X857480Y537643D1*
X860926Y541371D1*
X865146Y544191D1*
X869909Y545948D1*
X874950Y546545D1*
X1366210D1*
X1538355Y713135D1*
X1507857Y745276D1*
X1509783Y737708D1*
X1510295Y731201D1*
X1509783Y724694D1*
X1508259Y718347D1*
X1505762Y712317D1*
X1502351Y706752D1*
X1498113Y701789D1*
X1493149Y697550D1*
X1487584Y694140D1*
X1481554Y691642D1*
X1475208Y690118D1*
X1466878Y689678D1*
X1361944Y584841D1*
X1356454Y581172D1*
X1350258Y578886D1*
X1343365Y578123D1*
X1111914Y578110D1*
X1105649Y572550D1*
X1100084Y569140D1*
X1094054Y566642D1*
X1087708Y565118D1*
X1081201Y564606D1*
X1074694Y565118D1*
X1068347Y566642D1*
X1062317Y569140D1*
X1056752Y572550D1*
X1051789Y576789D1*
X1047550Y581752D1*
X1044140Y587317D1*
X1041642Y593347D1*
X1040118Y599694D1*
X1039606Y606201D1*
X1040118Y612708D1*
X1041642Y619054D1*
X1044140Y625084D1*
X1047550Y630649D1*
X1052773Y636522D1*
X1046968Y639485D1*
X1041687Y643321D1*
X1037072Y647937D1*
X1033236Y653217D1*
X1030272Y659033D1*
X1028256Y665240D1*
X1027235Y671687D1*
Y678214D1*
X1028256Y684660D1*
X1030272Y690868D1*
X1033236Y696683D1*
X1037072Y701964D1*
X1041687Y706579D1*
X1046968Y710415D1*
X1052783Y713378D1*
X1058991Y715395D1*
X1065437Y716416D1*
X1071964D1*
X1078411Y715395D1*
X1084618Y713378D1*
X1090434Y710415D1*
X1095714Y706579D1*
X1099351Y703022D1*
X1101168Y706538D1*
X1097182Y709680D1*
X1094039Y713667D1*
X1091914Y718277D1*
X1090923Y723256D1*
X1090857Y947167D1*
X973256Y947173D1*
X968277Y948163D1*
X963667Y950288D1*
X959681Y953431D1*
X956538Y957418D1*
X954413Y962028D1*
X953422Y967007D1*
X953356Y1181201D1*
X953952Y1186242D1*
X955709Y1191005D1*
X958529Y1195225D1*
X962257Y1198671D1*
X966686Y1201152D1*
X971572Y1202530D1*
X974950Y1202795D1*
X1440830Y1202530D1*
X1445715Y1201152D1*
X1450144Y1198671D1*
X1454207Y1194824D1*
X1544308Y1084009D1*
X1549454Y1081835D1*
X1555019Y1078425D1*
X1561221Y1072846D1*
X1885654Y1072778D1*
X1892131Y1071490D1*
X1898127Y1068726D1*
X1903541Y1064391D1*
X1917020Y1050930D1*
X1925362Y1050451D1*
X1931709Y1048927D1*
X1937739Y1046430D1*
X1943304Y1043019D1*
X1948267Y1038781D1*
X1952506Y1033817D1*
X1955917Y1028252D1*
X1958414Y1022222D1*
X1959938Y1015876D1*
X1960450Y1009369D1*
X1959938Y1002862D1*
X1958414Y996515D1*
X1955917Y990485D1*
X1952506Y984920D1*
X1948267Y979957D1*
X1943304Y975718D1*
X1937739Y972308D1*
X1931709Y969810D1*
X1925362Y968286D1*
X1918856Y967774D1*
X1912349Y968286D1*
X1906002Y969810D1*
X1899972Y972308D1*
X1894407Y975718D1*
X1889444Y979957D1*
X1885205Y984920D1*
X1881795Y990485D1*
X1879297Y996515D1*
X1877773Y1002862D1*
X1877333Y1011192D1*
X1871820Y1016678D1*
X1832034Y1016684D1*
X1833657Y1009975D1*
X1834169Y1003469D1*
X1833657Y996962D1*
X1832134Y990615D1*
X1829636Y984585D1*
X1826225Y979020D1*
X1821987Y974057D1*
X1817023Y969818D1*
X1811458Y966408D1*
X1805428Y963910D1*
X1799082Y962386D1*
X1792575Y961874D1*
X1786068Y962386D1*
X1779721Y963910D1*
X1773691Y966408D1*
X1768126Y969818D1*
X1761925Y975396D1*
X1632663Y975378D1*
X1998973Y524718D1*
X2001346Y520230D1*
X2002605Y515313D1*
X2002795Y499951D1*
Y431151D1*
X2881219Y431219D1*
X2881295Y484100D1*
X2872610Y473846D1*
X2862882Y465538D1*
X2851974Y458853D1*
X2840154Y453957D1*
X2827715Y450971D1*
X2814961Y449967D1*
X2802207Y450971D1*
X2789767Y453957D1*
X2777947Y458853D1*
X2767039Y465538D1*
X2757311Y473846D1*
X2749002Y483575D1*
X2742318Y494483D1*
X2737422Y506302D1*
X2734436Y518742D1*
X2733432Y531496D1*
X2734436Y544250D1*
X2737422Y556690D1*
X2742318Y568509D1*
X2749002Y579418D1*
X2757311Y589146D1*
X2767039Y597454D1*
X2777947Y604139D1*
X2789767Y609035D1*
X2802207Y612021D1*
X2814961Y613025D1*
X2827715Y612021D1*
X2840154Y609035D1*
X2851974Y604139D1*
X2862882Y597454D1*
X2872610Y589146D1*
X2880919Y579418D1*
X2881433Y578648D1*
X2882603Y1391521D1*
X2876956Y1384059D1*
X2867909Y1375013D1*
X2857559Y1367493D1*
X2846160Y1361685D1*
X2833993Y1357732D1*
X2821357Y1355730D1*
X2808564D1*
X2795928Y1357732D1*
X2783761Y1361685D1*
X2772362Y1367493D1*
X2762012Y1375013D1*
X2752966Y1384059D1*
X2745446Y1394409D1*
X2739638Y1405808D1*
X2735684Y1417975D1*
X2733683Y1430611D1*
Y1443405D1*
X2735684Y1456040D1*
X2739638Y1468208D1*
X2745446Y1479607D1*
X2752966Y1489957D1*
X2762012Y1499003D1*
X2772362Y1506523D1*
X2783761Y1512331D1*
X2795928Y1516284D1*
X2808564Y1518285D1*
X2821357D1*
X2833993Y1516284D1*
X2846160Y1512331D1*
X2857559Y1506523D1*
X2867909Y1499003D1*
X2876956Y1489957D1*
X2882739Y1482206D1*
X2882804Y1531364D1*
X2644786Y1531333D1*
X2652213Y1526901D1*
X2658096Y1521876D1*
X2663122Y1515992D1*
X2667165Y1509395D1*
X2670126Y1502246D1*
X2671932Y1494722D1*
X2672539Y1487008D1*
X2671932Y1479294D1*
X2670126Y1471770D1*
X2667165Y1464621D1*
X2663122Y1458024D1*
X2658096Y1452140D1*
X2652213Y1447115D1*
X2645615Y1443072D1*
X2638466Y1440110D1*
X2630942Y1438304D1*
X2623228Y1437697D1*
X2615514Y1438304D1*
X2607990Y1440110D1*
X2600842Y1443072D1*
X2594244Y1447115D1*
X2588360Y1452140D1*
X2583335Y1458024D1*
X2579292Y1464621D1*
X2576331Y1471770D1*
X2574525Y1479294D1*
X2573917Y1487008D1*
X2574525Y1494722D1*
X2576331Y1502246D1*
X2579292Y1509395D1*
X2583335Y1515992D1*
X2588360Y1521876D1*
X2594244Y1526901D1*
X2601707Y1531343D1*
X2544884Y1531327D1*
X2552213Y1526901D1*
X2558096Y1521876D1*
X2563122Y1515992D1*
X2567165Y1509395D1*
X2570126Y1502246D1*
X2571932Y1494722D1*
X2572539Y1487008D1*
X2571932Y1479294D1*
X2570126Y1471770D1*
X2567165Y1464621D1*
X2563122Y1458024D1*
X2558096Y1452140D1*
X2552213Y1447115D1*
X2545615Y1443072D1*
X2538466Y1440110D1*
X2530942Y1438304D1*
X2523228Y1437697D1*
X2515514Y1438304D1*
X2507990Y1440110D1*
X2500842Y1443072D1*
X2494244Y1447115D1*
X2488360Y1452140D1*
X2483335Y1458024D1*
X2479292Y1464621D1*
X2476331Y1471770D1*
X2474525Y1479294D1*
X2473917Y1487008D1*
X2474525Y1494722D1*
X2476331Y1502246D1*
X2479292Y1509395D1*
X2483335Y1515992D1*
X2488360Y1521876D1*
X2494244Y1526901D1*
X2501707Y1531343D1*
X2444884Y1531321D1*
X2452213Y1526901D1*
X2458096Y1521876D1*
X2463122Y1515992D1*
X2467165Y1509395D1*
X2470126Y1502246D1*
X2471932Y1494722D1*
X2472539Y1487008D1*
X2471932Y1479294D1*
X2470126Y1471770D1*
X2467165Y1464621D1*
X2463122Y1458024D1*
X2458096Y1452140D1*
X2452213Y1447115D1*
X2445615Y1443072D1*
X2438466Y1440110D1*
X2430942Y1438304D1*
X2423228Y1437697D1*
X2415514Y1438304D1*
X2407990Y1440110D1*
X2400842Y1443072D1*
X2394244Y1447115D1*
X2388360Y1452140D1*
X2383335Y1458024D1*
X2379292Y1464621D1*
X2376331Y1471770D1*
X2374525Y1479294D1*
X2373917Y1487008D1*
X2374525Y1494722D1*
X2376331Y1502246D1*
X2379292Y1509395D1*
X2383335Y1515992D1*
X2388360Y1521876D1*
X2394244Y1526901D1*
X2401680Y1531330D1*
X2244884Y1531309D1*
X2252213Y1526901D1*
X2258096Y1521876D1*
X2263122Y1515992D1*
X2267165Y1509395D1*
X2270126Y1502246D1*
X2271932Y1494722D1*
X2272539Y1487008D1*
X2271932Y1479294D1*
X2270126Y1471770D1*
X2267165Y1464621D1*
X2263122Y1458024D1*
X2258096Y1452140D1*
X2252213Y1447115D1*
X2245615Y1443072D1*
X2238466Y1440110D1*
X2230942Y1438304D1*
X2223228Y1437697D1*
X2215514Y1438304D1*
X2207990Y1440110D1*
X2200842Y1443072D1*
X2194244Y1447115D1*
X2188360Y1452140D1*
X2183335Y1458024D1*
X2179292Y1464621D1*
X2176331Y1471770D1*
X2174525Y1479294D1*
X2173917Y1487008D1*
X2174525Y1494722D1*
X2176331Y1502246D1*
X2179292Y1509395D1*
X2183335Y1515992D1*
X2188360Y1521876D1*
X2194244Y1526901D1*
X2201652Y1531318D1*
X2044884Y1531297D1*
X2052213Y1526901D1*
X2058096Y1521876D1*
X2063122Y1515992D1*
X2067165Y1509395D1*
X2070126Y1502246D1*
X2071932Y1494722D1*
X2072539Y1487008D1*
X2071932Y1479294D1*
X2070126Y1471770D1*
X2067165Y1464621D1*
X2063122Y1458024D1*
X2058096Y1452140D1*
X2052213Y1447115D1*
X2045615Y1443072D1*
X2038466Y1440110D1*
X2030942Y1438304D1*
X2023228Y1437697D1*
X2015514Y1438304D1*
X2007990Y1440110D1*
X2000842Y1443072D1*
X1994244Y1447115D1*
X1988360Y1452140D1*
X1983335Y1458024D1*
X1979292Y1464621D1*
X1976331Y1471770D1*
X1974525Y1479294D1*
X1973917Y1487008D1*
X1974525Y1494722D1*
X1976331Y1502246D1*
X1979292Y1509395D1*
X1983335Y1515992D1*
X1988360Y1521876D1*
X1994244Y1526901D1*
X2001625Y1531305D1*
X1944884Y1531291D1*
X1952213Y1526901D1*
X1958096Y1521876D1*
X1963122Y1515992D1*
X1967165Y1509395D1*
X1970126Y1502246D1*
X1971932Y1494722D1*
X1972539Y1487008D1*
X1971932Y1479294D1*
X1970126Y1471770D1*
X1967165Y1464621D1*
X1963122Y1458024D1*
X1958096Y1452140D1*
X1952213Y1447115D1*
X1945615Y1443072D1*
X1938466Y1440110D1*
X1930942Y1438304D1*
X1923228Y1437697D1*
X1915514Y1438304D1*
X1907990Y1440110D1*
X1900842Y1443072D1*
X1894244Y1447115D1*
X1888360Y1452140D1*
X1883335Y1458024D1*
X1879292Y1464621D1*
X1876331Y1471770D1*
X1874525Y1479294D1*
X1873917Y1487008D1*
X1874525Y1494722D1*
X1876331Y1502246D1*
X1879292Y1509395D1*
X1883335Y1515992D1*
X1888360Y1521876D1*
X1894244Y1526901D1*
X1901625Y1531305D1*
X1844981Y1531285D1*
X1852213Y1526901D1*
X1858096Y1521876D1*
X1863122Y1515992D1*
X1867165Y1509395D1*
X1870126Y1502246D1*
X1871932Y1494722D1*
X1872539Y1487008D1*
X1871932Y1479294D1*
X1870126Y1471770D1*
X1867165Y1464621D1*
X1863122Y1458024D1*
X1858096Y1452140D1*
X1852213Y1447115D1*
X1845615Y1443072D1*
X1838466Y1440110D1*
X1830942Y1438304D1*
X1823228Y1437697D1*
X1815514Y1438304D1*
X1807990Y1440110D1*
X1800842Y1443072D1*
X1794244Y1447115D1*
X1788360Y1452140D1*
X1783335Y1458024D1*
X1779292Y1464621D1*
X1776331Y1471770D1*
X1774525Y1479294D1*
X1773917Y1487008D1*
X1774525Y1494722D1*
X1776331Y1502246D1*
X1779292Y1509395D1*
X1783335Y1515992D1*
X1788360Y1521876D1*
X1794244Y1526901D1*
X1801597Y1531292D1*
X1744981Y1531279D1*
X1752213Y1526901D1*
X1758096Y1521876D1*
X1763122Y1515992D1*
X1767165Y1509395D1*
X1770126Y1502246D1*
X1771932Y1494722D1*
X1772539Y1487008D1*
X1771932Y1479294D1*
X1770126Y1471770D1*
X1767165Y1464621D1*
X1763122Y1458024D1*
X1758096Y1452140D1*
X1752213Y1447115D1*
X1745615Y1443072D1*
X1738466Y1440110D1*
X1730942Y1438304D1*
X1723228Y1437697D1*
X1715514Y1438304D1*
X1707990Y1440110D1*
X1700842Y1443072D1*
X1694244Y1447115D1*
X1688360Y1452140D1*
X1683335Y1458024D1*
X1679292Y1464621D1*
X1676331Y1471770D1*
X1674525Y1479294D1*
X1673917Y1487008D1*
X1674525Y1494722D1*
X1676331Y1502246D1*
X1679292Y1509395D1*
X1683335Y1515992D1*
X1688360Y1521876D1*
X1694244Y1526901D1*
X1701597Y1531292D1*
X1544981Y1531267D1*
X1552213Y1526901D1*
X1558096Y1521876D1*
X1563122Y1515992D1*
X1567165Y1509395D1*
X1570126Y1502246D1*
X1571932Y1494722D1*
X1572539Y1487008D1*
X1571932Y1479294D1*
X1570126Y1471770D1*
X1567165Y1464621D1*
X1563122Y1458024D1*
X1558096Y1452140D1*
X1552213Y1447115D1*
X1545615Y1443072D1*
X1538466Y1440110D1*
X1530942Y1438304D1*
X1523228Y1437697D1*
X1515514Y1438304D1*
X1507990Y1440110D1*
X1500842Y1443072D1*
X1494244Y1447115D1*
X1488360Y1452140D1*
X1483335Y1458024D1*
X1479292Y1464621D1*
X1476331Y1471770D1*
X1474525Y1479294D1*
X1473917Y1487008D1*
X1474525Y1494722D1*
X1476331Y1502246D1*
X1479292Y1509395D1*
X1483335Y1515992D1*
X1488360Y1521876D1*
X1494244Y1526901D1*
X1501570Y1531280D1*
X1444981Y1531261D1*
X1452213Y1526901D1*
X1458096Y1521876D1*
X1463122Y1515992D1*
X1467165Y1509395D1*
X1470126Y1502246D1*
X1471932Y1494722D1*
X1472539Y1487008D1*
X1471932Y1479294D1*
X1470126Y1471770D1*
X1467165Y1464621D1*
X1463122Y1458024D1*
X1458096Y1452140D1*
X1452213Y1447115D1*
X1445615Y1443072D1*
X1438466Y1440110D1*
X1430942Y1438304D1*
X1423228Y1437697D1*
X1415514Y1438304D1*
X1407990Y1440110D1*
X1400842Y1443072D1*
X1394244Y1447115D1*
X1388360Y1452140D1*
X1383335Y1458024D1*
X1379292Y1464621D1*
X1376331Y1471770D1*
X1374525Y1479294D1*
X1373917Y1487008D1*
X1374525Y1494722D1*
X1376331Y1502246D1*
X1379292Y1509395D1*
X1383335Y1515992D1*
X1388360Y1521876D1*
X1394244Y1526901D1*
X1401542Y1531267D1*
X1244981Y1531249D1*
X1252213Y1526901D1*
X1258096Y1521876D1*
X1263122Y1515992D1*
X1267165Y1509395D1*
X1270126Y1502246D1*
X1271932Y1494722D1*
X1272539Y1487008D1*
X1271932Y1479294D1*
X1270126Y1471770D1*
X1267165Y1464621D1*
X1263122Y1458024D1*
X1258096Y1452140D1*
X1252213Y1447115D1*
X1245615Y1443072D1*
X1238466Y1440110D1*
X1230942Y1438304D1*
X1223228Y1437697D1*
X1215514Y1438304D1*
X1207990Y1440110D1*
X1200842Y1443072D1*
X1194244Y1447115D1*
X1188360Y1452140D1*
X1183335Y1458024D1*
X1179292Y1464621D1*
X1176331Y1471770D1*
X1174525Y1479294D1*
X1173917Y1487008D1*
X1174525Y1494722D1*
X1176331Y1502246D1*
X1179292Y1509395D1*
X1183335Y1515992D1*
X1188360Y1521876D1*
X1194244Y1526901D1*
X1201515Y1531254D1*
X1144981Y1531243D1*
X1152213Y1526901D1*
X1158096Y1521876D1*
X1163122Y1515992D1*
X1167165Y1509395D1*
X1170126Y1502246D1*
X1171932Y1494722D1*
X1172539Y1487008D1*
X1171932Y1479294D1*
X1170126Y1471770D1*
X1167165Y1464621D1*
X1163122Y1458024D1*
X1158096Y1452140D1*
X1152213Y1447115D1*
X1145615Y1443072D1*
X1138466Y1440110D1*
X1130942Y1438304D1*
X1123228Y1437697D1*
X1115514Y1438304D1*
X1107990Y1440110D1*
X1100842Y1443072D1*
X1094244Y1447115D1*
X1088360Y1452140D1*
X1083335Y1458024D1*
X1079292Y1464621D1*
X1076331Y1471770D1*
X1074525Y1479294D1*
X1073917Y1487008D1*
X1074525Y1494722D1*
X1076331Y1502246D1*
X1079292Y1509395D1*
X1083335Y1515992D1*
X1088360Y1521876D1*
X1094244Y1526901D1*
X1101515Y1531254D1*
X1045079Y1531237D1*
X1052213Y1526901D1*
X1058096Y1521876D1*
X1063122Y1515992D1*
X1067165Y1509395D1*
X1070126Y1502246D1*
X1071932Y1494722D1*
X1072539Y1487008D1*
X1071932Y1479294D1*
X1070126Y1471770D1*
X1067165Y1464621D1*
X1063122Y1458024D1*
X1058096Y1452140D1*
X1052213Y1447115D1*
X1045615Y1443072D1*
X1038466Y1440110D1*
X1030942Y1438304D1*
X1023228Y1437697D1*
X1015514Y1438304D1*
X1007990Y1440110D1*
X1000842Y1443072D1*
X994244Y1447115D1*
X988360Y1452140D1*
X983335Y1458024D1*
X979292Y1464621D1*
X976331Y1471770D1*
X974525Y1479294D1*
X973917Y1487008D1*
X974525Y1494722D1*
X976331Y1502246D1*
X979292Y1509395D1*
X983335Y1515992D1*
X988360Y1521876D1*
X994244Y1526901D1*
X1001487Y1531242D1*
X845615Y1530944D1*
X852213Y1526901D1*
X858096Y1521876D1*
X863122Y1515992D1*
X867165Y1509395D1*
X870126Y1502246D1*
X871932Y1494722D1*
X872539Y1487008D1*
X871932Y1479294D1*
X870126Y1471770D1*
X867165Y1464621D1*
X863122Y1458024D1*
X858096Y1452140D1*
X852213Y1447115D1*
X845615Y1443072D1*
X838466Y1440110D1*
X830942Y1438304D1*
X823228Y1437697D1*
X815514Y1438304D1*
X807990Y1440110D1*
X800842Y1443072D1*
X794244Y1447115D1*
X788360Y1452140D1*
X783335Y1458024D1*
X779292Y1464621D1*
X776331Y1471770D1*
X774525Y1479294D1*
X773917Y1487008D1*
X774525Y1494722D1*
X776331Y1502246D1*
X779292Y1509395D1*
X783335Y1515992D1*
X788360Y1521876D1*
X794244Y1526901D1*
X801460Y1531229D1*
X745615Y1530944D1*
X752213Y1526901D1*
X758096Y1521876D1*
X763122Y1515992D1*
X767165Y1509395D1*
X770126Y1502246D1*
X771932Y1494722D1*
X772539Y1487008D1*
X771932Y1479294D1*
X770126Y1471770D1*
X767165Y1464621D1*
X763122Y1458024D1*
X758096Y1452140D1*
X752213Y1447115D1*
X745615Y1443072D1*
X738466Y1440110D1*
X729846Y1438174D1*
X739172Y1436077D1*
X746652Y1432979D1*
X753555Y1428749D1*
X759711Y1423491D1*
X764969Y1417334D1*
X769199Y1410431D1*
X772298Y1402951D1*
X774361Y1393618D1*
X776331Y1402246D1*
X779292Y1409395D1*
X783335Y1415992D1*
X788360Y1421876D1*
X794244Y1426901D1*
X800842Y1430944D1*
X807990Y1433905D1*
X815514Y1435712D1*
X823228Y1436319D1*
X830942Y1435712D1*
X838466Y1433905D1*
X845615Y1430944D1*
X852213Y1426901D1*
X858096Y1421876D1*
X863122Y1415992D1*
X867165Y1409395D1*
X870126Y1402246D1*
X871932Y1394722D1*
X872539Y1387008D1*
X871932Y1379294D1*
X870126Y1371770D1*
X867165Y1364621D1*
X863122Y1358024D1*
X858096Y1352140D1*
X852213Y1347115D1*
X845615Y1343072D1*
X838466Y1340110D1*
X830942Y1338304D1*
X823228Y1337697D1*
X815514Y1338304D1*
X807990Y1340110D1*
X800842Y1343072D1*
X794244Y1347115D1*
X788360Y1352140D1*
X783335Y1358024D1*
X779292Y1364621D1*
X776331Y1371770D1*
X774395Y1380390D1*
X772298Y1371064D1*
X769199Y1363584D1*
X764969Y1356681D1*
X759711Y1350525D1*
X753555Y1345267D1*
X746652Y1341037D1*
X739172Y1337939D1*
X731300Y1336049D1*
X723228Y1335413D1*
X715157Y1336049D1*
X707285Y1337939D1*
X699805Y1341037D1*
X692902Y1345267D1*
X686746Y1350525D1*
X681488Y1356681D1*
X677257Y1363584D1*
X674159Y1371064D1*
X672269Y1378937D1*
X671634Y1387008D1*
X672269Y1395079D1*
X674159Y1402951D1*
X677257Y1410431D1*
X681488Y1417334D1*
X686746Y1423491D1*
X692902Y1428749D1*
X699805Y1432979D1*
X707285Y1436077D1*
X716619Y1438140D1*
X707990Y1440110D1*
X700842Y1443072D1*
X694244Y1447115D1*
X688360Y1452140D1*
X683335Y1458024D1*
X679292Y1464621D1*
X676331Y1471770D1*
X674525Y1479294D1*
X673917Y1487008D1*
X674525Y1494722D1*
X676331Y1502246D1*
X679292Y1509395D1*
X683335Y1515992D1*
X688360Y1521876D1*
X694244Y1526901D1*
X701460Y1531229D1*
X456201Y1531201D1*
Y1445117D1*
X457860Y1454686D1*
X461532Y1465988D1*
X466927Y1476576D1*
X473912Y1486190D1*
X482314Y1494592D1*
X491928Y1501577D1*
X502516Y1506972D1*
X513818Y1510644D1*
X525554Y1512503D1*
X537438D1*
X549174Y1510644D1*
X560476Y1506972D1*
X571064Y1501577D1*
X580678Y1494592D1*
X589080Y1486190D1*
X596065Y1476576D1*
X601460Y1465988D1*
X605132Y1454686D1*
X606991Y1442949D1*
Y1431066D1*
X972387Y1383139D2*
X971177Y1375496D1*
X968786Y1368137D1*
X965273Y1361243D1*
X960725Y1354983D1*
X955253Y1349512D1*
X948993Y1344963D1*
X942099Y1341451D1*
X934740Y1339059D1*
X927097Y1337849D1*
X919359D1*
X911717Y1339059D1*
X904358Y1341451D1*
X897463Y1344963D1*
X891204Y1349512D1*
X885732Y1354983D1*
X881184Y1361243D1*
X877671Y1368137D1*
X875280Y1375496D1*
X874070Y1383139D1*
Y1390877D1*
X875280Y1398519D1*
X877671Y1405878D1*
X881184Y1412773D1*
X885732Y1419033D1*
X891204Y1424504D1*
X897463Y1429052D1*
X904358Y1432565D1*
X911717Y1434956D1*
X919359Y1436167D1*
X927097D1*
X934740Y1434956D1*
X942099Y1432565D1*
X948993Y1429052D1*
X955253Y1424504D1*
X960725Y1419033D1*
X965273Y1412773D1*
X968786Y1405878D1*
X971177Y1398519D1*
X972387Y1390877D1*
Y1383139D1*
X1072387D2*
X1071177Y1375496D1*
X1068786Y1368137D1*
X1065273Y1361243D1*
X1060725Y1354983D1*
X1055253Y1349512D1*
X1048993Y1344963D1*
X1042099Y1341451D1*
X1034740Y1339059D1*
X1027097Y1337849D1*
X1019359D1*
X1011717Y1339059D1*
X1004358Y1341451D1*
X997463Y1344963D1*
X991204Y1349512D1*
X985732Y1354983D1*
X981184Y1361243D1*
X977671Y1368137D1*
X975280Y1375496D1*
X974070Y1383139D1*
Y1390877D1*
X975280Y1398519D1*
X977671Y1405878D1*
X981184Y1412773D1*
X985732Y1419033D1*
X991204Y1424504D1*
X997463Y1429052D1*
X1004358Y1432565D1*
X1011717Y1434956D1*
X1019359Y1436167D1*
X1027097D1*
X1034740Y1434956D1*
X1042099Y1432565D1*
X1048993Y1429052D1*
X1055253Y1424504D1*
X1060725Y1419033D1*
X1065273Y1412773D1*
X1068786Y1405878D1*
X1071177Y1398519D1*
X1072387Y1390877D1*
Y1383139D1*
X1272387D2*
X1271177Y1375496D1*
X1268786Y1368137D1*
X1265273Y1361243D1*
X1260725Y1354983D1*
X1255253Y1349512D1*
X1248993Y1344963D1*
X1242099Y1341451D1*
X1234740Y1339059D1*
X1227097Y1337849D1*
X1219359D1*
X1211717Y1339059D1*
X1204358Y1341451D1*
X1197463Y1344963D1*
X1191204Y1349512D1*
X1185732Y1354983D1*
X1181184Y1361243D1*
X1177671Y1368137D1*
X1175280Y1375496D1*
X1174070Y1383139D1*
Y1390877D1*
X1175280Y1398519D1*
X1177671Y1405878D1*
X1181184Y1412773D1*
X1185732Y1419033D1*
X1191204Y1424504D1*
X1197463Y1429052D1*
X1204358Y1432565D1*
X1211717Y1434956D1*
X1219359Y1436167D1*
X1227097D1*
X1234740Y1434956D1*
X1242099Y1432565D1*
X1248993Y1429052D1*
X1255253Y1424504D1*
X1260725Y1419033D1*
X1265273Y1412773D1*
X1268786Y1405878D1*
X1271177Y1398519D1*
X1272387Y1390877D1*
Y1383139D1*
X1372387D2*
X1371177Y1375496D1*
X1368786Y1368137D1*
X1365273Y1361243D1*
X1360725Y1354983D1*
X1355253Y1349512D1*
X1348993Y1344963D1*
X1342099Y1341451D1*
X1334740Y1339059D1*
X1327097Y1337849D1*
X1319359D1*
X1311717Y1339059D1*
X1304358Y1341451D1*
X1297463Y1344963D1*
X1291204Y1349512D1*
X1285732Y1354983D1*
X1281184Y1361243D1*
X1277671Y1368137D1*
X1275280Y1375496D1*
X1274070Y1383139D1*
Y1390877D1*
X1275280Y1398519D1*
X1277671Y1405878D1*
X1281184Y1412773D1*
X1285732Y1419033D1*
X1291204Y1424504D1*
X1297463Y1429052D1*
X1304358Y1432565D1*
X1311717Y1434956D1*
X1319359Y1436167D1*
X1327097D1*
X1334740Y1434956D1*
X1342099Y1432565D1*
X1348993Y1429052D1*
X1355253Y1424504D1*
X1360725Y1419033D1*
X1365273Y1412773D1*
X1368786Y1405878D1*
X1371177Y1398519D1*
X1372387Y1390877D1*
Y1383139D1*
X1472387D2*
X1471177Y1375496D1*
X1468786Y1368137D1*
X1465273Y1361243D1*
X1460725Y1354983D1*
X1455253Y1349512D1*
X1448993Y1344963D1*
X1442099Y1341451D1*
X1434740Y1339059D1*
X1427097Y1337849D1*
X1419359D1*
X1411717Y1339059D1*
X1404358Y1341451D1*
X1397463Y1344963D1*
X1391204Y1349512D1*
X1385732Y1354983D1*
X1381184Y1361243D1*
X1377671Y1368137D1*
X1375280Y1375496D1*
X1374070Y1383139D1*
Y1390877D1*
X1375280Y1398519D1*
X1377671Y1405878D1*
X1381184Y1412773D1*
X1385732Y1419033D1*
X1391204Y1424504D1*
X1397463Y1429052D1*
X1404358Y1432565D1*
X1411717Y1434956D1*
X1419359Y1436167D1*
X1427097D1*
X1434740Y1434956D1*
X1442099Y1432565D1*
X1448993Y1429052D1*
X1455253Y1424504D1*
X1460725Y1419033D1*
X1465273Y1412773D1*
X1468786Y1405878D1*
X1471177Y1398519D1*
X1472387Y1390877D1*
Y1383139D1*
X1572387D2*
X1571177Y1375496D1*
X1568786Y1368137D1*
X1565273Y1361243D1*
X1560725Y1354983D1*
X1555253Y1349512D1*
X1548993Y1344963D1*
X1542099Y1341451D1*
X1534740Y1339059D1*
X1527097Y1337849D1*
X1519359D1*
X1511717Y1339059D1*
X1504358Y1341451D1*
X1497463Y1344963D1*
X1491204Y1349512D1*
X1485732Y1354983D1*
X1481184Y1361243D1*
X1477671Y1368137D1*
X1475280Y1375496D1*
X1474070Y1383139D1*
Y1390877D1*
X1475280Y1398519D1*
X1477671Y1405878D1*
X1481184Y1412773D1*
X1485732Y1419033D1*
X1491204Y1424504D1*
X1497463Y1429052D1*
X1504358Y1432565D1*
X1511717Y1434956D1*
X1519359Y1436167D1*
X1527097D1*
X1534740Y1434956D1*
X1542099Y1432565D1*
X1548993Y1429052D1*
X1555253Y1424504D1*
X1560725Y1419033D1*
X1565273Y1412773D1*
X1568786Y1405878D1*
X1571177Y1398519D1*
X1572387Y1390877D1*
Y1383139D1*
X1672387D2*
X1671177Y1375496D1*
X1668786Y1368137D1*
X1665273Y1361243D1*
X1660725Y1354983D1*
X1655253Y1349512D1*
X1648993Y1344963D1*
X1642099Y1341451D1*
X1634740Y1339059D1*
X1627097Y1337849D1*
X1619359D1*
X1611717Y1339059D1*
X1604358Y1341451D1*
X1597463Y1344963D1*
X1591204Y1349512D1*
X1585732Y1354983D1*
X1581184Y1361243D1*
X1577671Y1368137D1*
X1575280Y1375496D1*
X1574070Y1383139D1*
Y1390877D1*
X1575280Y1398519D1*
X1577671Y1405878D1*
X1581184Y1412773D1*
X1585732Y1419033D1*
X1591204Y1424504D1*
X1597463Y1429052D1*
X1604358Y1432565D1*
X1611717Y1434956D1*
X1619359Y1436167D1*
X1627097D1*
X1634740Y1434956D1*
X1642099Y1432565D1*
X1648993Y1429052D1*
X1655253Y1424504D1*
X1660725Y1419033D1*
X1665273Y1412773D1*
X1668786Y1405878D1*
X1671177Y1398519D1*
X1672387Y1390877D1*
Y1383139D1*
X1772387D2*
X1771177Y1375496D1*
X1768786Y1368137D1*
X1765273Y1361243D1*
X1760725Y1354983D1*
X1755253Y1349512D1*
X1748993Y1344963D1*
X1742099Y1341451D1*
X1734740Y1339059D1*
X1727097Y1337849D1*
X1719359D1*
X1711717Y1339059D1*
X1704358Y1341451D1*
X1697463Y1344963D1*
X1691204Y1349512D1*
X1685732Y1354983D1*
X1681184Y1361243D1*
X1677671Y1368137D1*
X1675280Y1375496D1*
X1674070Y1383139D1*
Y1390877D1*
X1675280Y1398519D1*
X1677671Y1405878D1*
X1681184Y1412773D1*
X1685732Y1419033D1*
X1691204Y1424504D1*
X1697463Y1429052D1*
X1704358Y1432565D1*
X1711717Y1434956D1*
X1719359Y1436167D1*
X1727097D1*
X1734740Y1434956D1*
X1742099Y1432565D1*
X1748993Y1429052D1*
X1755253Y1424504D1*
X1760725Y1419033D1*
X1765273Y1412773D1*
X1768786Y1405878D1*
X1771177Y1398519D1*
X1772387Y1390877D1*
Y1383139D1*
X1872387D2*
X1871177Y1375496D1*
X1868786Y1368137D1*
X1865273Y1361243D1*
X1860725Y1354983D1*
X1855253Y1349512D1*
X1848993Y1344963D1*
X1842099Y1341451D1*
X1834740Y1339059D1*
X1827097Y1337849D1*
X1819359D1*
X1811717Y1339059D1*
X1804358Y1341451D1*
X1797463Y1344963D1*
X1791204Y1349512D1*
X1785732Y1354983D1*
X1781184Y1361243D1*
X1777671Y1368137D1*
X1775280Y1375496D1*
X1774070Y1383139D1*
Y1390877D1*
X1775280Y1398519D1*
X1777671Y1405878D1*
X1781184Y1412773D1*
X1785732Y1419033D1*
X1791204Y1424504D1*
X1797463Y1429052D1*
X1804358Y1432565D1*
X1811717Y1434956D1*
X1819359Y1436167D1*
X1827097D1*
X1834740Y1434956D1*
X1842099Y1432565D1*
X1848993Y1429052D1*
X1855253Y1424504D1*
X1860725Y1419033D1*
X1865273Y1412773D1*
X1868786Y1405878D1*
X1871177Y1398519D1*
X1872387Y1390877D1*
Y1383139D1*
X2072387D2*
X2071177Y1375496D1*
X2068786Y1368137D1*
X2065273Y1361243D1*
X2060725Y1354983D1*
X2055253Y1349512D1*
X2048993Y1344963D1*
X2042099Y1341451D1*
X2034740Y1339059D1*
X2027097Y1337849D1*
X2019359D1*
X2011717Y1339059D1*
X2004358Y1341451D1*
X1997463Y1344963D1*
X1991204Y1349512D1*
X1985732Y1354983D1*
X1981184Y1361243D1*
X1977671Y1368137D1*
X1975280Y1375496D1*
X1974070Y1383139D1*
Y1390877D1*
X1975280Y1398519D1*
X1977671Y1405878D1*
X1981184Y1412773D1*
X1985732Y1419033D1*
X1991204Y1424504D1*
X1997463Y1429052D1*
X2004358Y1432565D1*
X2011717Y1434956D1*
X2019359Y1436167D1*
X2027097D1*
X2034740Y1434956D1*
X2042099Y1432565D1*
X2048993Y1429052D1*
X2055253Y1424504D1*
X2060725Y1419033D1*
X2065273Y1412773D1*
X2068786Y1405878D1*
X2071177Y1398519D1*
X2072387Y1390877D1*
Y1383139D1*
X2172387D2*
X2171177Y1375496D1*
X2168786Y1368137D1*
X2165273Y1361243D1*
X2160725Y1354983D1*
X2155253Y1349512D1*
X2148993Y1344963D1*
X2142099Y1341451D1*
X2134740Y1339059D1*
X2127097Y1337849D1*
X2119359D1*
X2111717Y1339059D1*
X2104358Y1341451D1*
X2097463Y1344963D1*
X2091204Y1349512D1*
X2085732Y1354983D1*
X2081184Y1361243D1*
X2077671Y1368137D1*
X2075280Y1375496D1*
X2074070Y1383139D1*
Y1390877D1*
X2075280Y1398519D1*
X2077671Y1405878D1*
X2081184Y1412773D1*
X2085732Y1419033D1*
X2091204Y1424504D1*
X2097463Y1429052D1*
X2104358Y1432565D1*
X2111717Y1434956D1*
X2119359Y1436167D1*
X2127097D1*
X2134740Y1434956D1*
X2142099Y1432565D1*
X2148993Y1429052D1*
X2155253Y1424504D1*
X2160725Y1419033D1*
X2165273Y1412773D1*
X2168786Y1405878D1*
X2171177Y1398519D1*
X2172387Y1390877D1*
Y1383139D1*
X2272387D2*
X2271177Y1375496D1*
X2268786Y1368137D1*
X2265273Y1361243D1*
X2260725Y1354983D1*
X2255253Y1349512D1*
X2248993Y1344963D1*
X2242099Y1341451D1*
X2234740Y1339059D1*
X2227097Y1337849D1*
X2219359D1*
X2211717Y1339059D1*
X2204358Y1341451D1*
X2197463Y1344963D1*
X2191204Y1349512D1*
X2185732Y1354983D1*
X2181184Y1361243D1*
X2177671Y1368137D1*
X2175280Y1375496D1*
X2174070Y1383139D1*
Y1390877D1*
X2175280Y1398519D1*
X2177671Y1405878D1*
X2181184Y1412773D1*
X2185732Y1419033D1*
X2191204Y1424504D1*
X2197463Y1429052D1*
X2204358Y1432565D1*
X2211717Y1434956D1*
X2219359Y1436167D1*
X2227097D1*
X2234740Y1434956D1*
X2242099Y1432565D1*
X2248993Y1429052D1*
X2255253Y1424504D1*
X2260725Y1419033D1*
X2265273Y1412773D1*
X2268786Y1405878D1*
X2271177Y1398519D1*
X2272387Y1390877D1*
Y1383139D1*
X2372387D2*
X2371177Y1375496D1*
X2368786Y1368137D1*
X2365273Y1361243D1*
X2360725Y1354983D1*
X2355253Y1349512D1*
X2348993Y1344963D1*
X2342099Y1341451D1*
X2334740Y1339059D1*
X2327097Y1337849D1*
X2319359D1*
X2311717Y1339059D1*
X2304358Y1341451D1*
X2297463Y1344963D1*
X2291204Y1349512D1*
X2285732Y1354983D1*
X2281184Y1361243D1*
X2277671Y1368137D1*
X2275280Y1375496D1*
X2274070Y1383139D1*
Y1390877D1*
X2275280Y1398519D1*
X2277671Y1405878D1*
X2281184Y1412773D1*
X2285732Y1419033D1*
X2291204Y1424504D1*
X2297463Y1429052D1*
X2304358Y1432565D1*
X2311717Y1434956D1*
X2319359Y1436167D1*
X2327097D1*
X2334740Y1434956D1*
X2342099Y1432565D1*
X2348993Y1429052D1*
X2355253Y1424504D1*
X2360725Y1419033D1*
X2365273Y1412773D1*
X2368786Y1405878D1*
X2371177Y1398519D1*
X2372387Y1390877D1*
Y1383139D1*
X2472387D2*
X2471177Y1375496D1*
X2468786Y1368137D1*
X2465273Y1361243D1*
X2460725Y1354983D1*
X2455253Y1349512D1*
X2448993Y1344963D1*
X2442099Y1341451D1*
X2434740Y1339059D1*
X2427097Y1337849D1*
X2419359D1*
X2411717Y1339059D1*
X2404358Y1341451D1*
X2397463Y1344963D1*
X2391204Y1349512D1*
X2385732Y1354983D1*
X2381184Y1361243D1*
X2377671Y1368137D1*
X2375280Y1375496D1*
X2374070Y1383139D1*
Y1390877D1*
X2375280Y1398519D1*
X2377671Y1405878D1*
X2381184Y1412773D1*
X2385732Y1419033D1*
X2391204Y1424504D1*
X2397463Y1429052D1*
X2404358Y1432565D1*
X2411717Y1434956D1*
X2419359Y1436167D1*
X2427097D1*
X2434740Y1434956D1*
X2442099Y1432565D1*
X2448993Y1429052D1*
X2455253Y1424504D1*
X2460725Y1419033D1*
X2465273Y1412773D1*
X2468786Y1405878D1*
X2471177Y1398519D1*
X2472387Y1390877D1*
Y1383139D1*
X2572387D2*
X2571177Y1375496D1*
X2568786Y1368137D1*
X2565273Y1361243D1*
X2560725Y1354983D1*
X2555253Y1349512D1*
X2548993Y1344963D1*
X2542099Y1341451D1*
X2534740Y1339059D1*
X2527097Y1337849D1*
X2519359D1*
X2511717Y1339059D1*
X2504358Y1341451D1*
X2497463Y1344963D1*
X2491204Y1349512D1*
X2485732Y1354983D1*
X2481184Y1361243D1*
X2477671Y1368137D1*
X2475280Y1375496D1*
X2474070Y1383139D1*
Y1390877D1*
X2475280Y1398519D1*
X2477671Y1405878D1*
X2481184Y1412773D1*
X2485732Y1419033D1*
X2491204Y1424504D1*
X2497463Y1429052D1*
X2504358Y1432565D1*
X2511717Y1434956D1*
X2519359Y1436167D1*
X2527097D1*
X2534740Y1434956D1*
X2542099Y1432565D1*
X2548993Y1429052D1*
X2555253Y1424504D1*
X2560725Y1419033D1*
X2565273Y1412773D1*
X2568786Y1405878D1*
X2571177Y1398519D1*
X2572387Y1390877D1*
Y1383139D1*
X1453989Y802201D2*
X1342174Y715798D1*
X1349951Y716545D1*
X1356458Y716033D1*
X1362805Y714509D1*
X1368835Y712011D1*
X1374400Y708601D1*
X1379363Y704362D1*
X1383602Y699399D1*
X1387012Y693834D1*
X1388455Y690664D1*
X1427176Y729402D1*
X1427618Y737708D1*
X1429142Y744054D1*
X1431640Y750084D1*
X1435050Y755649D1*
X1439289Y760613D1*
X1444252Y764851D1*
X1449817Y768262D1*
X1455847Y770759D1*
X1462194Y772283D1*
X1468701Y772795D1*
X1475208Y772283D1*
X1481554Y770759D1*
X1484954Y769474D1*
X1453926Y802203D1*
X2682136Y1201812D2*
X2639876Y1244073D1*
X2631527Y1244558D1*
X2625181Y1246082D1*
X2619151Y1248579D1*
X2613585Y1251990D1*
X2608622Y1256229D1*
X2604383Y1261192D1*
X2600973Y1266757D1*
X2598475Y1272787D1*
X2596952Y1279134D1*
X2596440Y1285640D1*
X2596952Y1292147D1*
X2598475Y1298494D1*
X2600973Y1304524D1*
X2604383Y1310089D1*
X2608622Y1315052D1*
X2613585Y1319291D1*
X2619151Y1322701D1*
X2625181Y1325199D1*
X2631527Y1326723D1*
X2638034Y1327235D1*
X2644541Y1326723D1*
X2650888Y1325199D1*
X2656918Y1322701D1*
X2662483Y1319291D1*
X2667446Y1315052D1*
X2671685Y1310089D1*
X2675095Y1304524D1*
X2677593Y1298494D1*
X2679117Y1292147D1*
X2679557Y1283817D1*
X2721875Y1241526D1*
X2730223Y1241040D1*
X2736570Y1239517D1*
X2742600Y1237019D1*
X2748165Y1233609D1*
X2753128Y1229370D1*
X2757367Y1224407D1*
X2760777Y1218842D1*
X2763275Y1212811D1*
X2764799Y1206465D1*
X2765311Y1199958D1*
X2764799Y1193451D1*
X2763275Y1187105D1*
X2760777Y1181075D1*
X2757367Y1175509D1*
X2753128Y1170546D1*
X2748165Y1166307D1*
X2742600Y1162897D1*
X2736570Y1160399D1*
X2730223Y1158876D1*
X2723717Y1158364D1*
X2717210Y1158876D1*
X2710863Y1160399D1*
X2704833Y1162897D1*
X2699268Y1166307D1*
X2694305Y1170546D1*
X2690066Y1175509D1*
X2686656Y1181075D1*
X2684158Y1187105D1*
X2682634Y1193451D1*
X2682194Y1201781D1*
X1319239Y646860D2*
X1099414D1*
X1097129Y644629D1*
X1102934Y641666D1*
X1108214Y637829D1*
X1111851Y634273D1*
X1332129Y634291D1*
X1334034Y636522D1*
X1328218Y639485D1*
X1322938Y643321D1*
X1319301Y646878D1*
X2172054Y1041283D2*
X2129085D1*
X2127941Y1033063D1*
X2125924Y1026855D1*
X2122961Y1021040D1*
X2119125Y1015760D1*
X2114510Y1011144D1*
X2109229Y1007308D1*
X2103414Y1004345D1*
X2097206Y1002328D1*
X2090760Y1001307D1*
X2084233D1*
X2077786Y1002328D1*
X2071579Y1004345D1*
X2065763Y1007308D1*
X2060483Y1011144D1*
X2055867Y1015760D1*
X2052031Y1021040D1*
X2049068Y1026855D1*
X2047051Y1033063D1*
X2046030Y1039509D1*
Y1046036D1*
X2047051Y1052483D1*
X2049068Y1058690D1*
X2052031Y1064506D1*
X2055867Y1069786D1*
X2060483Y1074402D1*
X2065763Y1078238D1*
X2071579Y1081201D1*
X2077786Y1083218D1*
X2084233Y1084239D1*
X2089319Y1084296D1*
X2097586Y1092100D1*
X2103347Y1095326D1*
X2109703Y1097119D1*
X2114097Y1097465D1*
X2163853D1*
X2159711Y1103960D1*
X2157213Y1109990D1*
X2155689Y1116337D1*
X2155177Y1122844D1*
X2155689Y1129351D1*
X2157213Y1135697D1*
X2159711Y1141727D1*
X2163121Y1147292D1*
X2167360Y1152256D1*
X2172323Y1156494D1*
X2177888Y1159905D1*
X2183918Y1162403D1*
X2190265Y1163926D1*
X2196772Y1164438D1*
X2203278Y1163926D1*
X2209625Y1162403D1*
X2215655Y1159905D1*
X2221220Y1156494D1*
X2227422Y1150916D1*
X2521723Y1150934D1*
X2527903Y1156494D1*
X2533468Y1159905D1*
X2539498Y1162403D1*
X2545845Y1163926D1*
X2552352Y1164438D1*
X2558859Y1163926D1*
X2565205Y1162403D1*
X2571235Y1159905D1*
X2576800Y1156494D1*
X2581763Y1152256D1*
X2586002Y1147292D1*
X2589413Y1141727D1*
X2591910Y1135697D1*
X2593434Y1129351D1*
X2593946Y1122844D1*
X2593434Y1116337D1*
X2591910Y1109990D1*
X2589413Y1103960D1*
X2586002Y1098395D1*
X2581763Y1093432D1*
X2576800Y1089193D1*
X2571235Y1085783D1*
X2565205Y1083285D1*
X2558859Y1081761D1*
X2552352Y1081249D1*
X2545845Y1081761D1*
X2539498Y1083285D1*
X2533468Y1085783D1*
X2527903Y1089193D1*
X2521702Y1094772D1*
X2235701Y1094753D1*
X2239827Y1088258D1*
X2242325Y1082227D1*
X2243849Y1075881D1*
X2244361Y1069374D1*
X2243849Y1062867D1*
X2242325Y1056521D1*
X2239827Y1050491D1*
X2236417Y1044925D1*
X2232178Y1039962D1*
X2227215Y1035723D1*
X2221650Y1032313D1*
X2215620Y1029815D1*
X2209273Y1028292D1*
X2202766Y1027780D1*
X2196260Y1028292D1*
X2189913Y1029815D1*
X2183883Y1032313D1*
X2178318Y1035723D1*
X2172116Y1041302D1*
X989926Y1143832D2*
X1449232D1*
X989926Y1118963D2*
X1469447D1*
X989926Y1094094D2*
X1489662D1*
X989926Y1069226D2*
X1488539D1*
X989926Y1044357D2*
X1481557D1*
X989926Y1019488D2*
X1489076D1*
X989926Y994619D2*
X1526088D1*
X1127475Y969751D2*
X1539711D1*
X1127475Y944882D2*
X1611000D1*
X1127475Y920013D2*
X1631215D1*
X1127475Y895144D2*
X1651430D1*
X1127475Y870276D2*
X1671644D1*
X1127475Y845407D2*
X1691859D1*
X1127475Y820538D2*
X1419447D1*
X1486019D2*
X1712074D1*
X1127475Y795669D2*
X1387269D1*
X1509603D2*
X1732289D1*
X1127475Y770801D2*
X1355092D1*
X1533139D2*
X1752553D1*
X1127475Y745932D2*
X1322914D1*
X1556723D2*
X1772768D1*
X1580258Y721063D2*
X1792982D1*
X1572396Y696194D2*
X1813197D1*
X1546664Y671325D2*
X1833412D1*
X1520980Y646457D2*
X1853627D1*
X1495297Y621588D2*
X1873842D1*
X1469564Y596719D2*
X1894057D1*
X1443881Y571850D2*
X1914271D1*
X1418197Y546982D2*
X1934535D1*
X1392514Y522113D2*
X1954750D1*
X889950Y497244D2*
X1966225D1*
X889950Y472375D2*
X1966225D1*
X889950Y447507D2*
X1966225D1*
X1598245Y963667D2*
X1592031Y960515D1*
X1585092Y958261D1*
X1577887Y957120D1*
X1570591D1*
X1563385Y958261D1*
X1556447Y960515D1*
X1549947Y963827D1*
X1544045Y968116D1*
X1538886Y973274D1*
X1534598Y979176D1*
X1531286Y985677D1*
X1529031Y992615D1*
X1528063Y998362D1*
X1519717Y999567D1*
X1512779Y1001821D1*
X1506279Y1005133D1*
X1500377Y1009421D1*
X1495218Y1014580D1*
X1490930Y1020482D1*
X1487618Y1026983D1*
X1485363Y1033921D1*
X1484222Y1041127D1*
Y1048422D1*
X1485363Y1055628D1*
X1487618Y1062566D1*
X1490930Y1069066D1*
X1495218Y1074968D1*
X1500377Y1080127D1*
X1502314Y1081654D1*
X1431480Y1168731D1*
X987450Y1168701D1*
Y981201D1*
X1114407Y981047D1*
X1118126Y979838D1*
X1121290Y977540D1*
X1123589Y974376D1*
X1124798Y970656D1*
X1124952Y956201D1*
X1124951Y737450D1*
X1314478D1*
X1450199Y842166D1*
X1453881Y843484D1*
X1457790Y843599D1*
X1461544Y842501D1*
X1464774Y840297D1*
X1579008Y719523D1*
X1580689Y715992D1*
X1581196Y712114D1*
X1580480Y708269D1*
X1578611Y704834D1*
X1559429Y686083D1*
X1382131Y514718D1*
X1378618Y513000D1*
X1374542Y512463D1*
X887450Y512450D1*
Y431201D1*
X1968701D1*
Y508007D1*
X1598250Y963623D1*
D32*
X723228Y1387008D3*
D33*
Y1487008D3*
X823228Y1387008D3*
Y1487008D3*
X923228Y1387008D3*
Y1487008D3*
X1023228Y1387008D3*
Y1487008D3*
X1123228Y1387008D3*
Y1487008D3*
X1223228Y1387008D3*
Y1487008D3*
X1323228Y1387008D3*
Y1487008D3*
X1423228Y1387008D3*
Y1487008D3*
X1523228Y1387008D3*
Y1487008D3*
X1623228Y1387008D3*
Y1487008D3*
X1723228Y1387008D3*
Y1487008D3*
X1823228Y1387008D3*
Y1487008D3*
X1923228Y1387008D3*
Y1487008D3*
X2023228Y1387008D3*
Y1487008D3*
X2123228Y1387008D3*
Y1487008D3*
X2223228Y1387008D3*
Y1487008D3*
X2323228Y1387008D3*
Y1487008D3*
X2423228Y1387008D3*
Y1487008D3*
X2523228Y1387008D3*
Y1487008D3*
X2623228Y1387008D3*
Y1487008D3*
M02*
