G04 DipTrace 3.0.0.2*
G04 hobo.gtl*
%MOIN*%
G04 #@! TF.FileFunction,Copper,L1,Top*
G04 #@! TF.Part,Single*
%AMOUTLINE0*5,1,8,0,0,0.06,-22.499559*%
G04 #@! TA.AperFunction,Conductor*
%ADD14C,0.012992*%
%ADD15C,0.025984*%
%ADD16C,0.019685*%
%ADD24R,0.051181X0.059055*%
%ADD25R,0.059055X0.051181*%
%ADD26R,0.023622X0.07874*%
%ADD28R,0.033465X0.019685*%
%ADD29R,0.062992X0.086614*%
G04 #@! TA.AperFunction,ComponentPad*
%ADD31R,0.06X0.06*%
%ADD34R,0.03385X0.027559*%
%ADD36R,0.01378X0.033465*%
%ADD37R,0.059055X0.025591*%
%ADD38R,0.03937X0.043307*%
%ADD39R,0.070866X0.015748*%
G04 #@! TA.AperFunction,ViaPad*
%ADD40C,0.04*%
G04 #@! TA.AperFunction,ComponentPad*
%ADD75OUTLINE0*%
%FSLAX26Y26*%
G04*
G70*
G90*
G75*
G01*
G04 Top*
%LPD*%
X1749951Y1149951D2*
D14*
X1849950D1*
X1862450Y1137451D1*
X1910680D1*
X1910778Y1137353D1*
X1749951Y1149951D2*
X1593745D1*
Y1112638D1*
X1768932Y937451D1*
X1912450D1*
X1924950Y949951D1*
X1724982Y1231188D2*
X1593701D1*
Y1316535D1*
X1523228Y1387008D1*
X1593701Y1231188D2*
X1593745Y1149951D1*
X1531201Y1237451D2*
Y1231188D1*
X1593701D1*
X2791455Y984517D2*
X2679543D1*
X2669072Y994988D1*
X2565986D1*
X2564825Y996148D1*
X2284094Y997186D2*
X2410816D1*
X2413008Y994995D1*
X2563672D1*
X723228Y1387008D2*
X629276D1*
X567892Y1325625D1*
X500774D1*
X460790Y1285640D1*
Y794396D1*
X522196Y732991D1*
X625014D1*
X667856Y775832D1*
Y876517D1*
X668701Y877362D1*
X2284094Y997186D2*
X2282205D1*
X2170845Y885827D1*
X1940304D1*
X1920797Y905335D1*
Y945798D1*
X1924950Y949951D1*
X723228Y1487008D2*
D15*
X768466D1*
X823228D1*
X1031134Y1068630D2*
D14*
Y1043039D1*
Y1017449D1*
Y1068630D2*
Y1112517D1*
X1024950Y1118701D1*
X1259480Y1068630D2*
Y1106201D1*
X1262450D1*
X912451Y465895D2*
Y462450D1*
X937450Y437451D1*
X1431096Y465882D2*
Y449846D1*
X1418701Y437451D1*
X1637320Y465882D2*
X1615882D1*
X1599950Y449950D1*
X1874795Y465882D2*
X1847133D1*
X1831201Y449950D1*
X1193710Y465911D2*
X1183991D1*
X1149951Y499950D1*
X768466Y1487008D2*
D16*
Y1513804D1*
X788444Y1533782D1*
X1159584D1*
X1174812Y1518554D1*
Y1190869D1*
X1259480Y1106201D1*
X1344613Y1128710D2*
D14*
X1284959D1*
X1262450Y1106201D1*
X1456398Y1237451D2*
Y1231201D1*
X1381201D1*
X2024951Y1137353D2*
X2074853D1*
X2087451Y1149951D1*
X518701Y1168701D2*
X568701D1*
X618701D1*
X668701D1*
X518701D2*
Y1256201D1*
X568701Y1168701D2*
Y1256201D1*
X618701Y1168701D2*
Y1256201D1*
X668701Y1168701D2*
Y1256201D1*
X618701Y877362D2*
Y793701D1*
X1799785Y1231188D2*
X1831188D1*
X1849950Y1249950D1*
X1031134Y787134D2*
Y762518D1*
X1037451Y756201D1*
X2817046Y984517D2*
Y923427D1*
X2669072Y920185D2*
X2669451Y814009D1*
X2817046Y1059320D2*
Y1106629D1*
X2723717Y1199958D1*
X2638034Y1285640D2*
X2624596D1*
X2523228Y1387008D1*
X2413008Y1069798D2*
X2397915D1*
X2523791Y1195675D1*
X2719433D1*
X2723717Y1199958D1*
X1031134Y940677D2*
X978177D1*
X968701Y931201D1*
Y749951D1*
X1006201Y712451D1*
Y681201D1*
X1012451Y674950D1*
X1031134Y966268D2*
X947517D1*
X943701Y962451D1*
Y681206D1*
X949957Y674950D1*
X1031134Y991858D2*
X929358D1*
X887463Y949963D1*
Y674950D1*
X1031134Y863906D2*
X1137450D1*
Y674950D1*
X1162463D1*
X1031134Y889496D2*
X1162451D1*
Y749949D1*
X1224957Y687444D1*
Y674950D1*
X1031134Y915087D2*
X1172315D1*
X1187450Y899951D1*
Y781201D1*
X1287450Y681201D1*
Y674950D1*
X1531201D2*
Y737451D1*
X1481201Y787451D1*
X1259806D1*
X1259488Y787134D1*
X1031134Y812724D2*
X1074677D1*
X1087450Y799951D1*
Y693699D1*
X1068701Y674950D1*
X1349951D2*
X1406070D1*
X1406098Y674921D1*
X1031134Y838315D2*
X1086588D1*
X1112451Y812451D1*
Y637451D1*
X1081201Y606201D1*
X1468701Y731201D2*
Y674950D1*
X1737310Y673108D2*
Y743843D1*
X1618701Y862451D1*
X1260934D1*
X1259480Y863906D1*
X1674950Y674950D2*
Y743702D1*
X1581201Y837451D1*
X1260344D1*
X1259480Y838315D1*
X1612451Y674950D2*
Y743701D1*
X1543701Y812451D1*
X1259753D1*
X1259480Y812724D1*
X1974785Y674921D2*
Y681367D1*
X1712451Y943701D1*
X1262504D1*
X1259480Y940677D1*
X1912291Y674921D2*
Y681361D1*
X1681201Y912451D1*
X1262115D1*
X1259480Y915087D1*
X1849798Y674921D2*
Y681354D1*
X1643701Y887451D1*
X1261525D1*
X1259480Y889496D1*
Y991858D2*
X1489072D1*
X1514547Y966383D1*
X1620946D1*
X1642689Y988126D1*
Y1011730D1*
X1527030Y1127388D1*
X1420738D1*
X1419416Y1128710D1*
X982451Y465895D2*
X984646D1*
X1018701Y499950D1*
Y601772D1*
X1012451Y608021D1*
X1501096Y465882D2*
X1528383D1*
X1537451Y474950D1*
Y601770D1*
X1531201Y608021D1*
X1263710Y465911D2*
Y438710D1*
X1256201Y431201D1*
X1137450D1*
X1099950Y468701D1*
Y545508D1*
X1162463Y608021D1*
X1944795Y465882D2*
X1978382D1*
X1993701Y481201D1*
Y589076D1*
X1974785Y607992D1*
X1707320Y465882D2*
X1740882D1*
X1749950Y474950D1*
Y593538D1*
X1737310Y606178D1*
X982451Y524950D2*
Y575526D1*
X949957Y608021D1*
X1501096Y524937D2*
Y513596D1*
X1482717Y495217D1*
X1404902D1*
X1387451Y512668D1*
Y589345D1*
X1406098Y607992D1*
X1263710Y524966D2*
Y569268D1*
X1224957Y608021D1*
X1944795Y524937D2*
Y575488D1*
X1912291Y607992D1*
X1707320Y524937D2*
Y575651D1*
X1674950Y608021D1*
X912451Y524950D2*
Y583033D1*
X887463Y608021D1*
X1431096Y524937D2*
Y570416D1*
X1468701Y608021D1*
X1193710Y524966D2*
Y512441D1*
X1210169Y495982D1*
X1295983D1*
X1312451Y512450D1*
Y583020D1*
X1287450Y608021D1*
X1874795Y524937D2*
Y582995D1*
X1849798Y607992D1*
X1637320Y524937D2*
Y583152D1*
X1612451Y608021D1*
X568701Y877362D2*
Y936580D1*
X924902Y1292781D1*
Y1385335D1*
X923228Y1387008D1*
X924902Y1292781D2*
Y1289924D1*
X1197377Y1017449D1*
X1259480D1*
X2842636Y1059320D2*
Y1166720D1*
X2760845Y1248512D1*
X2460617D1*
X2284094Y1071990D1*
X1749951Y1075148D2*
X1885974D1*
X1890646Y1079820D1*
Y1079819D1*
X1910778Y1099951D1*
X2284094Y1071990D2*
X2205382D1*
X2202766Y1069374D1*
X2087496Y1042773D2*
X1967957D1*
X1910778Y1099951D1*
X1259480Y1017449D2*
X1498887D1*
X1515228Y1001108D1*
X1576598D1*
X1574239Y1003469D1*
X1792575D2*
Y1032525D1*
X1749951Y1075148D1*
X823228Y1387008D2*
X837008D1*
X887451Y1437451D1*
X951714D1*
X974395Y1414770D1*
Y1275507D1*
X1206862Y1043039D1*
X1259480D1*
X518701Y877362D2*
Y940845D1*
X822083Y1244227D1*
Y1385862D1*
X823228Y1387008D1*
X2791455Y1059320D2*
Y1090807D1*
X2730857Y1151406D1*
X2645280D1*
X2564825Y1070951D1*
X1999753Y949951D2*
X2099950D1*
X2149950Y999951D1*
Y1074950D1*
X2138664Y1086236D1*
X2124949Y1099951D1*
X2024951D1*
X2564825Y1070951D2*
Y1110370D1*
X2552352Y1122844D1*
X2196772D2*
X2175272D1*
X2138664Y1086236D1*
X1259480Y1043039D2*
Y1044774D1*
X1530571D1*
X1918856Y1009369D2*
X1975505D1*
X1999109Y985765D1*
Y950596D1*
X1999753Y949951D1*
D40*
X1024950Y1118701D3*
X1262450Y1106201D3*
X937450Y437451D3*
X1418701D3*
X1599950Y449950D3*
X1831201D3*
X1149951Y499950D3*
X1381201Y1231201D3*
X2087451Y1149951D3*
X568701Y1256201D3*
X618701D3*
X668701D3*
X618701Y793701D3*
X1849950Y1249950D3*
X1037451Y756201D3*
X2817046Y923427D3*
X2669451Y814009D3*
X2723717Y1199958D3*
X2638034Y1285640D3*
X1068701Y674950D3*
X1349951D3*
X1081201Y606201D3*
X1468701Y731201D3*
X2202766Y1069374D3*
X2087496Y1042773D3*
X1574239Y1003469D3*
X1792575D3*
X2552352Y1122844D3*
X2196772D3*
X1530571Y1044774D3*
X1918856Y1009369D3*
X518701Y1256201D3*
D24*
X1724982Y1231188D3*
X1799785D3*
D25*
X2669072Y994988D3*
Y920185D3*
D24*
X1531201Y1237451D3*
X1456398D3*
D26*
X668701Y1168701D3*
X618701D3*
X568701D3*
X518701D3*
Y877362D3*
X568701D3*
X618701D3*
X668701D3*
D28*
X2024951Y1099951D3*
Y1137353D3*
Y1174755D3*
X1910778D3*
Y1137353D3*
Y1099951D3*
D29*
X1967865Y1137353D3*
D31*
X723228Y1387008D3*
D75*
Y1487008D3*
X823228Y1387008D3*
Y1487008D3*
X923228Y1387008D3*
Y1487008D3*
X1023228Y1387008D3*
Y1487008D3*
X1123228Y1387008D3*
Y1487008D3*
X1223228Y1387008D3*
Y1487008D3*
X1323228Y1387008D3*
Y1487008D3*
X1423228Y1387008D3*
Y1487008D3*
X1523228Y1387008D3*
Y1487008D3*
X1623228Y1387008D3*
Y1487008D3*
X1723228Y1387008D3*
Y1487008D3*
X1823228Y1387008D3*
Y1487008D3*
X1923228Y1387008D3*
Y1487008D3*
X2023228Y1387008D3*
Y1487008D3*
X2123228Y1387008D3*
Y1487008D3*
X2223228Y1387008D3*
Y1487008D3*
X2323228Y1387008D3*
Y1487008D3*
X2423228Y1387008D3*
Y1487008D3*
X2523228Y1387008D3*
Y1487008D3*
X2623228Y1387008D3*
Y1487008D3*
D34*
X912451Y524950D3*
Y465895D3*
X982451D3*
Y524950D3*
X1431096Y524937D3*
Y465882D3*
X1501096D3*
Y524937D3*
X1193710Y524966D3*
Y465911D3*
X1263710D3*
Y524966D3*
X1874795Y524937D3*
Y465882D3*
X1944795D3*
Y524937D3*
X1637320D3*
Y465882D3*
X1707320D3*
Y524937D3*
D36*
X2791455Y984517D3*
X2817046D3*
X2842636D3*
Y1059320D3*
X2817046D3*
X2791455D3*
D37*
X2817046Y1021919D3*
D24*
X1419416Y1128710D3*
X1344613D3*
D25*
X1749951Y1149951D3*
Y1075148D3*
D24*
X1924950Y949951D3*
X1999753D3*
D25*
X2564825Y1070951D3*
Y996148D3*
X2413008Y1069798D3*
Y994995D3*
X2284094Y1071990D3*
Y997186D3*
D38*
X1012451Y674950D3*
Y608021D3*
X1531201Y674950D3*
Y608021D3*
X1162463Y674950D3*
Y608021D3*
X1974785Y674921D3*
Y607992D3*
X1737310Y673108D3*
Y606178D3*
X949957Y674950D3*
Y608021D3*
X1406098Y674921D3*
Y607992D3*
X1224957Y674950D3*
Y608021D3*
X1912291Y674921D3*
Y607992D3*
X1674950Y674950D3*
Y608021D3*
X887463Y674950D3*
Y608021D3*
X1468701Y674950D3*
Y608021D3*
X1287450Y674950D3*
Y608021D3*
X1849798Y674921D3*
Y607992D3*
X1612451Y674950D3*
Y608021D3*
D39*
X1031134Y1068630D3*
Y1043039D3*
Y1017449D3*
Y991858D3*
Y966268D3*
Y940677D3*
Y915087D3*
Y889496D3*
Y863906D3*
Y838315D3*
Y812724D3*
Y787134D3*
X1259488D3*
X1259480Y812724D3*
Y838315D3*
Y863906D3*
Y889496D3*
Y915087D3*
Y940677D3*
Y966268D3*
Y991858D3*
Y1017449D3*
Y1043039D3*
Y1068630D3*
M02*
