M48
INCH
T01C0.0191
T02C0.04
T03C0.1083
%
T01
X+005187Y+012562
X+005687Y+012562
X+006187Y+012562
X+006687Y+012562
X+010250Y+011187
X+012625Y+011062
X+013812Y+012312
X+015306Y+010448
X+015742Y+010035
X+017926Y+010035
X+019189Y+010094
X+020875Y+010428
X+020875Y+011500
X+021968Y+011228
X+022028Y+010694
X+025524Y+011228
X+026380Y+012856
X+027237Y+012000
X+028170Y+009234
X+026695Y+008140
X+018312Y+004500
X+016000Y+004500
X+014187Y+004375
X+013500Y+006750
X+014687Y+007312
X+011500Y+005000
X+010812Y+006062
X+010687Y+006750
X+010375Y+007562
X+009375Y+004375
X+006187Y+007937
X+018500Y+012500
T02
X+007232Y+013870
X+007232Y+014870
X+008232Y+014870
X+008232Y+013870
X+009232Y+013870
X+009232Y+014870
X+010232Y+014870
X+010232Y+013870
X+011232Y+013870
X+011232Y+014870
X+012232Y+014870
X+012232Y+013870
X+013232Y+013870
X+013232Y+014870
X+014232Y+014870
X+014232Y+013870
X+015232Y+013870
X+015232Y+014870
X+016232Y+014870
X+016232Y+013870
X+017232Y+013870
X+017232Y+014870
X+018232Y+014870
X+018232Y+013870
X+019232Y+013870
X+019232Y+014870
X+020232Y+014870
X+020232Y+013870
X+021232Y+013870
X+021232Y+014870
X+022232Y+014870
X+022232Y+013870
X+023232Y+013870
X+023232Y+014870
X+024232Y+014870
X+024232Y+013870
X+025232Y+013870
X+025232Y+014870
X+026232Y+014870
X+026232Y+013870
T03
X+005315Y+014370
X+005315Y+005315
X+028150Y+005315
X+028150Y+014370
T00
M30
