G04 DipTrace 3.1.0.0*
G04 ArduinoUnoHOBO.gto*
%MOIN*%
G04 #@! TF.FileFunction,Legend,Top*
G04 #@! TF.Part,Single*
%ADD10C,0.009843*%
%ADD12C,0.003*%
%ADD16C,0.001312*%
%ADD23C,0.015422*%
%ADD26O,0.024956X0.023924*%
%ADD28O,0.01998X0.019388*%
%ADD31C,0.003937*%
%ADD32C,0.015723*%
%ADD67C,0.00772*%
%ADD68C,0.004632*%
%FSLAX26Y26*%
G04*
G70*
G90*
G75*
G01*
G04 TopSilk*
%LPD*%
X2344027Y544002D2*
D10*
X2943973D1*
Y444000D1*
X2344027D1*
Y544002D1*
X2141789Y1594694D2*
Y1543552D1*
Y1688454D2*
Y1637312D1*
X1018497Y1316702D2*
X1069639D1*
X1432280Y1615375D2*
X1381138D1*
X2943963Y2343998D2*
X2144037D1*
Y2444000D1*
X2943963D1*
Y2343998D1*
X2084020D2*
X1083980D1*
Y2444000D1*
X2084020D1*
Y2343998D1*
X1523010Y1359416D2*
X1727732D1*
X1523010Y1532613D2*
X1727732D1*
Y1359416D2*
Y1532613D1*
X1523010Y1359416D2*
Y1418444D1*
Y1473585D2*
Y1532613D1*
Y1418444D2*
G03X1523010Y1473585I-15J27571D01*
G01*
D23*
X628943Y1415946D3*
X659182Y1316196D2*
D10*
X777266D1*
X659182Y1434306D2*
X777266D1*
D26*
X2954091Y670274D3*
X2948109Y1332890D3*
Y1007856D3*
Y2007961D3*
Y1682927D3*
D28*
X777797Y1595718D3*
X1444037Y544002D2*
D10*
X2243963D1*
Y444000D1*
X1444037D1*
Y544002D1*
X661212Y861721D2*
G02X661212Y861721I59036J0D01*
G01*
X596242Y985733D2*
X842289D1*
X844254Y912891D2*
Y810552D1*
Y737710D2*
X596242D1*
Y810552D2*
Y912891D1*
X671039Y834150D2*
D31*
X765527D1*
X671039Y889319D2*
X765527D1*
X718283Y834150D2*
Y840076D1*
Y889319D2*
Y883366D1*
X714352Y844022D2*
G02X714352Y844022I3931J0D01*
G01*
Y877467D2*
G02X714352Y877467I3931J0D01*
G01*
X718283Y847969D2*
X704487Y879433D1*
D32*
X558824Y995579D3*
X2175127Y1389040D2*
D10*
X2482246D1*
X2175127Y1515012D2*
X2482246D1*
Y1389040D2*
Y1515012D1*
X2175127Y1389040D2*
Y1432338D1*
Y1471715D2*
Y1515012D1*
Y1432338D2*
G03X2175127Y1471715I-2J19689D01*
G01*
X2712993Y2212941D2*
D16*
X2838007D1*
Y2162936D1*
X2712993D1*
Y2212941D1*
Y2144184D2*
X2838007D1*
Y2094178D1*
X2712993D1*
Y2144184D1*
G36*
Y2075427D2*
X2838007D1*
Y2019171D1*
X2712993D1*
Y2075427D1*
G37*
Y1887907D2*
D16*
X2838007D1*
Y1837902D1*
X2712993D1*
Y1887907D1*
Y1819150D2*
X2838007D1*
Y1769144D1*
X2712993D1*
Y1819150D1*
G36*
Y1750392D2*
X2838007D1*
Y1694136D1*
X2712993D1*
Y1750392D1*
G37*
X2719244Y1544121D2*
D16*
X2844257D1*
Y1494115D1*
X2719244D1*
Y1544121D1*
Y1475364D2*
X2844257D1*
Y1425358D1*
X2719244D1*
Y1475364D1*
G36*
Y1406606D2*
X2844257D1*
Y1350350D1*
X2719244D1*
Y1406606D1*
G37*
Y1219087D2*
D16*
X2844257D1*
Y1169081D1*
X2719244D1*
Y1219087D1*
Y1150329D2*
X2844257D1*
Y1100324D1*
X2719244D1*
Y1150329D1*
G36*
Y1081572D2*
X2844257D1*
Y1025316D1*
X2719244D1*
Y1081572D1*
G37*
X2725495Y875301D2*
D16*
X2850508D1*
Y825295D1*
X2725495D1*
Y875301D1*
Y806543D2*
X2850508D1*
Y756538D1*
X2725495D1*
Y806543D1*
G36*
Y737786D2*
X2850508D1*
Y681530D1*
X2725495D1*
Y737786D1*
G37*
X637266Y2109930D2*
D12*
X658266D1*
X636241Y2106930D2*
X659292D1*
X635324Y2103930D2*
X660208D1*
X634521Y2100930D2*
X661011D1*
X598266Y2097930D2*
X604266D1*
X633600D2*
X661932D1*
X691266D2*
X694266D1*
X595278Y2094930D2*
X608319D1*
X630775D2*
X664758D1*
X687214D2*
X697718D1*
X592407Y2091930D2*
X612339D1*
X626813D2*
X668720D1*
X683194D2*
X701333D1*
X590024Y2088930D2*
X616266D1*
X622266D2*
X673266D1*
X679266D2*
X704493D1*
X588241Y2085930D2*
X706894D1*
X588412Y2082930D2*
X706969D1*
X589840Y2079930D2*
X705623D1*
X591487Y2076930D2*
X704018D1*
X593313Y2073930D2*
X702209D1*
X595074Y2070930D2*
X700455D1*
X596501Y2067930D2*
X699031D1*
X596255Y2064930D2*
X699277D1*
X595533Y2061930D2*
X700000D1*
X593474Y2058930D2*
X702058D1*
X588673Y2055930D2*
X637278D1*
X658255D2*
X706860D1*
X582800Y2052930D2*
X634384D1*
X661137D2*
X712733D1*
X577557Y2049930D2*
X631778D1*
X663650D2*
X717976D1*
X573613Y2046930D2*
X629625D1*
X665546D2*
X721920D1*
X572372Y2043930D2*
X627999D1*
X667026D2*
X723161D1*
X571724Y2040930D2*
X626797D1*
X668564D2*
X723809D1*
X571476Y2037930D2*
X627037D1*
X670266D2*
X724057D1*
X571441Y2034930D2*
X627622D1*
X668395D2*
X724092D1*
X572554Y2031930D2*
X628513D1*
X666566D2*
X722979D1*
X576762Y2028930D2*
X630043D1*
X664484D2*
X718771D1*
X582176Y2025930D2*
X632388D1*
X661957D2*
X713357D1*
X587247Y2022930D2*
X635056D1*
X659449D2*
X708285D1*
X591016Y2019930D2*
X637477D1*
X657422D2*
X704517D1*
X593756Y2016930D2*
X638065D1*
X657188D2*
X701777D1*
X596043Y2013930D2*
X637343D1*
X658055D2*
X699490D1*
X598266Y2010930D2*
X636341D1*
X659135D2*
X697266D1*
X596292Y2007930D2*
X635302D1*
X660209D2*
X699229D1*
X594197Y2004930D2*
X634303D1*
X661222D2*
X701231D1*
X591894Y2001930D2*
X633165D1*
X662365D2*
X703277D1*
X589805Y1998930D2*
X631860D1*
X663660D2*
X705239D1*
X588187Y1995930D2*
X630397D1*
X665030D2*
X707209D1*
X588441Y1992930D2*
X628406D1*
X666745D2*
X709266D1*
X590314Y1989930D2*
X625702D1*
X669040D2*
X706266D1*
X592708Y1986930D2*
X619875D1*
X674889D2*
X703266D1*
X595428Y1983930D2*
X613529D1*
X681574D2*
X700266D1*
X598266Y1980930D2*
X607266D1*
X688266D2*
X697266D1*
X553266Y1962930D2*
X565266D1*
X571266D2*
X583266D1*
X592266D2*
X604266D1*
X610266D2*
X625266D1*
X640266D2*
X652266D1*
X658266D2*
X670266D1*
X676266D2*
X679266D1*
X688266D2*
X739266D1*
X553266Y1959930D2*
X565266D1*
X571266D2*
X604266D1*
X610266D2*
X625266D1*
X639054D2*
X650860D1*
X658266D2*
X679389D1*
X688266D2*
X739266D1*
X553266Y1956930D2*
X556818D1*
X562266D2*
X565266D1*
X571266D2*
X574266D1*
X583266D2*
X595266D1*
X601266D2*
X613266D1*
X622266D2*
X625266D1*
X639040D2*
X649266D1*
X658266D2*
X661266D1*
X666715D2*
X679855D1*
X688266D2*
X703856D1*
X712266D2*
X715266D1*
X723715D2*
X733266D1*
X739266D2*
D3*
X553266Y1953930D2*
X554871D1*
X562266D2*
X565266D1*
X571266D2*
X574266D1*
X583266D2*
X613266D1*
X622266D2*
X625266D1*
X639049D2*
X652266D1*
X658266D2*
X661266D1*
X668662D2*
X680881D1*
X688266D2*
X702101D1*
X712266D2*
X715266D1*
X725662D2*
X739266D1*
X553266Y1950930D2*
D3*
X562266D2*
X565266D1*
X571266D2*
X574266D1*
X583266D2*
X613266D1*
X622266D2*
X625266D1*
X638652D2*
X661266D1*
X670266D2*
X682266D1*
X688266D2*
X701094D1*
X712266D2*
X715266D1*
X727266D2*
X739266D1*
X553266Y1947930D2*
X565266D1*
X571266D2*
X604266D1*
X610266D2*
X613266D1*
X622266D2*
X625266D1*
X637977D2*
X700583D1*
X712266D2*
X739266D1*
X553266Y1944930D2*
X565266D1*
X571266D2*
X588622D1*
X592266D2*
X604266D1*
X610266D2*
X613266D1*
X622266D2*
X625266D1*
X637266D2*
X652266D1*
X658266D2*
X670266D1*
X679266D2*
X700266D1*
X712266D2*
X739266D1*
X571266Y1941930D2*
X581561D1*
X571266Y1938930D2*
X576622D1*
X637266D2*
X640266D1*
X571266Y1935930D2*
X574266D1*
X633048D2*
X642923D1*
X571266Y1932930D2*
X583266D1*
X592266D2*
X601266D1*
X610266D2*
X622266D1*
X628266D2*
X646016D1*
X655266D2*
X658266D1*
X667266D2*
X670266D1*
X676266D2*
X685266D1*
X691266D2*
X706266D1*
X712266D2*
X718266D1*
X571266Y1929930D2*
X602651D1*
X610266D2*
X649266D1*
X655266D2*
X658266D1*
X667266D2*
X720103D1*
X571266Y1926930D2*
X586266D1*
X592266D2*
X595266D1*
X601266D2*
X603513D1*
X610266D2*
X670266D1*
X676266D2*
D3*
X682266D2*
X712266D1*
X718266D2*
X721595D1*
X571266Y1923930D2*
X574266D1*
X583266D2*
X586266D1*
X592266D2*
X603950D1*
X610266D2*
X613266D1*
X625266D2*
X628266D1*
X637266D2*
X640266D1*
X646266D2*
X697266D1*
X706266D2*
X722714D1*
X571266Y1920930D2*
X574266D1*
X583266D2*
X604150D1*
X610266D2*
X613266D1*
X625266D2*
X628266D1*
X637266D2*
X640266D1*
X646266D2*
X667266D1*
X673266D2*
X697266D1*
X706266D2*
X722189D1*
X571266Y1917930D2*
X574266D1*
X583266D2*
X595266D1*
X601266D2*
X604266D1*
X610266D2*
X613266D1*
X625266D2*
X640266D1*
X646266D2*
X676266D1*
X682266D2*
X697266D1*
X706266D2*
X712266D1*
X718266D2*
X721266D1*
X637266Y2109930D2*
X636241Y2106930D1*
X635324Y2103930D1*
X634521Y2100930D1*
X633600Y2097930D1*
X630775Y2094930D1*
X626813Y2091930D1*
X622266Y2088930D1*
X658266Y2109930D2*
X659292Y2106930D1*
X660208Y2103930D1*
X661011Y2100930D1*
X661932Y2097930D1*
X664758Y2094930D1*
X668720Y2091930D1*
X673266Y2088930D1*
X598266Y2097930D2*
X595278Y2094930D1*
X592407Y2091930D1*
X590024Y2088930D1*
X588241Y2085930D1*
X588412Y2082930D1*
X589840Y2079930D1*
X591487Y2076930D1*
X593313Y2073930D1*
X595074Y2070930D1*
X596501Y2067930D1*
X596255Y2064930D1*
X595533Y2061930D1*
X593474Y2058930D1*
X588673Y2055930D1*
X582800Y2052930D1*
X577557Y2049930D1*
X573613Y2046930D1*
X572372Y2043930D1*
X571724Y2040930D1*
X571476Y2037930D1*
X571441Y2034930D1*
X572554Y2031930D1*
X576762Y2028930D1*
X582176Y2025930D1*
X587247Y2022930D1*
X591016Y2019930D1*
X593756Y2016930D1*
X596043Y2013930D1*
X598266Y2010930D1*
X596292Y2007930D1*
X594197Y2004930D1*
X591894Y2001930D1*
X589805Y1998930D1*
X588187Y1995930D1*
X588441Y1992930D1*
X590314Y1989930D1*
X592708Y1986930D1*
X595428Y1983930D1*
X598266Y1980930D1*
X604266Y2097930D2*
X608319Y2094930D1*
X612339Y2091930D1*
X616266Y2088930D1*
X691266Y2097930D2*
X687214Y2094930D1*
X683194Y2091930D1*
X679266Y2088930D1*
X694266Y2097930D2*
X697718Y2094930D1*
X701333Y2091930D1*
X704493Y2088930D1*
X706894Y2085930D1*
X706969Y2082930D1*
X705623Y2079930D1*
X704018Y2076930D1*
X702209Y2073930D1*
X700455Y2070930D1*
X699031Y2067930D1*
X699277Y2064930D1*
X700000Y2061930D1*
X702058Y2058930D1*
X706860Y2055930D1*
X712733Y2052930D1*
X717976Y2049930D1*
X721920Y2046930D1*
X723161Y2043930D1*
X723809Y2040930D1*
X724057Y2037930D1*
X724092Y2034930D1*
X722979Y2031930D1*
X718771Y2028930D1*
X713357Y2025930D1*
X708285Y2022930D1*
X704517Y2019930D1*
X701777Y2016930D1*
X699490Y2013930D1*
X697266Y2010930D1*
X699229Y2007930D1*
X701231Y2004930D1*
X703277Y2001930D1*
X705239Y1998930D1*
X707209Y1995930D1*
X709266Y1992930D1*
X706266Y1989930D1*
X703266Y1986930D1*
X700266Y1983930D1*
X697266Y1980930D1*
X640266Y2058930D2*
X637278Y2055930D1*
X634384Y2052930D1*
X631778Y2049930D1*
X629625Y2046930D1*
X627999Y2043930D1*
X626797Y2040930D1*
X627037Y2037930D1*
X627622Y2034930D1*
X628513Y2031930D1*
X630043Y2028930D1*
X632388Y2025930D1*
X635056Y2022930D1*
X637477Y2019930D1*
X638065Y2016930D1*
X637343Y2013930D1*
X636341Y2010930D1*
X635302Y2007930D1*
X634303Y2004930D1*
X633165Y2001930D1*
X631860Y1998930D1*
X630397Y1995930D1*
X628406Y1992930D1*
X625702Y1989930D1*
X619875Y1986930D1*
X613529Y1983930D1*
X607266Y1980930D1*
X655266Y2058930D2*
X658255Y2055930D1*
X661137Y2052930D1*
X663650Y2049930D1*
X665546Y2046930D1*
X667026Y2043930D1*
X668564Y2040930D1*
X670266Y2037930D1*
X668395Y2034930D1*
X666566Y2031930D1*
X664484Y2028930D1*
X661957Y2025930D1*
X659449Y2022930D1*
X657422Y2019930D1*
X657188Y2016930D1*
X658055Y2013930D1*
X659135Y2010930D1*
X660209Y2007930D1*
X661222Y2004930D1*
X662365Y2001930D1*
X663660Y1998930D1*
X665030Y1995930D1*
X666745Y1992930D1*
X669040Y1989930D1*
X674889Y1986930D1*
X681574Y1983930D1*
X688266Y1980930D1*
X553266Y1962930D2*
Y1959930D1*
Y1956930D1*
Y1953930D1*
Y1950930D1*
Y1947930D1*
Y1944930D1*
X565266Y1962930D2*
Y1959930D1*
Y1956930D1*
Y1953930D1*
Y1950930D1*
Y1947930D1*
Y1944930D1*
X571266Y1962930D2*
Y1959930D1*
Y1956930D1*
Y1953930D1*
Y1950930D1*
Y1947930D1*
Y1944930D1*
Y1941930D1*
Y1938930D1*
Y1935930D1*
Y1932930D1*
Y1929930D1*
Y1926930D1*
Y1923930D1*
Y1920930D1*
Y1917930D1*
X583266Y1962930D2*
X592266D2*
X604266D2*
Y1959930D1*
X610266Y1962930D2*
Y1959930D1*
X625266Y1962930D2*
Y1959930D1*
Y1956930D1*
Y1953930D1*
Y1950930D1*
Y1947930D1*
Y1944930D1*
X640266Y1962930D2*
X639054Y1959930D1*
X639040Y1956930D1*
X639049Y1953930D1*
X638652Y1950930D1*
X637977Y1947930D1*
X637266Y1944930D1*
X652266Y1962930D2*
X650860Y1959930D1*
X649266Y1956930D1*
X652266Y1953930D1*
X658266Y1962930D2*
Y1959930D1*
Y1956930D1*
Y1953930D1*
X670266Y1962930D2*
X676266D2*
X679266D2*
X679389Y1959930D1*
X679855Y1956930D1*
X680881Y1953930D1*
X682266Y1950930D1*
X688266Y1962930D2*
Y1959930D1*
Y1956930D1*
Y1953930D1*
Y1950930D1*
X739266Y1962930D2*
Y1959930D1*
Y1956930D1*
Y1953930D1*
Y1950930D1*
Y1947930D1*
Y1944930D1*
X559266Y1959930D2*
X556818Y1956930D1*
X554871Y1953930D1*
X553266Y1950930D1*
X562266Y1959930D2*
Y1956930D1*
Y1953930D1*
Y1950930D1*
X574266Y1959930D2*
Y1956930D1*
Y1953930D1*
Y1950930D1*
X583266Y1959930D2*
Y1956930D1*
Y1953930D1*
Y1950930D1*
X598266Y1959930D2*
X595266Y1956930D1*
X598266Y1959930D2*
X601266Y1956930D1*
X613266Y1959930D2*
Y1956930D1*
Y1953930D1*
Y1950930D1*
Y1947930D1*
Y1944930D1*
X622266Y1959930D2*
Y1956930D1*
Y1953930D1*
Y1950930D1*
Y1947930D1*
Y1944930D1*
X661266Y1959930D2*
Y1956930D1*
Y1953930D1*
Y1950930D1*
X664266Y1959930D2*
X666715Y1956930D1*
X668662Y1953930D1*
X670266Y1950930D1*
X706266Y1959930D2*
X703856Y1956930D1*
X702101Y1953930D1*
X701094Y1950930D1*
X700583Y1947930D1*
X700266Y1944930D1*
X712266Y1959930D2*
Y1956930D1*
Y1953930D1*
Y1950930D1*
Y1947930D1*
Y1944930D1*
X715266Y1959930D2*
Y1956930D1*
Y1953930D1*
Y1950930D1*
X721266Y1959930D2*
X723715Y1956930D1*
X725662Y1953930D1*
X727266Y1950930D1*
X736266Y1959930D2*
X733266Y1956930D1*
X604266Y1950930D2*
Y1947930D1*
Y1944930D1*
X610266Y1950930D2*
Y1947930D1*
Y1944930D1*
X598266Y1947930D2*
X588622Y1944930D1*
X581561Y1941930D1*
X576622Y1938930D1*
X574266Y1935930D1*
X583266Y1932930D1*
X589266Y1947930D2*
X592266Y1944930D1*
X655266Y1947930D2*
X652266Y1944930D1*
X655266Y1947930D2*
X658266Y1944930D1*
X673266Y1947930D2*
X670266Y1944930D1*
X676266Y1947930D2*
X679266Y1944930D1*
X637266Y1938930D2*
X633048Y1935930D1*
X628266Y1932930D1*
X640266Y1938930D2*
X642923Y1935930D1*
X646016Y1932930D1*
X649266Y1929930D1*
X592266Y1932930D2*
X601266D2*
X602651Y1929930D1*
X603513Y1926930D1*
X603950Y1923930D1*
X604150Y1920930D1*
X604266Y1917930D1*
X610266Y1932930D2*
Y1929930D1*
Y1926930D1*
Y1923930D1*
Y1920930D1*
Y1917930D1*
X622266Y1932930D2*
X655266D2*
Y1929930D1*
X658266Y1932930D2*
Y1929930D1*
X667266Y1932930D2*
Y1929930D1*
X670266Y1932930D2*
X676266D2*
X685266D2*
X691266D2*
X706266D2*
X712266D2*
X718266D2*
X720103Y1929930D1*
X721595Y1926930D1*
X722714Y1923930D1*
X722189Y1920930D1*
X721266Y1917930D1*
X586266Y1929930D2*
Y1926930D1*
Y1923930D1*
X592266Y1929930D2*
Y1926930D1*
Y1923930D1*
X598266Y1929930D2*
X595266Y1926930D1*
X598266Y1929930D2*
X601266Y1926930D1*
X673266Y1929930D2*
X670266Y1926930D1*
X673266Y1929930D2*
X676266Y1926930D1*
X679266Y1929930D2*
X682266Y1926930D1*
X715266Y1929930D2*
X712266Y1926930D1*
X715266Y1929930D2*
X718266Y1926930D1*
X574266D2*
Y1923930D1*
Y1920930D1*
Y1917930D1*
X583266Y1926930D2*
Y1923930D1*
Y1920930D1*
Y1917930D1*
X613266Y1926930D2*
Y1923930D1*
Y1920930D1*
Y1917930D1*
X625266Y1926930D2*
Y1923930D1*
Y1920930D1*
Y1917930D1*
X628266Y1926930D2*
Y1923930D1*
Y1920930D1*
X637266Y1926930D2*
Y1923930D1*
Y1920930D1*
X640266Y1926930D2*
Y1923930D1*
Y1920930D1*
Y1917930D1*
X646266Y1926930D2*
Y1923930D1*
Y1920930D1*
Y1917930D1*
X697266Y1926930D2*
Y1923930D1*
Y1920930D1*
Y1917930D1*
X706266Y1926930D2*
Y1923930D1*
Y1920930D1*
Y1917930D1*
X670266Y1923930D2*
X667266Y1920930D1*
X670266Y1923930D2*
X673266Y1920930D1*
X598266D2*
X595266Y1917930D1*
X598266Y1920930D2*
X601266Y1917930D1*
X679266Y1920930D2*
X676266Y1917930D1*
X679266Y1920930D2*
X682266Y1917930D1*
X715266Y1920930D2*
X712266Y1917930D1*
X715266Y1920930D2*
X718266Y1917930D1*
X1113114Y755234D2*
D67*
X1108361Y752858D1*
X1103553Y748049D1*
X1101176Y743296D1*
Y733735D1*
X1103552Y728926D1*
X1108361Y724173D1*
X1113114Y721741D1*
X1120299Y719365D1*
X1132293D1*
X1139422Y721741D1*
X1144231Y724173D1*
X1148984Y728926D1*
X1151416Y733735D1*
Y743296D1*
X1148984Y748049D1*
X1144231Y752858D1*
X1139422Y755234D1*
X1117923Y801790D2*
X1125108Y799359D1*
X1129916Y794605D1*
X1132293Y787420D1*
Y785044D1*
X1129916Y777859D1*
X1125108Y773106D1*
X1117923Y770674D1*
X1115546D1*
X1108361Y773106D1*
X1103608Y777859D1*
X1101231Y785044D1*
Y787420D1*
X1103608Y794605D1*
X1108361Y799359D1*
X1117923Y801790D1*
X1129916D1*
X1141854Y799359D1*
X1149039Y794605D1*
X1151416Y787420D1*
Y782667D1*
X1149039Y775482D1*
X1144231Y773106D1*
X1240345Y710429D2*
X1237913Y715237D1*
X1230783Y722423D1*
X1280968Y722422D1*
X1247474Y737862D2*
X1271406D1*
X1278536Y740238D1*
X1280968Y745047D1*
Y752232D1*
X1278536Y756985D1*
X1271406Y764170D1*
X1247474D2*
X1280968D1*
X1230728Y810726D2*
Y779609D1*
X1280968D1*
X1254659D2*
Y798732D1*
X1851180Y1584928D2*
X1848803Y1589681D1*
X1843995Y1594490D1*
X1839241Y1596866D1*
X1829680D1*
X1824871Y1594490D1*
X1820118Y1589681D1*
X1817686Y1584928D1*
X1815310Y1577743D1*
Y1565749D1*
X1817686Y1558620D1*
X1820118Y1553811D1*
X1824871Y1549058D1*
X1829680Y1546626D1*
X1839241D1*
X1843995Y1549058D1*
X1848803Y1553811D1*
X1851180Y1558620D1*
X1866619Y1596866D2*
Y1546626D1*
X1888174D1*
X1895359Y1549058D1*
X1897736Y1551435D1*
X1900112Y1556188D1*
Y1563373D1*
X1897736Y1568181D1*
X1895359Y1570558D1*
X1888174Y1572934D1*
X1895359Y1575366D1*
X1897736Y1577743D1*
X1900112Y1582496D1*
Y1587304D1*
X1897736Y1592058D1*
X1895359Y1594490D1*
X1888174Y1596866D1*
X1866619D1*
Y1572934D2*
X1888174D1*
X1915552Y1596866D2*
Y1546626D1*
X1949045Y1596866D2*
X1915552Y1563373D1*
X1927490Y1575366D2*
X1949045Y1546626D1*
X1964484Y1587249D2*
X1969293Y1589681D1*
X1976478Y1596811D1*
Y1546626D1*
X1851180Y1678688D2*
X1848803Y1683441D1*
X1843995Y1688249D1*
X1839241Y1690626D1*
X1829680D1*
X1824871Y1688249D1*
X1820118Y1683441D1*
X1817686Y1678688D1*
X1815310Y1671503D1*
Y1659509D1*
X1817686Y1652379D1*
X1820118Y1647571D1*
X1824871Y1642818D1*
X1829680Y1640386D1*
X1839241D1*
X1843995Y1642818D1*
X1848803Y1647571D1*
X1851180Y1652379D1*
X1866619Y1690626D2*
Y1640386D1*
X1888174D1*
X1895359Y1642818D1*
X1897736Y1645194D1*
X1900112Y1649948D1*
Y1657133D1*
X1897736Y1661941D1*
X1895359Y1664318D1*
X1888174Y1666694D1*
X1895359Y1669126D1*
X1897736Y1671503D1*
X1900112Y1676256D1*
Y1681064D1*
X1897736Y1685818D1*
X1895359Y1688249D1*
X1888174Y1690626D1*
X1866619D1*
Y1666694D2*
X1888174D1*
X1915552Y1664318D2*
X1937107D1*
X1944236Y1666694D1*
X1946668Y1669126D1*
X1949045Y1673879D1*
Y1681064D1*
X1946668Y1685818D1*
X1944236Y1688249D1*
X1937107Y1690626D1*
X1915552D1*
Y1640386D1*
X1964484Y1681009D2*
X1969293Y1683441D1*
X1976478Y1690571D1*
Y1640386D1*
X953256Y1190362D2*
X948503Y1187985D1*
X943694Y1183177D1*
X941318Y1178423D1*
Y1168862D1*
X943694Y1164053D1*
X948503Y1159300D1*
X953256Y1156868D1*
X960441Y1154492D1*
X972434D1*
X979564Y1156868D1*
X984373Y1159300D1*
X989126Y1164053D1*
X991558Y1168862D1*
Y1178423D1*
X989126Y1183177D1*
X984373Y1187985D1*
X979564Y1190362D1*
X941318Y1205801D2*
X991558D1*
Y1227356D1*
X989126Y1234541D1*
X986749Y1236918D1*
X981996Y1239294D1*
X974811D1*
X970003Y1236918D1*
X967626Y1234541D1*
X965249Y1227356D1*
X962818Y1234541D1*
X960441Y1236918D1*
X955688Y1239294D1*
X950879D1*
X946126Y1236918D1*
X943694Y1234541D1*
X941318Y1227356D1*
Y1205801D1*
X965249D2*
Y1227356D1*
X967626Y1254733D2*
Y1276289D1*
X965249Y1283418D1*
X962817Y1285850D1*
X958064Y1288227D1*
X950879D1*
X946126Y1285850D1*
X943694Y1283418D1*
X941318Y1276289D1*
Y1254733D1*
X991558D1*
X953311Y1306098D2*
X950935D1*
X946126Y1308474D1*
X943750Y1310851D1*
X941373Y1315659D1*
Y1325221D1*
X943750Y1329974D1*
X946126Y1332351D1*
X950935Y1334783D1*
X955688D1*
X960496Y1332351D1*
X967626Y1327598D1*
X991558Y1303666D1*
Y1337159D1*
X1090610Y1198735D2*
X1092986Y1191550D1*
X1100171Y1186742D1*
X1112110Y1184365D1*
X1119295D1*
X1131233Y1186742D1*
X1138418Y1191550D1*
X1140795Y1198735D1*
Y1203488D1*
X1138418Y1210673D1*
X1131233Y1215426D1*
X1119295Y1217858D1*
X1112110D1*
X1100171Y1215426D1*
X1092986Y1210673D1*
X1090610Y1203488D1*
Y1198735D1*
X1100171Y1215426D2*
X1131233Y1186742D1*
X1135986Y1235674D2*
X1138418Y1233297D1*
X1140795Y1235674D1*
X1138418Y1238106D1*
X1135986Y1235674D1*
X1100171Y1253545D2*
X1097740Y1258354D1*
X1090610Y1265539D1*
X1140795D1*
X1107301Y1280978D2*
X1131233D1*
X1138363Y1283354D1*
X1140795Y1288163D1*
Y1295348D1*
X1138363Y1300101D1*
X1131233Y1307286D1*
X1107301D2*
X1140795D1*
X1315896Y1630788D2*
X1311143Y1628412D1*
X1306335Y1623603D1*
X1303958Y1618850D1*
Y1609288D1*
X1306335Y1604480D1*
X1311143Y1599727D1*
X1315896Y1597295D1*
X1323081Y1594918D1*
X1335075D1*
X1342205Y1597295D1*
X1347013Y1599727D1*
X1351766Y1604480D1*
X1354198Y1609288D1*
Y1618850D1*
X1351766Y1623603D1*
X1347013Y1628412D1*
X1342205Y1630788D1*
X1303958Y1646227D2*
X1354198D1*
Y1667782D1*
X1351766Y1674967D1*
X1349390Y1677344D1*
X1344636Y1679721D1*
X1337451D1*
X1332643Y1677344D1*
X1330266Y1674967D1*
X1327890Y1667782D1*
X1325458Y1674967D1*
X1323081Y1677344D1*
X1318328Y1679721D1*
X1313520D1*
X1308767Y1677344D1*
X1306335Y1674968D1*
X1303958Y1667782D1*
Y1646227D1*
X1327890D2*
Y1667782D1*
X1330266Y1695160D2*
Y1716715D1*
X1327890Y1723845D1*
X1325458Y1726277D1*
X1320705Y1728653D1*
X1313520D1*
X1308767Y1726277D1*
X1306335Y1723845D1*
X1303958Y1716715D1*
Y1695160D1*
X1354198D1*
X1304013Y1748901D2*
Y1775154D1*
X1323137Y1760839D1*
Y1768024D1*
X1325513Y1772777D1*
X1327890Y1775154D1*
X1335075Y1777586D1*
X1339828D1*
X1347013Y1775154D1*
X1351821Y1770401D1*
X1354198Y1763216D1*
Y1756031D1*
X1351821Y1748901D1*
X1349390Y1746524D1*
X1344636Y1744092D1*
X1449787Y1321960D2*
Y1290899D1*
X1500027D1*
Y1321960D1*
X1473719Y1290899D2*
Y1310022D1*
X1449787Y1368461D2*
Y1337399D1*
X1500027D1*
Y1368461D1*
X1473719Y1337399D2*
Y1356523D1*
X1476096Y1383900D2*
Y1405455D1*
X1473719Y1412585D1*
X1471287Y1415017D1*
X1466534Y1417393D1*
X1459349D1*
X1454596Y1415017D1*
X1452164Y1412585D1*
X1449787Y1405455D1*
Y1383900D1*
X1500027D1*
X1473719Y1432833D2*
Y1454333D1*
X1471287Y1461518D1*
X1468911Y1463949D1*
X1464158Y1466326D1*
X1459349D1*
X1454596Y1463949D1*
X1452164Y1461518D1*
X1449787Y1454333D1*
Y1432833D1*
X1500027D1*
X1473719Y1449579D2*
X1500027Y1466326D1*
X1449787Y1496135D2*
X1452164Y1491327D1*
X1456972Y1486574D1*
X1461726Y1484142D1*
X1468911Y1481765D1*
X1480904D1*
X1488034Y1484142D1*
X1492842Y1486574D1*
X1497596Y1491327D1*
X1500027Y1496135D1*
Y1505697D1*
X1497596Y1510450D1*
X1492842Y1515259D1*
X1488034Y1517635D1*
X1480904Y1520012D1*
X1468911D1*
X1461726Y1517635D1*
X1456972Y1515259D1*
X1452164Y1510450D1*
X1449787Y1505697D1*
Y1496135D1*
X1500027Y1573698D2*
X1449787D1*
X1500027Y1554574D1*
X1449787Y1535451D1*
X1500027D1*
X1459404Y1589137D2*
X1456972Y1593945D1*
X1449843Y1601130D1*
X1500027D1*
X589049Y1507529D2*
Y1457289D1*
X622542Y1507529D2*
Y1457289D1*
X589049Y1483597D2*
X622542D1*
X637982Y1490782D2*
Y1466850D1*
X640358Y1459721D1*
X645167Y1457289D1*
X652352D1*
X657105Y1459721D1*
X664290Y1466850D1*
Y1490782D2*
Y1457289D1*
X679729Y1490782D2*
Y1457289D1*
Y1481221D2*
X686914Y1488406D1*
X691723Y1490782D1*
X698852D1*
X703661Y1488406D1*
X706037Y1481221D1*
Y1457289D1*
Y1481221D2*
X713222Y1488406D1*
X718031Y1490782D1*
X725161D1*
X729969Y1488406D1*
X732401Y1481221D1*
Y1457289D1*
X747840Y1507529D2*
X750217Y1505152D1*
X752649Y1507529D1*
X750217Y1509961D1*
X747840Y1507529D1*
X750217Y1490782D2*
Y1457289D1*
X796773Y1507529D2*
Y1457289D1*
Y1483597D2*
X792020Y1488406D1*
X787211Y1490782D1*
X780026D1*
X775273Y1488406D1*
X770465Y1483597D1*
X768088Y1476412D1*
Y1471659D1*
X770465Y1464474D1*
X775273Y1459721D1*
X780026Y1457289D1*
X787211D1*
X792020Y1459721D1*
X796773Y1464474D1*
X812212Y1497912D2*
X817021Y1500344D1*
X824206Y1507474D1*
Y1457289D1*
X2861623Y689819D2*
X2911863D1*
Y718504D1*
X2861623Y765005D2*
Y733943D1*
X2911863D1*
Y765005D1*
X2885555Y733943D2*
Y753066D1*
X2861623Y780444D2*
X2911863D1*
Y797191D1*
X2909432Y804376D1*
X2904678Y809184D1*
X2899870Y811561D1*
X2892740Y813937D1*
X2880747D1*
X2873562Y811561D1*
X2868808Y809184D1*
X2864000Y804376D1*
X2861623Y797191D1*
Y780444D1*
X2871240Y829376D2*
X2868808Y834185D1*
X2861679Y841370D1*
X2911863D1*
X2855642Y1341685D2*
X2905882D1*
Y1370370D1*
X2855642Y1416870D2*
Y1385809D1*
X2905882D1*
Y1416870D1*
X2879574Y1385809D2*
Y1404932D1*
X2855642Y1432309D2*
X2905882D1*
Y1449056D1*
X2903450Y1456241D1*
X2898697Y1461050D1*
X2893888Y1463426D1*
X2886759Y1465803D1*
X2874765D1*
X2867580Y1463426D1*
X2862827Y1461050D1*
X2858018Y1456241D1*
X2855642Y1449056D1*
Y1432309D1*
X2855697Y1486051D2*
Y1512304D1*
X2874820Y1497989D1*
Y1505174D1*
X2877197Y1509927D1*
X2879573Y1512304D1*
X2886759Y1514735D1*
X2891512D1*
X2898697Y1512304D1*
X2903505Y1507550D1*
X2905882Y1500365D1*
Y1493180D1*
X2903505Y1486050D1*
X2901073Y1483674D1*
X2896320Y1481242D1*
X2855642Y1016651D2*
X2905882D1*
Y1045335D1*
X2855642Y1091836D2*
Y1060775D1*
X2905882D1*
Y1091836D1*
X2879574Y1060775D2*
Y1079898D1*
X2855642Y1107275D2*
X2905882D1*
Y1124022D1*
X2903450Y1131207D1*
X2898697Y1136015D1*
X2893888Y1138392D1*
X2886759Y1140769D1*
X2874765D1*
X2867580Y1138392D1*
X2862827Y1136016D1*
X2858018Y1131207D1*
X2855642Y1124022D1*
Y1107275D1*
X2867635Y1158640D2*
X2865259D1*
X2860450Y1161016D1*
X2858074Y1163393D1*
X2855697Y1168201D1*
Y1177763D1*
X2858074Y1182516D1*
X2860450Y1184893D1*
X2865259Y1187325D1*
X2870012D1*
X2874820Y1184893D1*
X2881950Y1180140D1*
X2905882Y1156208D1*
Y1189701D1*
X2855642Y2016756D2*
X2905882D1*
Y2045440D1*
X2855642Y2091941D2*
Y2060880D1*
X2905882D1*
Y2091941D1*
X2879574Y2060880D2*
Y2080003D1*
X2855642Y2107380D2*
X2905882D1*
Y2124127D1*
X2903450Y2131312D1*
X2898697Y2136120D1*
X2893888Y2138497D1*
X2886759Y2140874D1*
X2874765D1*
X2867580Y2138497D1*
X2862827Y2136120D1*
X2858018Y2131312D1*
X2855642Y2124127D1*
Y2107380D1*
X2855697Y2184998D2*
Y2161121D1*
X2877197Y2158745D1*
X2874820Y2161121D1*
X2872388Y2168306D1*
Y2175436D1*
X2874820Y2182621D1*
X2879573Y2187430D1*
X2886759Y2189806D1*
X2891512D1*
X2898697Y2187430D1*
X2903505Y2182621D1*
X2905882Y2175436D1*
Y2168306D1*
X2903505Y2161121D1*
X2901073Y2158745D1*
X2896320Y2156313D1*
X2855642Y1690533D2*
X2905882D1*
Y1719218D1*
X2855642Y1765719D2*
Y1734657D1*
X2905882D1*
Y1765719D1*
X2879574Y1734657D2*
Y1753780D1*
X2855642Y1781158D2*
X2905882D1*
Y1797905D1*
X2903450Y1805090D1*
X2898697Y1809898D1*
X2893888Y1812275D1*
X2886759Y1814651D1*
X2874765D1*
X2867580Y1812275D1*
X2862827Y1809898D1*
X2858018Y1805090D1*
X2855642Y1797905D1*
Y1781158D1*
X2905882Y1854022D2*
X2855697D1*
X2889135Y1830090D1*
Y1865960D1*
X637001Y1738369D2*
Y1688129D1*
X665685D1*
X681125Y1738369D2*
X683501Y1735992D1*
X685933Y1738369D1*
X683501Y1740801D1*
X681125Y1738369D1*
X683501Y1721622D2*
Y1688129D1*
X730057Y1719245D2*
Y1680944D1*
X727681Y1673814D1*
X725304Y1671382D1*
X720496Y1669005D1*
X713311D1*
X708557Y1671382D1*
X730057Y1712060D2*
X725304Y1716814D1*
X720496Y1719245D1*
X713311D1*
X708557Y1716814D1*
X703749Y1712060D1*
X701372Y1704875D1*
Y1700067D1*
X703749Y1692937D1*
X708557Y1688129D1*
X713311Y1685752D1*
X720496D1*
X725304Y1688129D1*
X730057Y1692937D1*
X745496Y1738369D2*
Y1688129D1*
Y1712060D2*
X752682Y1719245D1*
X757490Y1721622D1*
X764675D1*
X769428Y1719245D1*
X771805Y1712060D1*
Y1688129D1*
X794429Y1738369D2*
Y1697690D1*
X796806Y1690561D1*
X801614Y1688129D1*
X806367D1*
X787244Y1721622D2*
X803991D1*
X821807Y1728752D2*
X826615Y1731184D1*
X833800Y1738313D1*
Y1688129D1*
X2195082Y1785457D2*
X2216581D1*
X2223766Y1787889D1*
X2226198Y1790265D1*
X2228575Y1795018D1*
Y1799827D1*
X2226198Y1804580D1*
X2223766Y1807012D1*
X2216581Y1809388D1*
X2195082D1*
Y1759148D1*
X2211828Y1785457D2*
X2228575Y1759148D1*
X2244014Y1799772D2*
X2248823Y1802203D1*
X2256008Y1809333D1*
Y1759148D1*
X2174208Y1650535D2*
X2179016Y1652967D1*
X2186201Y1660096D1*
Y1609912D1*
X2216011Y1660096D2*
X2208826Y1657720D1*
X2204017Y1650535D1*
X2201641Y1638596D1*
Y1631411D1*
X2204017Y1619473D1*
X2208826Y1612288D1*
X2216011Y1609912D1*
X2220764D1*
X2227949Y1612288D1*
X2232702Y1619473D1*
X2235134Y1631411D1*
Y1638596D1*
X2232702Y1650535D1*
X2227949Y1657720D1*
X2220764Y1660096D1*
X2216011D1*
X2232702Y1650535D2*
X2204017Y1619473D1*
X2250573Y1660152D2*
Y1609912D1*
X2274505Y1643405D2*
X2250573Y1619473D1*
X2260135Y1629035D2*
X2276881Y1609912D1*
X1125108Y930059D2*
Y951559D1*
X1122676Y958744D1*
X1120299Y961176D1*
X1115546Y963552D1*
X1110738D1*
X1105984Y961176D1*
X1103553Y958744D1*
X1101176Y951559D1*
Y930059D1*
X1151416D1*
X1125108Y946805D2*
X1151416Y963552D1*
X1101231Y983800D2*
Y1010053D1*
X1120354Y995738D1*
Y1002923D1*
X1122731Y1007676D1*
X1125108Y1010053D1*
X1132293Y1012485D1*
X1137046D1*
X1144231Y1010053D1*
X1149039Y1005300D1*
X1151416Y998115D1*
Y990930D1*
X1149039Y983800D1*
X1146607Y981423D1*
X1141854Y978991D1*
X1240345Y895469D2*
X1237913Y900277D1*
X1230783Y907462D1*
X1280968D1*
X1230783Y937271D2*
X1233160Y930086D1*
X1240345Y925278D1*
X1252283Y922901D1*
X1259468D1*
X1271406Y925278D1*
X1278591Y930086D1*
X1280968Y937271D1*
Y942025D1*
X1278591Y949210D1*
X1271406Y953963D1*
X1259468Y956395D1*
X1252283D1*
X1240345Y953963D1*
X1233160Y949210D1*
X1230783Y942025D1*
Y937271D1*
X1240345Y953963D2*
X1271406Y925278D1*
X1230783Y986204D2*
X1233160Y979019D1*
X1240345Y974211D1*
X1252283Y971834D1*
X1259468D1*
X1271406Y974210D1*
X1278591Y979019D1*
X1280968Y986204D1*
Y990957D1*
X1278591Y998142D1*
X1271406Y1002895D1*
X1259468Y1005327D1*
X1252283D1*
X1240345Y1002895D1*
X1233160Y998142D1*
X1230783Y990957D1*
Y986204D1*
X1240345Y1002895D2*
X1271406Y974210D1*
X1230728Y1020766D2*
X1280968D1*
X1247474Y1044698D2*
X1271406Y1020766D1*
X1261845Y1030328D2*
X1280968Y1047075D1*
X972625Y938026D2*
X994125D1*
X1001310Y940458D1*
X1003742Y942835D1*
X1006118Y947588D1*
Y952396D1*
X1003742Y957150D1*
X1001310Y959581D1*
X994125Y961958D1*
X972625D1*
Y911718D1*
X989372Y938026D2*
X1006118Y911718D1*
X1045489D2*
Y961903D1*
X1021558Y928465D1*
X1057428D1*
X963689Y822789D2*
X968498Y825221D1*
X975683Y832351D1*
Y782166D1*
X1005492Y832351D2*
X998307Y829974D1*
X993499Y822789D1*
X991122Y810851D1*
Y803666D1*
X993499Y791728D1*
X998307Y784543D1*
X1005492Y782166D1*
X1010245D1*
X1017430Y784543D1*
X1022184Y791728D1*
X1024616Y803666D1*
Y810851D1*
X1022184Y822789D1*
X1017430Y829974D1*
X1010245Y832351D1*
X1005492D1*
X1022184Y822789D2*
X993499Y791728D1*
X1040055Y832406D2*
Y782166D1*
X1063986Y815659D2*
X1040055Y791728D1*
X1049616Y801289D2*
X1066363Y782166D1*
X1096513Y1754252D2*
Y1775752D1*
X1094081Y1782937D1*
X1091705Y1785369D1*
X1086952Y1787746D1*
X1082143D1*
X1077390Y1785369D1*
X1074958Y1782937D1*
X1072581Y1775752D1*
Y1754252D1*
X1122821D1*
X1096513Y1770999D2*
X1122821Y1787746D1*
X1079766Y1831870D2*
X1075013Y1829493D1*
X1072637Y1822308D1*
Y1817555D1*
X1075013Y1810370D1*
X1082198Y1805562D1*
X1094137Y1803185D1*
X1106075D1*
X1115636Y1805562D1*
X1120445Y1810370D1*
X1122821Y1817555D1*
Y1819932D1*
X1120445Y1827061D1*
X1115636Y1831870D1*
X1108451Y1834246D1*
X1106075D1*
X1098890Y1831870D1*
X1094137Y1827061D1*
X1091760Y1819932D1*
Y1817555D1*
X1094137Y1810370D1*
X1098890Y1805562D1*
X1106075Y1803185D1*
X1231435Y1742913D2*
X1229003Y1747721D1*
X1221874Y1754906D1*
X1272058D1*
X1221874Y1784715D2*
X1224250Y1777530D1*
X1231435Y1772722D1*
X1243373Y1770345D1*
X1250558D1*
X1262497Y1772722D1*
X1269682Y1777530D1*
X1272058Y1784715D1*
Y1789469D1*
X1269682Y1796654D1*
X1262497Y1801407D1*
X1250558Y1803839D1*
X1243373D1*
X1231435Y1801407D1*
X1224250Y1796654D1*
X1221874Y1789469D1*
Y1784715D1*
X1231435Y1801407D2*
X1262497Y1772722D1*
X1221818Y1819278D2*
X1272058D1*
X1238565Y1843210D2*
X1262497Y1819278D1*
X1252935Y1828840D2*
X1272058Y1845586D1*
X1096513Y1515334D2*
Y1536834D1*
X1094081Y1544019D1*
X1091705Y1546451D1*
X1086952Y1548828D1*
X1082143D1*
X1077390Y1546451D1*
X1074958Y1544019D1*
X1072581Y1536834D1*
Y1515334D1*
X1122821D1*
X1096513Y1532081D2*
X1122821Y1548828D1*
X1072637Y1576205D2*
X1075013Y1569075D1*
X1079766Y1566644D1*
X1084575D1*
X1089328Y1569075D1*
X1091760Y1573829D1*
X1094137Y1583390D1*
X1096513Y1590575D1*
X1101322Y1595328D1*
X1106075Y1597705D1*
X1113260D1*
X1118013Y1595328D1*
X1120445Y1592952D1*
X1122821Y1585767D1*
Y1576205D1*
X1120445Y1569075D1*
X1118013Y1566644D1*
X1113260Y1564267D1*
X1106075D1*
X1101322Y1566644D1*
X1096513Y1571452D1*
X1094137Y1578582D1*
X1091760Y1588143D1*
X1089328Y1592952D1*
X1084575Y1595328D1*
X1079766D1*
X1075013Y1592952D1*
X1072637Y1585767D1*
Y1576205D1*
X1231435Y1505183D2*
X1229003Y1509991D1*
X1221874Y1517176D1*
X1272058D1*
X1221874Y1546986D2*
X1224250Y1539801D1*
X1231435Y1534992D1*
X1243373Y1532616D1*
X1250558D1*
X1262497Y1534992D1*
X1269682Y1539801D1*
X1272058Y1546986D1*
Y1551739D1*
X1269682Y1558924D1*
X1262497Y1563677D1*
X1250558Y1566109D1*
X1243373D1*
X1231435Y1563677D1*
X1224250Y1558924D1*
X1221874Y1551739D1*
Y1546986D1*
X1231435Y1563677D2*
X1262497Y1534992D1*
X1221818Y1581548D2*
X1272058D1*
X1238565Y1605480D2*
X1262497Y1581548D1*
X1252935Y1591110D2*
X1272058Y1607856D1*
X2664177Y873514D2*
X2661801Y878268D1*
X2654616Y880644D1*
X2649863D1*
X2642678Y878268D1*
X2637869Y871083D1*
X2635492Y859144D1*
Y847206D1*
X2637869Y837644D1*
X2642678Y832836D1*
X2649863Y830459D1*
X2652239D1*
X2659369Y832836D1*
X2664177Y837644D1*
X2666554Y844830D1*
Y847206D1*
X2664177Y854391D1*
X2659369Y859144D1*
X2652239Y861521D1*
X2649863D1*
X2642678Y859144D1*
X2637869Y854391D1*
X2635492Y847206D1*
X2684425Y868706D2*
Y871083D1*
X2686802Y875891D1*
X2689178Y878268D1*
X2693987Y880644D1*
X2703548D1*
X2708301Y878268D1*
X2710678Y875891D1*
X2713110Y871083D1*
Y866329D1*
X2710678Y861521D1*
X2705925Y854391D1*
X2681993Y830459D1*
X2715487D1*
X2657927Y1542335D2*
X2655550Y1547088D1*
X2648365Y1549464D1*
X2643612D1*
X2636427Y1547088D1*
X2631618Y1539903D1*
X2629242Y1527965D1*
Y1516026D1*
X2631618Y1506465D1*
X2636427Y1501656D1*
X2643612Y1499280D1*
X2645988D1*
X2653118Y1501656D1*
X2657927Y1506465D1*
X2660303Y1513650D1*
Y1516026D1*
X2657927Y1523211D1*
X2653118Y1527965D1*
X2645988Y1530341D1*
X2643612D1*
X2636427Y1527965D1*
X2631618Y1523211D1*
X2629242Y1516026D1*
X2678174Y1537526D2*
Y1539903D1*
X2680551Y1544711D1*
X2682928Y1547088D1*
X2687736Y1549464D1*
X2697298D1*
X2702051Y1547088D1*
X2704427Y1544711D1*
X2706859Y1539903D1*
Y1535150D1*
X2704427Y1530341D1*
X2699674Y1523211D1*
X2675743Y1499280D1*
X2709236D1*
X2657945Y1217294D2*
X2655568Y1222047D1*
X2648383Y1224424D1*
X2643630D1*
X2636445Y1222047D1*
X2631637Y1214862D1*
X2629260Y1202924D1*
Y1190986D1*
X2631637Y1181424D1*
X2636445Y1176616D1*
X2643630Y1174239D1*
X2646007D1*
X2653137Y1176616D1*
X2657945Y1181424D1*
X2660322Y1188609D1*
Y1190986D1*
X2657945Y1198171D1*
X2653137Y1202924D1*
X2646007Y1205300D1*
X2643630D1*
X2636445Y1202924D1*
X2631637Y1198171D1*
X2629260Y1190986D1*
X2678193Y1212485D2*
Y1214862D1*
X2680569Y1219671D1*
X2682946Y1222047D1*
X2687754Y1224424D1*
X2697316D1*
X2702069Y1222047D1*
X2704446Y1219671D1*
X2706878Y1214862D1*
Y1210109D1*
X2704446Y1205300D1*
X2699693Y1198171D1*
X2675761Y1174239D1*
X2709254D1*
X2658196Y2211286D2*
X2655819Y2216039D1*
X2648634Y2218416D1*
X2643881D1*
X2636696Y2216039D1*
X2631887Y2208854D1*
X2629511Y2196916D1*
Y2184978D1*
X2631887Y2175416D1*
X2636696Y2170608D1*
X2643881Y2168231D1*
X2646258D1*
X2653387Y2170608D1*
X2658196Y2175416D1*
X2660572Y2182601D1*
Y2184978D1*
X2658196Y2192163D1*
X2653387Y2196916D1*
X2646258Y2199293D1*
X2643881D1*
X2636696Y2196916D1*
X2631887Y2192163D1*
X2629511Y2184978D1*
X2678443Y2206478D2*
Y2208854D1*
X2680820Y2213663D1*
X2683197Y2216039D1*
X2688005Y2218416D1*
X2697567D1*
X2702320Y2216039D1*
X2704696Y2213663D1*
X2707128Y2208854D1*
Y2204101D1*
X2704696Y2199293D1*
X2699943Y2192163D1*
X2676012Y2168231D1*
X2709505D1*
X2651676Y1886121D2*
X2649299Y1890874D1*
X2642114Y1893250D1*
X2637361D1*
X2630176Y1890874D1*
X2625368Y1883689D1*
X2622991Y1871751D1*
Y1859812D1*
X2625368Y1850251D1*
X2630176Y1845442D1*
X2637361Y1843066D1*
X2639738D1*
X2646868Y1845442D1*
X2651676Y1850251D1*
X2654053Y1857436D1*
Y1859812D1*
X2651676Y1866997D1*
X2646868Y1871751D1*
X2639738Y1874127D1*
X2637361D1*
X2630176Y1871751D1*
X2625368Y1866997D1*
X2622991Y1859812D1*
X2671924Y1881312D2*
Y1883689D1*
X2674300Y1888497D1*
X2676677Y1890874D1*
X2681485Y1893250D1*
X2691047D1*
X2695800Y1890874D1*
X2698177Y1888497D1*
X2700609Y1883689D1*
Y1878936D1*
X2698177Y1874127D1*
X2693424Y1866997D1*
X2669492Y1843066D1*
X2702985D1*
X2664177Y798507D2*
X2661801Y803260D1*
X2654616Y805636D1*
X2649863D1*
X2642678Y803260D1*
X2637869Y796075D1*
X2635492Y784136D1*
Y772198D1*
X2637869Y762637D1*
X2642678Y757828D1*
X2649863Y755452D1*
X2652239D1*
X2659369Y757828D1*
X2664177Y762637D1*
X2666554Y769822D1*
Y772198D1*
X2664177Y779383D1*
X2659369Y784136D1*
X2652239Y786513D1*
X2649863D1*
X2642678Y784136D1*
X2637869Y779383D1*
X2635492Y772198D1*
X2684425Y793698D2*
Y796075D1*
X2686802Y800883D1*
X2689178Y803260D1*
X2693987Y805636D1*
X2703548D1*
X2708301Y803260D1*
X2710678Y800883D1*
X2713110Y796075D1*
Y791322D1*
X2710678Y786513D1*
X2705925Y779383D1*
X2681993Y755452D1*
X2715487D1*
X2657927Y1467327D2*
X2655550Y1472080D1*
X2648365Y1474457D1*
X2643612D1*
X2636427Y1472080D1*
X2631618Y1464895D1*
X2629242Y1452957D1*
Y1441018D1*
X2631618Y1431457D1*
X2636427Y1426648D1*
X2643612Y1424272D1*
X2645988D1*
X2653118Y1426648D1*
X2657927Y1431457D1*
X2660303Y1438642D1*
Y1441018D1*
X2657927Y1448203D1*
X2653118Y1452957D1*
X2645988Y1455333D1*
X2643612D1*
X2636427Y1452957D1*
X2631618Y1448203D1*
X2629242Y1441018D1*
X2678174Y1462518D2*
Y1464895D1*
X2680551Y1469703D1*
X2682928Y1472080D1*
X2687736Y1474457D1*
X2697298D1*
X2702051Y1472080D1*
X2704427Y1469703D1*
X2706859Y1464895D1*
Y1460142D1*
X2704427Y1455333D1*
X2699674Y1448203D1*
X2675743Y1424272D1*
X2709236D1*
X2657927Y1142293D2*
X2655550Y1147046D1*
X2648365Y1149422D1*
X2643612D1*
X2636427Y1147046D1*
X2631618Y1139861D1*
X2629242Y1127923D1*
Y1115984D1*
X2631618Y1106423D1*
X2636427Y1101614D1*
X2643612Y1099238D1*
X2645988D1*
X2653118Y1101614D1*
X2657927Y1106423D1*
X2660303Y1113608D1*
Y1115984D1*
X2657927Y1123169D1*
X2653118Y1127923D1*
X2645988Y1130299D1*
X2643612D1*
X2636427Y1127923D1*
X2631618Y1123169D1*
X2629242Y1115984D1*
X2678174Y1137484D2*
Y1139861D1*
X2680551Y1144669D1*
X2682928Y1147046D1*
X2687736Y1149422D1*
X2697298D1*
X2702051Y1147046D1*
X2704427Y1144669D1*
X2706859Y1139861D1*
Y1135108D1*
X2704427Y1130299D1*
X2699674Y1123169D1*
X2675743Y1099238D1*
X2709236D1*
X2658196Y2136278D2*
X2655819Y2141031D1*
X2648634Y2143408D1*
X2643881D1*
X2636696Y2141031D1*
X2631887Y2133846D1*
X2629511Y2121908D1*
Y2109970D1*
X2631887Y2100408D1*
X2636696Y2095600D1*
X2643881Y2093223D1*
X2646258D1*
X2653387Y2095600D1*
X2658196Y2100408D1*
X2660572Y2107593D1*
Y2109970D1*
X2658196Y2117155D1*
X2653387Y2121908D1*
X2646258Y2124285D1*
X2643881D1*
X2636696Y2121908D1*
X2631887Y2117155D1*
X2629511Y2109970D1*
X2678443Y2131470D2*
Y2133846D1*
X2680820Y2138655D1*
X2683197Y2141031D1*
X2688005Y2143408D1*
X2697567D1*
X2702320Y2141031D1*
X2704696Y2138655D1*
X2707128Y2133846D1*
Y2129093D1*
X2704696Y2124285D1*
X2699943Y2117155D1*
X2676012Y2093223D1*
X2709505D1*
X2651676Y1811113D2*
X2649299Y1815866D1*
X2642114Y1818243D1*
X2637361D1*
X2630176Y1815866D1*
X2625368Y1808681D1*
X2622991Y1796743D1*
Y1784805D1*
X2625368Y1775243D1*
X2630176Y1770434D1*
X2637361Y1768058D1*
X2639738D1*
X2646868Y1770434D1*
X2651676Y1775243D1*
X2654053Y1782428D1*
Y1784805D1*
X2651676Y1791990D1*
X2646868Y1796743D1*
X2639738Y1799119D1*
X2637361D1*
X2630176Y1796743D1*
X2625368Y1791990D1*
X2622991Y1784805D1*
X2671924Y1806304D2*
Y1808681D1*
X2674300Y1813489D1*
X2676677Y1815866D1*
X2681485Y1818243D1*
X2691047D1*
X2695800Y1815866D1*
X2698177Y1813489D1*
X2700609Y1808681D1*
Y1803928D1*
X2698177Y1799119D1*
X2693424Y1791990D1*
X2669492Y1768058D1*
X2702985D1*
X2607808Y727272D2*
X2612617Y729703D1*
X2619802Y736833D1*
Y686648D1*
X2649611Y736833D2*
X2642426Y734457D1*
X2637618Y727272D1*
X2635241Y715333D1*
Y708148D1*
X2637618Y696210D1*
X2642426Y689025D1*
X2649611Y686648D1*
X2654364D1*
X2661549Y689025D1*
X2666302Y696210D1*
X2668734Y708148D1*
Y715333D1*
X2666302Y727272D1*
X2661549Y734457D1*
X2654364Y736833D1*
X2649611D1*
X2666302Y727272D2*
X2637618Y696210D1*
X2698544Y736833D2*
X2691359Y734457D1*
X2686550Y727272D1*
X2684174Y715333D1*
Y708148D1*
X2686550Y696210D1*
X2691359Y689025D1*
X2698544Y686648D1*
X2703297D1*
X2710482Y689025D1*
X2715235Y696210D1*
X2717667Y708148D1*
Y715333D1*
X2715235Y727272D1*
X2710482Y734457D1*
X2703297Y736833D1*
X2698544D1*
X2715235Y727272D2*
X2686550Y696210D1*
X2601827Y1389888D2*
X2606635Y1392320D1*
X2613820Y1399450D1*
Y1349265D1*
X2643629Y1399450D2*
X2636444Y1397073D1*
X2631636Y1389888D1*
X2629259Y1377950D1*
Y1370765D1*
X2631636Y1358827D1*
X2636444Y1351642D1*
X2643629Y1349265D1*
X2648383D1*
X2655568Y1351642D1*
X2660321Y1358827D1*
X2662753Y1370765D1*
Y1377950D1*
X2660321Y1389888D1*
X2655568Y1397073D1*
X2648383Y1399450D1*
X2643629D1*
X2660321Y1389888D2*
X2631636Y1358827D1*
X2692562Y1399450D2*
X2685377Y1397073D1*
X2680568Y1389888D1*
X2678192Y1377950D1*
Y1370765D1*
X2680568Y1358827D1*
X2685377Y1351642D1*
X2692562Y1349265D1*
X2697315D1*
X2704500Y1351642D1*
X2709253Y1358827D1*
X2711685Y1370765D1*
Y1377950D1*
X2709253Y1389888D1*
X2704500Y1397073D1*
X2697315Y1399450D1*
X2692562D1*
X2709253Y1389888D2*
X2680568Y1358827D1*
X2601827Y1071105D2*
X2606635Y1073537D1*
X2613820Y1080666D1*
Y1030482D1*
X2643629Y1080666D2*
X2636444Y1078290D1*
X2631636Y1071105D1*
X2629259Y1059167D1*
Y1051982D1*
X2631636Y1040043D1*
X2636444Y1032858D1*
X2643629Y1030482D1*
X2648383D1*
X2655568Y1032858D1*
X2660321Y1040043D1*
X2662753Y1051982D1*
Y1059167D1*
X2660321Y1071105D1*
X2655568Y1078290D1*
X2648383Y1080666D1*
X2643629D1*
X2660321Y1071105D2*
X2631636Y1040043D1*
X2692562Y1080666D2*
X2685377Y1078290D1*
X2680568Y1071105D1*
X2678192Y1059167D1*
Y1051982D1*
X2680568Y1040043D1*
X2685377Y1032858D1*
X2692562Y1030482D1*
X2697315D1*
X2704500Y1032858D1*
X2709253Y1040043D1*
X2711685Y1051982D1*
Y1059167D1*
X2709253Y1071105D1*
X2704500Y1078290D1*
X2697315Y1080666D1*
X2692562D1*
X2709253Y1071105D2*
X2680568Y1040043D1*
X2595576Y2064959D2*
X2600384Y2067391D1*
X2607569Y2074521D1*
Y2024336D1*
X2637379Y2074521D2*
X2630194Y2072144D1*
X2625385Y2064959D1*
X2623009Y2053021D1*
Y2045836D1*
X2625385Y2033898D1*
X2630194Y2026713D1*
X2637379Y2024336D1*
X2642132D1*
X2649317Y2026713D1*
X2654070Y2033898D1*
X2656502Y2045836D1*
Y2053021D1*
X2654070Y2064959D1*
X2649317Y2072144D1*
X2642132Y2074521D1*
X2637379D1*
X2654070Y2064959D2*
X2625385Y2033898D1*
X2686311Y2074521D2*
X2679126Y2072144D1*
X2674318Y2064959D1*
X2671941Y2053021D1*
Y2045836D1*
X2674318Y2033898D1*
X2679126Y2026713D1*
X2686311Y2024336D1*
X2691064D1*
X2698250Y2026713D1*
X2703003Y2033898D1*
X2705435Y2045836D1*
Y2053021D1*
X2703003Y2064959D1*
X2698250Y2072144D1*
X2691064Y2074521D1*
X2686311D1*
X2703003Y2064959D2*
X2674318Y2033898D1*
X2595576Y1739925D2*
X2600384Y1742357D1*
X2607569Y1749487D1*
Y1699302D1*
X2637379Y1749487D2*
X2630194Y1747110D1*
X2625385Y1739925D1*
X2623009Y1727987D1*
Y1720802D1*
X2625385Y1708864D1*
X2630194Y1701679D1*
X2637379Y1699302D1*
X2642132D1*
X2649317Y1701679D1*
X2654070Y1708864D1*
X2656502Y1720802D1*
Y1727987D1*
X2654070Y1739925D1*
X2649317Y1747110D1*
X2642132Y1749487D1*
X2637379D1*
X2654070Y1739925D2*
X2625385Y1708864D1*
X2686311Y1749487D2*
X2679126Y1747110D1*
X2674318Y1739925D1*
X2671941Y1727987D1*
Y1720802D1*
X2674318Y1708864D1*
X2679126Y1701679D1*
X2686311Y1699302D1*
X2691064D1*
X2698250Y1701679D1*
X2703003Y1708864D1*
X2705435Y1720802D1*
Y1727987D1*
X2703003Y1739925D1*
X2698250Y1747110D1*
X2691064Y1749487D1*
X2686311D1*
X2703003Y1739925D2*
X2674318Y1708864D1*
X723278Y1069496D2*
X718525Y1074304D1*
X711340Y1076681D1*
X701778D1*
X694593Y1074304D1*
X689785Y1069496D1*
Y1064743D1*
X692217Y1059934D1*
X694593Y1057558D1*
X699347Y1055181D1*
X713717Y1050373D1*
X718525Y1047996D1*
X720902Y1045564D1*
X723278Y1040811D1*
Y1033626D1*
X718525Y1028873D1*
X711340Y1026441D1*
X701778D1*
X694593Y1028873D1*
X689785Y1033626D1*
X738718Y1067064D2*
X743526Y1069496D1*
X750711Y1076626D1*
Y1026441D1*
X608068Y696820D2*
X629568D1*
X636753Y699251D1*
X639185Y701628D1*
X641561Y706381D1*
Y711190D1*
X639185Y715943D1*
X636753Y718375D1*
X629568Y720751D1*
X608068D1*
Y670511D1*
X624815Y696820D2*
X641561Y670511D1*
X688062Y720751D2*
X657001D1*
Y670511D1*
X688062D1*
X657001Y696820D2*
X676124D1*
X736995Y713566D2*
X732242Y718375D1*
X725056Y720751D1*
X715495D1*
X708310Y718375D1*
X703501Y713566D1*
Y708813D1*
X705933Y704005D1*
X708310Y701628D1*
X713063Y699251D1*
X727433Y694443D1*
X732242Y692066D1*
X734618Y689635D1*
X736995Y684881D1*
Y677696D1*
X732242Y672943D1*
X725056Y670511D1*
X715495D1*
X708310Y672943D1*
X703501Y677696D1*
X783495Y720751D2*
X752434D1*
Y670511D1*
X783495D1*
X752434Y696820D2*
X771557D1*
X815681Y720751D2*
Y670511D1*
X798935Y720751D2*
X832428D1*
X2298223Y1674860D2*
Y1638990D1*
X2300600Y1631805D1*
X2305408Y1627051D1*
X2312593Y1624620D1*
X2317347D1*
X2324532Y1627051D1*
X2329340Y1631805D1*
X2331717Y1638990D1*
Y1674860D1*
X2347156Y1665243D2*
X2351964Y1667675D1*
X2359149Y1674804D1*
Y1624620D1*
X1348852Y2238155D2*
D68*
X1318708Y2226648D1*
X1348852Y2215174D1*
X1338804Y2219485D2*
Y2233844D1*
X1333067Y2247419D2*
Y2260319D1*
X1331608Y2264630D1*
X1330182Y2266089D1*
X1327330Y2267515D1*
X1324445D1*
X1321593Y2266089D1*
X1320134Y2264630D1*
X1318708Y2260319D1*
Y2247419D1*
X1348852D1*
X1333067Y2257467D2*
X1348852Y2267515D1*
X1318708Y2295415D2*
Y2276778D1*
X1348852D1*
Y2295415D1*
X1333067Y2276778D2*
Y2288252D1*
X1318708Y2323349D2*
Y2304679D1*
X1348852D1*
X1333067D2*
Y2316153D1*
X1425871Y2261696D2*
X1423019Y2260270D1*
X1420134Y2257385D1*
X1418708Y2254533D1*
Y2248796D1*
X1420134Y2245911D1*
X1423019Y2243059D1*
X1425871Y2241600D1*
X1430182Y2240174D1*
X1437378D1*
X1441656Y2241600D1*
X1444541Y2243059D1*
X1447393Y2245911D1*
X1448852Y2248796D1*
Y2254533D1*
X1447393Y2257385D1*
X1444541Y2260270D1*
X1441656Y2261696D1*
X1437378D1*
Y2254533D1*
X1418708Y2291056D2*
X1448852D1*
X1418708Y2270960D1*
X1448852D1*
X1418708Y2300319D2*
X1448852D1*
Y2310367D1*
X1447393Y2314678D1*
X1444541Y2317563D1*
X1441656Y2318989D1*
X1437378Y2320415D1*
X1430182D1*
X1425871Y2318989D1*
X1423019Y2317563D1*
X1420134Y2314678D1*
X1418708Y2310367D1*
Y2300319D1*
X1518708Y2252674D2*
X1548852D1*
Y2262722D1*
X1547393Y2267033D1*
X1544541Y2269918D1*
X1541656Y2271344D1*
X1537378Y2272770D1*
X1530182D1*
X1525871Y2271344D1*
X1523019Y2269918D1*
X1520134Y2267033D1*
X1518708Y2262722D1*
Y2252674D1*
X1524478Y2282034D2*
X1523019Y2284919D1*
X1518741Y2289230D1*
X1548852D1*
X1518741Y2301378D2*
Y2317130D1*
X1530215Y2308541D1*
Y2312852D1*
X1531641Y2315704D1*
X1533067Y2317130D1*
X1537378Y2318589D1*
X1540230D1*
X1544541Y2317130D1*
X1547426Y2314278D1*
X1548852Y2309967D1*
Y2305656D1*
X1547426Y2301378D1*
X1545967Y2299952D1*
X1543115Y2298493D1*
X1618708Y2252674D2*
X1648852D1*
Y2262722D1*
X1647393Y2267033D1*
X1644541Y2269918D1*
X1641656Y2271344D1*
X1637378Y2272770D1*
X1630182D1*
X1625871Y2271344D1*
X1623019Y2269918D1*
X1620134Y2267033D1*
X1618708Y2262722D1*
Y2252674D1*
X1624478Y2282034D2*
X1623019Y2284919D1*
X1618741Y2289230D1*
X1648852D1*
X1625904Y2299953D2*
X1624478D1*
X1621593Y2301378D1*
X1620167Y2302804D1*
X1618741Y2305689D1*
Y2311426D1*
X1620167Y2314278D1*
X1621593Y2315704D1*
X1624478Y2317163D1*
X1627330D1*
X1630215Y2315704D1*
X1634493Y2312852D1*
X1648852Y2298493D1*
Y2318589D1*
X1725191Y2247370D2*
X1742402D1*
X1729469Y2240174D2*
X1738091Y2254533D1*
X1729469D2*
X1738091Y2240174D1*
X1718708Y2263797D2*
X1748852D1*
Y2273845D1*
X1747393Y2278156D1*
X1744541Y2281041D1*
X1741656Y2282467D1*
X1737378Y2283893D1*
X1730182D1*
X1725871Y2282467D1*
X1723019Y2281041D1*
X1720134Y2278156D1*
X1718708Y2273845D1*
Y2263797D1*
X1724478Y2293156D2*
X1723019Y2296041D1*
X1718741Y2300352D1*
X1748852D1*
X1724478Y2309616D2*
X1723019Y2312501D1*
X1718741Y2316812D1*
X1748852D1*
X1825191Y2234870D2*
X1842402D1*
X1829469Y2227674D2*
X1838091Y2242033D1*
X1829469D2*
X1838091Y2227674D1*
X1818708Y2251297D2*
X1848852D1*
Y2261345D1*
X1847393Y2265656D1*
X1844541Y2268541D1*
X1841656Y2269967D1*
X1837378Y2271393D1*
X1830182D1*
X1825871Y2269967D1*
X1823019Y2268541D1*
X1820134Y2265656D1*
X1818708Y2261345D1*
Y2251297D1*
X1824478Y2280656D2*
X1823019Y2283541D1*
X1818741Y2287852D1*
X1848852D1*
X1818741Y2305738D2*
X1820167Y2301427D1*
X1824478Y2298542D1*
X1831641Y2297116D1*
X1835952D1*
X1843115Y2298542D1*
X1847426Y2301427D1*
X1848852Y2305738D1*
Y2308590D1*
X1847426Y2312901D1*
X1843115Y2315753D1*
X1835952Y2317212D1*
X1831641D1*
X1824478Y2315753D1*
X1820167Y2312901D1*
X1818741Y2308590D1*
Y2305738D1*
X1824478Y2315753D2*
X1843115Y2298542D1*
X1925191Y2247370D2*
X1942402D1*
X1929469Y2240174D2*
X1938091Y2254533D1*
X1929469D2*
X1938091Y2240174D1*
X1918708Y2263797D2*
X1948852D1*
Y2273845D1*
X1947393Y2278156D1*
X1944541Y2281041D1*
X1941656Y2282467D1*
X1937378Y2283893D1*
X1930182D1*
X1925871Y2282467D1*
X1923019Y2281041D1*
X1920134Y2278156D1*
X1918708Y2273845D1*
Y2263797D1*
X1928756Y2311826D2*
X1933067Y2310367D1*
X1935952Y2307515D1*
X1937378Y2303204D1*
Y2301778D1*
X1935952Y2297467D1*
X1933067Y2294615D1*
X1928756Y2293156D1*
X1927330D1*
X1923019Y2294615D1*
X1920167Y2297467D1*
X1918741Y2301778D1*
Y2303204D1*
X1920167Y2307515D1*
X1923019Y2310367D1*
X1928756Y2311826D1*
X1935952D1*
X1943115Y2310367D1*
X1947426Y2307515D1*
X1948852Y2303204D1*
Y2300352D1*
X1947426Y2296041D1*
X1944541Y2294615D1*
X2018708Y2265174D2*
X2048852D1*
Y2275222D1*
X2047393Y2279533D1*
X2044541Y2282418D1*
X2041656Y2283844D1*
X2037378Y2285270D1*
X2030182D1*
X2025871Y2283844D1*
X2023019Y2282418D1*
X2020134Y2279533D1*
X2018708Y2275222D1*
Y2265174D1*
X2018741Y2301697D2*
X2020167Y2297419D1*
X2023019Y2295960D1*
X2025904D1*
X2028756Y2297419D1*
X2030215Y2300271D1*
X2031641Y2306008D1*
X2033067Y2310319D1*
X2035952Y2313171D1*
X2038804Y2314597D1*
X2043115D1*
X2045967Y2313171D1*
X2047426Y2311745D1*
X2048852Y2307434D1*
Y2301697D1*
X2047426Y2297419D1*
X2045967Y2295960D1*
X2043115Y2294534D1*
X2038804D1*
X2035952Y2295960D1*
X2033067Y2298845D1*
X2031641Y2303123D1*
X2030215Y2308860D1*
X2028756Y2311745D1*
X2025904Y2313171D1*
X2023019D1*
X2020167Y2311745D1*
X2018741Y2307434D1*
Y2301697D1*
X2181208Y2265174D2*
X2211352D1*
Y2275222D1*
X2209893Y2279533D1*
X2207041Y2282418D1*
X2204156Y2283844D1*
X2199878Y2285270D1*
X2192682D1*
X2188371Y2283844D1*
X2185519Y2282418D1*
X2182634Y2279533D1*
X2181208Y2275222D1*
Y2265174D1*
X2211352Y2300271D2*
X2181241Y2314630D1*
Y2294534D1*
X2287691Y2247370D2*
X2304902D1*
X2291969Y2240174D2*
X2300591Y2254533D1*
X2291969D2*
X2300591Y2240174D1*
X2281208Y2263797D2*
X2311352D1*
Y2273845D1*
X2309893Y2278156D1*
X2307041Y2281041D1*
X2304156Y2282467D1*
X2299878Y2283893D1*
X2292682D1*
X2288371Y2282467D1*
X2285519Y2281041D1*
X2282634Y2278156D1*
X2281208Y2273845D1*
Y2263797D1*
X2285519Y2310367D2*
X2282667Y2308941D1*
X2281241Y2304630D1*
Y2301778D1*
X2282667Y2297467D1*
X2286978Y2294582D1*
X2294141Y2293156D1*
X2301304D1*
X2307041Y2294582D1*
X2309926Y2297467D1*
X2311352Y2301778D1*
Y2303204D1*
X2309926Y2307482D1*
X2307041Y2310367D1*
X2302730Y2311793D1*
X2301304D1*
X2296993Y2310367D1*
X2294141Y2307482D1*
X2292715Y2303204D1*
Y2301778D1*
X2294141Y2297467D1*
X2296993Y2294582D1*
X2301304Y2293156D1*
X2387691Y2247370D2*
X2404902D1*
X2391969Y2240174D2*
X2400591Y2254533D1*
X2391969D2*
X2400591Y2240174D1*
X2381208Y2263797D2*
X2411352D1*
Y2273845D1*
X2409893Y2278156D1*
X2407041Y2281041D1*
X2404156Y2282467D1*
X2399878Y2283893D1*
X2392682D1*
X2388371Y2282467D1*
X2385519Y2281041D1*
X2382634Y2278156D1*
X2381208Y2273845D1*
Y2263797D1*
X2381241Y2310367D2*
Y2296041D1*
X2394141Y2294615D1*
X2392715Y2296041D1*
X2391256Y2300352D1*
Y2304630D1*
X2392715Y2308941D1*
X2395567Y2311826D1*
X2399878Y2313252D1*
X2402730D1*
X2407041Y2311826D1*
X2409926Y2308941D1*
X2411352Y2304630D1*
Y2300352D1*
X2409926Y2296041D1*
X2408467Y2294615D1*
X2405615Y2293156D1*
X2587691Y2247370D2*
X2604902D1*
X2591969Y2240174D2*
X2600591Y2254533D1*
X2591969D2*
X2600591Y2240174D1*
X2581208Y2263797D2*
X2611352D1*
Y2273845D1*
X2609893Y2278156D1*
X2607041Y2281041D1*
X2604156Y2282467D1*
X2599878Y2283893D1*
X2592682D1*
X2588371Y2282467D1*
X2585519Y2281041D1*
X2582634Y2278156D1*
X2581208Y2273845D1*
Y2263797D1*
X2581241Y2296041D2*
Y2311793D1*
X2592715Y2303204D1*
Y2307515D1*
X2594141Y2310367D1*
X2595567Y2311793D1*
X2599878Y2313252D1*
X2602730D1*
X2607041Y2311793D1*
X2609926Y2308941D1*
X2611352Y2304630D1*
Y2300319D1*
X2609926Y2296041D1*
X2608467Y2294615D1*
X2605615Y2293156D1*
X2481208Y2265174D2*
X2511352D1*
Y2275222D1*
X2509893Y2279533D1*
X2507041Y2282418D1*
X2504156Y2283844D1*
X2499878Y2285270D1*
X2492682D1*
X2488371Y2283844D1*
X2485519Y2282418D1*
X2482634Y2279533D1*
X2481208Y2275222D1*
Y2265174D1*
X2485519Y2311745D2*
X2482667Y2310319D1*
X2481241Y2306008D1*
Y2303156D1*
X2482667Y2298845D1*
X2486978Y2295960D1*
X2494141Y2294534D1*
X2501304D1*
X2507041Y2295960D1*
X2509926Y2298845D1*
X2511352Y2303156D1*
Y2304582D1*
X2509926Y2308860D1*
X2507041Y2311745D1*
X2502730Y2313171D1*
X2501304D1*
X2496993Y2311745D1*
X2494141Y2308860D1*
X2492715Y2304582D1*
Y2303156D1*
X2494141Y2298845D1*
X2496993Y2295960D1*
X2501304Y2294534D1*
X2681208Y2265174D2*
X2711352D1*
Y2275222D1*
X2709893Y2279533D1*
X2707041Y2282418D1*
X2704156Y2283844D1*
X2699878Y2285270D1*
X2692682D1*
X2688371Y2283844D1*
X2685519Y2282418D1*
X2682634Y2279533D1*
X2681208Y2275222D1*
Y2265174D1*
X2688404Y2295993D2*
X2686978D1*
X2684093Y2297419D1*
X2682667Y2298845D1*
X2681241Y2301730D1*
Y2307467D1*
X2682667Y2310319D1*
X2684093Y2311745D1*
X2686978Y2313204D1*
X2689830D1*
X2692715Y2311745D1*
X2696993Y2308893D1*
X2711352Y2294534D1*
Y2314630D1*
X2781208Y2271435D2*
X2811352D1*
Y2281483D1*
X2809893Y2285794D1*
X2807041Y2288679D1*
X2804156Y2290105D1*
X2799878Y2291531D1*
X2792682D1*
X2788371Y2290105D1*
X2785519Y2288680D1*
X2782634Y2285794D1*
X2781208Y2281483D1*
Y2271435D1*
X2786978Y2300795D2*
X2785519Y2303680D1*
X2781241Y2307991D1*
X2811352D1*
X2881208Y2265186D2*
X2911352D1*
Y2275234D1*
X2909893Y2279545D1*
X2907041Y2282430D1*
X2904156Y2283856D1*
X2899878Y2285282D1*
X2892682D1*
X2888371Y2283856D1*
X2885519Y2282430D1*
X2882634Y2279545D1*
X2881208Y2275234D1*
Y2265186D1*
X2881241Y2303168D2*
X2882667Y2298857D1*
X2886978Y2295972D1*
X2894141Y2294546D1*
X2898452D1*
X2905615Y2295972D1*
X2909926Y2298857D1*
X2911352Y2303168D1*
Y2306019D1*
X2909926Y2310331D1*
X2905615Y2313182D1*
X2898452Y2314642D1*
X2894141D1*
X2886978Y2313182D1*
X2882667Y2310331D1*
X2881241Y2306020D1*
Y2303168D1*
X2886978Y2313182D2*
X2905615Y2295972D1*
X2411352Y588155D2*
X2381208Y576648D1*
X2411352Y565174D1*
X2401304Y569485D2*
Y583844D1*
X2381241Y606041D2*
X2382667Y601730D1*
X2386978Y598845D1*
X2394141Y597419D1*
X2398452D1*
X2405615Y598845D1*
X2409926Y601730D1*
X2411352Y606041D1*
Y608893D1*
X2409926Y613204D1*
X2405615Y616056D1*
X2398452Y617515D1*
X2394141D1*
X2386978Y616056D1*
X2382667Y613204D1*
X2381241Y608893D1*
Y606041D1*
X2386978Y616056D2*
X2405615Y598845D1*
X1581208Y565174D2*
X1611352D1*
X1581208Y583060D2*
X1582634Y580175D1*
X1585519Y577323D1*
X1588371Y575864D1*
X1592682Y574438D1*
X1599878D1*
X1604156Y575864D1*
X1607041Y577323D1*
X1609893Y580175D1*
X1611352Y583060D1*
Y588797D1*
X1609893Y591649D1*
X1607041Y594534D1*
X1604156Y595960D1*
X1599878Y597386D1*
X1592682D1*
X1588371Y595960D1*
X1585519Y594534D1*
X1582634Y591649D1*
X1581208Y588797D1*
Y583060D1*
X1595567Y606649D2*
Y619549D1*
X1594108Y623860D1*
X1592682Y625319D1*
X1589830Y626745D1*
X1586945D1*
X1584093Y625319D1*
X1582634Y623860D1*
X1581208Y619549D1*
Y606649D1*
X1611352D1*
X1595567Y616697D2*
X1611352Y626745D1*
X1581208Y654646D2*
Y636009D1*
X1611352D1*
Y654646D1*
X1595567Y636009D2*
Y647483D1*
X1581208Y682579D2*
Y663909D1*
X1611352D1*
X1595567D2*
Y675383D1*
X1695567Y565174D2*
Y578074D1*
X1694108Y582385D1*
X1692682Y583844D1*
X1689830Y585270D1*
X1686945D1*
X1684093Y583844D1*
X1682634Y582385D1*
X1681208Y578074D1*
Y565174D1*
X1711352D1*
X1695567Y575222D2*
X1711352Y585270D1*
X1681208Y613171D2*
Y594534D1*
X1711352D1*
Y613171D1*
X1695567Y594534D2*
Y606008D1*
X1685519Y642530D2*
X1682634Y639678D1*
X1681208Y635367D1*
Y629630D1*
X1682634Y625319D1*
X1685519Y622434D1*
X1688371D1*
X1691256Y623893D1*
X1692682Y625319D1*
X1694108Y628171D1*
X1696993Y636793D1*
X1698419Y639678D1*
X1699878Y641104D1*
X1702730Y642530D1*
X1707041D1*
X1709893Y639678D1*
X1711352Y635367D1*
Y629630D1*
X1709893Y625319D1*
X1707041Y622434D1*
X1681208Y670431D2*
Y651794D1*
X1711352D1*
Y670431D1*
X1695567Y651794D2*
Y663268D1*
X1681208Y689742D2*
X1711352D1*
X1681208Y679694D2*
Y699790D1*
X1881241Y582385D2*
Y568059D1*
X1894141Y566633D1*
X1892715Y568059D1*
X1891256Y572370D1*
Y576648D1*
X1892715Y580959D1*
X1895567Y583844D1*
X1899878Y585270D1*
X1902730D1*
X1907041Y583844D1*
X1909926Y580959D1*
X1911352Y576648D1*
Y572370D1*
X1909926Y568059D1*
X1908467Y566633D1*
X1905615Y565174D1*
X1881208Y594534D2*
X1911352Y606008D1*
X1881208Y617482D1*
X1781241Y568059D2*
Y583811D1*
X1792715Y575222D1*
Y579533D1*
X1794141Y582385D1*
X1795567Y583811D1*
X1799878Y585270D1*
X1802730D1*
X1807041Y583811D1*
X1809926Y580959D1*
X1811352Y576648D1*
Y572337D1*
X1809926Y568059D1*
X1808467Y566633D1*
X1805615Y565174D1*
X1808467Y595960D2*
X1809926Y594534D1*
X1811352Y595960D1*
X1809926Y597419D1*
X1808467Y595960D1*
X1781241Y609567D2*
Y625319D1*
X1792715Y616730D1*
Y621041D1*
X1794141Y623893D1*
X1795567Y625319D1*
X1799878Y626778D1*
X1802730D1*
X1807041Y625319D1*
X1809926Y622467D1*
X1811352Y618156D1*
Y613845D1*
X1809926Y609567D1*
X1808467Y608141D1*
X1805615Y606682D1*
X1781208Y636042D2*
X1811352Y647516D1*
X1781208Y658990D1*
X1988371Y586696D2*
X1985519Y585270D1*
X1982634Y582385D1*
X1981208Y579533D1*
Y573796D1*
X1982634Y570911D1*
X1985519Y568059D1*
X1988371Y566600D1*
X1992682Y565174D1*
X1999878D1*
X2004156Y566600D1*
X2007041Y568059D1*
X2009893Y570911D1*
X2011352Y573796D1*
Y579533D1*
X2009893Y582385D1*
X2007041Y585270D1*
X2004156Y586696D1*
X1999878D1*
Y579533D1*
X1981208Y616056D2*
X2011352D1*
X1981208Y595960D1*
X2011352D1*
X1981208Y625319D2*
X2011352D1*
Y635367D1*
X2009893Y639678D1*
X2007041Y642563D1*
X2004156Y643989D1*
X1999878Y645415D1*
X1992682D1*
X1988371Y643989D1*
X1985519Y642563D1*
X1982634Y639678D1*
X1981208Y635367D1*
Y625319D1*
X2088371Y586696D2*
X2085519Y585270D1*
X2082634Y582385D1*
X2081208Y579533D1*
Y573796D1*
X2082634Y570911D1*
X2085519Y568059D1*
X2088371Y566600D1*
X2092682Y565174D1*
X2099878D1*
X2104156Y566600D1*
X2107041Y568059D1*
X2109893Y570911D1*
X2111352Y573796D1*
Y579533D1*
X2109893Y582385D1*
X2107041Y585270D1*
X2104156Y586696D1*
X2099878D1*
Y579533D1*
X2081208Y616056D2*
X2111352D1*
X2081208Y595960D1*
X2111352D1*
X2081208Y625319D2*
X2111352D1*
Y635367D1*
X2109893Y639678D1*
X2107041Y642563D1*
X2104156Y643989D1*
X2099878Y645415D1*
X2092682D1*
X2088371Y643989D1*
X2085519Y642563D1*
X2082634Y639678D1*
X2081208Y635367D1*
Y625319D1*
X2181208Y565174D2*
X2211352Y576648D1*
X2181208Y588122D1*
Y597386D2*
X2182634Y598812D1*
X2181208Y600271D1*
X2179749Y598812D1*
X2181208Y597386D1*
X2191256Y598812D2*
X2211352D1*
X2191256Y609534D2*
X2211352D1*
X2196993D2*
X2192682Y613845D1*
X2191256Y616730D1*
Y621008D1*
X2192682Y623893D1*
X2196993Y625319D1*
X2211352D1*
X2611352Y588155D2*
X2581208Y576648D1*
X2611352Y565174D1*
X2601304Y569485D2*
Y583844D1*
X2588404Y598878D2*
X2586978D1*
X2584093Y600304D1*
X2582667Y601730D1*
X2581241Y604615D1*
Y610352D1*
X2582667Y613204D1*
X2584093Y614630D1*
X2586978Y616089D1*
X2589830D1*
X2592715Y614630D1*
X2596993Y611778D1*
X2611352Y597419D1*
Y617515D1*
X2511352Y588155D2*
X2481208Y576648D1*
X2511352Y565174D1*
X2501304Y569485D2*
Y583844D1*
X2486978Y597419D2*
X2485519Y600304D1*
X2481241Y604615D1*
X2511352D1*
X2711352Y588155D2*
X2681208Y576648D1*
X2711352Y565174D1*
X2701304Y569485D2*
Y583844D1*
X2681241Y600304D2*
Y616056D1*
X2692715Y607467D1*
Y611778D1*
X2694141Y614630D1*
X2695567Y616056D1*
X2699878Y617515D1*
X2702730D1*
X2707041Y616056D1*
X2709926Y613204D1*
X2711352Y608893D1*
Y604582D1*
X2709926Y600304D1*
X2708467Y598878D1*
X2705615Y597419D1*
X2811352Y588155D2*
X2781208Y576648D1*
X2811352Y565174D1*
X2801304Y569485D2*
Y583844D1*
X2811352Y611778D2*
X2781241D1*
X2801304Y597419D1*
Y618941D1*
X2911352Y588155D2*
X2881208Y576648D1*
X2911352Y565174D1*
X2901304Y569485D2*
Y583844D1*
X2881241Y614630D2*
Y600304D1*
X2894141Y598878D1*
X2892715Y600304D1*
X2891256Y604615D1*
Y608893D1*
X2892715Y613204D1*
X2895567Y616089D1*
X2899878Y617515D1*
X2902730D1*
X2907041Y616089D1*
X2909926Y613204D1*
X2911352Y608893D1*
Y604615D1*
X2909926Y600304D1*
X2908467Y598878D1*
X2905615Y597419D1*
X556517Y2371992D2*
X569417D1*
X573728Y2373451D1*
X575187Y2374877D1*
X576613Y2377729D1*
Y2380614D1*
X575187Y2383466D1*
X573728Y2384925D1*
X569417Y2386351D1*
X556517D1*
Y2356207D1*
X566565Y2371992D2*
X576613Y2356207D1*
X585876Y2376303D2*
Y2361944D1*
X587302Y2357666D1*
X590187Y2356207D1*
X594498D1*
X597350Y2357666D1*
X601661Y2361944D1*
Y2376303D2*
Y2356207D1*
X626710Y2371992D2*
X625284Y2374877D1*
X620973Y2376303D1*
X616662D1*
X612351Y2374877D1*
X610925Y2371992D1*
X612351Y2369140D1*
X615236Y2367681D1*
X622399Y2366255D1*
X625284Y2364829D1*
X626710Y2361944D1*
Y2360518D1*
X625284Y2357666D1*
X620973Y2356207D1*
X616662D1*
X612351Y2357666D1*
X610925Y2360518D1*
X651758Y2371992D2*
X650332Y2374877D1*
X646021Y2376303D1*
X641710D1*
X637399Y2374877D1*
X635973Y2371992D1*
X637399Y2369140D1*
X640284Y2367681D1*
X647447Y2366255D1*
X650332Y2364829D1*
X651758Y2361944D1*
Y2360518D1*
X650332Y2357666D1*
X646021Y2356207D1*
X641710D1*
X637399Y2357666D1*
X635973Y2360518D1*
X661022Y2367681D2*
X678233D1*
Y2370566D1*
X676807Y2373451D1*
X675381Y2374877D1*
X672496Y2376303D1*
X668185D1*
X665333Y2374877D1*
X662448Y2371992D1*
X661022Y2367681D1*
Y2364829D1*
X662448Y2360518D1*
X665333Y2357666D1*
X668185Y2356207D1*
X672496D1*
X675381Y2357666D1*
X678233Y2360518D1*
X687496Y2386351D2*
Y2356207D1*
X696760Y2386351D2*
Y2356207D1*
X745232Y2386351D2*
Y2356207D1*
X735184Y2386351D2*
X755280D1*
X764544Y2376303D2*
Y2356207D1*
Y2367681D2*
X766003Y2371992D1*
X768855Y2374877D1*
X771740Y2376303D1*
X776051D1*
X802525D2*
Y2356207D1*
Y2371992D2*
X799673Y2374877D1*
X796788Y2376303D1*
X792510D1*
X789625Y2374877D1*
X786773Y2371992D1*
X785314Y2367681D1*
Y2364829D1*
X786773Y2360518D1*
X789625Y2357666D1*
X792510Y2356207D1*
X796788D1*
X799673Y2357666D1*
X802525Y2360518D1*
X823263Y2386351D2*
X820411D1*
X817526Y2384925D1*
X816100Y2380614D1*
Y2356207D1*
X811789Y2376303D2*
X821837D1*
X844000Y2386351D2*
X841148D1*
X838263Y2384925D1*
X836837Y2380614D1*
Y2356207D1*
X832526Y2376303D2*
X842574D1*
X860427D2*
X857575Y2374877D1*
X854690Y2371992D1*
X853264Y2367681D1*
Y2364829D1*
X854690Y2360518D1*
X857575Y2357666D1*
X860427Y2356207D1*
X864738D1*
X867623Y2357666D1*
X870475Y2360518D1*
X871934Y2364829D1*
Y2367681D1*
X870475Y2371992D1*
X867623Y2374877D1*
X864738Y2376303D1*
X860427D1*
X881197D2*
Y2356207D1*
Y2367681D2*
X882656Y2371992D1*
X885508Y2374877D1*
X888393Y2376303D1*
X892704D1*
X919179Y2386351D2*
Y2356207D1*
Y2371992D2*
X916327Y2374877D1*
X913442Y2376303D1*
X909131D1*
X906279Y2374877D1*
X903394Y2371992D1*
X901968Y2367681D1*
Y2364829D1*
X903394Y2360518D1*
X906279Y2357666D1*
X909131Y2356207D1*
X913442D1*
X916327Y2357666D1*
X919179Y2360518D1*
X579498Y2287450D2*
X567991Y2317594D1*
X556517Y2287450D1*
X560828Y2297498D2*
X575187D1*
X588761Y2307546D2*
Y2287450D1*
Y2298924D2*
X590220Y2303235D1*
X593072Y2306120D1*
X595957Y2307546D1*
X600268D1*
X626743Y2317594D2*
Y2287450D1*
Y2303235D2*
X623891Y2306120D1*
X621006Y2307546D1*
X616695D1*
X613843Y2306120D1*
X610958Y2303235D1*
X609532Y2298924D1*
Y2296072D1*
X610958Y2291761D1*
X613843Y2288909D1*
X616695Y2287450D1*
X621006D1*
X623891Y2288909D1*
X626743Y2291761D1*
X636006Y2307546D2*
Y2293187D1*
X637432Y2288909D1*
X640317Y2287450D1*
X644628D1*
X647480Y2288909D1*
X651791Y2293187D1*
Y2307546D2*
Y2287450D1*
X661055Y2317594D2*
X662481Y2316168D1*
X663940Y2317594D1*
X662481Y2319053D1*
X661055Y2317594D1*
X662481Y2307546D2*
Y2287450D1*
X673204Y2307546D2*
Y2287450D1*
Y2301809D2*
X677515Y2306120D1*
X680400Y2307546D1*
X684678D1*
X687563Y2306120D1*
X688989Y2301809D1*
Y2287450D1*
X705415Y2307546D2*
X702563Y2306120D1*
X699678Y2303235D1*
X698252Y2298924D1*
Y2296072D1*
X699678Y2291761D1*
X702563Y2288909D1*
X705415Y2287450D1*
X709726D1*
X712611Y2288909D1*
X715463Y2291761D1*
X716922Y2296072D1*
Y2298924D1*
X715463Y2303235D1*
X712611Y2306120D1*
X709726Y2307546D1*
X705415D1*
X726186Y2317594D2*
Y2287450D1*
X746282Y2317594D2*
Y2287450D1*
X726186Y2303235D2*
X746282D1*
X764167Y2317594D2*
X761282Y2316168D1*
X758430Y2313283D1*
X756971Y2310431D1*
X755545Y2306120D1*
Y2298924D1*
X756971Y2294646D1*
X758430Y2291761D1*
X761282Y2288909D1*
X764167Y2287450D1*
X769904D1*
X772756Y2288909D1*
X775641Y2291761D1*
X777067Y2294646D1*
X778493Y2298924D1*
Y2306120D1*
X777067Y2310431D1*
X775641Y2313283D1*
X772756Y2316168D1*
X769904Y2317594D1*
X764167D1*
X787757D2*
Y2287450D1*
X800690D1*
X805001Y2288909D1*
X806427Y2290335D1*
X807853Y2293187D1*
Y2297498D1*
X806427Y2300383D1*
X805001Y2301809D1*
X800690Y2303235D1*
X805001Y2304694D1*
X806427Y2306120D1*
X807853Y2308972D1*
Y2311857D1*
X806427Y2314709D1*
X805001Y2316168D1*
X800690Y2317594D1*
X787757D1*
Y2303235D2*
X800690D1*
X825738Y2317594D2*
X822853Y2316168D1*
X820001Y2313283D1*
X818542Y2310431D1*
X817116Y2306120D1*
Y2298924D1*
X818542Y2294646D1*
X820001Y2291761D1*
X822853Y2288909D1*
X825738Y2287450D1*
X831475D1*
X834327Y2288909D1*
X837212Y2291761D1*
X838638Y2294646D1*
X840064Y2298924D1*
Y2306120D1*
X838638Y2310431D1*
X837212Y2313283D1*
X834327Y2316168D1*
X831475Y2317594D1*
X825738D1*
X556517Y2240728D2*
X569417D1*
X573728Y2242187D1*
X575187Y2243613D1*
X576613Y2246465D1*
Y2249350D1*
X575187Y2252202D1*
X573728Y2253661D1*
X569417Y2255087D1*
X556517D1*
Y2224943D1*
X566565Y2240728D2*
X576613Y2224943D1*
X585876Y2236417D2*
X603087D1*
Y2239302D1*
X601661Y2242187D1*
X600235Y2243613D1*
X597350Y2245039D1*
X593039D1*
X590187Y2243613D1*
X587302Y2240728D1*
X585876Y2236417D1*
Y2233565D1*
X587302Y2229254D1*
X590187Y2226402D1*
X593039Y2224943D1*
X597350D1*
X600235Y2226402D1*
X603087Y2229254D1*
X612351Y2245039D2*
X620973Y2224943D1*
X629562Y2245039D1*
X667986Y2249317D2*
X670871Y2250776D1*
X675182Y2255054D1*
Y2224943D1*
X685871Y2227828D2*
X684445Y2226369D1*
X685871Y2224943D1*
X687330Y2226369D1*
X685871Y2227828D1*
X705216Y2255054D2*
X700905Y2253628D1*
X698020Y2249317D1*
X696594Y2242154D1*
Y2237843D1*
X698020Y2230680D1*
X700905Y2226369D1*
X705216Y2224943D1*
X708068D1*
X712379Y2226369D1*
X715231Y2230680D1*
X716690Y2237843D1*
Y2242154D1*
X715231Y2249317D1*
X712379Y2253628D1*
X708068Y2255054D1*
X705216D1*
X715231Y2249317D2*
X698020Y2230680D1*
X556517Y2178222D2*
X569417D1*
X573728Y2179681D1*
X575187Y2181107D1*
X576613Y2183959D1*
Y2186844D1*
X575187Y2189696D1*
X573728Y2191155D1*
X569417Y2192581D1*
X556517D1*
Y2162437D1*
X566565Y2178222D2*
X576613Y2162437D1*
X585876Y2192581D2*
Y2162437D1*
X602303Y2182533D2*
X599451Y2181107D1*
X596566Y2178222D1*
X595140Y2173911D1*
Y2171059D1*
X596566Y2166748D1*
X599451Y2163896D1*
X602303Y2162437D1*
X606614D1*
X609499Y2163896D1*
X612351Y2166748D1*
X613810Y2171059D1*
Y2173911D1*
X612351Y2178222D1*
X609499Y2181107D1*
X606614Y2182533D1*
X602303D1*
X633121Y2192581D2*
Y2162437D1*
X623073Y2192581D2*
X643169D1*
X662481Y2200440D2*
X659596Y2197588D1*
X656744Y2193277D1*
X653859Y2187540D1*
X652433Y2180344D1*
Y2174607D1*
X653859Y2167444D1*
X656744Y2161707D1*
X659596Y2157396D1*
X662481Y2154544D1*
X681792Y2192581D2*
Y2162437D1*
X671744Y2192581D2*
X691840D1*
X724052Y2162437D2*
Y2192581D1*
X712578Y2162437D1*
X701104Y2192581D1*
Y2162437D1*
X733315Y2200440D2*
X736201Y2197588D1*
X739052Y2193277D1*
X741938Y2187540D1*
X743363Y2180344D1*
Y2174607D1*
X741938Y2167444D1*
X739052Y2161707D1*
X736201Y2157396D1*
X733315Y2154544D1*
M02*
