G04 DipTrace 3.1.0.0*
G04 ArduinoUnoHOBO.gts*
%MOIN*%
G04 #@! TF.FileFunction,Soldermask,Top*
G04 #@! TF.Part,Single*
%ADD41R,0.023748X0.078866*%
%ADD43R,0.070992X0.063118*%
%ADD45R,0.051307X0.04737*%
%ADD47R,0.035559X0.037528*%
%ADD49R,0.051307X0.067055*%
%ADD51R,0.070992X0.094614*%
%ADD53R,0.041465X0.027685*%
%ADD55R,0.031622X0.08674*%
%ADD57R,0.067055X0.059181*%
%ADD59R,0.059181X0.067055*%
%ADD61R,0.04737X0.051307*%
%ADD63C,0.074929*%
%ADD65R,0.074929X0.074929*%
%FSLAX26Y26*%
G04*
G70*
G90*
G75*
G01*
G04 TopMask*
%LPD*%
D65*
X2394000Y494000D3*
D63*
X2494000D3*
X2594000D3*
X2694000D3*
X2794000D3*
X2894000D3*
D61*
X1194084Y794042D3*
Y727113D3*
D59*
X2100429Y1569123D3*
X2025626D3*
X2100429Y1662883D3*
X2025626D3*
D57*
X1044068Y1275343D3*
Y1200539D3*
X1406709Y1656735D3*
Y1731538D3*
D65*
X2894000Y2394000D3*
D63*
X2794000D3*
X2694000D3*
X2594000D3*
X2494000D3*
X2394000D3*
X2294000D3*
X2194000D3*
D65*
X2034000D3*
D63*
X1934000D3*
X1834000D3*
X1734000D3*
X1634000D3*
X1534000D3*
X1434000D3*
X1334000D3*
X1234000D3*
X1134000D3*
D55*
X1550371Y1300345D3*
X1600371D3*
X1650371D3*
X1700371D3*
Y1591684D3*
X1650371D3*
X1600371D3*
X1550371D3*
D53*
X661117Y1412652D3*
Y1375251D3*
Y1337849D3*
X775290D3*
Y1375251D3*
Y1412652D3*
D51*
X718203Y1375251D3*
D49*
X2956500Y725239D3*
X3015555D3*
X2956500Y843349D3*
X3015555D3*
X2950518Y1387854D3*
X3009573D3*
X2950518Y1505965D3*
X3009573D3*
X2950518Y1062820D3*
X3009573D3*
X2950518Y1180930D3*
X3009573D3*
X2950518Y2062925D3*
X3009573D3*
X2950518Y2181035D3*
X3009573D3*
X2950518Y1737891D3*
X3009573D3*
X2950518Y1856001D3*
X3009573D3*
D47*
X744037Y1650382D3*
X696793D3*
X744037Y1597232D3*
X696793D3*
D65*
X1494000Y494000D3*
D63*
X1594000D3*
X1694000D3*
X1794000D3*
X1894000D3*
X1994000D3*
X2094000D3*
X2194000D3*
D59*
X2262946Y1706638D3*
X2188143D3*
D61*
X1194084Y937807D3*
Y1004736D3*
D45*
X981562Y869050D3*
X1048491D3*
D57*
X1175332Y1831651D3*
Y1756848D3*
Y1519118D3*
Y1593921D3*
D45*
X2754537Y850298D3*
X2821466D3*
X2748286Y1519118D3*
X2815215D3*
X2748304Y1194077D3*
X2815234D3*
X2742304Y2188070D3*
X2809234D3*
X2742035Y1862904D3*
X2808965D3*
X2754537Y781541D3*
X2821466D3*
X2748286Y1450361D3*
X2815215D3*
X2748286Y1125327D3*
X2815215D3*
X2742304Y2119312D3*
X2809234D3*
X2742035Y1794147D3*
X2808965D3*
X2754286Y712738D3*
X2821215D3*
X2748304Y1381605D3*
X2815234D3*
X2748304Y1056571D3*
X2815234D3*
X2742054Y2050425D3*
X2808983D3*
X2742054Y1725391D3*
X2808983D3*
D43*
X562768Y950308D3*
X877728D3*
X562768Y773143D3*
X877728D3*
D41*
X2187938Y1337849D3*
X2213529D3*
X2239119D3*
X2264710D3*
X2290301D3*
X2315891D3*
X2341482D3*
X2367072D3*
X2392663D3*
X2418253D3*
X2443844D3*
X2469434D3*
Y1566203D3*
X2443844Y1566196D3*
X2418253D3*
X2392663D3*
X2367072D3*
X2341482D3*
X2315891D3*
X2290301D3*
X2264710D3*
X2239119D3*
X2213529D3*
X2187938D3*
M02*
