G04 DipTrace 3.1.0.0*
G04 ArduinoUnoHOBO.gbl*
%MOIN*%
G04 #@! TF.FileFunction,Copper,L2,Bot*
G04 #@! TF.Part,Single*
G04 #@! TA.AperFunction,Conductor*
%ADD11C,0.006*%
%ADD13C,0.036*%
%ADD14C,0.012*%
G04 #@! TA.AperFunction,CopperBalancing*
%ADD15C,0.025*%
G04 #@! TA.AperFunction,ComponentPad*
%ADD17R,0.066929X0.066929*%
%ADD18C,0.066929*%
G04 #@! TA.AperFunction,ViaPad*
%ADD35C,0.04*%
%ADD68C,0.004632*%
%FSLAX26Y26*%
G04*
G70*
G90*
G75*
G01*
G04 Bottom*
%LPD*%
X1044068Y1375353D2*
D13*
Y1600377D1*
X3006774Y1019066D2*
D14*
X3019276D1*
X3006774Y1344100D2*
X3019276D1*
X3006774Y1694136D2*
X3019276D1*
X3006774Y2019171D2*
X3019276D1*
X3015555Y681530D2*
X3019276D1*
X2187938Y1637881D2*
X2200440D1*
X2187938Y1400356D2*
X2200440D1*
X2239119D2*
X2250445D1*
X1894000Y494000D2*
D13*
Y568861D1*
X1950413Y625274D1*
X2981772D1*
Y887802D1*
X3025526Y931556D1*
X1406709Y1787896D2*
D11*
Y1694136D1*
X1437860D1*
X1600371Y1525369D2*
X1619129D1*
X1600371Y1369102D2*
X1612878D1*
X1650382D2*
X1669134D1*
X1700371D2*
X1712888D1*
X1550371D2*
X1562873D1*
X1994000Y725285D2*
D13*
X2019171D1*
X2094000Y725463D2*
X2100429Y719034D1*
X1044068Y1137828D2*
D11*
X1056570D1*
X1069071Y1125327D1*
X2469434Y1269092D2*
X2475469D1*
X781541Y1650382D2*
X794042D1*
X800293Y1644131D1*
X619126Y1375353D2*
X631525D1*
X2025626Y1725390D2*
X2037923D1*
X1194084Y1056570D2*
X1206585D1*
X1194084Y681530D2*
X1212836D1*
X2037923Y1400356D2*
Y1500366D1*
D35*
X1044068Y1375353D3*
Y1600377D3*
X3006774Y1019066D3*
Y1344100D3*
Y1694136D3*
Y2019171D3*
X3015555Y681530D3*
X2187938Y1637881D3*
Y1400356D3*
X2239119D3*
X1406709Y1787896D3*
X1600371Y1525369D3*
Y1369102D3*
X1650382D3*
X1700371D3*
X1550371D3*
X1994000Y725285D3*
X2094000Y725463D3*
X1044068Y1137828D3*
X2469434Y1269092D3*
X781541Y1650382D3*
X619126Y1375353D3*
X2025626Y1725390D3*
X1194084Y1056570D3*
Y681530D3*
X2037923Y1400356D3*
Y1500366D3*
X2971997Y2219631D2*
D15*
X3041803D1*
X2971997Y2194762D2*
X3041803D1*
X2971997Y2169894D2*
X3041803D1*
X2971997Y2145025D2*
X3041803D1*
X2971997Y2120156D2*
X3041803D1*
X2971997Y2095287D2*
X3041803D1*
X2971997Y2070419D2*
X3041803D1*
X2971997Y2045550D2*
X3041803D1*
X2971997Y2020681D2*
X3041803D1*
X2971997Y1995812D2*
X3041803D1*
X2971997Y1970944D2*
X3041803D1*
X2971997Y1946075D2*
X3041803D1*
X2971997Y1921206D2*
X3041803D1*
X2971997Y1896337D2*
X3041803D1*
X2971997Y1871469D2*
X3041803D1*
X2971997Y1846600D2*
X3041803D1*
X2971997Y1821731D2*
X3041803D1*
X2971997Y1796862D2*
X3041803D1*
X2971997Y1771993D2*
X3041803D1*
X2971997Y1747125D2*
X3041803D1*
X2971997Y1722256D2*
X3041803D1*
X2971997Y1697387D2*
X3041803D1*
X2971997Y1672518D2*
X3041803D1*
X2971997Y1647650D2*
X3041803D1*
X2127930Y1622781D2*
X3041803D1*
X2127930Y1597912D2*
X3041803D1*
X2127930Y1573043D2*
X3041803D1*
X2127930Y1548175D2*
X3041803D1*
X2127930Y1523306D2*
X3041803D1*
X2127930Y1498437D2*
X3041803D1*
X2127930Y1473568D2*
X3041803D1*
X2127930Y1448699D2*
X3041803D1*
X2127930Y1423831D2*
X3041803D1*
X2127930Y1398962D2*
X3041803D1*
X2971753Y1374093D2*
X3041803D1*
X2971753Y1349224D2*
X3041803D1*
X2971753Y1324356D2*
X3041803D1*
X2971753Y1299487D2*
X3041803D1*
X2971753Y1274618D2*
X3041803D1*
X2971753Y1249749D2*
X3041803D1*
X2971753Y1224881D2*
X3041803D1*
X2971753Y1200012D2*
X3041803D1*
X2971753Y1175143D2*
X3041803D1*
X2971753Y1150274D2*
X3041803D1*
X2971753Y1125406D2*
X3041803D1*
X2971753Y1100537D2*
X3041803D1*
X2971753Y1075668D2*
X3041803D1*
X2971753Y1050799D2*
X3041803D1*
X2971753Y1025930D2*
X3041803D1*
X2971753Y1001062D2*
X3041803D1*
X2971753Y976193D2*
X3041803D1*
X2971753Y951324D2*
X3041803D1*
X2971753Y926455D2*
X3041803D1*
X2971753Y901587D2*
X3041803D1*
X2971753Y876718D2*
X3041803D1*
X2971753Y851849D2*
X3041803D1*
X2971753Y826980D2*
X3041803D1*
X2971753Y802112D2*
X3041803D1*
X2971753Y777243D2*
X3041803D1*
X2971753Y752374D2*
X3041803D1*
X2971753Y727505D2*
X3041803D1*
X2971753Y702636D2*
X3041803D1*
X2971753Y677768D2*
X3041803D1*
X2971753Y652899D2*
X3041803D1*
X2971753Y628030D2*
X3041803D1*
X2125382Y1387853D2*
X2958724Y1387699D1*
X2962444Y1386491D1*
X2965608Y1384192D1*
X2967907Y1381028D1*
X2969115Y1377308D1*
X2969269Y1362853D1*
Y619022D1*
X3044280D1*
X3044241Y2244234D1*
X2969486Y2244462D1*
X2969346Y1655045D1*
X2968138Y1651325D1*
X2965839Y1648161D1*
X2962675Y1645862D1*
X2958955Y1644654D1*
X2944505Y1644495D1*
X2125430Y1644133D1*
Y1387833D1*
X956743Y2419348D2*
X1077134D1*
X1390824D2*
X1477134D1*
X2096488D2*
X2137143D1*
X956743Y2394479D2*
X1071518D1*
X1396440D2*
X1471518D1*
X2096488D2*
X2131528D1*
X956743Y2369610D2*
X1076743D1*
X1391264D2*
X1476743D1*
X2096488D2*
X2136703D1*
X956743Y2344741D2*
X1097299D1*
X1170707D2*
X1197299D1*
X1270707D2*
X1297299D1*
X1370707D2*
X1497299D1*
X1570707D2*
X1597299D1*
X1670707D2*
X1697299D1*
X1770707D2*
X1797299D1*
X1870707D2*
X1897299D1*
X2096488D2*
X2157308D1*
X2230718D2*
X2257308D1*
X2330718D2*
X2357308D1*
X2430718D2*
X2457308D1*
X2530718D2*
X2557308D1*
X2630718D2*
X2657308D1*
X2730718D2*
X2757308D1*
X956743Y2319873D2*
X2916782D1*
X877640Y2295004D2*
X2916782D1*
X877640Y2270135D2*
X2916782D1*
X754252Y2245266D2*
X2916782D1*
X780912Y2220398D2*
X2916782D1*
X780912Y2195529D2*
X2916782D1*
X780912Y2170660D2*
X2916782D1*
X780912Y2145791D2*
X2916782D1*
X534013Y2120923D2*
X2916782D1*
X534013Y2096054D2*
X2916782D1*
X534013Y2071185D2*
X2916782D1*
X534013Y2046316D2*
X2916782D1*
X534013Y2021448D2*
X2916782D1*
X534013Y1996579D2*
X2916782D1*
X534013Y1971710D2*
X2916782D1*
X534013Y1946841D2*
X2916782D1*
X534013Y1921972D2*
X2916782D1*
X534013Y1897104D2*
X2916782D1*
X534013Y1872235D2*
X2916782D1*
X534013Y1847366D2*
X2916782D1*
X534013Y1822497D2*
X2916782D1*
X534013Y1797629D2*
X2916782D1*
X534013Y1772760D2*
X2916782D1*
X534013Y1747891D2*
X2916782D1*
X534013Y1723022D2*
X2916782D1*
X534013Y1698154D2*
X2060434D1*
X534013Y1673285D2*
X2060434D1*
X534013Y1648416D2*
X2060434D1*
X534013Y1623547D2*
X1001255D1*
X1086870D2*
X2060434D1*
X534013Y1598678D2*
X995102D1*
X1093022D2*
X2060434D1*
X534013Y1573810D2*
X997104D1*
X1091068D2*
X2060434D1*
X534013Y1548941D2*
X997104D1*
X1091068D2*
X2060434D1*
X534013Y1524072D2*
X997104D1*
X1091068D2*
X1995395D1*
X534013Y1499203D2*
X997104D1*
X1091068D2*
X1988950D1*
X534013Y1474335D2*
X997104D1*
X1091068D2*
X1996908D1*
X534013Y1449466D2*
X997104D1*
X1091068D2*
X2005942D1*
X534013Y1424597D2*
X997104D1*
X1091068D2*
X1995736D1*
X534013Y1399728D2*
X997104D1*
X1091068D2*
X1988950D1*
X534013Y1374860D2*
X995054D1*
X1093071D2*
X1996518D1*
X534013Y1349991D2*
X1002572D1*
X1085551D2*
X2060434D1*
X534013Y1325122D2*
X2916782D1*
X534013Y1300253D2*
X2916782D1*
X534013Y1275385D2*
X2916782D1*
X534013Y1250516D2*
X2916782D1*
X534013Y1225647D2*
X2916782D1*
X534013Y1200778D2*
X2916782D1*
X534013Y1175909D2*
X2916782D1*
X534013Y1151041D2*
X2916782D1*
X534013Y1126172D2*
X2916782D1*
X534013Y1101303D2*
X2916782D1*
X534013Y1076434D2*
X2916782D1*
X534013Y1051566D2*
X2916782D1*
X534013Y1026697D2*
X2916782D1*
X534013Y1001828D2*
X2916782D1*
X534013Y976959D2*
X2916782D1*
X534013Y952091D2*
X2916782D1*
X534013Y927222D2*
X2916782D1*
X534013Y902353D2*
X2916782D1*
X534013Y877484D2*
X2916782D1*
X534013Y852615D2*
X2916782D1*
X534013Y827747D2*
X2916782D1*
X534013Y802878D2*
X2916782D1*
X534013Y778009D2*
X2916782D1*
X534013Y753140D2*
X2916782D1*
X534013Y728272D2*
X2916782D1*
X534013Y703403D2*
X2916782D1*
X534013Y678534D2*
X2916782D1*
X2919248Y2334035D2*
X2834035D1*
Y2349319D1*
X2825332Y2342871D1*
X2816948Y2338600D1*
X2807999Y2335693D1*
X2798705Y2334220D1*
X2789295D1*
X2780001Y2335693D1*
X2771052Y2338600D1*
X2762668Y2342871D1*
X2755056Y2348403D1*
X2748403Y2355056D1*
X2744026Y2360941D1*
X2739597Y2355056D1*
X2732944Y2348403D1*
X2725332Y2342871D1*
X2716948Y2338600D1*
X2707999Y2335693D1*
X2698705Y2334220D1*
X2689295D1*
X2680001Y2335693D1*
X2671052Y2338600D1*
X2662668Y2342871D1*
X2655056Y2348403D1*
X2648403Y2355056D1*
X2644026Y2360941D1*
X2639597Y2355056D1*
X2632944Y2348403D1*
X2625332Y2342871D1*
X2616948Y2338600D1*
X2607999Y2335693D1*
X2598705Y2334220D1*
X2589295D1*
X2580001Y2335693D1*
X2571052Y2338600D1*
X2562668Y2342871D1*
X2555056Y2348403D1*
X2548403Y2355056D1*
X2544026Y2360941D1*
X2539597Y2355056D1*
X2532944Y2348403D1*
X2525332Y2342871D1*
X2516948Y2338600D1*
X2507999Y2335693D1*
X2498705Y2334220D1*
X2489295D1*
X2480001Y2335693D1*
X2471052Y2338600D1*
X2462668Y2342871D1*
X2455056Y2348403D1*
X2448403Y2355056D1*
X2444026Y2360941D1*
X2439597Y2355056D1*
X2432944Y2348403D1*
X2425332Y2342871D1*
X2416948Y2338600D1*
X2407999Y2335693D1*
X2398705Y2334220D1*
X2389295D1*
X2380001Y2335693D1*
X2371052Y2338600D1*
X2362668Y2342871D1*
X2355056Y2348403D1*
X2348403Y2355056D1*
X2344026Y2360941D1*
X2339597Y2355056D1*
X2332944Y2348403D1*
X2325332Y2342871D1*
X2316948Y2338600D1*
X2307999Y2335693D1*
X2298705Y2334220D1*
X2289295D1*
X2280001Y2335693D1*
X2271052Y2338600D1*
X2262668Y2342871D1*
X2255056Y2348403D1*
X2248403Y2355056D1*
X2244026Y2360941D1*
X2239597Y2355056D1*
X2232944Y2348403D1*
X2225332Y2342871D1*
X2216948Y2338600D1*
X2207999Y2335693D1*
X2198705Y2334220D1*
X2189295D1*
X2180001Y2335693D1*
X2171052Y2338600D1*
X2162668Y2342871D1*
X2155056Y2348403D1*
X2148403Y2355056D1*
X2142871Y2362668D1*
X2138600Y2371052D1*
X2135693Y2380001D1*
X2134220Y2389295D1*
Y2398705D1*
X2135693Y2407999D1*
X2138600Y2416948D1*
X2142871Y2425332D1*
X2148403Y2432944D1*
X2155056Y2439597D1*
X2161339Y2444239D1*
X2093925Y2444217D1*
X2093965Y2334035D1*
X1974035D1*
Y2349319D1*
X1965332Y2342871D1*
X1956948Y2338600D1*
X1947999Y2335693D1*
X1938705Y2334220D1*
X1929295D1*
X1920001Y2335693D1*
X1911052Y2338600D1*
X1902668Y2342871D1*
X1895056Y2348403D1*
X1888403Y2355056D1*
X1884026Y2360941D1*
X1879597Y2355056D1*
X1872944Y2348403D1*
X1865332Y2342871D1*
X1856948Y2338600D1*
X1847999Y2335693D1*
X1838705Y2334220D1*
X1829295D1*
X1820001Y2335693D1*
X1811052Y2338600D1*
X1802668Y2342871D1*
X1795056Y2348403D1*
X1788403Y2355056D1*
X1784026Y2360941D1*
X1779597Y2355056D1*
X1772944Y2348403D1*
X1765332Y2342871D1*
X1756948Y2338600D1*
X1747999Y2335693D1*
X1738705Y2334220D1*
X1729295D1*
X1720001Y2335693D1*
X1711052Y2338600D1*
X1702668Y2342871D1*
X1695056Y2348403D1*
X1688403Y2355056D1*
X1684026Y2360941D1*
X1679597Y2355056D1*
X1672944Y2348403D1*
X1665332Y2342871D1*
X1656948Y2338600D1*
X1647999Y2335693D1*
X1638705Y2334220D1*
X1629295D1*
X1620001Y2335693D1*
X1611052Y2338600D1*
X1602668Y2342871D1*
X1595056Y2348403D1*
X1588403Y2355056D1*
X1584026Y2360941D1*
X1579597Y2355056D1*
X1572944Y2348403D1*
X1565332Y2342871D1*
X1556948Y2338600D1*
X1547999Y2335693D1*
X1538705Y2334220D1*
X1529295D1*
X1520001Y2335693D1*
X1511052Y2338600D1*
X1502668Y2342871D1*
X1495056Y2348403D1*
X1488403Y2355056D1*
X1482871Y2362668D1*
X1478600Y2371052D1*
X1475693Y2380001D1*
X1474220Y2389295D1*
Y2398705D1*
X1475693Y2407999D1*
X1478600Y2416948D1*
X1482871Y2425332D1*
X1488403Y2432944D1*
X1495056Y2439597D1*
X1501339Y2444239D1*
X1366776Y2444217D1*
X1372944Y2439597D1*
X1379597Y2432944D1*
X1385129Y2425332D1*
X1389400Y2416948D1*
X1392307Y2407999D1*
X1393780Y2398705D1*
Y2389295D1*
X1392307Y2380001D1*
X1389400Y2371052D1*
X1385129Y2362668D1*
X1379597Y2355056D1*
X1372944Y2348403D1*
X1365332Y2342871D1*
X1356948Y2338600D1*
X1347999Y2335693D1*
X1338705Y2334220D1*
X1329295D1*
X1320001Y2335693D1*
X1311052Y2338600D1*
X1302668Y2342871D1*
X1295056Y2348403D1*
X1288403Y2355056D1*
X1284026Y2360941D1*
X1279597Y2355056D1*
X1272944Y2348403D1*
X1265332Y2342871D1*
X1256948Y2338600D1*
X1247999Y2335693D1*
X1238705Y2334220D1*
X1229295D1*
X1220001Y2335693D1*
X1211052Y2338600D1*
X1202668Y2342871D1*
X1195056Y2348403D1*
X1188403Y2355056D1*
X1184026Y2360941D1*
X1179597Y2355056D1*
X1172944Y2348403D1*
X1165332Y2342871D1*
X1156948Y2338600D1*
X1147999Y2335693D1*
X1138705Y2334220D1*
X1129295D1*
X1120001Y2335693D1*
X1111052Y2338600D1*
X1102668Y2342871D1*
X1095056Y2348403D1*
X1088403Y2355056D1*
X1082871Y2362668D1*
X1078600Y2371052D1*
X1075693Y2380001D1*
X1074220Y2389295D1*
Y2398705D1*
X1075693Y2407999D1*
X1078600Y2416948D1*
X1082871Y2425332D1*
X1088403Y2432944D1*
X1095056Y2439597D1*
X1101339Y2444239D1*
X531513Y2444217D1*
Y675278D1*
X2919266D1*
Y1331600D1*
X2073471Y1331753D1*
X2069752Y1332962D1*
X2066588Y1335261D1*
X2064289Y1338425D1*
X2063080Y1342144D1*
X2062927Y1361140D1*
X2055718Y1357395D1*
X2048778Y1355140D1*
X2041571Y1353999D1*
X2034274D1*
X2027067Y1355140D1*
X2020127Y1357395D1*
X2013626Y1360707D1*
X2007723Y1364997D1*
X2002564Y1370156D1*
X1998274Y1376059D1*
X1994962Y1382560D1*
X1992707Y1389500D1*
X1991566Y1396707D1*
Y1404004D1*
X1992707Y1411211D1*
X1994962Y1418151D1*
X1998274Y1424652D1*
X2002564Y1430555D1*
X2008429Y1436270D1*
X2008423Y1464467D1*
X2002564Y1470167D1*
X1998274Y1476070D1*
X1994962Y1482571D1*
X1992707Y1489510D1*
X1991566Y1496718D1*
Y1504014D1*
X1992707Y1511222D1*
X1994962Y1518161D1*
X1998274Y1524663D1*
X2002564Y1530566D1*
X2007723Y1535724D1*
X2013626Y1540014D1*
X2020127Y1543327D1*
X2027067Y1545581D1*
X2034274Y1546723D1*
X2041571D1*
X2048778Y1545581D1*
X2055718Y1543327D1*
X2062942Y1539530D1*
X2063080Y1696092D1*
X2064289Y1699811D1*
X2066588Y1702975D1*
X2069752Y1705274D1*
X2073471Y1706483D1*
X2087927Y1706636D1*
X2919266D1*
Y2334029D1*
X546451Y2423026D2*
X954245D1*
Y2315917D1*
X875094D1*
X875131Y2247160D1*
X751743D1*
X751757Y2229214D1*
X778430Y2229256D1*
Y2122147D1*
X533951D1*
Y2423026D1*
X546451D1*
X999568Y1388878D2*
Y1586925D1*
X998140Y1593102D1*
X997568Y1600377D1*
X998140Y1607651D1*
X999844Y1614745D1*
X1002636Y1621487D1*
X1006449Y1627709D1*
X1011188Y1633257D1*
X1016736Y1637996D1*
X1022958Y1641808D1*
X1029699Y1644601D1*
X1036794Y1646304D1*
X1044068Y1646877D1*
X1051343Y1646304D1*
X1058437Y1644601D1*
X1065178Y1641808D1*
X1071400Y1637996D1*
X1076949Y1633257D1*
X1081688Y1627709D1*
X1085500Y1621487D1*
X1088293Y1614745D1*
X1089996Y1607651D1*
X1090568Y1600377D1*
X1089996Y1593102D1*
X1088551Y1586927D1*
X1088568Y1388804D1*
X1089996Y1382627D1*
X1090568Y1375353D1*
X1089996Y1368079D1*
X1088293Y1360984D1*
X1085500Y1354243D1*
X1081688Y1348021D1*
X1076949Y1342472D1*
X1071400Y1337734D1*
X1065178Y1333921D1*
X1058437Y1331129D1*
X1051343Y1329425D1*
X1044068Y1328853D1*
X1036794Y1329425D1*
X1029699Y1331129D1*
X1022958Y1333921D1*
X1016736Y1337734D1*
X1011188Y1342472D1*
X1006449Y1348021D1*
X1002636Y1354243D1*
X999844Y1360984D1*
X998140Y1368079D1*
X997568Y1375353D1*
X998140Y1382627D1*
X999585Y1388803D1*
D17*
X2394000Y494000D3*
D18*
X2494000D3*
X2594000D3*
X2694000D3*
X2794000D3*
X2894000D3*
D17*
Y2394000D3*
D18*
X2794000D3*
X2694000D3*
X2594000D3*
X2494000D3*
X2394000D3*
X2294000D3*
X2194000D3*
D17*
X2034000D3*
D18*
X1934000D3*
X1834000D3*
X1734000D3*
X1634000D3*
X1534000D3*
X1434000D3*
X1334000D3*
X1234000D3*
X1134000D3*
D17*
X1494000Y494000D3*
D18*
X1594000D3*
X1694000D3*
X1794000D3*
X1894000D3*
X1994000D3*
X2094000D3*
X2194000D3*
X925430Y2371992D2*
D68*
X912530D1*
X908219Y2373451D1*
X906759Y2374877D1*
X905334Y2377729D1*
Y2380614D1*
X906759Y2383466D1*
X908219Y2384925D1*
X912530Y2386351D1*
X925430D1*
Y2356207D1*
X915382Y2371992D2*
X905334Y2356207D1*
X896070Y2376303D2*
Y2361944D1*
X894644Y2357666D1*
X891759Y2356207D1*
X887448D1*
X884596Y2357666D1*
X880285Y2361944D1*
Y2376303D2*
Y2356207D1*
X855236Y2371992D2*
X856662Y2374877D1*
X860973Y2376303D1*
X865284D1*
X869595Y2374877D1*
X871021Y2371992D1*
X869595Y2369140D1*
X866710Y2367681D1*
X859547Y2366255D1*
X856662Y2364829D1*
X855236Y2361944D1*
Y2360518D1*
X856662Y2357666D1*
X860973Y2356207D1*
X865284D1*
X869595Y2357666D1*
X871021Y2360518D1*
X830188Y2371992D2*
X831614Y2374877D1*
X835925Y2376303D1*
X840236D1*
X844547Y2374877D1*
X845973Y2371992D1*
X844547Y2369140D1*
X841662Y2367681D1*
X834499Y2366255D1*
X831614Y2364829D1*
X830188Y2361944D1*
Y2360518D1*
X831614Y2357666D1*
X835925Y2356207D1*
X840236D1*
X844547Y2357666D1*
X845973Y2360518D1*
X820924Y2367681D2*
X803713D1*
Y2370566D1*
X805139Y2373451D1*
X806565Y2374877D1*
X809450Y2376303D1*
X813761D1*
X816613Y2374877D1*
X819498Y2371992D1*
X820924Y2367681D1*
Y2364829D1*
X819498Y2360518D1*
X816613Y2357666D1*
X813761Y2356207D1*
X809450D1*
X806565Y2357666D1*
X803713Y2360518D1*
X794450Y2386351D2*
Y2356207D1*
X785186Y2386351D2*
Y2356207D1*
X736714Y2386351D2*
Y2356207D1*
X746762Y2386351D2*
X726666D1*
X717403Y2376303D2*
Y2356207D1*
Y2367681D2*
X715944Y2371992D1*
X713092Y2374877D1*
X710207Y2376303D1*
X705896D1*
X679421D2*
Y2356207D1*
Y2371992D2*
X682273Y2374877D1*
X685158Y2376303D1*
X689436D1*
X692321Y2374877D1*
X695173Y2371992D1*
X696632Y2367681D1*
Y2364829D1*
X695173Y2360518D1*
X692321Y2357666D1*
X689436Y2356207D1*
X685158D1*
X682273Y2357666D1*
X679421Y2360518D1*
X658684Y2386351D2*
X661535D1*
X664421Y2384925D1*
X665847Y2380614D1*
Y2356207D1*
X670158Y2376303D2*
X660110D1*
X637946Y2386351D2*
X640798D1*
X643683Y2384925D1*
X645109Y2380614D1*
Y2356207D1*
X649420Y2376303D2*
X639372D1*
X621520D2*
X624372Y2374877D1*
X627257Y2371992D1*
X628683Y2367681D1*
Y2364829D1*
X627257Y2360518D1*
X624372Y2357666D1*
X621520Y2356207D1*
X617209D1*
X614323Y2357666D1*
X611472Y2360518D1*
X610012Y2364829D1*
Y2367681D1*
X611472Y2371992D1*
X614323Y2374877D1*
X617209Y2376303D1*
X621520D1*
X600749D2*
Y2356207D1*
Y2367681D2*
X599290Y2371992D1*
X596438Y2374877D1*
X593553Y2376303D1*
X589242D1*
X562767Y2386351D2*
Y2356207D1*
Y2371992D2*
X565619Y2374877D1*
X568504Y2376303D1*
X572815D1*
X575667Y2374877D1*
X578552Y2371992D1*
X579978Y2367681D1*
Y2364829D1*
X578552Y2360518D1*
X575667Y2357666D1*
X572815Y2356207D1*
X568504D1*
X565619Y2357666D1*
X562767Y2360518D1*
X823334Y2287450D2*
X834841Y2317594D1*
X846315Y2287450D1*
X842004Y2297498D2*
X827645D1*
X814070Y2307546D2*
Y2287450D1*
Y2298924D2*
X812611Y2303235D1*
X809759Y2306120D1*
X806874Y2307546D1*
X802563D1*
X776089Y2317594D2*
Y2287450D1*
Y2303235D2*
X778941Y2306120D1*
X781826Y2307546D1*
X786137D1*
X788989Y2306120D1*
X791874Y2303235D1*
X793300Y2298924D1*
Y2296072D1*
X791874Y2291761D1*
X788989Y2288909D1*
X786137Y2287450D1*
X781826D1*
X778941Y2288909D1*
X776089Y2291761D1*
X766825Y2307546D2*
Y2293187D1*
X765399Y2288909D1*
X762514Y2287450D1*
X758203D1*
X755351Y2288909D1*
X751040Y2293187D1*
Y2307546D2*
Y2287450D1*
X741777Y2317594D2*
X740351Y2316168D1*
X738891Y2317594D1*
X740351Y2319053D1*
X741777Y2317594D1*
X740351Y2307546D2*
Y2287450D1*
X729628Y2307546D2*
Y2287450D1*
Y2301809D2*
X725317Y2306120D1*
X722432Y2307546D1*
X718154D1*
X715269Y2306120D1*
X713843Y2301809D1*
Y2287450D1*
X697416Y2307546D2*
X700268Y2306120D1*
X703153Y2303235D1*
X704579Y2298924D1*
Y2296072D1*
X703153Y2291761D1*
X700268Y2288909D1*
X697416Y2287450D1*
X693105D1*
X690220Y2288909D1*
X687368Y2291761D1*
X685909Y2296072D1*
Y2298924D1*
X687368Y2303235D1*
X690220Y2306120D1*
X693105Y2307546D1*
X697416D1*
X676646Y2317594D2*
Y2287450D1*
X656550Y2317594D2*
Y2287450D1*
X676646Y2303235D2*
X656550D1*
X638664Y2317594D2*
X641549Y2316168D1*
X644401Y2313283D1*
X645860Y2310431D1*
X647286Y2306120D1*
Y2298924D1*
X645860Y2294646D1*
X644401Y2291761D1*
X641549Y2288909D1*
X638664Y2287450D1*
X632927D1*
X630075Y2288909D1*
X627190Y2291761D1*
X625764Y2294646D1*
X624338Y2298924D1*
Y2306120D1*
X625764Y2310431D1*
X627190Y2313283D1*
X630075Y2316168D1*
X632927Y2317594D1*
X638664D1*
X615075D2*
Y2287450D1*
X602142D1*
X597831Y2288909D1*
X596405Y2290335D1*
X594979Y2293187D1*
Y2297498D1*
X596405Y2300383D1*
X597831Y2301809D1*
X602142Y2303235D1*
X597831Y2304694D1*
X596405Y2306120D1*
X594979Y2308972D1*
Y2311857D1*
X596405Y2314709D1*
X597831Y2316168D1*
X602142Y2317594D1*
X615075D1*
Y2303235D2*
X602142D1*
X577093Y2317594D2*
X579978Y2316168D1*
X582830Y2313283D1*
X584289Y2310431D1*
X585715Y2306120D1*
Y2298924D1*
X584289Y2294646D1*
X582830Y2291761D1*
X579978Y2288909D1*
X577093Y2287450D1*
X571356D1*
X568504Y2288909D1*
X565619Y2291761D1*
X564193Y2294646D1*
X562767Y2298924D1*
Y2306120D1*
X564193Y2310431D1*
X565619Y2313283D1*
X568504Y2316168D1*
X571356Y2317594D1*
X577093D1*
X722941Y2240728D2*
X710041D1*
X705730Y2242187D1*
X704271Y2243613D1*
X702845Y2246465D1*
Y2249350D1*
X704271Y2252202D1*
X705730Y2253661D1*
X710041Y2255087D1*
X722941D1*
Y2224943D1*
X712893Y2240728D2*
X702845Y2224943D1*
X693581Y2236417D2*
X676370D1*
Y2239302D1*
X677796Y2242187D1*
X679222Y2243613D1*
X682107Y2245039D1*
X686418D1*
X689270Y2243613D1*
X692155Y2240728D1*
X693581Y2236417D1*
Y2233565D1*
X692155Y2229254D1*
X689270Y2226402D1*
X686418Y2224943D1*
X682107D1*
X679222Y2226402D1*
X676370Y2229254D1*
X667107Y2245039D2*
X658485Y2224943D1*
X649896Y2245039D1*
X611472Y2249317D2*
X608587Y2250776D1*
X604275Y2255054D1*
Y2224943D1*
X593586Y2227828D2*
X595012Y2226369D1*
X593586Y2224943D1*
X592127Y2226369D1*
X593586Y2227828D1*
X574241Y2255054D2*
X578552Y2253628D1*
X581437Y2249317D1*
X582863Y2242154D1*
Y2237843D1*
X581437Y2230680D1*
X578552Y2226369D1*
X574241Y2224943D1*
X571389D1*
X567078Y2226369D1*
X564226Y2230680D1*
X562767Y2237843D1*
Y2242154D1*
X564226Y2249317D1*
X567078Y2253628D1*
X571389Y2255054D1*
X574241D1*
X564226Y2249317D2*
X581437Y2230680D1*
X749614Y2178222D2*
X736714D1*
X732403Y2179681D1*
X730944Y2181107D1*
X729518Y2183959D1*
Y2186844D1*
X730944Y2189696D1*
X732403Y2191155D1*
X736714Y2192581D1*
X749614D1*
Y2162437D1*
X739566Y2178222D2*
X729518Y2162437D1*
X720255Y2192581D2*
Y2162437D1*
X703828Y2182533D2*
X706680Y2181107D1*
X709565Y2178222D1*
X710991Y2173911D1*
Y2171059D1*
X709565Y2166748D1*
X706680Y2163896D1*
X703828Y2162437D1*
X699517D1*
X696632Y2163896D1*
X693780Y2166748D1*
X692321Y2171059D1*
Y2173911D1*
X693780Y2178222D1*
X696632Y2181107D1*
X699517Y2182533D1*
X703828D1*
X673009Y2192581D2*
Y2162437D1*
X683057Y2192581D2*
X662961D1*
X643650Y2200440D2*
X646535Y2197588D1*
X649387Y2193277D1*
X652272Y2187540D1*
X653698Y2180344D1*
Y2174607D1*
X652272Y2167444D1*
X649387Y2161707D1*
X646535Y2157396D1*
X643650Y2154544D1*
X624338Y2192581D2*
Y2162437D1*
X634386Y2192581D2*
X614290D1*
X582079Y2162437D2*
Y2192581D1*
X593553Y2162437D1*
X605027Y2192581D1*
Y2162437D1*
X572815Y2200440D2*
X569930Y2197588D1*
X567078Y2193277D1*
X564193Y2187540D1*
X562767Y2180344D1*
Y2174607D1*
X564193Y2167444D1*
X567078Y2161707D1*
X569930Y2157396D1*
X572815Y2154544D1*
M02*
