M48
INCH
T01C0.0191
T02C0.0433
%
T01
X+010441Y+013754
X+010441Y+016004
X+007815Y+016504
X+006191Y+013754
X+010441Y+011378
X+011941Y+010566
X+011941Y+006815
X+015504Y+013691
X+016004Y+013691
X+016504Y+013691
X+017004Y+013691
X+016004Y+015254
X+014067Y+017879
X+020256Y+017254
X+021879Y+016379
X+020379Y+015004
X+020379Y+014004
X+021879Y+014004
X+022391Y+014004
X+024694Y+012691
X+030068Y+013441
X+030068Y+010191
X+030156Y+006815
X+020940Y+007255
X+019940Y+007253
X+030068Y+016941
X+030068Y+020192
T02
X+023940Y+004940
X+024940Y+004940
X+025940Y+004940
X+026940Y+004940
X+027940Y+004940
X+028940Y+004940
X+021940Y+004940
X+020940Y+004940
X+019940Y+004940
X+018940Y+004940
X+017940Y+004940
X+016940Y+004940
X+015940Y+004940
X+014940Y+004940
X+015340Y+023940
X+016340Y+023940
X+017340Y+023940
X+018340Y+023940
X+019340Y+023940
X+020340Y+023940
X+021940Y+023940
X+022940Y+023940
X+023940Y+023940
X+024940Y+023940
X+025940Y+023940
X+026940Y+023940
X+027940Y+023940
X+028940Y+023940
X+014340Y+023940
X+013340Y+023940
X+012340Y+023940
X+011340Y+023940
T00
M30
