G04 DipTrace 3.0.0.2*
G04 hobo.gto*
%MOIN*%
G04 #@! TF.FileFunction,Legend,Top*
G04 #@! TF.Part,Single*
%ADD10C,0.009843*%
%ADD16C,0.001312*%
%ADD20C,0.015422*%
%ADD23C,0.006*%
%ADD27C,0.015426*%
%ADD56C,0.00772*%
%ADD57C,0.004632*%
%FSLAX26Y26*%
G04*
G70*
G90*
G75*
G01*
G04 TopSilk*
%LPD*%
X1093130Y772560D2*
D10*
X1144272D1*
X1664841Y1093130D2*
Y1144272D1*
X2731772Y1027341D2*
X2680630D1*
X1385060Y1256772D2*
Y1205630D1*
X696062Y1109630D2*
X491340D1*
X696062Y936433D2*
X491340D1*
Y1109630D2*
Y936433D1*
X696062Y1109630D2*
Y1050602D1*
Y995461D2*
Y936433D1*
Y1050602D2*
G03X696062Y995461I15J-27571D01*
G01*
D20*
X1825874Y840407D3*
X1795636Y940157D2*
D10*
X1677552D1*
X1795636Y822047D2*
X1677552D1*
X698228Y1537008D2*
D23*
X748228D1*
X773228Y1512008D1*
X798228Y1537008D1*
X848228D1*
X873228Y1512008D1*
X698228Y1537008D2*
X673228Y1512008D1*
X873228D2*
X898228Y1537008D1*
X948228D1*
X973228Y1512008D1*
X998228Y1537008D2*
X1048228D1*
X1073228Y1512008D1*
X1098228Y1537008D1*
X1148228D1*
X1173228Y1512008D1*
X998228Y1537008D2*
X973228Y1512008D1*
X1173228D2*
X1198228Y1537008D1*
X1248228D1*
X1273228Y1512008D1*
X773228Y1362008D2*
X748228Y1337008D1*
X873228Y1362008D2*
X848228Y1337008D1*
X798228D1*
X773228Y1362008D1*
X673228Y1512008D2*
Y1362008D1*
X698228Y1337008D1*
X748228D2*
X698228D1*
X973228Y1362008D2*
X948228Y1337008D1*
X898228D1*
X873228Y1362008D1*
X1073228D2*
X1048228Y1337008D1*
X1173228Y1362008D2*
X1148228Y1337008D1*
X1098228D1*
X1073228Y1362008D1*
X973228D2*
X998228Y1337008D1*
X1048228D2*
X998228D1*
X1273228Y1362008D2*
X1248228Y1337008D1*
X1198228D1*
X1173228Y1362008D1*
X1348228Y1537008D2*
X1373228Y1512008D1*
X1298228Y1537008D2*
X1348228D1*
X1273228Y1512008D2*
X1298228Y1537008D1*
Y1337008D2*
X1273228Y1362008D1*
X1348228Y1337008D2*
X1298228D1*
X1373228Y1362008D2*
X1348228Y1337008D1*
X1398228Y1537008D2*
X1448228D1*
X1473228Y1512008D1*
X1498228Y1537008D1*
X1548228D1*
X1573228Y1512008D1*
X1398228Y1537008D2*
X1373228Y1512008D1*
X1573228D2*
X1598228Y1537008D1*
X1648228D1*
X1673228Y1512008D1*
X1698228Y1537008D2*
X1748228D1*
X1773228Y1512008D1*
X1798228Y1537008D1*
X1848228D1*
X1873228Y1512008D1*
X1698228Y1537008D2*
X1673228Y1512008D1*
X1873228D2*
X1898228Y1537008D1*
X1948228D1*
X1973228Y1512008D1*
X1473228Y1362008D2*
X1448228Y1337008D1*
X1573228Y1362008D2*
X1548228Y1337008D1*
X1498228D1*
X1473228Y1362008D1*
X1373228D2*
X1398228Y1337008D1*
X1448228D2*
X1398228D1*
X1673228Y1362008D2*
X1648228Y1337008D1*
X1598228D1*
X1573228Y1362008D1*
X1773228D2*
X1748228Y1337008D1*
X1873228Y1362008D2*
X1848228Y1337008D1*
X1798228D1*
X1773228Y1362008D1*
X1673228D2*
X1698228Y1337008D1*
X1748228D2*
X1698228D1*
X1973228Y1362008D2*
X1948228Y1337008D1*
X1898228D1*
X1873228Y1362008D1*
X2048228Y1537008D2*
X2073228Y1512008D1*
X1998228Y1537008D2*
X2048228D1*
X1973228Y1512008D2*
X1998228Y1537008D1*
Y1337008D2*
X1973228Y1362008D1*
X2048228Y1337008D2*
X1998228D1*
X2073228Y1362008D2*
X2048228Y1337008D1*
X2098228Y1537008D2*
X2148228D1*
X2173228Y1512008D1*
X2198228Y1537008D1*
X2248228D1*
X2273228Y1512008D1*
X2098228Y1537008D2*
X2073228Y1512008D1*
X2273228D2*
X2298228Y1537008D1*
X2348228D1*
X2373228Y1512008D1*
X2398228Y1537008D2*
X2448228D1*
X2473228Y1512008D1*
X2498228Y1537008D1*
X2548228D1*
X2573228Y1512008D1*
X2398228Y1537008D2*
X2373228Y1512008D1*
X2573228D2*
X2598228Y1537008D1*
X2648228D1*
X2173228Y1362008D2*
X2148228Y1337008D1*
X2273228Y1362008D2*
X2248228Y1337008D1*
X2198228D1*
X2173228Y1362008D1*
X2073228D2*
X2098228Y1337008D1*
X2148228D2*
X2098228D1*
X2373228Y1362008D2*
X2348228Y1337008D1*
X2298228D1*
X2273228Y1362008D1*
X2473228D2*
X2448228Y1337008D1*
X2573228Y1362008D2*
X2548228Y1337008D1*
X2498228D1*
X2473228Y1362008D1*
X2373228D2*
X2398228Y1337008D1*
X2448228D2*
X2398228D1*
X2648228D2*
X2598228D1*
X2573228Y1362008D1*
X2673228Y1512008D2*
Y1362008D1*
X2648228Y1537008D2*
X2673228Y1512008D1*
Y1362008D2*
X2648228Y1337008D1*
D27*
X2436440Y993055D3*
X2466694Y924803D2*
D10*
X2545468D1*
X2466694Y1011417D2*
X2545468D1*
D20*
X911527Y896994D3*
X941766Y797244D2*
D10*
X1059850D1*
X941766Y915354D2*
X1059850D1*
X2343701Y881201D2*
D16*
X2418701D1*
Y731201D1*
X2343701D1*
Y881201D1*
X2431201D2*
X2506201D1*
Y731201D1*
X2431201D1*
Y881201D1*
X1171639Y693402D2*
D56*
X1166886Y691026D1*
X1162077Y686217D1*
X1159701Y681464D1*
Y671903D1*
X1162077Y667094D1*
X1166886Y662341D1*
X1171639Y659909D1*
X1178824Y657533D1*
X1190818D1*
X1197947Y659909D1*
X1202756Y662341D1*
X1207509Y667094D1*
X1209941Y671903D1*
Y681464D1*
X1207509Y686217D1*
X1202756Y691026D1*
X1197947Y693402D1*
X1169318Y708842D2*
X1166886Y713650D1*
X1159756Y720835D1*
X1209941D1*
X1729187Y1209513D2*
X1726810Y1214266D1*
X1722001Y1219075D1*
X1717248Y1221451D1*
X1707687D1*
X1702878Y1219075D1*
X1698125Y1214266D1*
X1695693Y1209513D1*
X1693317Y1202328D1*
Y1190335D1*
X1695693Y1183205D1*
X1698125Y1178396D1*
X1702878Y1173643D1*
X1707687Y1171211D1*
X1717248D1*
X1722001Y1173643D1*
X1726810Y1178396D1*
X1729187Y1183205D1*
X1747058Y1209458D2*
Y1211835D1*
X1749434Y1216643D1*
X1751811Y1219020D1*
X1756619Y1221396D1*
X1766181D1*
X1770934Y1219020D1*
X1773311Y1216643D1*
X1775743Y1211835D1*
Y1207081D1*
X1773311Y1202273D1*
X1768557Y1195143D1*
X1744626Y1171211D1*
X1778119D1*
X2765388Y1091687D2*
X2760635Y1089310D1*
X2755827Y1084502D1*
X2753450Y1079748D1*
Y1070187D1*
X2755827Y1065378D1*
X2760635Y1060625D1*
X2765388Y1058193D1*
X2772573Y1055817D1*
X2784567D1*
X2791697Y1058193D1*
X2796505Y1060625D1*
X2801258Y1065378D1*
X2803690Y1070187D1*
Y1079748D1*
X2801258Y1084502D1*
X2796505Y1089310D1*
X2791697Y1091687D1*
X2753505Y1111934D2*
Y1138187D1*
X2772629Y1123872D1*
Y1131058D1*
X2775005Y1135811D1*
X2777382Y1138187D1*
X2784567Y1140619D1*
X2789320D1*
X2796505Y1138187D1*
X2801314Y1133434D1*
X2803690Y1126249D1*
Y1119064D1*
X2801314Y1111934D1*
X2798882Y1109558D1*
X2794129Y1107126D1*
X1306464Y1322013D2*
X1304088Y1326766D1*
X1299279Y1331575D1*
X1294526Y1333951D1*
X1284964D1*
X1280156Y1331575D1*
X1275403Y1326766D1*
X1272971Y1322013D1*
X1270594Y1314828D1*
Y1302835D1*
X1272971Y1295705D1*
X1275403Y1290896D1*
X1280156Y1286143D1*
X1284964Y1283711D1*
X1294526D1*
X1299279Y1286143D1*
X1304088Y1290896D1*
X1306464Y1295705D1*
X1345835Y1283711D2*
Y1333896D1*
X1321903Y1300458D1*
X1357773D1*
X1262847Y1175098D2*
X1267655Y1177529D1*
X1274840Y1184659D1*
Y1134475D1*
X1304650Y1184659D2*
X1297465Y1182283D1*
X1292656Y1175098D1*
X1290280Y1163159D1*
Y1155974D1*
X1292656Y1144036D1*
X1297465Y1136851D1*
X1304650Y1134475D1*
X1309403D1*
X1316588Y1136851D1*
X1321341Y1144036D1*
X1323773Y1155974D1*
Y1163159D1*
X1321341Y1175098D1*
X1316588Y1182283D1*
X1309403Y1184659D1*
X1304650D1*
X1321341Y1175098D2*
X1292656Y1144036D1*
X1339212Y1167968D2*
Y1144036D1*
X1341589Y1136906D1*
X1346397Y1134475D1*
X1353582D1*
X1358335Y1136906D1*
X1365521Y1144036D1*
Y1167968D2*
Y1134475D1*
X418117Y898977D2*
Y867916D1*
X468357D1*
Y898977D1*
X442049Y867916D2*
Y887039D1*
X418117Y945478D2*
Y914416D1*
X468357D1*
Y945478D1*
X442049Y914416D2*
Y933540D1*
X444425Y960917D2*
Y982472D1*
X442049Y989602D1*
X439617Y992034D1*
X434864Y994410D1*
X427678D1*
X422925Y992034D1*
X420493Y989602D1*
X418117Y982472D1*
Y960917D1*
X468357D1*
X442049Y1009850D2*
Y1031350D1*
X439617Y1038535D1*
X437240Y1040966D1*
X432487Y1043343D1*
X427678D1*
X422925Y1040966D1*
X420493Y1038535D1*
X418117Y1031350D1*
Y1009850D1*
X468357D1*
X442049Y1026596D2*
X468357Y1043343D1*
X418117Y1073152D2*
X420493Y1068344D1*
X425302Y1063591D1*
X430055Y1061159D1*
X437240Y1058782D1*
X449234D1*
X456363Y1061159D1*
X461172Y1063591D1*
X465925Y1068344D1*
X468357Y1073152D1*
Y1082714D1*
X465925Y1087467D1*
X461172Y1092276D1*
X456363Y1094652D1*
X449234Y1097029D1*
X437240D1*
X430055Y1094652D1*
X425302Y1092276D1*
X420493Y1087467D1*
X418117Y1082714D1*
Y1073152D1*
X468357Y1150715D2*
X418117D1*
X468357Y1131591D1*
X418117Y1112468D1*
X468357D1*
X427734Y1166154D2*
X425302Y1170962D1*
X418172Y1178147D1*
X468357D1*
X1630612Y1013381D2*
Y963141D1*
X1664105Y1013381D2*
Y963141D1*
X1630612Y989449D2*
X1664105D1*
X1679545Y996634D2*
Y972702D1*
X1681921Y965572D1*
X1686730Y963141D1*
X1693915D1*
X1698668Y965572D1*
X1705853Y972702D1*
Y996634D2*
Y963141D1*
X1721292Y996634D2*
Y963141D1*
Y987072D2*
X1728477Y994257D1*
X1733286Y996634D1*
X1740415D1*
X1745224Y994257D1*
X1747600Y987072D1*
Y963141D1*
Y987072D2*
X1754785Y994257D1*
X1759594Y996634D1*
X1766724D1*
X1771532Y994257D1*
X1773964Y987072D1*
Y963141D1*
X1789403Y1013381D2*
X1791780Y1011004D1*
X1794212Y1013381D1*
X1791780Y1015812D1*
X1789403Y1013381D1*
X1791780Y996634D2*
Y963141D1*
X1838336Y1013381D2*
Y963141D1*
Y989449D2*
X1833583Y994257D1*
X1828774Y996634D1*
X1821589D1*
X1816836Y994257D1*
X1812028Y989449D1*
X1809651Y982264D1*
Y977511D1*
X1812028Y970326D1*
X1816836Y965572D1*
X1821589Y963141D1*
X1828774D1*
X1833583Y965572D1*
X1838336Y970326D1*
X1853775Y1003764D2*
X1858584Y1006196D1*
X1865769Y1013325D1*
Y963141D1*
X2358582Y1097140D2*
Y1046900D1*
X2387267D1*
X2402706Y1097140D2*
X2405083Y1094764D1*
X2407514Y1097140D1*
X2405083Y1099572D1*
X2402706Y1097140D1*
X2405083Y1080394D2*
Y1046900D1*
X2451639Y1078017D2*
Y1039715D1*
X2449262Y1032586D1*
X2446885Y1030154D1*
X2442077Y1027777D1*
X2434892D1*
X2430139Y1030154D1*
X2451639Y1070832D2*
X2446885Y1075585D1*
X2442077Y1078017D1*
X2434892D1*
X2430139Y1075585D1*
X2425330Y1070832D1*
X2422954Y1063647D1*
Y1058839D1*
X2425330Y1051709D1*
X2430139Y1046900D1*
X2434892Y1044524D1*
X2442077D1*
X2446885Y1046900D1*
X2451639Y1051709D1*
X2467078Y1097140D2*
Y1046900D1*
Y1070832D2*
X2474263Y1078017D1*
X2479071Y1080394D1*
X2486256D1*
X2491010Y1078017D1*
X2493386Y1070832D1*
Y1046900D1*
X2516010Y1097140D2*
Y1056462D1*
X2518387Y1049332D1*
X2523195Y1046900D1*
X2527949D1*
X2508825Y1080394D2*
X2525572D1*
X2543388Y1087524D2*
X2548196Y1089955D1*
X2555381Y1097085D1*
Y1046900D1*
X1139882Y850639D2*
Y872139D1*
X1137450Y879324D1*
X1135073Y881756D1*
X1130320Y884133D1*
X1125512D1*
X1120759Y881756D1*
X1118327Y879324D1*
X1115950Y872139D1*
Y850639D1*
X1166190D1*
X1139882Y867386D2*
X1166190Y884133D1*
X1125567Y899572D2*
X1123135Y904380D1*
X1116005Y911565D1*
X1166190D1*
X927586Y660020D2*
X949086D1*
X956271Y662452D1*
X958703Y664828D1*
X961080Y669581D1*
Y674390D1*
X958703Y679143D1*
X956271Y681575D1*
X949086Y683951D1*
X927586D1*
Y633711D1*
X944333Y660020D2*
X961080Y633711D1*
X978951Y671958D2*
Y674335D1*
X981327Y679143D1*
X983704Y681520D1*
X988512Y683896D1*
X998074D1*
X1002827Y681520D1*
X1005204Y679143D1*
X1007636Y674335D1*
Y669581D1*
X1005204Y664773D1*
X1000451Y657643D1*
X976519Y633711D1*
X1010012D1*
X1446131Y877586D2*
Y899086D1*
X1443699Y906271D1*
X1441323Y908703D1*
X1436570Y911080D1*
X1431761D1*
X1427008Y908703D1*
X1424576Y906271D1*
X1422200Y899086D1*
X1422199Y877586D1*
X1472440D1*
X1446131Y894333D2*
X1472440Y911080D1*
X1422255Y931327D2*
Y957580D1*
X1441378Y943266D1*
Y950451D1*
X1443755Y955204D1*
X1446131Y957580D1*
X1453316Y960012D1*
X1458069D1*
X1465255Y957580D1*
X1470063Y952827D1*
X1472440Y945642D1*
Y938457D1*
X1470063Y931327D1*
X1467631Y928951D1*
X1462878Y926519D1*
X1688701Y772520D2*
X1710201D1*
X1717386Y774952D1*
X1719818Y777328D1*
X1722194Y782081D1*
Y786890D1*
X1719818Y791643D1*
X1717386Y794075D1*
X1710201Y796451D1*
X1688701D1*
Y746211D1*
X1705448Y772520D2*
X1722194Y746211D1*
X1761565D2*
Y796396D1*
X1737634Y762958D1*
X1773504D1*
X2539119Y764890D2*
Y786389D1*
X2536687Y793574D1*
X2534310Y796006D1*
X2529557Y798383D1*
X2524749D1*
X2519996Y796006D1*
X2517564Y793574D1*
X2515187Y786389D1*
Y764890D1*
X2565427D1*
X2539119Y781636D2*
X2565427Y798383D1*
X2515242Y842507D2*
Y818631D1*
X2536742Y816254D1*
X2534366Y818630D1*
X2531934Y825816D1*
Y832945D1*
X2534366Y840130D1*
X2539119Y844939D1*
X2546304Y847315D1*
X2551057D1*
X2558242Y844939D1*
X2563050Y840130D1*
X2565427Y832945D1*
Y825815D1*
X2563050Y818630D1*
X2560619Y816254D1*
X2555865Y813822D1*
X2777382Y853605D2*
Y875105D1*
X2774950Y882290D1*
X2772573Y884722D1*
X2767820Y887099D1*
X2763012D1*
X2758259Y884722D1*
X2755827Y882290D1*
X2753450Y875105D1*
Y853605D1*
X2803690D1*
X2777382Y870352D2*
X2803690Y887099D1*
X2760635Y931223D2*
X2755882Y928846D1*
X2753505Y921661D1*
Y916908D1*
X2755882Y909723D1*
X2763067Y904915D1*
X2775005Y902538D1*
X2786944D1*
X2796505Y904915D1*
X2801314Y909723D1*
X2803690Y916908D1*
Y919285D1*
X2801314Y926414D1*
X2796505Y931223D1*
X2789320Y933599D1*
X2786944D1*
X2779759Y931223D1*
X2775005Y926414D1*
X2772629Y919285D1*
Y916908D1*
X2775005Y909723D1*
X2779759Y904915D1*
X2786944Y902538D1*
X2127382Y889890D2*
Y911389D1*
X2124950Y918574D1*
X2122573Y921006D1*
X2117820Y923383D1*
X2113012D1*
X2108259Y921006D1*
X2105827Y918574D1*
X2103450Y911389D1*
Y889890D1*
X2153690D1*
X2127382Y906636D2*
X2153690Y923383D1*
Y948384D2*
X2103505Y972315D1*
Y938822D1*
X2302382Y764917D2*
Y786417D1*
X2299950Y793602D1*
X2297573Y796034D1*
X2292820Y798410D1*
X2288012D1*
X2283259Y796034D1*
X2280827Y793602D1*
X2278450Y786417D1*
Y764917D1*
X2328690D1*
X2302382Y781664D2*
X2328690Y798410D1*
X2278505Y825788D2*
X2280882Y818658D1*
X2285635Y816226D1*
X2290444D1*
X2295197Y818658D1*
X2297629Y823411D1*
X2300005Y832973D1*
X2302382Y840158D1*
X2307190Y844911D1*
X2311944Y847288D1*
X2319129D1*
X2323882Y844911D1*
X2326314Y842535D1*
X2328690Y835349D1*
Y825788D1*
X2326314Y818658D1*
X2323882Y816226D1*
X2319129Y813850D1*
X2311944D1*
X2307190Y816226D1*
X2302382Y821035D1*
X2300005Y828164D1*
X2297629Y837726D1*
X2295197Y842535D1*
X2290444Y844911D1*
X2285635D1*
X2280882Y842535D1*
X2278505Y835350D1*
Y825788D1*
X897288Y988577D2*
Y938337D1*
X880541Y988577D2*
X914034D1*
X929474Y957461D2*
X958158D1*
Y962269D1*
X955782Y967078D1*
X953405Y969454D1*
X948597Y971831D1*
X941412D1*
X936659Y969454D1*
X931850Y964646D1*
X929474Y957461D1*
Y952707D1*
X931850Y945522D1*
X936659Y940769D1*
X941412Y938337D1*
X948597D1*
X953405Y940769D1*
X958158Y945522D1*
X973598Y971831D2*
Y938337D1*
Y962269D2*
X980783Y969454D1*
X985591Y971831D1*
X992721D1*
X997529Y969454D1*
X999906Y962269D1*
Y938337D1*
Y962269D2*
X1007091Y969454D1*
X1011899Y971831D1*
X1019029D1*
X1023838Y969454D1*
X1026270Y962269D1*
Y938337D1*
X1041709Y971831D2*
Y921591D1*
Y964646D2*
X1046517Y969399D1*
X1051270Y971831D1*
X1058455D1*
X1063264Y969399D1*
X1068017Y964646D1*
X1070449Y957461D1*
Y952652D1*
X1068017Y945522D1*
X1063264Y940714D1*
X1058455Y938337D1*
X1051270D1*
X1046517Y940714D1*
X1041709Y945522D1*
X1085888Y978961D2*
X1090697Y981392D1*
X1097882Y988522D1*
Y938337D1*
X2231200Y596483D2*
D57*
X2244100D1*
X2248411Y597942D1*
X2249870Y599368D1*
X2251296Y602220D1*
Y605105D1*
X2249870Y607957D1*
X2248411Y609416D1*
X2244100Y610842D1*
X2231200D1*
Y580698D1*
X2241248Y596483D2*
X2251296Y580698D1*
X2260560Y600794D2*
Y586435D1*
X2261986Y582157D1*
X2264871Y580698D1*
X2269182D1*
X2272034Y582157D1*
X2276345Y586435D1*
Y600794D2*
Y580698D1*
X2301393Y596483D2*
X2299968Y599368D1*
X2295656Y600794D1*
X2291345D1*
X2287034Y599368D1*
X2285608Y596483D1*
X2287034Y593631D1*
X2289920Y592172D1*
X2297082Y590746D1*
X2299968Y589320D1*
X2301393Y586435D1*
Y585009D1*
X2299968Y582157D1*
X2295656Y580698D1*
X2291345D1*
X2287034Y582157D1*
X2285608Y585009D1*
X2326442Y596483D2*
X2325016Y599368D1*
X2320705Y600794D1*
X2316394D1*
X2312083Y599368D1*
X2310657Y596483D1*
X2312083Y593631D1*
X2314968Y592172D1*
X2322131Y590746D1*
X2325016Y589320D1*
X2326442Y586435D1*
Y585009D1*
X2325016Y582157D1*
X2320705Y580698D1*
X2316394D1*
X2312083Y582157D1*
X2310657Y585009D1*
X2335706Y592172D2*
X2352916D1*
Y595057D1*
X2351491Y597942D1*
X2350065Y599368D1*
X2347179Y600794D1*
X2342868D1*
X2340017Y599368D1*
X2337131Y596483D1*
X2335706Y592172D1*
Y589320D1*
X2337131Y585009D1*
X2340017Y582157D1*
X2342868Y580698D1*
X2347179D1*
X2350065Y582157D1*
X2352916Y585009D1*
X2362180Y610842D2*
Y580698D1*
X2371444Y610842D2*
Y580698D1*
X2419916Y610842D2*
Y580698D1*
X2409868Y610842D2*
X2429964D1*
X2439227Y600794D2*
Y580698D1*
Y592172D2*
X2440686Y596483D1*
X2443538Y599368D1*
X2446423Y600794D1*
X2450734D1*
X2477209D2*
Y580698D1*
Y596483D2*
X2474357Y599368D1*
X2471472Y600794D1*
X2467194D1*
X2464309Y599368D1*
X2461457Y596483D1*
X2459998Y592172D1*
Y589320D1*
X2461457Y585009D1*
X2464309Y582157D1*
X2467194Y580698D1*
X2471472D1*
X2474357Y582157D1*
X2477209Y585009D1*
X2497946Y610842D2*
X2495094D1*
X2492209Y609416D1*
X2490783Y605105D1*
Y580698D1*
X2486472Y600794D2*
X2496520D1*
X2518684Y610842D2*
X2515832D1*
X2512947Y609416D1*
X2511521Y605105D1*
Y580698D1*
X2507210Y600794D2*
X2517258D1*
X2535110D2*
X2532258Y599368D1*
X2529373Y596483D1*
X2527947Y592172D1*
Y589320D1*
X2529373Y585009D1*
X2532258Y582157D1*
X2535110Y580698D1*
X2539421D1*
X2542306Y582157D1*
X2545158Y585009D1*
X2546617Y589320D1*
Y592172D1*
X2545158Y596483D1*
X2542306Y599368D1*
X2539421Y600794D1*
X2535110D1*
X2555881D2*
Y580698D1*
Y592172D2*
X2557340Y596483D1*
X2560192Y599368D1*
X2563077Y600794D1*
X2567388D1*
X2593863Y610842D2*
Y580698D1*
Y596483D2*
X2591011Y599368D1*
X2588126Y600794D1*
X2583815D1*
X2580963Y599368D1*
X2578078Y596483D1*
X2576652Y592172D1*
Y589320D1*
X2578078Y585009D1*
X2580963Y582157D1*
X2583815Y580698D1*
X2588126D1*
X2591011Y582157D1*
X2593863Y585009D1*
X2231200Y548342D2*
Y518198D1*
X2251296Y548342D2*
Y518198D1*
X2231200Y533983D2*
X2251296D1*
X2269182Y548342D2*
X2266297Y546916D1*
X2263445Y544031D1*
X2261986Y541179D1*
X2260560Y536868D1*
Y529672D1*
X2261986Y525394D1*
X2263445Y522509D1*
X2266297Y519657D1*
X2269182Y518198D1*
X2274919D1*
X2277771Y519657D1*
X2280656Y522509D1*
X2282082Y525394D1*
X2283508Y529672D1*
Y536868D1*
X2282082Y541179D1*
X2280656Y544031D1*
X2277771Y546916D1*
X2274919Y548342D1*
X2269182D1*
X2292771D2*
Y518198D1*
X2305704D1*
X2310016Y519657D1*
X2311441Y521083D1*
X2312867Y523935D1*
Y528246D1*
X2311441Y531131D1*
X2310016Y532557D1*
X2305704Y533983D1*
X2310016Y535442D1*
X2311441Y536868D1*
X2312867Y539720D1*
Y542605D1*
X2311441Y545457D1*
X2310016Y546916D1*
X2305704Y548342D1*
X2292771D1*
Y533983D2*
X2305704D1*
X2330753Y548342D2*
X2327868Y546916D1*
X2325016Y544031D1*
X2323557Y541179D1*
X2322131Y536868D1*
Y529672D1*
X2323557Y525394D1*
X2325016Y522509D1*
X2327868Y519657D1*
X2330753Y518198D1*
X2336490D1*
X2339342Y519657D1*
X2342227Y522509D1*
X2343653Y525394D1*
X2345079Y529672D1*
Y536868D1*
X2343653Y541179D1*
X2342227Y544031D1*
X2339342Y546916D1*
X2336490Y548342D1*
X2330753D1*
X2393551D2*
Y518198D1*
X2383503Y548342D2*
X2403599D1*
X2412863D2*
Y518198D1*
X2445074D2*
Y548342D1*
X2433600Y518198D1*
X2422126Y548342D1*
Y518198D1*
X2483498Y548342D2*
Y518198D1*
X2496431D1*
X2500742Y519657D1*
X2502168Y521083D1*
X2503594Y523935D1*
Y528246D1*
X2502168Y531131D1*
X2500742Y532557D1*
X2496431Y533983D1*
X2500742Y535442D1*
X2502168Y536868D1*
X2503594Y539720D1*
Y542605D1*
X2502168Y545457D1*
X2500742Y546916D1*
X2496431Y548342D1*
X2483498D1*
Y533983D2*
X2496431D1*
X2512858Y538294D2*
Y518198D1*
Y529672D2*
X2514317Y533983D1*
X2517169Y536868D1*
X2520054Y538294D1*
X2524365D1*
X2533628Y529672D2*
X2550839D1*
Y532557D1*
X2549413Y535442D1*
X2547987Y536868D1*
X2545102Y538294D1*
X2540791D1*
X2537939Y536868D1*
X2535054Y533983D1*
X2533628Y529672D1*
Y526820D1*
X2535054Y522509D1*
X2537939Y519657D1*
X2540791Y518198D1*
X2545102D1*
X2547987Y519657D1*
X2550839Y522509D1*
X2577314Y538294D2*
Y518198D1*
Y533983D2*
X2574462Y536868D1*
X2571577Y538294D1*
X2567299D1*
X2564414Y536868D1*
X2561562Y533983D1*
X2560103Y529672D1*
Y526820D1*
X2561562Y522509D1*
X2564414Y519657D1*
X2567299Y518198D1*
X2571577D1*
X2574462Y519657D1*
X2577314Y522509D1*
X2586577Y548342D2*
Y518198D1*
X2600936Y538294D2*
X2586577Y523935D1*
X2592314Y529672D2*
X2602362Y518198D1*
X2618789Y538294D2*
X2615937Y536868D1*
X2613052Y533983D1*
X2611626Y529672D1*
Y526820D1*
X2613052Y522509D1*
X2615937Y519657D1*
X2618789Y518198D1*
X2623100D1*
X2625985Y519657D1*
X2628837Y522509D1*
X2630296Y526820D1*
Y529672D1*
X2628837Y533983D1*
X2625985Y536868D1*
X2623100Y538294D1*
X2618789D1*
X2639559D2*
Y523935D1*
X2640985Y519657D1*
X2643870Y518198D1*
X2648181D1*
X2651033Y519657D1*
X2655344Y523935D1*
Y538294D2*
Y518198D1*
X2668919Y548342D2*
Y523935D1*
X2670345Y519657D1*
X2673230Y518198D1*
X2676082D1*
X2664608Y538294D2*
X2674656D1*
X2231200Y471483D2*
X2244100D1*
X2248411Y472942D1*
X2249870Y474368D1*
X2251296Y477220D1*
Y480105D1*
X2249870Y482957D1*
X2248411Y484416D1*
X2244100Y485842D1*
X2231200D1*
Y455698D1*
X2241248Y471483D2*
X2251296Y455698D1*
X2260560Y467172D2*
X2277771D1*
Y470057D1*
X2276345Y472942D1*
X2274919Y474368D1*
X2272034Y475794D1*
X2267723D1*
X2264871Y474368D1*
X2261986Y471483D1*
X2260560Y467172D1*
Y464320D1*
X2261986Y460009D1*
X2264871Y457157D1*
X2267723Y455698D1*
X2272034D1*
X2274919Y457157D1*
X2277771Y460009D1*
X2287034Y475794D2*
X2295656Y455698D1*
X2304245Y475794D1*
X2314935Y458583D2*
X2313509Y457124D1*
X2314935Y455698D1*
X2316394Y457124D1*
X2314935Y458583D1*
X2354818Y480072D2*
X2357703Y481531D1*
X2362014Y485809D1*
Y455698D1*
X2372704Y458583D2*
X2371278Y457124D1*
X2372704Y455698D1*
X2374163Y457124D1*
X2372704Y458583D1*
X2392048Y485809D2*
X2387737Y484383D1*
X2384852Y480072D1*
X2383426Y472909D1*
Y468598D1*
X2384852Y461435D1*
X2387737Y457124D1*
X2392048Y455698D1*
X2394900D1*
X2399211Y457124D1*
X2402063Y461435D1*
X2403522Y468598D1*
Y472909D1*
X2402063Y480072D1*
X2399211Y484383D1*
X2394900Y485809D1*
X2392048D1*
X2402063Y480072D2*
X2384852Y461435D1*
X1337451Y1296483D2*
X1350351D1*
X1354662Y1297942D1*
X1356121Y1299368D1*
X1357547Y1302220D1*
Y1305105D1*
X1356121Y1307957D1*
X1354662Y1309416D1*
X1350351Y1310842D1*
X1337451D1*
Y1280698D1*
X1347499Y1296483D2*
X1357547Y1280698D1*
X1384022Y1300794D2*
Y1280698D1*
Y1296483D2*
X1381170Y1299368D1*
X1378285Y1300794D1*
X1374007D1*
X1371122Y1299368D1*
X1368270Y1296483D1*
X1366811Y1292172D1*
Y1289320D1*
X1368270Y1285009D1*
X1371122Y1282157D1*
X1374007Y1280698D1*
X1378285D1*
X1381170Y1282157D1*
X1384022Y1285009D1*
X1409070Y1296483D2*
X1407644Y1299368D1*
X1403333Y1300794D1*
X1399022D1*
X1394711Y1299368D1*
X1393285Y1296483D1*
X1394711Y1293631D1*
X1397596Y1292172D1*
X1404759Y1290746D1*
X1407644Y1289320D1*
X1409070Y1286435D1*
Y1285009D1*
X1407644Y1282157D1*
X1403333Y1280698D1*
X1399022D1*
X1394711Y1282157D1*
X1393285Y1285009D1*
X1418334Y1300794D2*
Y1270650D1*
Y1296483D2*
X1421219Y1299335D1*
X1424071Y1300794D1*
X1428382D1*
X1431267Y1299335D1*
X1434119Y1296483D1*
X1435578Y1292172D1*
Y1289287D1*
X1434119Y1285009D1*
X1431267Y1282124D1*
X1428382Y1280698D1*
X1424071D1*
X1421219Y1282124D1*
X1418334Y1285009D1*
X1444841Y1310842D2*
Y1280698D1*
Y1296483D2*
X1447726Y1299368D1*
X1450578Y1300794D1*
X1454889D1*
X1457741Y1299368D1*
X1460626Y1296483D1*
X1462052Y1292172D1*
Y1289320D1*
X1460626Y1285009D1*
X1457741Y1282157D1*
X1454889Y1280698D1*
X1450578D1*
X1447726Y1282157D1*
X1444841Y1285009D1*
X1471316Y1292172D2*
X1488527D1*
Y1295057D1*
X1487101Y1297942D1*
X1485675Y1299368D1*
X1482790Y1300794D1*
X1478479D1*
X1475627Y1299368D1*
X1472742Y1296483D1*
X1471316Y1292172D1*
Y1289320D1*
X1472742Y1285009D1*
X1475627Y1282157D1*
X1478479Y1280698D1*
X1482790D1*
X1485675Y1282157D1*
X1488527Y1285009D1*
X1497790Y1300794D2*
Y1280698D1*
Y1292172D2*
X1499249Y1296483D1*
X1502101Y1299368D1*
X1504986Y1300794D1*
X1509297D1*
X1518561D2*
Y1280698D1*
Y1292172D2*
X1520020Y1296483D1*
X1522872Y1299368D1*
X1525757Y1300794D1*
X1530068D1*
X1540791D2*
X1549380Y1280698D1*
X1546528Y1274961D1*
X1543643Y1272076D1*
X1540791Y1270650D1*
X1539332D1*
X1558002Y1300794D2*
X1549380Y1280698D1*
X1596426Y1295057D2*
X1609359D1*
X1613637Y1296483D1*
X1615096Y1297942D1*
X1616522Y1300794D1*
Y1305105D1*
X1615096Y1307957D1*
X1613637Y1309416D1*
X1609359Y1310842D1*
X1596426D1*
Y1280698D1*
X1625785Y1310842D2*
X1627211Y1309416D1*
X1628670Y1310842D1*
X1627211Y1312301D1*
X1625785Y1310842D1*
X1627211Y1300794D2*
Y1280698D1*
X1667094Y1310842D2*
Y1280698D1*
X1680028D1*
X1684339Y1282157D1*
X1685765Y1283583D1*
X1687190Y1286435D1*
Y1290746D1*
X1685765Y1293631D1*
X1684339Y1295057D1*
X1680028Y1296483D1*
X1684339Y1297942D1*
X1685765Y1299368D1*
X1687190Y1302220D1*
Y1305105D1*
X1685765Y1307957D1*
X1684339Y1309416D1*
X1680028Y1310842D1*
X1667094D1*
Y1296483D2*
X1680028D1*
X1709354Y1308670D2*
Y1282837D1*
X1696454Y1295737D2*
X1722287D1*
X1760711Y1310842D2*
Y1280698D1*
X1780807Y1310842D2*
Y1280698D1*
X1760711Y1296483D2*
X1780807D1*
X1790071Y1292172D2*
X1807282D1*
Y1295057D1*
X1805856Y1297942D1*
X1804430Y1299368D1*
X1801545Y1300794D1*
X1797234D1*
X1794382Y1299368D1*
X1791497Y1296483D1*
X1790071Y1292172D1*
Y1289320D1*
X1791497Y1285009D1*
X1794382Y1282157D1*
X1797234Y1280698D1*
X1801545D1*
X1804430Y1282157D1*
X1807282Y1285009D1*
X1833756Y1300794D2*
Y1280698D1*
Y1296483D2*
X1830904Y1299368D1*
X1828019Y1300794D1*
X1823741D1*
X1820856Y1299368D1*
X1818004Y1296483D1*
X1816545Y1292172D1*
Y1289320D1*
X1818004Y1285009D1*
X1820856Y1282157D1*
X1823741Y1280698D1*
X1828019D1*
X1830904Y1282157D1*
X1833756Y1285009D1*
X1860231Y1310842D2*
Y1280698D1*
Y1296483D2*
X1857379Y1299368D1*
X1854494Y1300794D1*
X1850183D1*
X1847331Y1299368D1*
X1844446Y1296483D1*
X1843020Y1292172D1*
Y1289320D1*
X1844446Y1285009D1*
X1847331Y1282157D1*
X1850183Y1280698D1*
X1854494D1*
X1857379Y1282157D1*
X1860231Y1285009D1*
X1869494Y1292172D2*
X1886705D1*
Y1295057D1*
X1885279Y1297942D1*
X1883853Y1299368D1*
X1880968Y1300794D1*
X1876657D1*
X1873805Y1299368D1*
X1870920Y1296483D1*
X1869494Y1292172D1*
Y1289320D1*
X1870920Y1285009D1*
X1873805Y1282157D1*
X1876657Y1280698D1*
X1880968D1*
X1883853Y1282157D1*
X1886705Y1285009D1*
X1895969Y1300794D2*
Y1280698D1*
Y1292172D2*
X1897428Y1296483D1*
X1900280Y1299368D1*
X1903165Y1300794D1*
X1907476D1*
X631200Y1398821D2*
X634085Y1400280D1*
X638396Y1404558D1*
Y1374447D1*
X626410Y1503646D2*
Y1505072D1*
X627836Y1507957D1*
X629262Y1509383D1*
X632147Y1510809D1*
X637884D1*
X640736Y1509383D1*
X642162Y1507957D1*
X643621Y1505072D1*
Y1502220D1*
X642162Y1499335D1*
X639310Y1495057D1*
X624951Y1480698D1*
X645047D1*
M02*
