G04 DipTrace 3.0.0.2*
G04 hobo.gbl*
%MOIN*%
G04 #@! TF.FileFunction,Copper,L2,Bot*
G04 #@! TF.Part,Single*
%ADD25C,0.06*%
%ADD26C,0.055433*%
G04 #@! TA.AperFunction,Conductor*
%ADD14C,0.012992*%
G04 #@! TA.AperFunction,CopperBalancing*
%ADD15C,0.025*%
G04 #@! TA.AperFunction,ViaPad*
%ADD30C,0.04*%
%FSLAX26Y26*%
G04*
G70*
G90*
G75*
G01*
G04 Bottom_Plane*
%LPD*%
X1123228Y1387008D2*
D14*
Y1389173D1*
X1068701Y1443701D1*
X966535D1*
X923228Y1487008D1*
X1323228D2*
Y1485728D1*
X1281201Y1443701D1*
X1179921D1*
X1123228Y1387008D1*
X1623228Y1487008D2*
Y1485728D1*
X1568701Y1431201D1*
X1379035D1*
X1323228Y1487008D1*
X1623228D2*
X1625394D1*
X1668701Y1443701D1*
X1856201D1*
X1868701Y1431201D1*
X1879035D1*
X1923228Y1387008D1*
X1924508D1*
X1981201Y1443701D1*
X2079921D1*
X2123228Y1487008D1*
X2125394D1*
X2181201Y1431201D1*
X2268701D1*
X2281201Y1443701D1*
Y1444980D1*
X2323228Y1487008D1*
Y1476673D1*
X2368701Y1431201D1*
X2581201D1*
Y1429035D1*
X2623228Y1387008D1*
X568701Y1256201D2*
Y1306201D1*
X618701Y1256201D2*
Y1306201D1*
X668701Y1256201D2*
Y1306201D1*
X643701Y1331201D1*
X618701Y793701D2*
Y756201D1*
X1118701Y593701D2*
Y556201D1*
X1856201Y893701D2*
Y906201D1*
X1868701Y918701D1*
X881201Y843701D2*
Y793701D1*
X1856201Y1118701D2*
X1893701D1*
X2418701Y931201D2*
Y881201D1*
X2706201Y1206201D2*
Y1243701D1*
X2468701Y718701D2*
Y668701D1*
X1181201Y1231201D2*
X1149951D1*
X2293701Y918701D2*
Y1081201D1*
X756201Y1018701D2*
X868701D1*
X1443504Y818898D2*
X1368701Y893701D1*
X1993701Y781201D2*
X1818701D1*
D30*
X568701Y1256201D3*
X618701D3*
X668701D3*
X618701Y793701D3*
X1118701Y593701D3*
X1856201Y893701D3*
X881201Y843701D3*
X1856201Y1118701D3*
X2418701Y931201D3*
X2706201Y1206201D3*
X2468701Y718701D3*
X1181201Y1231201D3*
X2293701Y918701D3*
Y1081201D3*
X756201Y1018701D3*
X868701D3*
X1443504Y818898D3*
X1368701Y893701D3*
X1993701Y781201D3*
X1818701D3*
X518701Y1256201D3*
X458701Y1506332D2*
D15*
X487807D1*
X575180D2*
X670083D1*
X2676352D2*
X2769546D1*
X2860386D2*
X2878726D1*
X601255Y1481463D2*
X666811D1*
X2679672D2*
X2744106D1*
X612192Y1456594D2*
X675844D1*
X2670591D2*
X2733315D1*
X614438Y1431726D2*
X686196D1*
X760239D2*
X790102D1*
X856382D2*
X890102D1*
X2656382D2*
X2731118D1*
X608774Y1406857D2*
X667836D1*
X2676157D2*
X2736734D1*
X458701Y1381988D2*
X470083D1*
X592954D2*
X664467D1*
X2679722D2*
X2752310D1*
X458701Y1357119D2*
X518130D1*
X544894D2*
X620815D1*
X2670932D2*
X2796206D1*
X2833726D2*
X2878726D1*
X458701Y1332251D2*
X545962D1*
X691782D2*
X706850D1*
X739634D2*
X2878726D1*
X458701Y1307382D2*
X533266D1*
X704135D2*
X2878726D1*
X458701Y1282513D2*
X477895D1*
X709507D2*
X2878726D1*
X458701Y1257644D2*
X469741D1*
X717660D2*
X1127748D1*
X1221958D2*
X2673843D1*
X2738559D2*
X2878726D1*
X458701Y1232776D2*
X476039D1*
X711362D2*
X1114516D1*
X1230160D2*
X2665542D1*
X2746860D2*
X2878726D1*
X458701Y1207907D2*
X1124135D1*
X1223959D2*
X2657241D1*
X2755160D2*
X2878726D1*
X458701Y1183038D2*
X2663394D1*
X2749008D2*
X2878726D1*
X458701Y1158169D2*
X1829115D1*
X1883286D2*
X2878726D1*
X458701Y1133301D2*
X1809584D1*
X1925766D2*
X2878726D1*
X458701Y1108432D2*
X1808364D1*
X1927524D2*
X2253530D1*
X2333871D2*
X2878726D1*
X458701Y1083563D2*
X1823256D1*
X1889146D2*
X2244790D1*
X2342612D2*
X2878726D1*
X458701Y1058694D2*
X729995D1*
X782407D2*
X842495D1*
X894907D2*
X2250503D1*
X2336899D2*
X2878726D1*
X458701Y1033825D2*
X709731D1*
X915171D2*
X2258218D1*
X2329184D2*
X2878726D1*
X458701Y1008957D2*
X708218D1*
X916684D2*
X2258218D1*
X2329184D2*
X2878726D1*
X458701Y984088D2*
X722671D1*
X789731D2*
X835171D1*
X902231D2*
X2258218D1*
X2329184D2*
X2878726D1*
X458701Y959219D2*
X2258218D1*
X2329184D2*
X2379115D1*
X2458286D2*
X2878726D1*
X458701Y934350D2*
X1343618D1*
X1393783D2*
X1831118D1*
X1900230D2*
X2247427D1*
X2339975D2*
X2369839D1*
X2467563D2*
X2878726D1*
X458701Y909482D2*
X1322475D1*
X1414927D2*
X1809975D1*
X1902866D2*
X2245619D1*
X2341782D2*
X2375112D1*
X2462290D2*
X2878726D1*
X458701Y884613D2*
X856606D1*
X905795D2*
X1320619D1*
X1426938D2*
X1808119D1*
X1904282D2*
X2259584D1*
X2327818D2*
X2383218D1*
X2454184D2*
X2878726D1*
X458701Y859744D2*
X835073D1*
X927328D2*
X1334438D1*
X1468198D2*
X1821938D1*
X1890463D2*
X2391176D1*
X2446226D2*
X2878726D1*
X458701Y834875D2*
X594594D1*
X642807D2*
X833071D1*
X929331D2*
X1378383D1*
X1489682D2*
X2878726D1*
X458701Y810007D2*
X572671D1*
X664731D2*
X845718D1*
X916684D2*
X1395375D1*
X1491635D2*
X1779702D1*
X2032699D2*
X2878726D1*
X458701Y785138D2*
X570522D1*
X666879D2*
X846840D1*
X915562D2*
X1409047D1*
X1477963D2*
X1769887D1*
X2042514D2*
X2878726D1*
X458701Y760269D2*
X583218D1*
X654184D2*
X1774672D1*
X2037730D2*
X2445375D1*
X2492026D2*
X2878726D1*
X458701Y735400D2*
X590591D1*
X646811D2*
X1808218D1*
X1829180D2*
X1983218D1*
X2004180D2*
X2422818D1*
X2514584D2*
X2878726D1*
X458701Y710531D2*
X2420424D1*
X2516978D2*
X2878726D1*
X458701Y685663D2*
X2433218D1*
X2504184D2*
X2878726D1*
X458701Y660794D2*
X2434194D1*
X2503207D2*
X2878726D1*
X458701Y635925D2*
X1096743D1*
X1140659D2*
X2462563D1*
X2474844D2*
X2878726D1*
X458701Y611056D2*
X511196D1*
X551791D2*
X1073062D1*
X1164340D2*
X2794643D1*
X2835287D2*
X2878726D1*
X458701Y586188D2*
X468520D1*
X594467D2*
X1070327D1*
X1167075D2*
X2752016D1*
X609898Y561319D2*
X1082827D1*
X1154575D2*
X2736587D1*
X615366Y536450D2*
X1089810D1*
X1147592D2*
X2731070D1*
X613071Y511581D2*
X2733412D1*
X602134Y486713D2*
X2744350D1*
X458701Y461844D2*
X486635D1*
X576352D2*
X2770083D1*
X2859848D2*
X2878726D1*
X458701Y436975D2*
X2878726D1*
X774470Y1363328D2*
X771396Y1357491D1*
X766185Y1350319D1*
X759917Y1344051D1*
X752745Y1338840D1*
X744846Y1334816D1*
X736416Y1332076D1*
X727660Y1330690D1*
X718797D1*
X710041Y1332076D1*
X701610Y1334816D1*
X693711Y1338840D1*
X686539Y1344051D1*
X680272Y1350319D1*
X675060Y1357491D1*
X671037Y1365390D1*
X668297Y1373820D1*
X666911Y1382576D1*
Y1391440D1*
X668297Y1400196D1*
X671037Y1408626D1*
X675060Y1416525D1*
X680272Y1423697D1*
X686539Y1429965D1*
X693711Y1435176D1*
X699549Y1438249D1*
X691365Y1443152D1*
X684898Y1448677D1*
X679373Y1455144D1*
X674928Y1462398D1*
X671673Y1470256D1*
X669688Y1478528D1*
X669020Y1487008D1*
X669688Y1495488D1*
X671673Y1503760D1*
X674928Y1511618D1*
X679373Y1518871D1*
X684898Y1525339D1*
X691877Y1531205D1*
X456201Y1531201D1*
Y1465820D1*
X459657Y1473612D1*
X466268Y1484399D1*
X474484Y1494020D1*
X484105Y1502236D1*
X494892Y1508846D1*
X506581Y1513688D1*
X518883Y1516642D1*
X531496Y1517634D1*
X544109Y1516642D1*
X556411Y1513688D1*
X568100Y1508846D1*
X578887Y1502236D1*
X588508Y1494020D1*
X596724Y1484399D1*
X603335Y1473612D1*
X608176Y1461923D1*
X611130Y1449621D1*
X612122Y1437008D1*
X611130Y1424395D1*
X608176Y1412093D1*
X603335Y1400404D1*
X596724Y1389617D1*
X588508Y1379996D1*
X578887Y1371780D1*
X568100Y1365169D1*
X556411Y1360328D1*
X544109Y1357374D1*
X531496Y1356382D1*
X518883Y1357374D1*
X506581Y1360328D1*
X494892Y1365169D1*
X484105Y1371780D1*
X474484Y1379996D1*
X466268Y1389617D1*
X459657Y1400404D1*
X456194Y1408358D1*
X456201Y562793D1*
X461982Y574094D1*
X469501Y584445D1*
X478547Y593491D1*
X488898Y601010D1*
X500297Y606819D1*
X512463Y610772D1*
X525100Y612773D1*
X537892D1*
X550529Y610772D1*
X562696Y606819D1*
X574094Y601010D1*
X584445Y593491D1*
X593491Y584445D1*
X601010Y574094D1*
X606819Y562696D1*
X610772Y550529D1*
X612773Y537892D1*
Y525100D1*
X610772Y512463D1*
X606819Y500297D1*
X601010Y488898D1*
X593491Y478547D1*
X584445Y469501D1*
X574094Y461982D1*
X562696Y456173D1*
X550529Y452220D1*
X537892Y450219D1*
X525100D1*
X512463Y452220D1*
X500297Y456173D1*
X488898Y461982D1*
X478547Y469501D1*
X469501Y478547D1*
X461982Y488898D1*
X456184Y500273D1*
X456201Y431201D1*
X2881201D1*
X2880919Y483575D1*
X2872610Y473846D1*
X2862882Y465538D1*
X2851974Y458853D1*
X2840155Y453958D1*
X2827714Y450971D1*
X2814961Y449967D1*
X2802207Y450971D1*
X2789766Y453958D1*
X2777948Y458853D1*
X2767039Y465538D1*
X2757311Y473846D1*
X2749003Y483575D1*
X2742318Y494483D1*
X2737423Y506302D1*
X2734436Y518743D1*
X2733432Y531496D1*
X2734436Y544249D1*
X2737423Y556690D1*
X2742318Y568509D1*
X2749003Y579417D1*
X2757311Y589146D1*
X2767039Y597454D1*
X2777948Y604139D1*
X2789766Y609034D1*
X2802207Y612021D1*
X2814961Y613025D1*
X2827714Y612021D1*
X2840155Y609034D1*
X2851974Y604139D1*
X2862882Y597454D1*
X2872610Y589146D1*
X2881210Y578980D1*
X2881201Y1389453D1*
X2872610Y1379358D1*
X2862882Y1371050D1*
X2851974Y1364365D1*
X2840155Y1359470D1*
X2827714Y1356483D1*
X2814961Y1355479D1*
X2802207Y1356483D1*
X2789766Y1359470D1*
X2777948Y1364365D1*
X2767039Y1371050D1*
X2757311Y1379358D1*
X2749003Y1389087D1*
X2742318Y1399995D1*
X2737423Y1411814D1*
X2734436Y1424255D1*
X2733432Y1437008D1*
X2734436Y1449761D1*
X2737423Y1462202D1*
X2742318Y1474021D1*
X2749003Y1484929D1*
X2757311Y1494657D1*
X2767039Y1502966D1*
X2777948Y1509651D1*
X2789766Y1514546D1*
X2802207Y1517533D1*
X2814961Y1518537D1*
X2827714Y1517533D1*
X2840155Y1514546D1*
X2851974Y1509651D1*
X2862882Y1502966D1*
X2872610Y1494657D1*
X2881210Y1484492D1*
X2881201Y1531201D1*
X2654589D1*
X2661559Y1525339D1*
X2667084Y1518871D1*
X2671529Y1511618D1*
X2674783Y1503760D1*
X2676769Y1495488D1*
X2677437Y1487008D1*
X2676769Y1478528D1*
X2674783Y1470256D1*
X2671529Y1462398D1*
X2667084Y1455144D1*
X2661559Y1448677D1*
X2655092Y1443152D1*
X2647839Y1438707D1*
X2644169Y1437016D1*
X2651552Y1433228D1*
X2658434Y1428228D1*
X2664449Y1422214D1*
X2669449Y1415332D1*
X2673311Y1407752D1*
X2675940Y1399663D1*
X2677270Y1391261D1*
Y1382755D1*
X2675940Y1374353D1*
X2673311Y1366264D1*
X2669449Y1358684D1*
X2664449Y1351802D1*
X2658434Y1345787D1*
X2651552Y1340787D1*
X2643972Y1336925D1*
X2635883Y1334297D1*
X2627482Y1332966D1*
X2618975D1*
X2610573Y1334297D1*
X2602484Y1336925D1*
X2594904Y1340787D1*
X2588022Y1345787D1*
X2582008Y1351802D1*
X2577008Y1358684D1*
X2573236Y1366067D1*
X2569449Y1358684D1*
X2564449Y1351802D1*
X2558434Y1345787D1*
X2551552Y1340787D1*
X2543972Y1336925D1*
X2535883Y1334297D1*
X2527482Y1332966D1*
X2518975D1*
X2510573Y1334297D1*
X2502484Y1336925D1*
X2494904Y1340787D1*
X2488022Y1345787D1*
X2482008Y1351802D1*
X2477008Y1358684D1*
X2473236Y1366067D1*
X2469449Y1358684D1*
X2464449Y1351802D1*
X2458434Y1345787D1*
X2451552Y1340787D1*
X2443972Y1336925D1*
X2435883Y1334297D1*
X2427482Y1332966D1*
X2418975D1*
X2410573Y1334297D1*
X2402484Y1336925D1*
X2394904Y1340787D1*
X2388022Y1345787D1*
X2382008Y1351802D1*
X2377008Y1358684D1*
X2373236Y1366067D1*
X2369449Y1358684D1*
X2364449Y1351802D1*
X2358434Y1345787D1*
X2351552Y1340787D1*
X2343972Y1336925D1*
X2335883Y1334297D1*
X2327482Y1332966D1*
X2318975D1*
X2310573Y1334297D1*
X2302484Y1336925D1*
X2294904Y1340787D1*
X2288022Y1345787D1*
X2282008Y1351802D1*
X2277008Y1358684D1*
X2273236Y1366067D1*
X2269449Y1358684D1*
X2264449Y1351802D1*
X2258434Y1345787D1*
X2251552Y1340787D1*
X2243972Y1336925D1*
X2235883Y1334297D1*
X2227482Y1332966D1*
X2218975D1*
X2210573Y1334297D1*
X2202484Y1336925D1*
X2194904Y1340787D1*
X2188022Y1345787D1*
X2182008Y1351802D1*
X2177008Y1358684D1*
X2173236Y1366067D1*
X2169449Y1358684D1*
X2164449Y1351802D1*
X2158434Y1345787D1*
X2151552Y1340787D1*
X2143972Y1336925D1*
X2135883Y1334297D1*
X2127482Y1332966D1*
X2118975D1*
X2110573Y1334297D1*
X2102484Y1336925D1*
X2094904Y1340787D1*
X2088022Y1345787D1*
X2082008Y1351802D1*
X2077008Y1358684D1*
X2073236Y1366067D1*
X2069449Y1358684D1*
X2064449Y1351802D1*
X2058434Y1345787D1*
X2051552Y1340787D1*
X2043972Y1336925D1*
X2035883Y1334297D1*
X2027482Y1332966D1*
X2018975D1*
X2010573Y1334297D1*
X2002484Y1336925D1*
X1994904Y1340787D1*
X1988022Y1345787D1*
X1982008Y1351802D1*
X1977008Y1358684D1*
X1973236Y1366067D1*
X1969449Y1358684D1*
X1964449Y1351802D1*
X1958434Y1345787D1*
X1951552Y1340787D1*
X1943972Y1336925D1*
X1935883Y1334297D1*
X1927482Y1332966D1*
X1918975D1*
X1910573Y1334297D1*
X1902484Y1336925D1*
X1894904Y1340787D1*
X1888022Y1345787D1*
X1882008Y1351802D1*
X1877008Y1358684D1*
X1873236Y1366067D1*
X1869449Y1358684D1*
X1864449Y1351802D1*
X1858434Y1345787D1*
X1851552Y1340787D1*
X1843972Y1336925D1*
X1835883Y1334297D1*
X1827482Y1332966D1*
X1818975D1*
X1810573Y1334297D1*
X1802484Y1336925D1*
X1794904Y1340787D1*
X1788022Y1345787D1*
X1782008Y1351802D1*
X1777008Y1358684D1*
X1773236Y1366067D1*
X1769449Y1358684D1*
X1764449Y1351802D1*
X1758434Y1345787D1*
X1751552Y1340787D1*
X1743972Y1336925D1*
X1735883Y1334297D1*
X1727482Y1332966D1*
X1718975D1*
X1710573Y1334297D1*
X1702484Y1336925D1*
X1694904Y1340787D1*
X1688022Y1345787D1*
X1682008Y1351802D1*
X1677008Y1358684D1*
X1673236Y1366067D1*
X1669449Y1358684D1*
X1664449Y1351802D1*
X1658434Y1345787D1*
X1651552Y1340787D1*
X1643972Y1336925D1*
X1635883Y1334297D1*
X1627482Y1332966D1*
X1618975D1*
X1610573Y1334297D1*
X1602484Y1336925D1*
X1594904Y1340787D1*
X1588022Y1345787D1*
X1582008Y1351802D1*
X1577008Y1358684D1*
X1573236Y1366067D1*
X1569449Y1358684D1*
X1564449Y1351802D1*
X1558434Y1345787D1*
X1551552Y1340787D1*
X1543972Y1336925D1*
X1535883Y1334297D1*
X1527482Y1332966D1*
X1518975D1*
X1510573Y1334297D1*
X1502484Y1336925D1*
X1494904Y1340787D1*
X1488022Y1345787D1*
X1482008Y1351802D1*
X1477008Y1358684D1*
X1473236Y1366067D1*
X1469449Y1358684D1*
X1464449Y1351802D1*
X1458434Y1345787D1*
X1451552Y1340787D1*
X1443972Y1336925D1*
X1435883Y1334297D1*
X1427482Y1332966D1*
X1418975D1*
X1410573Y1334297D1*
X1402484Y1336925D1*
X1394904Y1340787D1*
X1388022Y1345787D1*
X1382008Y1351802D1*
X1377008Y1358684D1*
X1373236Y1366067D1*
X1369449Y1358684D1*
X1364449Y1351802D1*
X1358434Y1345787D1*
X1351552Y1340787D1*
X1343972Y1336925D1*
X1335883Y1334297D1*
X1327482Y1332966D1*
X1318975D1*
X1310573Y1334297D1*
X1302484Y1336925D1*
X1294904Y1340787D1*
X1288022Y1345787D1*
X1282008Y1351802D1*
X1277008Y1358684D1*
X1273236Y1366067D1*
X1269449Y1358684D1*
X1264449Y1351802D1*
X1258434Y1345787D1*
X1251552Y1340787D1*
X1243972Y1336925D1*
X1235883Y1334297D1*
X1227482Y1332966D1*
X1218975D1*
X1210573Y1334297D1*
X1202484Y1336925D1*
X1194904Y1340787D1*
X1188022Y1345787D1*
X1182008Y1351802D1*
X1177008Y1358684D1*
X1173236Y1366067D1*
X1169449Y1358684D1*
X1164449Y1351802D1*
X1158434Y1345787D1*
X1151552Y1340787D1*
X1143972Y1336925D1*
X1135883Y1334297D1*
X1127482Y1332966D1*
X1118975D1*
X1110573Y1334297D1*
X1102484Y1336925D1*
X1094904Y1340787D1*
X1088022Y1345787D1*
X1082008Y1351802D1*
X1077008Y1358684D1*
X1073236Y1366067D1*
X1069449Y1358684D1*
X1064449Y1351802D1*
X1058434Y1345787D1*
X1051552Y1340787D1*
X1043972Y1336925D1*
X1035883Y1334297D1*
X1027482Y1332966D1*
X1018975D1*
X1010573Y1334297D1*
X1002484Y1336925D1*
X994904Y1340787D1*
X988022Y1345787D1*
X982008Y1351802D1*
X977008Y1358684D1*
X973236Y1366067D1*
X969449Y1358684D1*
X964449Y1351802D1*
X958434Y1345787D1*
X951552Y1340787D1*
X943972Y1336925D1*
X935883Y1334297D1*
X927482Y1332966D1*
X918975D1*
X910573Y1334297D1*
X902484Y1336925D1*
X894904Y1340787D1*
X888022Y1345787D1*
X882008Y1351802D1*
X877008Y1358684D1*
X873236Y1366067D1*
X869449Y1358684D1*
X864449Y1351802D1*
X858434Y1345787D1*
X851552Y1340787D1*
X843972Y1336925D1*
X835883Y1334297D1*
X827482Y1332966D1*
X818975D1*
X810573Y1334297D1*
X802484Y1336925D1*
X794904Y1340787D1*
X788022Y1345787D1*
X782008Y1351802D1*
X777008Y1358684D1*
X774504Y1363319D1*
X746908Y1438249D2*
X752745Y1435176D1*
X759917Y1429965D1*
X766185Y1423697D1*
X771396Y1416525D1*
X774470Y1410688D1*
X779373Y1418871D1*
X784898Y1425339D1*
X791365Y1430864D1*
X798618Y1435308D1*
X802287Y1437000D1*
X794904Y1440787D1*
X788022Y1445787D1*
X782008Y1451802D1*
X777008Y1458684D1*
X773236Y1466067D1*
X769449Y1458684D1*
X764449Y1451802D1*
X758434Y1445787D1*
X751552Y1440787D1*
X746917Y1438283D1*
X844169Y1437000D2*
X851552Y1433228D1*
X858434Y1428228D1*
X864449Y1422214D1*
X869449Y1415332D1*
X873220Y1407949D1*
X877008Y1415332D1*
X882008Y1422214D1*
X888022Y1428228D1*
X894904Y1433228D1*
X902287Y1437000D1*
X894904Y1440787D1*
X888022Y1445787D1*
X882008Y1451802D1*
X877008Y1458684D1*
X873236Y1466067D1*
X869449Y1458684D1*
X864449Y1451802D1*
X858434Y1445787D1*
X851552Y1440787D1*
X844169Y1437016D1*
X543669Y1217012D2*
X536492Y1213248D1*
X529554Y1210993D1*
X522349Y1209852D1*
X515052D1*
X507848Y1210993D1*
X500909Y1213248D1*
X494408Y1216560D1*
X488507Y1220848D1*
X483348Y1226007D1*
X479060Y1231908D1*
X475748Y1238409D1*
X473493Y1245348D1*
X472352Y1252552D1*
Y1259849D1*
X473493Y1267054D1*
X475748Y1273992D1*
X479060Y1280493D1*
X483348Y1286395D1*
X488507Y1291554D1*
X494408Y1295841D1*
X500909Y1299154D1*
X507848Y1301408D1*
X515052Y1302550D1*
X522349D1*
X529554Y1301408D1*
X535730Y1299436D1*
X536118Y1311361D1*
X538223Y1318825D1*
X542013Y1325591D1*
X547277Y1331285D1*
X553724Y1335593D1*
X561000Y1338278D1*
X568701Y1339189D1*
X576402Y1338278D1*
X583677Y1335593D1*
X590125Y1331285D1*
X593710Y1327707D1*
X599311Y1332888D1*
X606076Y1336678D1*
X611526Y1338382D1*
X613223Y1343825D1*
X617013Y1350591D1*
X622277Y1356285D1*
X628724Y1360593D1*
X636000Y1363278D1*
X643701Y1364189D1*
X651402Y1363278D1*
X658677Y1360593D1*
X665125Y1356285D1*
X693785Y1327625D1*
X698093Y1321177D1*
X700778Y1313902D1*
X701689Y1306201D1*
X701676Y1305867D1*
X701689Y1288965D1*
X706314Y1283528D1*
X710126Y1277308D1*
X712917Y1270568D1*
X714621Y1263474D1*
X715193Y1256201D1*
X714621Y1248928D1*
X712917Y1241833D1*
X710126Y1235093D1*
X706314Y1228874D1*
X701576Y1223325D1*
X696028Y1218588D1*
X689808Y1214776D1*
X683068Y1211984D1*
X675974Y1210281D1*
X668701Y1209709D1*
X661428Y1210281D1*
X654333Y1211984D1*
X647593Y1214776D1*
X643732Y1217012D1*
X636492Y1213248D1*
X629554Y1210993D1*
X622349Y1209852D1*
X615052D1*
X607848Y1210993D1*
X600909Y1213248D1*
X593732Y1217012D1*
X586492Y1213248D1*
X579554Y1210993D1*
X572349Y1209852D1*
X565052D1*
X557848Y1210993D1*
X550909Y1213248D1*
X543732Y1217012D1*
X651689Y760937D2*
X651283Y751041D1*
X649178Y743576D1*
X645388Y736811D1*
X640125Y731117D1*
X633677Y726808D1*
X626402Y724123D1*
X618701Y723213D1*
X611000Y724123D1*
X603724Y726808D1*
X597277Y731117D1*
X592013Y736811D1*
X588223Y743576D1*
X586118Y751041D1*
X585713Y760937D1*
X581088Y766374D1*
X577276Y772593D1*
X574484Y779333D1*
X572781Y786428D1*
X572209Y793701D1*
X572781Y800974D1*
X574484Y808068D1*
X577276Y814808D1*
X581088Y821028D1*
X585825Y826576D1*
X591374Y831314D1*
X597593Y835126D1*
X604333Y837917D1*
X611428Y839621D1*
X618701Y840193D1*
X625974Y839621D1*
X633068Y837917D1*
X639808Y835126D1*
X646028Y831314D1*
X651576Y826576D1*
X656314Y821028D1*
X660126Y814808D1*
X662917Y808068D1*
X664621Y800974D1*
X665193Y793701D1*
X664621Y786428D1*
X662917Y779333D1*
X660126Y772593D1*
X656314Y766374D1*
X651682Y760941D1*
X1151689Y560937D2*
X1151283Y551041D1*
X1149178Y543576D1*
X1145388Y536811D1*
X1140125Y531117D1*
X1133677Y526808D1*
X1126402Y524123D1*
X1118701Y523213D1*
X1111000Y524123D1*
X1103724Y526808D1*
X1097277Y531117D1*
X1092013Y536811D1*
X1088223Y543576D1*
X1086118Y551041D1*
X1085713Y560937D1*
X1081088Y566374D1*
X1077276Y572593D1*
X1074484Y579333D1*
X1072781Y586428D1*
X1072209Y593701D1*
X1072781Y600974D1*
X1074484Y608068D1*
X1077276Y614808D1*
X1081088Y621028D1*
X1085825Y626576D1*
X1091374Y631314D1*
X1097593Y635126D1*
X1104333Y637917D1*
X1111428Y639621D1*
X1118701Y640193D1*
X1125974Y639621D1*
X1133068Y637917D1*
X1139808Y635126D1*
X1146028Y631314D1*
X1151576Y626576D1*
X1156314Y621028D1*
X1160126Y614808D1*
X1162917Y608068D1*
X1164621Y600974D1*
X1165193Y593701D1*
X1164621Y586428D1*
X1162917Y579333D1*
X1160126Y572593D1*
X1156314Y566374D1*
X1151682Y560941D1*
X1840980Y937633D2*
X1849311Y945388D1*
X1856076Y949178D1*
X1863541Y951283D1*
X1871289Y951588D1*
X1878895Y950075D1*
X1885937Y946828D1*
X1892028Y942028D1*
X1896828Y935937D1*
X1900075Y928895D1*
X1901588Y921289D1*
X1901283Y913541D1*
X1900165Y908828D1*
X1902121Y900974D1*
X1902693Y893701D1*
X1902121Y886428D1*
X1900417Y879333D1*
X1897626Y872593D1*
X1893814Y866374D1*
X1889076Y860825D1*
X1883528Y856088D1*
X1877308Y852276D1*
X1870568Y849484D1*
X1863474Y847781D1*
X1856201Y847209D1*
X1848928Y847781D1*
X1841833Y849484D1*
X1835093Y852276D1*
X1828874Y856088D1*
X1823325Y860825D1*
X1818588Y866374D1*
X1814776Y872593D1*
X1811984Y879333D1*
X1810281Y886428D1*
X1809709Y893701D1*
X1810281Y900974D1*
X1811984Y908068D1*
X1814776Y914808D1*
X1818588Y921028D1*
X1823325Y926576D1*
X1828874Y931314D1*
X1835093Y935126D1*
X1840965Y937597D1*
X914189Y810937D2*
X914088Y791113D1*
X912575Y783507D1*
X909328Y776465D1*
X904528Y770374D1*
X898437Y765573D1*
X891395Y762327D1*
X883789Y760814D1*
X876041Y761118D1*
X868576Y763223D1*
X861811Y767013D1*
X856117Y772277D1*
X851808Y778724D1*
X849125Y786000D1*
X848213Y793701D1*
Y810937D1*
X843588Y816374D1*
X839776Y822593D1*
X836984Y829333D1*
X835281Y836428D1*
X834709Y843701D1*
X835281Y850974D1*
X836984Y858068D1*
X839776Y864808D1*
X843588Y871028D1*
X848325Y876576D1*
X853874Y881314D1*
X860093Y885126D1*
X866833Y887917D1*
X873928Y889621D1*
X881201Y890193D1*
X888474Y889621D1*
X895568Y887917D1*
X902308Y885126D1*
X908528Y881314D1*
X914076Y876576D1*
X918814Y871028D1*
X922626Y864808D1*
X925417Y858068D1*
X927121Y850974D1*
X927693Y843701D1*
X927121Y836428D1*
X925417Y829333D1*
X922626Y822593D1*
X918814Y816374D1*
X914182Y810941D1*
X1888965Y1151689D2*
X1898861Y1151283D1*
X1906325Y1149178D1*
X1913091Y1145388D1*
X1918785Y1140125D1*
X1923093Y1133677D1*
X1925777Y1126402D1*
X1926689Y1118701D1*
X1925777Y1111000D1*
X1923093Y1103724D1*
X1918785Y1097277D1*
X1913091Y1092013D1*
X1906325Y1088223D1*
X1898861Y1086118D1*
X1888965Y1085713D1*
X1883528Y1081088D1*
X1877308Y1077276D1*
X1870568Y1074484D1*
X1863474Y1072781D1*
X1856201Y1072209D1*
X1848928Y1072781D1*
X1841833Y1074484D1*
X1835093Y1077276D1*
X1828874Y1081088D1*
X1823325Y1085825D1*
X1818588Y1091374D1*
X1814776Y1097593D1*
X1811984Y1104333D1*
X1810281Y1111428D1*
X1809709Y1118701D1*
X1810281Y1125974D1*
X1811984Y1133068D1*
X1814776Y1139808D1*
X1818588Y1146028D1*
X1823325Y1151576D1*
X1828874Y1156314D1*
X1835093Y1160126D1*
X1841833Y1162917D1*
X1848928Y1164621D1*
X1856201Y1165193D1*
X1863474Y1164621D1*
X1870568Y1162917D1*
X1877308Y1160126D1*
X1883528Y1156314D1*
X1888961Y1151682D1*
X2451689Y898437D2*
X2451588Y878613D1*
X2450075Y871007D1*
X2446828Y863965D1*
X2442028Y857874D1*
X2435937Y853073D1*
X2428895Y849827D1*
X2421289Y848314D1*
X2413541Y848618D1*
X2406076Y850723D1*
X2399311Y854513D1*
X2393617Y859777D1*
X2389308Y866224D1*
X2386625Y873500D1*
X2385713Y881201D1*
Y898437D1*
X2381088Y903874D1*
X2377276Y910093D1*
X2374484Y916833D1*
X2372781Y923928D1*
X2372209Y931201D1*
X2372781Y938474D1*
X2374484Y945568D1*
X2377276Y952308D1*
X2381088Y958528D1*
X2385825Y964076D1*
X2391374Y968814D1*
X2397593Y972626D1*
X2404333Y975417D1*
X2411428Y977121D1*
X2418701Y977693D1*
X2425974Y977121D1*
X2433068Y975417D1*
X2439808Y972626D1*
X2446028Y968814D1*
X2451576Y964076D1*
X2456314Y958528D1*
X2460126Y952308D1*
X2462917Y945568D1*
X2464621Y938474D1*
X2465193Y931201D1*
X2464621Y923928D1*
X2462917Y916833D1*
X2460126Y910093D1*
X2456314Y903874D1*
X2451682Y898441D1*
X2673213Y1238965D2*
X2673618Y1248861D1*
X2675723Y1256325D1*
X2679513Y1263091D1*
X2684777Y1268785D1*
X2691224Y1273093D1*
X2698500Y1275777D1*
X2706201Y1276689D1*
X2713902Y1275777D1*
X2721177Y1273093D1*
X2727625Y1268785D1*
X2732888Y1263091D1*
X2736678Y1256325D1*
X2738783Y1248861D1*
X2739189Y1238965D1*
X2743814Y1233528D1*
X2747626Y1227308D1*
X2750417Y1220568D1*
X2752121Y1213474D1*
X2752693Y1206201D1*
X2752121Y1198928D1*
X2750417Y1191833D1*
X2747626Y1185093D1*
X2743814Y1178874D1*
X2739076Y1173325D1*
X2733528Y1168588D1*
X2727308Y1164776D1*
X2720568Y1161984D1*
X2713474Y1160281D1*
X2706201Y1159709D1*
X2698928Y1160281D1*
X2691833Y1161984D1*
X2685093Y1164776D1*
X2678874Y1168588D1*
X2673325Y1173325D1*
X2668588Y1178874D1*
X2664776Y1185093D1*
X2661984Y1191833D1*
X2660281Y1198928D1*
X2659709Y1206201D1*
X2660281Y1213474D1*
X2661984Y1220568D1*
X2664776Y1227308D1*
X2668588Y1233528D1*
X2673219Y1238961D1*
X2501689Y685937D2*
X2501588Y666113D1*
X2500075Y658507D1*
X2496828Y651465D1*
X2492028Y645374D1*
X2485937Y640573D1*
X2478895Y637327D1*
X2471289Y635814D1*
X2463541Y636118D1*
X2456076Y638223D1*
X2449311Y642013D1*
X2443617Y647277D1*
X2439308Y653724D1*
X2436625Y661000D1*
X2435713Y668701D1*
Y685937D1*
X2431088Y691374D1*
X2427276Y697593D1*
X2424484Y704333D1*
X2422781Y711428D1*
X2422209Y718701D1*
X2422781Y725974D1*
X2424484Y733068D1*
X2427276Y739808D1*
X2431088Y746028D1*
X2435825Y751576D1*
X2441374Y756314D1*
X2447593Y760126D1*
X2454333Y762917D1*
X2461428Y764621D1*
X2468701Y765193D1*
X2475974Y764621D1*
X2483068Y762917D1*
X2489808Y760126D1*
X2496028Y756314D1*
X2501576Y751576D1*
X2506314Y746028D1*
X2510126Y739808D1*
X2512917Y733068D1*
X2514621Y725974D1*
X2515193Y718701D1*
X2514621Y711428D1*
X2512917Y704333D1*
X2510126Y697593D1*
X2506314Y691374D1*
X2501682Y685941D1*
X1148383Y1198274D2*
X1142249Y1199125D1*
X1134975Y1201808D1*
X1128526Y1206117D1*
X1123262Y1211811D1*
X1119474Y1218576D1*
X1117369Y1226041D1*
X1117064Y1233789D1*
X1118577Y1241395D1*
X1121824Y1248437D1*
X1126625Y1254528D1*
X1132714Y1259328D1*
X1139757Y1262575D1*
X1147362Y1264088D1*
X1148383Y1264127D1*
X1153874Y1268814D1*
X1160093Y1272626D1*
X1166833Y1275417D1*
X1173928Y1277121D1*
X1181201Y1277693D1*
X1188474Y1277121D1*
X1195568Y1275417D1*
X1202308Y1272626D1*
X1208528Y1268814D1*
X1214076Y1264076D1*
X1218814Y1258528D1*
X1222626Y1252308D1*
X1225417Y1245568D1*
X1227121Y1238474D1*
X1227693Y1231201D1*
X1227121Y1223928D1*
X1225417Y1216833D1*
X1222626Y1210093D1*
X1218814Y1203874D1*
X1214076Y1198325D1*
X1208528Y1193588D1*
X1202308Y1189776D1*
X1195568Y1186984D1*
X1188474Y1185281D1*
X1181201Y1184709D1*
X1173928Y1185281D1*
X1166833Y1186984D1*
X1160093Y1189776D1*
X1153874Y1193588D1*
X1148399Y1198259D1*
X2260713Y951465D2*
Y1048437D1*
X2256088Y1053874D1*
X2252276Y1060093D1*
X2249484Y1066833D1*
X2247781Y1073928D1*
X2247209Y1081201D1*
X2247781Y1088474D1*
X2249484Y1095568D1*
X2252276Y1102308D1*
X2256088Y1108528D1*
X2260825Y1114076D1*
X2266374Y1118814D1*
X2272593Y1122626D1*
X2279333Y1125417D1*
X2286428Y1127121D1*
X2293701Y1127693D1*
X2300974Y1127121D1*
X2308068Y1125417D1*
X2314808Y1122626D1*
X2321028Y1118814D1*
X2326576Y1114076D1*
X2331314Y1108528D1*
X2335126Y1102308D1*
X2337917Y1095568D1*
X2339621Y1088474D1*
X2340193Y1081201D1*
X2339621Y1073928D1*
X2337917Y1066833D1*
X2335126Y1060093D1*
X2331314Y1053874D1*
X2326682Y1048441D1*
X2326689Y951465D1*
X2331314Y946028D1*
X2335126Y939808D1*
X2337917Y933068D1*
X2339621Y925974D1*
X2340193Y918701D1*
X2339621Y911428D1*
X2337917Y904333D1*
X2335126Y897593D1*
X2331314Y891374D1*
X2326576Y885825D1*
X2321028Y881088D1*
X2314808Y877276D1*
X2308068Y874484D1*
X2300974Y872781D1*
X2293701Y872209D1*
X2286428Y872781D1*
X2279333Y874484D1*
X2272593Y877276D1*
X2266374Y881088D1*
X2260825Y885825D1*
X2256088Y891374D1*
X2252276Y897593D1*
X2249484Y904333D1*
X2247781Y911428D1*
X2247209Y918701D1*
X2247781Y925974D1*
X2249484Y933068D1*
X2252276Y939808D1*
X2256088Y946028D1*
X2260719Y951461D1*
X788965Y1051689D2*
X835937D1*
X841374Y1056314D1*
X847593Y1060126D1*
X854333Y1062917D1*
X861428Y1064621D1*
X868701Y1065193D1*
X875974Y1064621D1*
X883068Y1062917D1*
X889808Y1060126D1*
X896028Y1056314D1*
X901576Y1051576D1*
X906314Y1046028D1*
X910126Y1039808D1*
X912917Y1033068D1*
X914621Y1025974D1*
X915193Y1018701D1*
X914621Y1011428D1*
X912917Y1004333D1*
X910126Y997593D1*
X906314Y991374D1*
X901576Y985825D1*
X896028Y981088D1*
X889808Y977276D1*
X883068Y974484D1*
X875974Y972781D1*
X868701Y972209D1*
X861428Y972781D1*
X854333Y974484D1*
X847593Y977276D1*
X841374Y981088D1*
X835941Y985719D1*
X788965Y985713D1*
X783528Y981088D1*
X777308Y977276D1*
X770568Y974484D1*
X763474Y972781D1*
X756201Y972209D1*
X748928Y972781D1*
X741833Y974484D1*
X735093Y977276D1*
X728874Y981088D1*
X723325Y985825D1*
X718588Y991374D1*
X714776Y997593D1*
X711984Y1004333D1*
X710281Y1011428D1*
X709709Y1018701D1*
X710281Y1025974D1*
X711984Y1033068D1*
X714776Y1039808D1*
X718588Y1046028D1*
X723325Y1051576D1*
X728874Y1056314D1*
X735093Y1060126D1*
X741833Y1062917D1*
X748928Y1064621D1*
X756201Y1065193D1*
X763474Y1064621D1*
X770568Y1062917D1*
X777308Y1060126D1*
X783528Y1056314D1*
X788961Y1051682D1*
X1397010Y818739D2*
X1368560Y847189D1*
X1361428Y847781D1*
X1354333Y849484D1*
X1347593Y852276D1*
X1341374Y856088D1*
X1335825Y860825D1*
X1331088Y866374D1*
X1327276Y872593D1*
X1324484Y879333D1*
X1322781Y886428D1*
X1322209Y893701D1*
X1322781Y900974D1*
X1324484Y908068D1*
X1327276Y914808D1*
X1331088Y921028D1*
X1335825Y926576D1*
X1341374Y931314D1*
X1347593Y935126D1*
X1354333Y937917D1*
X1361428Y939621D1*
X1368701Y940193D1*
X1375974Y939621D1*
X1383068Y937917D1*
X1389808Y935126D1*
X1396028Y931314D1*
X1401576Y926576D1*
X1406314Y921028D1*
X1410126Y914808D1*
X1412917Y908068D1*
X1414621Y900974D1*
X1415186Y893857D1*
X1443644Y865409D1*
X1450777Y864818D1*
X1457871Y863114D1*
X1464612Y860323D1*
X1470831Y856510D1*
X1476379Y851773D1*
X1481117Y846224D1*
X1484929Y840005D1*
X1487720Y833265D1*
X1489424Y826171D1*
X1489996Y818898D1*
X1489424Y811625D1*
X1487720Y804530D1*
X1484929Y797790D1*
X1481117Y791571D1*
X1476379Y786022D1*
X1470831Y781285D1*
X1464612Y777472D1*
X1457871Y774681D1*
X1450777Y772978D1*
X1443504Y772406D1*
X1436231Y772978D1*
X1429136Y774681D1*
X1422396Y777472D1*
X1416177Y781285D1*
X1410629Y786022D1*
X1405891Y791571D1*
X1402079Y797790D1*
X1399287Y804530D1*
X1397584Y811625D1*
X1397018Y818741D1*
X1960937Y748213D2*
X1851465D1*
X1846028Y743588D1*
X1839808Y739776D1*
X1833068Y736984D1*
X1825974Y735281D1*
X1818701Y734709D1*
X1811428Y735281D1*
X1804333Y736984D1*
X1797593Y739776D1*
X1791374Y743588D1*
X1785825Y748325D1*
X1781088Y753874D1*
X1777276Y760093D1*
X1774484Y766833D1*
X1772781Y773928D1*
X1772209Y781201D1*
X1772781Y788474D1*
X1774484Y795568D1*
X1777276Y802308D1*
X1781088Y808528D1*
X1785825Y814076D1*
X1791374Y818814D1*
X1797593Y822626D1*
X1804333Y825417D1*
X1811428Y827121D1*
X1818701Y827693D1*
X1825974Y827121D1*
X1833068Y825417D1*
X1839808Y822626D1*
X1846028Y818814D1*
X1851461Y814182D1*
X1960937Y814189D1*
X1966374Y818814D1*
X1972593Y822626D1*
X1979333Y825417D1*
X1986428Y827121D1*
X1993701Y827693D1*
X2000974Y827121D1*
X2008068Y825417D1*
X2014808Y822626D1*
X2021028Y818814D1*
X2026576Y814076D1*
X2031314Y808528D1*
X2035126Y802308D1*
X2037917Y795568D1*
X2039621Y788474D1*
X2040193Y781201D1*
X2039621Y773928D1*
X2037917Y766833D1*
X2035126Y760093D1*
X2031314Y753874D1*
X2026576Y748325D1*
X2021028Y743588D1*
X2014808Y739776D1*
X2008068Y736984D1*
X2000974Y735281D1*
X1993701Y734709D1*
X1986428Y735281D1*
X1979333Y736984D1*
X1972593Y739776D1*
X1966374Y743588D1*
X1960941Y748219D1*
X458701Y1506332D2*
X487807D1*
X575180D2*
X670083D1*
X876352D2*
X970083D1*
X1276352D2*
X1370083D1*
X1576352D2*
X1670083D1*
X2076352D2*
X2170083D1*
X2276352D2*
X2370083D1*
X2676352D2*
X2769546D1*
X2860386D2*
X2878726D1*
X601255Y1481463D2*
X666811D1*
X879672D2*
X966811D1*
X1279672D2*
X1366811D1*
X1579672D2*
X1666811D1*
X2079672D2*
X2166811D1*
X2279672D2*
X2366811D1*
X2679672D2*
X2744106D1*
X612192Y1456594D2*
X675844D1*
X870591D2*
X975844D1*
X1270591D2*
X1375844D1*
X1570591D2*
X1675844D1*
X2070591D2*
X2175844D1*
X2270591D2*
X2375844D1*
X2670591D2*
X2733315D1*
X614438Y1431726D2*
X686196D1*
X760239D2*
X790102D1*
X856382D2*
X890102D1*
X956382D2*
X990102D1*
X1056382D2*
X1190102D1*
X1256382D2*
X1290102D1*
X1356382D2*
X1390102D1*
X1456382D2*
X1490102D1*
X1556382D2*
X1590102D1*
X1656382D2*
X1690102D1*
X1756382D2*
X1790102D1*
X1856382D2*
X1990102D1*
X2056382D2*
X2090102D1*
X2156382D2*
X2190102D1*
X2256382D2*
X2290102D1*
X2356382D2*
X2390102D1*
X2456382D2*
X2490102D1*
X2556382D2*
X2731118D1*
X608774Y1406857D2*
X667836D1*
X1076157D2*
X1170278D1*
X1876157D2*
X1970278D1*
X2576157D2*
X2736734D1*
X458701Y1381988D2*
X470083D1*
X592954D2*
X664467D1*
X1079722D2*
X1166762D1*
X1879722D2*
X1966762D1*
X2579722D2*
X2752310D1*
X458701Y1357119D2*
X518130D1*
X544894D2*
X672768D1*
X1070932D2*
X1175503D1*
X1870932D2*
X1975503D1*
X2570932D2*
X2796206D1*
X2833726D2*
X2878726D1*
X458701Y1332251D2*
X706850D1*
X739634D2*
X2878726D1*
X458701Y1307382D2*
X2878726D1*
X458701Y1282513D2*
X2878726D1*
X458701Y1257644D2*
X2878726D1*
X458701Y1232776D2*
X2878726D1*
X458701Y1207907D2*
X2878726D1*
X458701Y1183038D2*
X2878726D1*
X458701Y1158169D2*
X2878726D1*
X458701Y1133301D2*
X2878726D1*
X458701Y1108432D2*
X2253530D1*
X2333871D2*
X2878726D1*
X458701Y1083563D2*
X2244790D1*
X2342612D2*
X2878726D1*
X458701Y1058694D2*
X729995D1*
X782407D2*
X842495D1*
X894907D2*
X2250503D1*
X2336899D2*
X2878726D1*
X458701Y1033825D2*
X709731D1*
X915171D2*
X2258218D1*
X2329184D2*
X2878726D1*
X458701Y1008957D2*
X708218D1*
X916684D2*
X2258218D1*
X2329184D2*
X2878726D1*
X458701Y984088D2*
X722671D1*
X789731D2*
X835171D1*
X902231D2*
X2258218D1*
X2329184D2*
X2878726D1*
X458701Y959219D2*
X2258218D1*
X2329184D2*
X2878726D1*
X458701Y934350D2*
X1343618D1*
X1393783D2*
X2247427D1*
X2339975D2*
X2878726D1*
X458701Y909482D2*
X1322475D1*
X1414927D2*
X2245619D1*
X2341782D2*
X2878726D1*
X458701Y884613D2*
X1320619D1*
X1426938D2*
X2259584D1*
X2327818D2*
X2878726D1*
X458701Y859744D2*
X1334438D1*
X1468198D2*
X2878726D1*
X458701Y834875D2*
X1378383D1*
X1489682D2*
X2878726D1*
X458701Y810007D2*
X1395375D1*
X1491635D2*
X1779702D1*
X2032699D2*
X2878726D1*
X458701Y785138D2*
X1409047D1*
X1477963D2*
X1769887D1*
X2042514D2*
X2878726D1*
X458701Y760269D2*
X1774672D1*
X2037730D2*
X2878726D1*
X458701Y735400D2*
X1808218D1*
X1829180D2*
X1983218D1*
X2004180D2*
X2878726D1*
X458701Y710531D2*
X2878726D1*
X458701Y685663D2*
X2878726D1*
X458701Y660794D2*
X2878726D1*
X458701Y635925D2*
X2878726D1*
X458701Y611056D2*
X511196D1*
X551791D2*
X2794643D1*
X2835287D2*
X2878726D1*
X458701Y586188D2*
X468520D1*
X594467D2*
X2752016D1*
X609898Y561319D2*
X2736587D1*
X615366Y536450D2*
X2731070D1*
X613071Y511581D2*
X2733412D1*
X602134Y486713D2*
X2744350D1*
X458701Y461844D2*
X486635D1*
X576352D2*
X2770083D1*
X2859848D2*
X2878726D1*
X458701Y436975D2*
X2878726D1*
X774470Y1363328D2*
X771396Y1357491D1*
X766185Y1350319D1*
X759917Y1344051D1*
X752745Y1338840D1*
X744846Y1334816D1*
X736416Y1332076D1*
X727660Y1330690D1*
X718797D1*
X710041Y1332076D1*
X701610Y1334816D1*
X693711Y1338840D1*
X686539Y1344051D1*
X680272Y1350319D1*
X675060Y1357491D1*
X671037Y1365390D1*
X668297Y1373820D1*
X666911Y1382576D1*
Y1391440D1*
X668297Y1400196D1*
X671037Y1408626D1*
X675060Y1416525D1*
X680272Y1423697D1*
X686539Y1429965D1*
X693711Y1435176D1*
X699549Y1438249D1*
X691365Y1443152D1*
X684898Y1448677D1*
X679373Y1455144D1*
X674928Y1462398D1*
X671673Y1470256D1*
X669688Y1478528D1*
X669020Y1487008D1*
X669688Y1495488D1*
X671673Y1503760D1*
X674928Y1511618D1*
X679373Y1518871D1*
X684898Y1525339D1*
X691877Y1531205D1*
X456201Y1531201D1*
Y1465820D1*
X459657Y1473612D1*
X466268Y1484399D1*
X474484Y1494020D1*
X484105Y1502236D1*
X494892Y1508846D1*
X506581Y1513688D1*
X518883Y1516642D1*
X531496Y1517634D1*
X544109Y1516642D1*
X556411Y1513688D1*
X568100Y1508846D1*
X578887Y1502236D1*
X588508Y1494020D1*
X596724Y1484399D1*
X603335Y1473612D1*
X608176Y1461923D1*
X611130Y1449621D1*
X612122Y1437008D1*
X611130Y1424395D1*
X608176Y1412093D1*
X603335Y1400404D1*
X596724Y1389617D1*
X588508Y1379996D1*
X578887Y1371780D1*
X568100Y1365169D1*
X556411Y1360328D1*
X544109Y1357374D1*
X531496Y1356382D1*
X518883Y1357374D1*
X506581Y1360328D1*
X494892Y1365169D1*
X484105Y1371780D1*
X474484Y1379996D1*
X466268Y1389617D1*
X459657Y1400404D1*
X456194Y1408358D1*
X456201Y562793D1*
X461982Y574094D1*
X469501Y584445D1*
X478547Y593491D1*
X488898Y601010D1*
X500297Y606819D1*
X512463Y610772D1*
X525100Y612773D1*
X537892D1*
X550529Y610772D1*
X562696Y606819D1*
X574094Y601010D1*
X584445Y593491D1*
X593491Y584445D1*
X601010Y574094D1*
X606819Y562696D1*
X610772Y550529D1*
X612773Y537892D1*
Y525100D1*
X610772Y512463D1*
X606819Y500297D1*
X601010Y488898D1*
X593491Y478547D1*
X584445Y469501D1*
X574094Y461982D1*
X562696Y456173D1*
X550529Y452220D1*
X537892Y450219D1*
X525100D1*
X512463Y452220D1*
X500297Y456173D1*
X488898Y461982D1*
X478547Y469501D1*
X469501Y478547D1*
X461982Y488898D1*
X456184Y500273D1*
X456201Y431201D1*
X2881201D1*
X2880919Y483575D1*
X2872610Y473846D1*
X2862882Y465538D1*
X2851974Y458853D1*
X2840155Y453958D1*
X2827714Y450971D1*
X2814961Y449967D1*
X2802207Y450971D1*
X2789766Y453958D1*
X2777948Y458853D1*
X2767039Y465538D1*
X2757311Y473846D1*
X2749003Y483575D1*
X2742318Y494483D1*
X2737423Y506302D1*
X2734436Y518743D1*
X2733432Y531496D1*
X2734436Y544249D1*
X2737423Y556690D1*
X2742318Y568509D1*
X2749003Y579417D1*
X2757311Y589146D1*
X2767039Y597454D1*
X2777948Y604139D1*
X2789766Y609034D1*
X2802207Y612021D1*
X2814961Y613025D1*
X2827714Y612021D1*
X2840155Y609034D1*
X2851974Y604139D1*
X2862882Y597454D1*
X2872610Y589146D1*
X2881210Y578980D1*
X2881201Y1389453D1*
X2872610Y1379358D1*
X2862882Y1371050D1*
X2851974Y1364365D1*
X2840155Y1359470D1*
X2827714Y1356483D1*
X2814961Y1355479D1*
X2802207Y1356483D1*
X2789766Y1359470D1*
X2777948Y1364365D1*
X2767039Y1371050D1*
X2757311Y1379358D1*
X2749003Y1389087D1*
X2742318Y1399995D1*
X2737423Y1411814D1*
X2734436Y1424255D1*
X2733432Y1437008D1*
X2734436Y1449761D1*
X2737423Y1462202D1*
X2742318Y1474021D1*
X2749003Y1484929D1*
X2757311Y1494657D1*
X2767039Y1502966D1*
X2777948Y1509651D1*
X2789766Y1514546D1*
X2802207Y1517533D1*
X2814961Y1518537D1*
X2827714Y1517533D1*
X2840155Y1514546D1*
X2851974Y1509651D1*
X2862882Y1502966D1*
X2872610Y1494657D1*
X2881210Y1484492D1*
X2881201Y1531201D1*
X2654589D1*
X2661559Y1525339D1*
X2667084Y1518871D1*
X2671529Y1511618D1*
X2674783Y1503760D1*
X2676769Y1495488D1*
X2677437Y1487008D1*
X2676769Y1478528D1*
X2674783Y1470256D1*
X2671529Y1462398D1*
X2667084Y1455144D1*
X2661559Y1448677D1*
X2655092Y1443152D1*
X2647839Y1438707D1*
X2639980Y1435453D1*
X2631709Y1433467D1*
X2623228Y1432799D1*
X2614748Y1433467D1*
X2606476Y1435453D1*
X2598618Y1438707D1*
X2591365Y1443152D1*
X2584898Y1448677D1*
X2579373Y1455144D1*
X2574928Y1462398D1*
X2573236Y1466067D1*
X2569449Y1458684D1*
X2564449Y1451802D1*
X2558434Y1445787D1*
X2551552Y1440787D1*
X2544169Y1437016D1*
X2551552Y1433228D1*
X2558434Y1428228D1*
X2564449Y1422214D1*
X2569449Y1415332D1*
X2573311Y1407752D1*
X2575940Y1399663D1*
X2577270Y1391261D1*
Y1382755D1*
X2575940Y1374353D1*
X2573311Y1366264D1*
X2569449Y1358684D1*
X2564449Y1351802D1*
X2558434Y1345787D1*
X2551552Y1340787D1*
X2543972Y1336925D1*
X2535883Y1334297D1*
X2527482Y1332966D1*
X2518975D1*
X2510573Y1334297D1*
X2502484Y1336925D1*
X2494904Y1340787D1*
X2488022Y1345787D1*
X2482008Y1351802D1*
X2477008Y1358684D1*
X2473236Y1366067D1*
X2469449Y1358684D1*
X2464449Y1351802D1*
X2458434Y1345787D1*
X2451552Y1340787D1*
X2443972Y1336925D1*
X2435883Y1334297D1*
X2427482Y1332966D1*
X2418975D1*
X2410573Y1334297D1*
X2402484Y1336925D1*
X2394904Y1340787D1*
X2388022Y1345787D1*
X2382008Y1351802D1*
X2377008Y1358684D1*
X2373236Y1366067D1*
X2369449Y1358684D1*
X2364449Y1351802D1*
X2358434Y1345787D1*
X2351552Y1340787D1*
X2343972Y1336925D1*
X2335883Y1334297D1*
X2327482Y1332966D1*
X2318975D1*
X2310573Y1334297D1*
X2302484Y1336925D1*
X2294904Y1340787D1*
X2288022Y1345787D1*
X2282008Y1351802D1*
X2277008Y1358684D1*
X2273236Y1366067D1*
X2269449Y1358684D1*
X2264449Y1351802D1*
X2258434Y1345787D1*
X2251552Y1340787D1*
X2243972Y1336925D1*
X2235883Y1334297D1*
X2227482Y1332966D1*
X2218975D1*
X2210573Y1334297D1*
X2202484Y1336925D1*
X2194904Y1340787D1*
X2188022Y1345787D1*
X2182008Y1351802D1*
X2177008Y1358684D1*
X2173236Y1366067D1*
X2169449Y1358684D1*
X2164449Y1351802D1*
X2158434Y1345787D1*
X2151552Y1340787D1*
X2143972Y1336925D1*
X2135883Y1334297D1*
X2127482Y1332966D1*
X2118975D1*
X2110573Y1334297D1*
X2102484Y1336925D1*
X2094904Y1340787D1*
X2088022Y1345787D1*
X2082008Y1351802D1*
X2077008Y1358684D1*
X2073236Y1366067D1*
X2069449Y1358684D1*
X2064449Y1351802D1*
X2058434Y1345787D1*
X2051552Y1340787D1*
X2043972Y1336925D1*
X2035883Y1334297D1*
X2027482Y1332966D1*
X2018975D1*
X2010573Y1334297D1*
X2002484Y1336925D1*
X1994904Y1340787D1*
X1988022Y1345787D1*
X1982008Y1351802D1*
X1977008Y1358684D1*
X1973146Y1366264D1*
X1970517Y1374353D1*
X1969186Y1382755D1*
Y1391261D1*
X1970517Y1399663D1*
X1973146Y1407752D1*
X1977008Y1415332D1*
X1982008Y1422214D1*
X1988022Y1428228D1*
X1994904Y1433228D1*
X2002287Y1437000D1*
X1994904Y1440787D1*
X1988022Y1445787D1*
X1982008Y1451802D1*
X1977008Y1458684D1*
X1973236Y1466067D1*
X1969449Y1458684D1*
X1964449Y1451802D1*
X1958434Y1445787D1*
X1951552Y1440787D1*
X1943972Y1436925D1*
X1935883Y1434297D1*
X1927482Y1432966D1*
X1918975D1*
X1910573Y1434297D1*
X1902484Y1436925D1*
X1894904Y1440787D1*
X1888022Y1445787D1*
X1882008Y1451802D1*
X1877008Y1458684D1*
X1873236Y1466067D1*
X1869449Y1458684D1*
X1864449Y1451802D1*
X1858434Y1445787D1*
X1851552Y1440787D1*
X1844169Y1437016D1*
X1851552Y1433228D1*
X1858434Y1428228D1*
X1864449Y1422214D1*
X1869449Y1415332D1*
X1873311Y1407752D1*
X1875940Y1399663D1*
X1877270Y1391261D1*
Y1382755D1*
X1875940Y1374353D1*
X1873311Y1366264D1*
X1869449Y1358684D1*
X1864449Y1351802D1*
X1858434Y1345787D1*
X1851552Y1340787D1*
X1843972Y1336925D1*
X1835883Y1334297D1*
X1827482Y1332966D1*
X1818975D1*
X1810573Y1334297D1*
X1802484Y1336925D1*
X1794904Y1340787D1*
X1788022Y1345787D1*
X1782008Y1351802D1*
X1777008Y1358684D1*
X1773236Y1366067D1*
X1769449Y1358684D1*
X1764449Y1351802D1*
X1758434Y1345787D1*
X1751552Y1340787D1*
X1743972Y1336925D1*
X1735883Y1334297D1*
X1727482Y1332966D1*
X1718975D1*
X1710573Y1334297D1*
X1702484Y1336925D1*
X1694904Y1340787D1*
X1688022Y1345787D1*
X1682008Y1351802D1*
X1677008Y1358684D1*
X1673236Y1366067D1*
X1669449Y1358684D1*
X1664449Y1351802D1*
X1658434Y1345787D1*
X1651552Y1340787D1*
X1643972Y1336925D1*
X1635883Y1334297D1*
X1627482Y1332966D1*
X1618975D1*
X1610573Y1334297D1*
X1602484Y1336925D1*
X1594904Y1340787D1*
X1588022Y1345787D1*
X1582008Y1351802D1*
X1577008Y1358684D1*
X1573236Y1366067D1*
X1569449Y1358684D1*
X1564449Y1351802D1*
X1558434Y1345787D1*
X1551552Y1340787D1*
X1543972Y1336925D1*
X1535883Y1334297D1*
X1527482Y1332966D1*
X1518975D1*
X1510573Y1334297D1*
X1502484Y1336925D1*
X1494904Y1340787D1*
X1488022Y1345787D1*
X1482008Y1351802D1*
X1477008Y1358684D1*
X1473236Y1366067D1*
X1469449Y1358684D1*
X1464449Y1351802D1*
X1458434Y1345787D1*
X1451552Y1340787D1*
X1443972Y1336925D1*
X1435883Y1334297D1*
X1427482Y1332966D1*
X1418975D1*
X1410573Y1334297D1*
X1402484Y1336925D1*
X1394904Y1340787D1*
X1388022Y1345787D1*
X1382008Y1351802D1*
X1377008Y1358684D1*
X1373236Y1366067D1*
X1369449Y1358684D1*
X1364449Y1351802D1*
X1358434Y1345787D1*
X1351552Y1340787D1*
X1343972Y1336925D1*
X1335883Y1334297D1*
X1327482Y1332966D1*
X1318975D1*
X1310573Y1334297D1*
X1302484Y1336925D1*
X1294904Y1340787D1*
X1288022Y1345787D1*
X1282008Y1351802D1*
X1277008Y1358684D1*
X1273236Y1366067D1*
X1269449Y1358684D1*
X1264449Y1351802D1*
X1258434Y1345787D1*
X1251552Y1340787D1*
X1243972Y1336925D1*
X1235883Y1334297D1*
X1227482Y1332966D1*
X1218975D1*
X1210573Y1334297D1*
X1202484Y1336925D1*
X1194904Y1340787D1*
X1188022Y1345787D1*
X1182008Y1351802D1*
X1177008Y1358684D1*
X1173146Y1366264D1*
X1170517Y1374353D1*
X1169186Y1382755D1*
Y1391261D1*
X1170517Y1399663D1*
X1173146Y1407752D1*
X1177008Y1415332D1*
X1182008Y1422214D1*
X1188022Y1428228D1*
X1194904Y1433228D1*
X1202287Y1437000D1*
X1194904Y1440787D1*
X1188022Y1445787D1*
X1182008Y1451802D1*
X1177008Y1458684D1*
X1173236Y1466067D1*
X1169449Y1458684D1*
X1164449Y1451802D1*
X1158434Y1445787D1*
X1151552Y1440787D1*
X1143972Y1436925D1*
X1135883Y1434297D1*
X1127482Y1432966D1*
X1118975D1*
X1110573Y1434297D1*
X1102484Y1436925D1*
X1094904Y1440787D1*
X1088022Y1445787D1*
X1082008Y1451802D1*
X1077008Y1458684D1*
X1073236Y1466067D1*
X1069449Y1458684D1*
X1064449Y1451802D1*
X1058434Y1445787D1*
X1051552Y1440787D1*
X1044169Y1437016D1*
X1051552Y1433228D1*
X1058434Y1428228D1*
X1064449Y1422214D1*
X1069449Y1415332D1*
X1073311Y1407752D1*
X1075940Y1399663D1*
X1077270Y1391261D1*
Y1382755D1*
X1075940Y1374353D1*
X1073311Y1366264D1*
X1069449Y1358684D1*
X1064449Y1351802D1*
X1058434Y1345787D1*
X1051552Y1340787D1*
X1043972Y1336925D1*
X1035883Y1334297D1*
X1027482Y1332966D1*
X1018975D1*
X1010573Y1334297D1*
X1002484Y1336925D1*
X994904Y1340787D1*
X988022Y1345787D1*
X982008Y1351802D1*
X977008Y1358684D1*
X973236Y1366067D1*
X969449Y1358684D1*
X964449Y1351802D1*
X958434Y1345787D1*
X951552Y1340787D1*
X943972Y1336925D1*
X935883Y1334297D1*
X927482Y1332966D1*
X918975D1*
X910573Y1334297D1*
X902484Y1336925D1*
X894904Y1340787D1*
X888022Y1345787D1*
X882008Y1351802D1*
X877008Y1358684D1*
X873236Y1366067D1*
X869449Y1358684D1*
X864449Y1351802D1*
X858434Y1345787D1*
X851552Y1340787D1*
X843972Y1336925D1*
X835883Y1334297D1*
X827482Y1332966D1*
X818975D1*
X810573Y1334297D1*
X802484Y1336925D1*
X794904Y1340787D1*
X788022Y1345787D1*
X782008Y1351802D1*
X777008Y1358684D1*
X774504Y1363319D1*
X746908Y1438249D2*
X752745Y1435176D1*
X759917Y1429965D1*
X766185Y1423697D1*
X771396Y1416525D1*
X774470Y1410688D1*
X779373Y1418871D1*
X784898Y1425339D1*
X791365Y1430864D1*
X798618Y1435308D1*
X802287Y1437000D1*
X794904Y1440787D1*
X788022Y1445787D1*
X782008Y1451802D1*
X777008Y1458684D1*
X773236Y1466067D1*
X769449Y1458684D1*
X764449Y1451802D1*
X758434Y1445787D1*
X751552Y1440787D1*
X746917Y1438283D1*
X844169Y1437000D2*
X851552Y1433228D1*
X858434Y1428228D1*
X864449Y1422214D1*
X869449Y1415332D1*
X873220Y1407949D1*
X877008Y1415332D1*
X882008Y1422214D1*
X888022Y1428228D1*
X894904Y1433228D1*
X902484Y1437091D1*
X910573Y1439719D1*
X918975Y1441050D1*
X927482D1*
X935883Y1439719D1*
X943972Y1437091D1*
X951552Y1433228D1*
X958434Y1428228D1*
X964449Y1422214D1*
X969449Y1415332D1*
X973220Y1407949D1*
X977008Y1415332D1*
X982008Y1422214D1*
X988022Y1428228D1*
X994904Y1433228D1*
X1002287Y1437000D1*
X994904Y1440787D1*
X988022Y1445787D1*
X982008Y1451802D1*
X977008Y1458684D1*
X973146Y1466264D1*
X970517Y1474353D1*
X969186Y1482755D1*
Y1491261D1*
X970517Y1499663D1*
X973146Y1507752D1*
X977008Y1515332D1*
X982008Y1522214D1*
X988022Y1528228D1*
X991877Y1531205D1*
X854589Y1531201D1*
X861559Y1525339D1*
X867084Y1518871D1*
X871529Y1511618D1*
X874783Y1503760D1*
X876769Y1495488D1*
X877437Y1487008D1*
X876769Y1478528D1*
X874783Y1470256D1*
X871529Y1462398D1*
X867084Y1455144D1*
X861559Y1448677D1*
X855092Y1443152D1*
X847839Y1438707D1*
X844169Y1437016D1*
X1244169Y1437000D2*
X1251552Y1433228D1*
X1258434Y1428228D1*
X1264449Y1422214D1*
X1269449Y1415332D1*
X1273220Y1407949D1*
X1277008Y1415332D1*
X1282008Y1422214D1*
X1288022Y1428228D1*
X1294904Y1433228D1*
X1302484Y1437091D1*
X1310573Y1439719D1*
X1318975Y1441050D1*
X1327482D1*
X1335883Y1439719D1*
X1343972Y1437091D1*
X1351552Y1433228D1*
X1358434Y1428228D1*
X1364449Y1422214D1*
X1369449Y1415332D1*
X1373220Y1407949D1*
X1377008Y1415332D1*
X1382008Y1422214D1*
X1388022Y1428228D1*
X1394904Y1433228D1*
X1402287Y1437000D1*
X1394904Y1440787D1*
X1388022Y1445787D1*
X1382008Y1451802D1*
X1377008Y1458684D1*
X1373146Y1466264D1*
X1370517Y1474353D1*
X1369186Y1482755D1*
Y1491261D1*
X1370517Y1499663D1*
X1373146Y1507752D1*
X1377008Y1515332D1*
X1382008Y1522214D1*
X1388022Y1528228D1*
X1391877Y1531205D1*
X1254589Y1531201D1*
X1261559Y1525339D1*
X1267084Y1518871D1*
X1271529Y1511618D1*
X1274783Y1503760D1*
X1276769Y1495488D1*
X1277437Y1487008D1*
X1276769Y1478528D1*
X1274783Y1470256D1*
X1271529Y1462398D1*
X1267084Y1455144D1*
X1261559Y1448677D1*
X1255092Y1443152D1*
X1247839Y1438707D1*
X1244169Y1437016D1*
X1444169Y1437000D2*
X1451552Y1433228D1*
X1458434Y1428228D1*
X1464449Y1422214D1*
X1469449Y1415332D1*
X1473220Y1407949D1*
X1477008Y1415332D1*
X1482008Y1422214D1*
X1488022Y1428228D1*
X1494904Y1433228D1*
X1502287Y1437000D1*
X1494904Y1440787D1*
X1488022Y1445787D1*
X1482008Y1451802D1*
X1477008Y1458684D1*
X1473236Y1466067D1*
X1469449Y1458684D1*
X1464449Y1451802D1*
X1458434Y1445787D1*
X1451552Y1440787D1*
X1444169Y1437016D1*
X1544169Y1437000D2*
X1551552Y1433228D1*
X1558434Y1428228D1*
X1564449Y1422214D1*
X1569449Y1415332D1*
X1573220Y1407949D1*
X1577008Y1415332D1*
X1582008Y1422214D1*
X1588022Y1428228D1*
X1594904Y1433228D1*
X1602484Y1437091D1*
X1610573Y1439719D1*
X1618975Y1441050D1*
X1627482D1*
X1635883Y1439719D1*
X1643972Y1437091D1*
X1651552Y1433228D1*
X1658434Y1428228D1*
X1664449Y1422214D1*
X1669449Y1415332D1*
X1673220Y1407949D1*
X1677008Y1415332D1*
X1682008Y1422214D1*
X1688022Y1428228D1*
X1694904Y1433228D1*
X1702287Y1437000D1*
X1694904Y1440787D1*
X1688022Y1445787D1*
X1682008Y1451802D1*
X1677008Y1458684D1*
X1673146Y1466264D1*
X1670517Y1474353D1*
X1669186Y1482755D1*
Y1491261D1*
X1670517Y1499663D1*
X1673146Y1507752D1*
X1677008Y1515332D1*
X1682008Y1522214D1*
X1688022Y1528228D1*
X1691877Y1531205D1*
X1554589Y1531201D1*
X1561559Y1525339D1*
X1567084Y1518871D1*
X1571529Y1511618D1*
X1574783Y1503760D1*
X1576769Y1495488D1*
X1577437Y1487008D1*
X1576769Y1478528D1*
X1574783Y1470256D1*
X1571529Y1462398D1*
X1567084Y1455144D1*
X1561559Y1448677D1*
X1555092Y1443152D1*
X1547839Y1438707D1*
X1544169Y1437016D1*
X1744169Y1437000D2*
X1751552Y1433228D1*
X1758434Y1428228D1*
X1764449Y1422214D1*
X1769449Y1415332D1*
X1773220Y1407949D1*
X1777008Y1415332D1*
X1782008Y1422214D1*
X1788022Y1428228D1*
X1794904Y1433228D1*
X1802287Y1437000D1*
X1794904Y1440787D1*
X1788022Y1445787D1*
X1782008Y1451802D1*
X1777008Y1458684D1*
X1773236Y1466067D1*
X1769449Y1458684D1*
X1764449Y1451802D1*
X1758434Y1445787D1*
X1751552Y1440787D1*
X1744169Y1437016D1*
X2044169Y1437000D2*
X2051552Y1433228D1*
X2058434Y1428228D1*
X2064449Y1422214D1*
X2069449Y1415332D1*
X2073220Y1407949D1*
X2077008Y1415332D1*
X2082008Y1422214D1*
X2088022Y1428228D1*
X2094904Y1433228D1*
X2102484Y1437091D1*
X2110573Y1439719D1*
X2118975Y1441050D1*
X2127482D1*
X2135883Y1439719D1*
X2143972Y1437091D1*
X2151552Y1433228D1*
X2158434Y1428228D1*
X2164449Y1422214D1*
X2169449Y1415332D1*
X2173220Y1407949D1*
X2177008Y1415332D1*
X2182008Y1422214D1*
X2188022Y1428228D1*
X2194904Y1433228D1*
X2202287Y1437000D1*
X2194904Y1440787D1*
X2188022Y1445787D1*
X2182008Y1451802D1*
X2177008Y1458684D1*
X2173146Y1466264D1*
X2170517Y1474353D1*
X2169186Y1482755D1*
Y1491261D1*
X2170517Y1499663D1*
X2173146Y1507752D1*
X2177008Y1515332D1*
X2182008Y1522214D1*
X2188022Y1528228D1*
X2191877Y1531205D1*
X2054589Y1531201D1*
X2061559Y1525339D1*
X2067084Y1518871D1*
X2071529Y1511618D1*
X2074783Y1503760D1*
X2076769Y1495488D1*
X2077437Y1487008D1*
X2076769Y1478528D1*
X2074783Y1470256D1*
X2071529Y1462398D1*
X2067084Y1455144D1*
X2061559Y1448677D1*
X2055092Y1443152D1*
X2047839Y1438707D1*
X2044169Y1437016D1*
X2244169Y1437000D2*
X2251552Y1433228D1*
X2258434Y1428228D1*
X2264449Y1422214D1*
X2269449Y1415332D1*
X2273220Y1407949D1*
X2277008Y1415332D1*
X2282008Y1422214D1*
X2288022Y1428228D1*
X2294904Y1433228D1*
X2302484Y1437091D1*
X2310573Y1439719D1*
X2318975Y1441050D1*
X2327482D1*
X2335883Y1439719D1*
X2343972Y1437091D1*
X2351552Y1433228D1*
X2358434Y1428228D1*
X2364449Y1422214D1*
X2369449Y1415332D1*
X2373220Y1407949D1*
X2377008Y1415332D1*
X2382008Y1422214D1*
X2388022Y1428228D1*
X2394904Y1433228D1*
X2402287Y1437000D1*
X2394904Y1440787D1*
X2388022Y1445787D1*
X2382008Y1451802D1*
X2377008Y1458684D1*
X2373146Y1466264D1*
X2370517Y1474353D1*
X2369186Y1482755D1*
Y1491261D1*
X2370517Y1499663D1*
X2373146Y1507752D1*
X2377008Y1515332D1*
X2382008Y1522214D1*
X2388022Y1528228D1*
X2391877Y1531205D1*
X2254589Y1531201D1*
X2261559Y1525339D1*
X2267084Y1518871D1*
X2271529Y1511618D1*
X2274783Y1503760D1*
X2276769Y1495488D1*
X2277437Y1487008D1*
X2276769Y1478528D1*
X2274783Y1470256D1*
X2271529Y1462398D1*
X2267084Y1455144D1*
X2261559Y1448677D1*
X2255092Y1443152D1*
X2247839Y1438707D1*
X2244169Y1437016D1*
X2444169Y1437000D2*
X2451552Y1433228D1*
X2458434Y1428228D1*
X2464449Y1422214D1*
X2469449Y1415332D1*
X2473220Y1407949D1*
X2477008Y1415332D1*
X2482008Y1422214D1*
X2488022Y1428228D1*
X2494904Y1433228D1*
X2502287Y1437000D1*
X2494904Y1440787D1*
X2488022Y1445787D1*
X2482008Y1451802D1*
X2477008Y1458684D1*
X2473236Y1466067D1*
X2469449Y1458684D1*
X2464449Y1451802D1*
X2458434Y1445787D1*
X2451552Y1440787D1*
X2444169Y1437016D1*
X2260713Y951465D2*
Y1048437D1*
X2256088Y1053874D1*
X2252276Y1060093D1*
X2249484Y1066833D1*
X2247781Y1073928D1*
X2247209Y1081201D1*
X2247781Y1088474D1*
X2249484Y1095568D1*
X2252276Y1102308D1*
X2256088Y1108528D1*
X2260825Y1114076D1*
X2266374Y1118814D1*
X2272593Y1122626D1*
X2279333Y1125417D1*
X2286428Y1127121D1*
X2293701Y1127693D1*
X2300974Y1127121D1*
X2308068Y1125417D1*
X2314808Y1122626D1*
X2321028Y1118814D1*
X2326576Y1114076D1*
X2331314Y1108528D1*
X2335126Y1102308D1*
X2337917Y1095568D1*
X2339621Y1088474D1*
X2340193Y1081201D1*
X2339621Y1073928D1*
X2337917Y1066833D1*
X2335126Y1060093D1*
X2331314Y1053874D1*
X2326682Y1048441D1*
X2326689Y951465D1*
X2331314Y946028D1*
X2335126Y939808D1*
X2337917Y933068D1*
X2339621Y925974D1*
X2340193Y918701D1*
X2339621Y911428D1*
X2337917Y904333D1*
X2335126Y897593D1*
X2331314Y891374D1*
X2326576Y885825D1*
X2321028Y881088D1*
X2314808Y877276D1*
X2308068Y874484D1*
X2300974Y872781D1*
X2293701Y872209D1*
X2286428Y872781D1*
X2279333Y874484D1*
X2272593Y877276D1*
X2266374Y881088D1*
X2260825Y885825D1*
X2256088Y891374D1*
X2252276Y897593D1*
X2249484Y904333D1*
X2247781Y911428D1*
X2247209Y918701D1*
X2247781Y925974D1*
X2249484Y933068D1*
X2252276Y939808D1*
X2256088Y946028D1*
X2260719Y951461D1*
X788965Y1051689D2*
X835937D1*
X841374Y1056314D1*
X847593Y1060126D1*
X854333Y1062917D1*
X861428Y1064621D1*
X868701Y1065193D1*
X875974Y1064621D1*
X883068Y1062917D1*
X889808Y1060126D1*
X896028Y1056314D1*
X901576Y1051576D1*
X906314Y1046028D1*
X910126Y1039808D1*
X912917Y1033068D1*
X914621Y1025974D1*
X915193Y1018701D1*
X914621Y1011428D1*
X912917Y1004333D1*
X910126Y997593D1*
X906314Y991374D1*
X901576Y985825D1*
X896028Y981088D1*
X889808Y977276D1*
X883068Y974484D1*
X875974Y972781D1*
X868701Y972209D1*
X861428Y972781D1*
X854333Y974484D1*
X847593Y977276D1*
X841374Y981088D1*
X835941Y985719D1*
X788965Y985713D1*
X783528Y981088D1*
X777308Y977276D1*
X770568Y974484D1*
X763474Y972781D1*
X756201Y972209D1*
X748928Y972781D1*
X741833Y974484D1*
X735093Y977276D1*
X728874Y981088D1*
X723325Y985825D1*
X718588Y991374D1*
X714776Y997593D1*
X711984Y1004333D1*
X710281Y1011428D1*
X709709Y1018701D1*
X710281Y1025974D1*
X711984Y1033068D1*
X714776Y1039808D1*
X718588Y1046028D1*
X723325Y1051576D1*
X728874Y1056314D1*
X735093Y1060126D1*
X741833Y1062917D1*
X748928Y1064621D1*
X756201Y1065193D1*
X763474Y1064621D1*
X770568Y1062917D1*
X777308Y1060126D1*
X783528Y1056314D1*
X788961Y1051682D1*
X1397010Y818739D2*
X1368560Y847189D1*
X1361428Y847781D1*
X1354333Y849484D1*
X1347593Y852276D1*
X1341374Y856088D1*
X1335825Y860825D1*
X1331088Y866374D1*
X1327276Y872593D1*
X1324484Y879333D1*
X1322781Y886428D1*
X1322209Y893701D1*
X1322781Y900974D1*
X1324484Y908068D1*
X1327276Y914808D1*
X1331088Y921028D1*
X1335825Y926576D1*
X1341374Y931314D1*
X1347593Y935126D1*
X1354333Y937917D1*
X1361428Y939621D1*
X1368701Y940193D1*
X1375974Y939621D1*
X1383068Y937917D1*
X1389808Y935126D1*
X1396028Y931314D1*
X1401576Y926576D1*
X1406314Y921028D1*
X1410126Y914808D1*
X1412917Y908068D1*
X1414621Y900974D1*
X1415186Y893857D1*
X1443644Y865409D1*
X1450777Y864818D1*
X1457871Y863114D1*
X1464612Y860323D1*
X1470831Y856510D1*
X1476379Y851773D1*
X1481117Y846224D1*
X1484929Y840005D1*
X1487720Y833265D1*
X1489424Y826171D1*
X1489996Y818898D1*
X1489424Y811625D1*
X1487720Y804530D1*
X1484929Y797790D1*
X1481117Y791571D1*
X1476379Y786022D1*
X1470831Y781285D1*
X1464612Y777472D1*
X1457871Y774681D1*
X1450777Y772978D1*
X1443504Y772406D1*
X1436231Y772978D1*
X1429136Y774681D1*
X1422396Y777472D1*
X1416177Y781285D1*
X1410629Y786022D1*
X1405891Y791571D1*
X1402079Y797790D1*
X1399287Y804530D1*
X1397584Y811625D1*
X1397018Y818741D1*
X1960937Y748213D2*
X1851465D1*
X1846028Y743588D1*
X1839808Y739776D1*
X1833068Y736984D1*
X1825974Y735281D1*
X1818701Y734709D1*
X1811428Y735281D1*
X1804333Y736984D1*
X1797593Y739776D1*
X1791374Y743588D1*
X1785825Y748325D1*
X1781088Y753874D1*
X1777276Y760093D1*
X1774484Y766833D1*
X1772781Y773928D1*
X1772209Y781201D1*
X1772781Y788474D1*
X1774484Y795568D1*
X1777276Y802308D1*
X1781088Y808528D1*
X1785825Y814076D1*
X1791374Y818814D1*
X1797593Y822626D1*
X1804333Y825417D1*
X1811428Y827121D1*
X1818701Y827693D1*
X1825974Y827121D1*
X1833068Y825417D1*
X1839808Y822626D1*
X1846028Y818814D1*
X1851461Y814182D1*
X1960937Y814189D1*
X1966374Y818814D1*
X1972593Y822626D1*
X1979333Y825417D1*
X1986428Y827121D1*
X1993701Y827693D1*
X2000974Y827121D1*
X2008068Y825417D1*
X2014808Y822626D1*
X2021028Y818814D1*
X2026576Y814076D1*
X2031314Y808528D1*
X2035126Y802308D1*
X2037917Y795568D1*
X2039621Y788474D1*
X2040193Y781201D1*
X2039621Y773928D1*
X2037917Y766833D1*
X2035126Y760093D1*
X2031314Y753874D1*
X2026576Y748325D1*
X2021028Y743588D1*
X2014808Y739776D1*
X2008068Y736984D1*
X2000974Y735281D1*
X1993701Y734709D1*
X1986428Y735281D1*
X1979333Y736984D1*
X1972593Y739776D1*
X1966374Y743588D1*
X1960941Y748219D1*
D25*
X723228Y1387008D3*
D26*
Y1487008D3*
X823228Y1387008D3*
Y1487008D3*
X923228Y1387008D3*
Y1487008D3*
X1023228Y1387008D3*
Y1487008D3*
X1123228Y1387008D3*
Y1487008D3*
X1223228Y1387008D3*
Y1487008D3*
X1323228Y1387008D3*
Y1487008D3*
X1423228Y1387008D3*
Y1487008D3*
X1523228Y1387008D3*
Y1487008D3*
X1623228Y1387008D3*
Y1487008D3*
X1723228Y1387008D3*
Y1487008D3*
X1823228Y1387008D3*
Y1487008D3*
X1923228Y1387008D3*
Y1487008D3*
X2023228Y1387008D3*
Y1487008D3*
X2123228Y1387008D3*
Y1487008D3*
X2223228Y1387008D3*
Y1487008D3*
X2323228Y1387008D3*
Y1487008D3*
X2423228Y1387008D3*
Y1487008D3*
X2523228Y1387008D3*
Y1487008D3*
X2623228Y1387008D3*
Y1487008D3*
M02*
