G04 DipTrace 3.0.0.2*
G04 hobo.gtl*
%MOIN*%
G04 #@! TF.FileFunction,Copper,L1,Top*
G04 #@! TF.Part,Single*
%AMOUTLINE0*5,1,8,0,0,0.06,-22.499559*%
G04 #@! TA.AperFunction,Conductor*
%ADD14C,0.012992*%
%ADD17R,0.059055X0.051181*%
%ADD18R,0.051181X0.059055*%
%ADD19R,0.023622X0.07874*%
%ADD21R,0.033465X0.019685*%
%ADD22R,0.062992X0.086614*%
G04 #@! TA.AperFunction,ComponentPad*
%ADD24R,0.06X0.06*%
%ADD28R,0.033465X0.01378*%
%ADD29R,0.025591X0.059055*%
G04 #@! TA.AperFunction,ViaPad*
%ADD30C,0.04*%
G04 #@! TA.AperFunction,ComponentPad*
%ADD59OUTLINE0*%
%FSLAX26Y26*%
G04*
G70*
G90*
G75*
G01*
G04 Top*
%LPD*%
X1118701Y731201D2*
D14*
Y843701D1*
X1106102Y856299D1*
X1057874D1*
X1218701Y843701D2*
X1118701D1*
X1006201Y581201D2*
X1056201Y531201D1*
X1168701D1*
X1306201Y668701D1*
Y833131D1*
Y843701D1*
X1218701D1*
X1518701Y893701D2*
X1618701D1*
X1631201Y881201D1*
X1679429D1*
X1679528Y881102D1*
X1518701Y893701D2*
X1456201D1*
X1393701Y831201D1*
Y718701D1*
X1431201Y681201D1*
X1681201D1*
X1693701Y693701D1*
X668701Y877362D2*
Y806201D1*
X693701Y781201D1*
X706201D1*
X718701Y793701D1*
Y1382480D1*
X723228Y1387008D1*
X1706201Y1118701D2*
X1531201D1*
Y1231201D1*
Y1379035D1*
X1523228Y1387008D1*
X1518701Y893701D2*
Y1106201D1*
X1531201Y1118701D1*
X1523228Y1387008D2*
Y1389173D1*
X1474950Y1437451D1*
X773672D1*
X723228Y1387008D1*
X2468701Y993701D2*
X2381201D1*
X2231398D1*
X2206201Y968504D1*
X2706201Y931004D2*
Y1068701D1*
X2381201Y843504D2*
Y993701D1*
X2206201Y968504D2*
X1831398D1*
X1706201Y1093701D1*
Y1118701D1*
X1306201Y833131D2*
X1393701Y831201D1*
X2706201Y1068701D2*
X2481201D1*
X2456201Y1043701D1*
Y1006201D1*
X2468701Y993701D1*
X1343701Y1231201D2*
X1531201D1*
X723228Y1487008D2*
X823228D1*
X518701Y1168701D2*
X568701D1*
X618701D1*
X668701D1*
X518701D2*
Y1256201D1*
X568701Y1168701D2*
Y1256201D1*
X618701Y1168701D2*
Y1256201D1*
X668701Y1168701D2*
Y1256201D1*
X618701Y877362D2*
Y793701D1*
X1118701Y656398D2*
Y593701D1*
X1793701Y881102D2*
X1843602D1*
X1856201Y893701D1*
X943701Y856299D2*
X893799D1*
X881201Y843701D1*
X1781004Y1118701D2*
X1856201D1*
X2468701Y968110D2*
X2443110D1*
X2418701Y943701D1*
Y931201D1*
X2706201Y1143504D2*
Y1206201D1*
X2468701Y768701D2*
Y718701D1*
X1268898Y1231201D2*
X1181201D1*
X2381201Y768701D2*
Y693701D1*
X2393701Y681201D1*
X2531201D1*
X2543701Y693701D1*
Y942323D1*
X2543504Y942520D1*
X2381201Y768701D2*
X2331201D1*
X2293701Y806201D1*
Y918701D1*
Y1081201D2*
X2531201Y1318701D1*
Y1379035D1*
X2523228Y1387008D1*
X2468701Y843504D2*
Y942520D1*
X1218701Y918504D2*
X1082677D1*
X1057874Y893701D1*
X568701Y877362D2*
Y693701D1*
X593701Y668701D1*
X731201D1*
X756201Y693701D1*
Y1018701D1*
X868701D2*
X923228D1*
X1118504D1*
X1218701Y918504D1*
X923228Y1387008D2*
Y1018701D1*
X1518701Y818898D2*
X1654724D1*
X1659396Y823570D1*
X1679528Y843701D1*
X1518701Y818898D2*
X1443504D1*
X1368701Y893701D2*
X1243504D1*
X1218701Y918504D1*
X2543504Y968110D2*
X2594291D1*
X2606201Y956201D1*
Y706201D1*
X2556201Y656201D1*
X2206201D1*
X2118701D1*
X1993701Y781201D1*
X1818701D2*
X1701765D1*
X1659396Y823570D1*
X2206201Y893701D2*
Y656201D1*
X931398Y581201D2*
X843701D1*
X824950Y599951D1*
Y893701D1*
X943701D1*
X824950D2*
Y1385286D1*
X823228Y1387008D1*
X518701Y877362D2*
Y643701D1*
X562450Y599951D1*
X824950D1*
X1768504Y693701D2*
X1868701D1*
X1918701Y743701D1*
Y818701D1*
X1893701Y843701D1*
X1793701D1*
X1768504Y693701D2*
Y493504D1*
X1743701Y468701D1*
X981201D1*
X931201Y518701D1*
Y581004D1*
X931398Y581201D1*
X2543504Y993701D2*
X2618701D1*
X2643701Y968701D1*
Y881201D1*
X2668701Y856201D1*
X2706201D1*
Y643701D1*
X2618701Y556201D1*
X1906004D1*
X1768504Y693701D1*
D30*
X568701Y1256201D3*
X618701D3*
X668701D3*
X618701Y793701D3*
X1118701Y593701D3*
X1856201Y893701D3*
X881201Y843701D3*
X1856201Y1118701D3*
X2418701Y931201D3*
X2706201Y1206201D3*
X2468701Y718701D3*
X1181201Y1231201D3*
X2293701Y918701D3*
Y1081201D3*
X756201Y1018701D3*
X868701D3*
X1443504Y818898D3*
X1368701Y893701D3*
X1993701Y781201D3*
X1818701D3*
X518701Y1256201D3*
D17*
X1118701Y731201D3*
Y656398D3*
D18*
X1706201Y1118701D3*
X1781004D3*
D17*
X2706201Y1068701D3*
Y1143504D3*
D18*
X1343701Y1231201D3*
X1268898D3*
D19*
X668701Y1168701D3*
X618701D3*
X568701D3*
X518701D3*
Y877362D3*
X568701D3*
X618701D3*
X668701D3*
D21*
X1793701Y843701D3*
Y881102D3*
Y918504D3*
X1679528D3*
Y881102D3*
Y843701D3*
D22*
X1736614Y881102D3*
D24*
X723228Y1387008D3*
D59*
Y1487008D3*
X823228Y1387008D3*
Y1487008D3*
X923228Y1387008D3*
Y1487008D3*
X1023228Y1387008D3*
Y1487008D3*
X1123228Y1387008D3*
Y1487008D3*
X1223228Y1387008D3*
Y1487008D3*
X1323228Y1387008D3*
Y1487008D3*
X1423228Y1387008D3*
Y1487008D3*
X1523228Y1387008D3*
Y1487008D3*
X1623228Y1387008D3*
Y1487008D3*
X1723228Y1387008D3*
Y1487008D3*
X1823228Y1387008D3*
Y1487008D3*
X1923228Y1387008D3*
Y1487008D3*
X2023228Y1387008D3*
Y1487008D3*
X2123228Y1387008D3*
Y1487008D3*
X2223228Y1387008D3*
Y1487008D3*
X2323228Y1387008D3*
Y1487008D3*
X2423228Y1387008D3*
Y1487008D3*
X2523228Y1387008D3*
Y1487008D3*
X2623228Y1387008D3*
Y1487008D3*
D28*
X2468701Y993701D3*
Y968110D3*
Y942520D3*
X2543504D3*
Y968110D3*
Y993701D3*
D29*
X2506102Y968110D3*
D17*
X1218701Y843701D3*
Y918504D3*
D18*
X1006201Y581201D3*
X931398D3*
D17*
X1518701Y893701D3*
Y818898D3*
D18*
X1693701Y693701D3*
X1768504D3*
D17*
X2468701Y768701D3*
Y843504D3*
X2706201Y856201D3*
Y931004D3*
X2206201Y893701D3*
Y968504D3*
X2381201Y768701D3*
Y843504D3*
D21*
X943701Y893701D3*
Y856299D3*
Y818898D3*
X1057874D3*
Y856299D3*
Y893701D3*
D22*
X1000787Y856299D3*
M02*
