G04 DipTrace 3.0.0.2*
G04 hobo.gts*
%MOIN*%
G04 #@! TF.FileFunction,Soldermask,Top*
G04 #@! TF.Part,Single*
%AMOUTLINE0*5,1,8,0,0,0.06,-22.499559*%
%ADD17R,0.059055X0.051181*%
%ADD18R,0.051181X0.059055*%
%ADD24R,0.06X0.06*%
%ADD32C,0.108268*%
%ADD36R,0.033465X0.066929*%
%ADD38R,0.041339X0.021654*%
%ADD46R,0.070866X0.094488*%
%ADD48R,0.041339X0.027559*%
%ADD50R,0.031496X0.086614*%
%ADD52R,0.059055X0.066929*%
%ADD54R,0.066929X0.059055*%
%ADD59OUTLINE0*%
%FSLAX26Y26*%
G04*
G70*
G90*
G75*
G01*
G04 TopMask*
%LPD*%
D17*
X1118701Y731201D3*
Y656398D3*
D52*
X1706201Y1118701D3*
X1781004D3*
D54*
X2706201Y1068701D3*
Y1143504D3*
D52*
X1343701Y1231201D3*
X1268898D3*
D50*
X668701Y1168701D3*
X618701D3*
X568701D3*
X518701D3*
Y877362D3*
X568701D3*
X618701D3*
X668701D3*
D32*
X531496Y1437008D3*
Y531496D3*
X2814961D3*
Y1437008D3*
D48*
X1793701Y843701D3*
Y881102D3*
Y918504D3*
X1679528D3*
Y881102D3*
Y843701D3*
D46*
X1736614Y881102D3*
D24*
X723228Y1387008D3*
D59*
Y1487008D3*
X823228Y1387008D3*
Y1487008D3*
X923228Y1387008D3*
Y1487008D3*
X1023228Y1387008D3*
Y1487008D3*
X1123228Y1387008D3*
Y1487008D3*
X1223228Y1387008D3*
Y1487008D3*
X1323228Y1387008D3*
Y1487008D3*
X1423228Y1387008D3*
Y1487008D3*
X1523228Y1387008D3*
Y1487008D3*
X1623228Y1387008D3*
Y1487008D3*
X1723228Y1387008D3*
Y1487008D3*
X1823228Y1387008D3*
Y1487008D3*
X1923228Y1387008D3*
Y1487008D3*
X2023228Y1387008D3*
Y1487008D3*
X2123228Y1387008D3*
Y1487008D3*
X2223228Y1387008D3*
Y1487008D3*
X2323228Y1387008D3*
Y1487008D3*
X2423228Y1387008D3*
Y1487008D3*
X2523228Y1387008D3*
Y1487008D3*
X2623228Y1387008D3*
Y1487008D3*
D38*
X2468701Y993701D3*
Y968110D3*
Y942520D3*
X2543504D3*
Y968110D3*
Y993701D3*
D36*
X2506102Y968110D3*
D54*
X1218701Y843701D3*
Y918504D3*
D18*
X1006201Y581201D3*
X931398D3*
D17*
X1518701Y893701D3*
Y818898D3*
D18*
X1693701Y693701D3*
X1768504D3*
D54*
X2468701Y768701D3*
Y843504D3*
X2706201Y856201D3*
Y931004D3*
X2206201Y893701D3*
Y968504D3*
X2381201Y768701D3*
Y843504D3*
D48*
X943701Y893701D3*
Y856299D3*
Y818898D3*
X1057874D3*
Y856299D3*
Y893701D3*
D46*
X1000787Y856299D3*
M02*
