M48
INCH
T01C0.0191
T02C0.04
T03C0.1083
%
T01
X+005187Y+012562
X+005687Y+012562
X+006187Y+012562
X+006687Y+012562
X+007562Y+010187
X+008687Y+010187
X+008812Y+008437
X+006187Y+007937
X+011187Y+005937
X+013687Y+008937
X+014435Y+008189
X+018187Y+007812
X+018562Y+008937
X+019937Y+007812
X+022937Y+009187
X+024187Y+009312
X+022937Y+010812
X+024687Y+007187
X+027062Y+012062
X+018562Y+011187
X+011812Y+012312
T02
X+007232Y+013870
X+007232Y+014870
X+008232Y+014870
X+008232Y+013870
X+009232Y+013870
X+009232Y+014870
X+010232Y+014870
X+010232Y+013870
X+011232Y+013870
X+011232Y+014870
X+012232Y+014870
X+012232Y+013870
X+013232Y+013870
X+013232Y+014870
X+014232Y+014870
X+014232Y+013870
X+015232Y+013870
X+015232Y+014870
X+016232Y+014870
X+016232Y+013870
X+017232Y+013870
X+017232Y+014870
X+018232Y+014870
X+018232Y+013870
X+019232Y+013870
X+019232Y+014870
X+020232Y+014870
X+020232Y+013870
X+021232Y+013870
X+021232Y+014870
X+022232Y+014870
X+022232Y+013870
X+023232Y+013870
X+023232Y+014870
X+024232Y+014870
X+024232Y+013870
X+025232Y+013870
X+025232Y+014870
X+026232Y+014870
X+026232Y+013870
T03
X+005315Y+014370
X+005315Y+005315
X+028150Y+005315
X+028150Y+014370
T00
M30
