G04 DipTrace 3.1.0.0*
G04 ADS115SBreakout.gbl*
%MOIN*%
G04 #@! TF.FileFunction,Copper,L2,Bot*
G04 #@! TF.Part,Single*
G04 #@! TA.AperFunction,Conductor*
%ADD13C,0.008*%
G04 #@! TA.AperFunction,CopperBalancing*
%ADD16C,0.025*%
G04 #@! TA.AperFunction,ComponentPad*
%ADD20R,0.066929X0.066929*%
%ADD21C,0.066929*%
G04 #@! TA.AperFunction,ViaPad*
%ADD24C,0.04*%
%ADD26C,0.02*%
%FSLAX26Y26*%
G04*
G70*
G90*
G75*
G01*
G04 Bottom*
%LPD*%
X587623Y715269D2*
D13*
X635801Y763446D1*
X1225190Y777776D2*
Y759024D1*
X1195248D1*
X1218940Y615259D2*
X1225248D1*
X1135206Y774000D2*
X765248D1*
X695248Y704000D1*
Y604000D1*
X1115248Y724000D2*
X845248D1*
X795248Y674000D1*
Y604000D1*
D24*
X587623Y715269D3*
X1225190Y777776D3*
D26*
X1218940Y615259D3*
D24*
X1135206Y774000D3*
X695248Y604000D3*
X1115248Y724000D3*
X795248Y604000D3*
X440001Y827916D2*
D16*
X1447843D1*
X439953Y803047D2*
X753507D1*
X1174034D2*
X1447891D1*
X439903Y778178D2*
X723819D1*
X1183995D2*
X1447990D1*
X439806Y753310D2*
X698966D1*
X1179357D2*
X1448038D1*
X439757Y728441D2*
X674063D1*
X765294D2*
X804093D1*
X1164025D2*
X1448135D1*
X439709Y703572D2*
X662247D1*
X740441D2*
X779190D1*
X1159533D2*
X1448185D1*
X439659Y678703D2*
X662247D1*
X728234D2*
X762638D1*
X845567D2*
X1102238D1*
X1128282D2*
X1448282D1*
X439562Y653835D2*
X662247D1*
X728234D2*
X762247D1*
X828234D2*
X1448331D1*
X439513Y628966D2*
X653507D1*
X736974D2*
X753507D1*
X836974D2*
X1448379D1*
X439463Y604097D2*
X646231D1*
X844249D2*
X1448478D1*
X439366Y579228D2*
X653409D1*
X737121D2*
X753409D1*
X837121D2*
X1448526D1*
X439318Y554360D2*
X1448625D1*
X439269Y529491D2*
X1448673D1*
X439219Y504622D2*
X1448770D1*
X436699Y503965D2*
X555213D1*
Y488681D1*
X563916Y495129D1*
X572301Y499400D1*
X581249Y502307D1*
X590543Y503780D1*
X599953D1*
X609247Y502307D1*
X618196Y499400D1*
X626580Y495129D1*
X634192Y489597D1*
X640845Y482944D1*
X645222Y477059D1*
X649651Y482944D1*
X656304Y489597D1*
X663916Y495129D1*
X672301Y499400D1*
X681249Y502307D1*
X690543Y503780D1*
X699953D1*
X709247Y502307D1*
X718196Y499400D1*
X726580Y495129D1*
X734192Y489597D1*
X740845Y482944D1*
X745222Y477059D1*
X749651Y482944D1*
X756304Y489597D1*
X763916Y495129D1*
X772301Y499400D1*
X781249Y502307D1*
X790543Y503780D1*
X799953D1*
X809247Y502307D1*
X818196Y499400D1*
X826580Y495129D1*
X834192Y489597D1*
X840845Y482944D1*
X845222Y477059D1*
X849651Y482944D1*
X856304Y489597D1*
X863916Y495129D1*
X872301Y499400D1*
X881249Y502307D1*
X890543Y503780D1*
X899953D1*
X909247Y502307D1*
X918196Y499400D1*
X926580Y495129D1*
X934192Y489597D1*
X940845Y482944D1*
X945222Y477059D1*
X949651Y482944D1*
X956304Y489597D1*
X963916Y495129D1*
X972301Y499400D1*
X981249Y502307D1*
X990543Y503780D1*
X999953D1*
X1009247Y502307D1*
X1018196Y499400D1*
X1026580Y495129D1*
X1034192Y489597D1*
X1040845Y482944D1*
X1045222Y477059D1*
X1049651Y482944D1*
X1056304Y489597D1*
X1063916Y495129D1*
X1072301Y499400D1*
X1081249Y502307D1*
X1090543Y503780D1*
X1099953D1*
X1109247Y502307D1*
X1118196Y499400D1*
X1126580Y495129D1*
X1134192Y489597D1*
X1140845Y482944D1*
X1145222Y477059D1*
X1149651Y482944D1*
X1156304Y489597D1*
X1163916Y495129D1*
X1172301Y499400D1*
X1181249Y502307D1*
X1190543Y503780D1*
X1199953D1*
X1209247Y502307D1*
X1218196Y499400D1*
X1226580Y495129D1*
X1234192Y489597D1*
X1240845Y482944D1*
X1245222Y477059D1*
X1249651Y482944D1*
X1256304Y489597D1*
X1263916Y495129D1*
X1272301Y499400D1*
X1281249Y502307D1*
X1290543Y503780D1*
X1299953D1*
X1309247Y502307D1*
X1318196Y499400D1*
X1326580Y495129D1*
X1334192Y489597D1*
X1340845Y482944D1*
X1345222Y477059D1*
X1349651Y482944D1*
X1356304Y489597D1*
X1363916Y495129D1*
X1372301Y499400D1*
X1381249Y502307D1*
X1390543Y503780D1*
X1399953D1*
X1409247Y502307D1*
X1418196Y499400D1*
X1426580Y495129D1*
X1434192Y489597D1*
X1440845Y482944D1*
X1446377Y475332D1*
X1450648Y466948D1*
X1451392Y464929D1*
X1450215Y852785D1*
X437575Y852753D1*
X436701Y503975D1*
X821681Y743500D2*
X777833D1*
X725738Y691356D1*
X725748Y639108D1*
X730606Y634199D1*
X734896Y628297D1*
X738209Y621795D1*
X740463Y614856D1*
X741605Y607648D1*
Y600352D1*
X740463Y593144D1*
X738209Y586205D1*
X734896Y579703D1*
X730606Y573801D1*
X725448Y568642D1*
X719545Y564352D1*
X713043Y561039D1*
X706104Y558785D1*
X698896Y557643D1*
X691600D1*
X684392Y558785D1*
X677453Y561039D1*
X670951Y564352D1*
X665049Y568642D1*
X659890Y573801D1*
X655600Y579703D1*
X652287Y586205D1*
X650033Y593144D1*
X648891Y600352D1*
Y607648D1*
X650033Y614856D1*
X652287Y621795D1*
X655600Y628297D1*
X659890Y634199D1*
X664766Y639097D1*
X664843Y706392D1*
X666240Y713425D1*
X669243Y719936D1*
X673681Y725567D1*
X673921Y725789D1*
X745440Y797193D1*
X751402Y801176D1*
X758127Y803657D1*
X765248Y804500D1*
X765575Y804487D1*
X1100063Y804500D1*
X1105007Y809358D1*
X1110909Y813648D1*
X1117411Y816961D1*
X1124350Y819215D1*
X1131558Y820357D1*
X1138854D1*
X1146062Y819215D1*
X1153001Y816961D1*
X1159503Y813648D1*
X1165406Y809358D1*
X1170564Y804199D1*
X1174854Y798297D1*
X1178167Y791795D1*
X1180421Y784856D1*
X1181563Y777648D1*
Y770352D1*
X1180421Y763144D1*
X1178167Y756205D1*
X1174854Y749703D1*
X1170564Y743801D1*
X1165406Y738642D1*
X1160463Y734856D1*
X1161605Y727648D1*
Y720352D1*
X1160463Y713144D1*
X1158209Y706205D1*
X1154896Y699703D1*
X1150606Y693801D1*
X1145448Y688642D1*
X1139545Y684352D1*
X1133043Y681039D1*
X1126104Y678785D1*
X1118896Y677643D1*
X1111600D1*
X1104392Y678785D1*
X1097453Y681039D1*
X1090951Y684352D1*
X1085049Y688642D1*
X1080151Y693518D1*
X857875Y693500D1*
X825762Y661381D1*
X825748Y639088D1*
X830606Y634199D1*
X834896Y628297D1*
X838209Y621795D1*
X840463Y614856D1*
X841605Y607648D1*
Y600352D1*
X840463Y593144D1*
X838209Y586205D1*
X834896Y579703D1*
X830606Y573801D1*
X825448Y568642D1*
X819545Y564352D1*
X813043Y561039D1*
X806104Y558785D1*
X798896Y557643D1*
X791600D1*
X784392Y558785D1*
X777453Y561039D1*
X770951Y564352D1*
X765049Y568642D1*
X759890Y573801D1*
X755600Y579703D1*
X752287Y586205D1*
X750033Y593144D1*
X748891Y600352D1*
Y607648D1*
X750033Y614856D1*
X752287Y621795D1*
X755600Y628297D1*
X759890Y634199D1*
X764766Y639097D1*
X764843Y676392D1*
X766240Y683425D1*
X769243Y689936D1*
X773681Y695567D1*
X773921Y695789D1*
X821617Y743503D1*
D20*
X495248Y444000D3*
D21*
X595248D3*
X695248D3*
X795248D3*
X895248D3*
X995248D3*
X1095248D3*
X1195248D3*
X1295248D3*
X1395248D3*
M02*
