G04 DipTrace 3.1.0.0*
G04 ADS115SBreakout.gtl*
%MOIN*%
G04 #@! TF.FileFunction,Copper,L1,Top*
G04 #@! TF.Part,Single*
G04 #@! TA.AperFunction,Conductor*
%ADD13C,0.008*%
%ADD14C,0.016*%
%ADD15C,0.011811*%
%ADD18R,0.057087X0.011811*%
%ADD19R,0.043307X0.03937*%
G04 #@! TA.AperFunction,ComponentPad*
%ADD20R,0.066929X0.066929*%
%ADD21C,0.066929*%
%ADD22R,0.057087X0.047244*%
%ADD23R,0.03937X0.043307*%
G04 #@! TA.AperFunction,ViaPad*
%ADD24C,0.04*%
%ADD26C,0.02*%
%FSLAX26Y26*%
G04*
G70*
G90*
G75*
G01*
G04 Top*
%LPD*%
X895248Y607071D2*
D13*
Y444000D1*
X1165248Y659003D2*
X1050251D1*
X1035248Y644000D1*
X932177D1*
X895248Y607071D1*
X1165248Y599948D2*
X1131196D1*
X1095248Y564000D1*
Y444000D1*
X1165248Y580262D2*
Y474000D1*
X1195248Y444000D1*
X1338476Y580262D2*
Y487228D1*
X1295248Y444000D1*
X1338476Y599948D2*
X1371765D1*
X1395248Y576465D1*
Y444000D1*
X998713Y610535D2*
Y447465D1*
X995248Y444000D1*
X1165248Y639318D2*
Y640261D1*
X1062673D1*
X1032948Y610535D1*
X998713D1*
X587623Y719692D2*
Y715269D1*
X1227018Y777776D2*
X1225190D1*
X1165248Y619633D2*
X1214566D1*
X1218940Y615259D1*
X495248Y444000D2*
Y576501D1*
X515248Y596501D1*
Y718887D1*
X506365Y727770D1*
X595248Y444000D2*
Y583430D1*
X582177Y596501D1*
Y647316D1*
X587623Y652762D1*
X695248Y604000D2*
Y444000D1*
X1338476Y659003D2*
X1250203D1*
X1135206Y774000D1*
X695248Y604000D2*
D3*
X795248D2*
Y444000D1*
X1338476Y639318D2*
X1244886D1*
X1160203Y724000D1*
X1115248D1*
X795248Y604000D2*
D3*
X506365Y794699D2*
D14*
Y791731D1*
X695248D1*
X795248D1*
X893906D1*
X1001621D1*
X1037671Y827781D1*
X1268945D1*
X1295248Y801478D1*
Y779076D1*
X1293948Y777776D1*
X795248Y670929D2*
Y791731D1*
X695248Y670929D2*
Y791731D1*
X895248Y674000D2*
Y791731D1*
X893906D1*
X998713Y677465D2*
Y791731D1*
X1001621D1*
X1338476Y619633D2*
D15*
X1392081D1*
D14*
X1415248Y642799D1*
Y724000D1*
X1361472Y777776D1*
X1293948D1*
D24*
X587623Y715269D3*
X1225190Y777776D3*
D26*
X1218940Y615259D3*
D24*
X1135206Y774000D3*
X695248Y604000D3*
X1115248Y724000D3*
X795248Y604000D3*
D18*
X1165248Y659003D3*
Y639318D3*
Y619633D3*
Y599948D3*
Y580262D3*
X1338476D3*
Y599948D3*
Y619633D3*
Y639318D3*
Y659003D3*
D19*
X515248Y596501D3*
X582177D3*
X1293948Y777776D3*
X1227018D3*
D20*
X495248Y444000D3*
D21*
X595248D3*
X695248D3*
X795248D3*
X895248D3*
X995248D3*
X1095248D3*
X1195248D3*
X1295248D3*
X1395248D3*
D22*
X506365Y727770D3*
Y794699D3*
X587623Y652762D3*
Y719692D3*
D23*
X695248Y604000D3*
Y670929D3*
X795248Y604000D3*
Y670929D3*
X895248Y674000D3*
Y607071D3*
X998713Y677465D3*
Y610535D3*
M02*
