G04 DipTrace 3.1.0.0*
G04 ADS115SBreakout.gbo*
%MOIN*%
G04 #@! TF.FileFunction,Legend,Bot*
G04 #@! TF.Part,Single*
%ADD12C,0.003*%
%ADD46C,0.003088*%
%ADD47C,0.001544*%
%FSLAX26Y26*%
G04*
G70*
G90*
G75*
G01*
G04 BotSilk*
%LPD*%
X492109Y824781D2*
D12*
X507109D1*
X477109Y821781D2*
D3*
X492109D2*
X507109D1*
X522109D2*
D3*
X473787Y818781D2*
X480109D1*
X492109D2*
X507109D1*
X519109D2*
X525109D1*
X471006Y815781D2*
X528109D1*
X470346Y812781D2*
X531109D1*
X471142Y809781D2*
X528848D1*
X472464Y806781D2*
X527174D1*
X474109Y803781D2*
X527113D1*
X469647Y800781D2*
X530586D1*
X465614Y797781D2*
X492710D1*
X506508D2*
X533556D1*
X463842Y794781D2*
X490717D1*
X508501D2*
X535779D1*
X462859Y791781D2*
X490147D1*
X509071D2*
X536466D1*
X462406Y788781D2*
X491067D1*
X508151D2*
X535795D1*
X462214Y785781D2*
X492409D1*
X506809D2*
X533008D1*
X471109Y782781D2*
X493531D1*
X505686D2*
X530057D1*
X472515Y779781D2*
X494206D1*
X505012D2*
X527641D1*
X474109Y776781D2*
X493557D1*
X505661D2*
X527475D1*
X471825Y773781D2*
X492480D1*
X506738D2*
X528533D1*
X470081Y770781D2*
X490838D1*
X508379D2*
X529473D1*
X470297Y767781D2*
X488592D1*
X510625D2*
X529035D1*
X472061Y764781D2*
X483318D1*
X515900D2*
X527204D1*
X474109Y761781D2*
X477109D1*
X522109D2*
X525109D1*
X453109Y752781D2*
X489109D1*
X495109D2*
X516109D1*
X522109D2*
X543109D1*
X453337Y749781D2*
X489109D1*
X495109D2*
X516109D1*
X522109D2*
X534109D1*
X540109D2*
X543109D1*
X453835Y746781D2*
X489109D1*
X495109D2*
X543109D1*
X455478Y743781D2*
X489109D1*
X495109D2*
X501109D1*
X507109D2*
X510109D1*
X516109D2*
X528109D1*
X534109D2*
X543109D1*
X457082Y740781D2*
X462109D1*
X495109D2*
D3*
X458233Y737781D2*
X537109D1*
X459109Y734781D2*
X483109D1*
X489109D2*
X537109D1*
X492109Y824781D2*
Y821781D1*
Y818781D1*
X507109Y824781D2*
Y821781D1*
Y818781D1*
X477109Y821781D2*
X473787Y818781D1*
X471006Y815781D1*
X470346Y812781D1*
X471142Y809781D1*
X472464Y806781D1*
X474109Y803781D1*
X469647Y800781D1*
X465614Y797781D1*
X463842Y794781D1*
X462859Y791781D1*
X462406Y788781D1*
X462214Y785781D1*
X462109Y782781D1*
X471109D1*
X472515Y779781D1*
X474109Y776781D1*
X471825Y773781D1*
X470081Y770781D1*
X470297Y767781D1*
X472061Y764781D1*
X474109Y761781D1*
X522109Y821781D2*
X519109Y818781D1*
X480109D2*
X525109D2*
X528109Y815781D1*
X531109Y812781D1*
X528848Y809781D1*
X527174Y806781D1*
X527113Y803781D1*
X530586Y800781D1*
X533556Y797781D1*
X535779Y794781D1*
X536466Y791781D1*
X535795Y788781D1*
X533008Y785781D1*
X530057Y782781D1*
X527641Y779781D1*
X527475Y776781D1*
X528533Y773781D1*
X529473Y770781D1*
X529035Y767781D1*
X527204Y764781D1*
X525109Y761781D1*
X495109Y800781D2*
X492710Y797781D1*
X490717Y794781D1*
X490147Y791781D1*
X491067Y788781D1*
X492409Y785781D1*
X493531Y782781D1*
X494206Y779781D1*
X493557Y776781D1*
X492480Y773781D1*
X490838Y770781D1*
X488592Y767781D1*
X483318Y764781D1*
X477109Y761781D1*
X504109Y800781D2*
X506508Y797781D1*
X508501Y794781D1*
X509071Y791781D1*
X508151Y788781D1*
X506809Y785781D1*
X505686Y782781D1*
X505012Y779781D1*
X505661Y776781D1*
X506738Y773781D1*
X508379Y770781D1*
X510625Y767781D1*
X515900Y764781D1*
X522109Y761781D1*
X453109Y752781D2*
X453337Y749781D1*
X453835Y746781D1*
X455478Y743781D1*
X457082Y740781D1*
X458233Y737781D1*
X459109Y734781D1*
X489109Y752781D2*
Y749781D1*
Y746781D1*
Y743781D1*
X462109Y740781D1*
X495109Y752781D2*
Y749781D1*
Y746781D1*
Y743781D1*
Y740781D1*
X516109Y752781D2*
Y749781D1*
X522109Y752781D2*
Y749781D1*
X543109Y752781D2*
Y749781D1*
Y746781D1*
Y743781D1*
X537109Y752781D2*
X534109Y749781D1*
X537109Y752781D2*
X540109Y749781D1*
X507109Y746781D2*
X501109Y743781D1*
X495109Y740781D1*
X489109Y737781D1*
X504109Y746781D2*
X507109Y743781D1*
X513109Y746781D2*
X510109Y743781D1*
X513109Y746781D2*
X516109Y743781D1*
X531109Y746781D2*
X528109Y743781D1*
X531109Y746781D2*
X534109Y743781D1*
X537109Y737781D2*
Y734781D1*
X486109Y737781D2*
X483109Y734781D1*
X486109Y737781D2*
X489109Y734781D1*
X481895Y546142D2*
D46*
X501991Y538493D1*
X481895Y530843D1*
Y513194D2*
X501991D1*
X491468D2*
X489544Y515095D1*
X488594Y517018D1*
Y519892D1*
X489544Y521794D1*
X491468Y523717D1*
X494342Y524668D1*
X496243D1*
X499117Y523717D1*
X501018Y521794D1*
X501991Y519892D1*
Y517018D1*
X501018Y515095D1*
X499117Y513194D1*
X481895Y495544D2*
X501991D1*
X491468D2*
X489544Y497445D1*
X488594Y499369D1*
Y502243D1*
X489544Y504144D1*
X491468Y506067D1*
X494342Y507018D1*
X496243D1*
X499117Y506067D1*
X501018Y504144D1*
X501991Y502243D1*
Y499369D1*
X501018Y497445D1*
X499117Y495544D1*
X586681Y534690D2*
X584780Y535641D1*
X582856Y537564D1*
X581906Y539465D1*
Y543290D1*
X582856Y545213D1*
X584780Y547115D1*
X586681Y548087D1*
X589555Y549038D1*
X594352D1*
X597204Y548087D1*
X599128Y547115D1*
X601029Y545213D1*
X602002Y543290D1*
Y539465D1*
X601029Y537564D1*
X599128Y535641D1*
X597204Y534690D1*
X594352D1*
Y539465D1*
X581906Y515117D2*
X602002D1*
X581906Y528514D1*
X602002D1*
X581906Y508941D2*
X602002D1*
Y502243D1*
X601029Y499369D1*
X599128Y497445D1*
X597204Y496495D1*
X594352Y495544D1*
X589555D1*
X586681Y496495D1*
X584780Y497445D1*
X582856Y499369D1*
X581906Y502243D1*
Y508941D1*
X684790Y533717D2*
X682867Y535619D1*
X681916Y538493D1*
Y542317D1*
X682867Y545191D1*
X684790Y547115D1*
X686691D1*
X688615Y546142D1*
X689565Y545191D1*
X690516Y543290D1*
X692439Y537542D1*
X693390Y535619D1*
X694363Y534668D1*
X696264Y533717D1*
X699138D1*
X701039Y535619D1*
X702012Y538493D1*
Y542317D1*
X701039Y545191D1*
X699138Y547115D1*
X686691Y513194D2*
X684790Y514144D1*
X682867Y516068D1*
X681916Y517969D1*
Y521794D1*
X682867Y523717D1*
X684790Y525618D1*
X686691Y526591D1*
X689565Y527542D1*
X694363D1*
X697215Y526591D1*
X699138Y525618D1*
X701039Y523717D1*
X702012Y521794D1*
Y517969D1*
X701039Y516068D1*
X699138Y514144D1*
X697215Y513194D1*
X681916Y507018D2*
X702012D1*
Y495544D1*
X784801Y536613D2*
X782877Y538515D1*
X781927Y541389D1*
Y545213D1*
X782877Y548087D1*
X784801Y550011D1*
X786702D1*
X788625Y549038D1*
X789576Y548087D1*
X790527Y546186D1*
X792450Y540438D1*
X793401Y538515D1*
X794373Y537564D1*
X796275Y536613D1*
X799149D1*
X801050Y538515D1*
X802023Y541389D1*
Y545213D1*
X801050Y548087D1*
X799149Y550011D1*
X781927Y530438D2*
X802023D1*
Y523739D1*
X801050Y520865D1*
X799149Y518942D1*
X797225Y517991D1*
X794373Y517040D1*
X789576D1*
X786702Y517991D1*
X784801Y518942D1*
X782877Y520865D1*
X781927Y523739D1*
Y530438D1*
X802023Y495544D2*
X781927Y503215D1*
X802023Y510865D1*
X795324Y507991D2*
Y498418D1*
X902033Y544690D2*
X881937Y552362D1*
X902033Y560011D1*
X895334Y557137D2*
Y547564D1*
X881937Y527041D2*
X902033D1*
X891510D2*
X889586Y528942D1*
X888636Y530865D1*
Y533739D1*
X889586Y535641D1*
X891510Y537564D1*
X894384Y538515D1*
X896285D1*
X899159Y537564D1*
X901060Y535641D1*
X902033Y533739D1*
Y530865D1*
X901060Y528942D1*
X899159Y527041D1*
X881937Y509391D2*
X902033D1*
X891510D2*
X889586Y511292D1*
X888636Y513216D1*
Y516090D1*
X889586Y517991D1*
X891510Y519914D1*
X894384Y520865D1*
X896285D1*
X899159Y519914D1*
X901060Y517991D1*
X902033Y516090D1*
Y513216D1*
X901060Y511292D1*
X899159Y509391D1*
X888636Y503215D2*
X902033D1*
X894384D2*
X891510Y502243D1*
X889586Y500341D1*
X888636Y498418D1*
Y495544D1*
X1002044Y547041D2*
X981948Y554713D1*
X1002044Y562362D1*
X995345Y559488D2*
Y549915D1*
X981948Y540866D2*
X1002044D1*
X994394Y534690D2*
Y523216D1*
X992471D1*
X990548Y524167D1*
X989597Y525117D1*
X988646Y527041D1*
Y529915D1*
X989597Y531816D1*
X991520Y533739D1*
X994394Y534690D1*
X996296D1*
X999170Y533739D1*
X1001071Y531816D1*
X1002044Y529915D1*
Y527041D1*
X1001071Y525117D1*
X999170Y523216D1*
X988646Y517040D2*
X1002044D1*
X994394D2*
X991520Y516068D1*
X989597Y514166D1*
X988646Y512243D1*
Y509369D1*
X981948Y500319D2*
X998219D1*
X1001071Y499369D1*
X1002044Y497445D1*
Y495544D1*
X988646Y503193D2*
Y496495D1*
X1102054Y540866D2*
X1081958Y548537D1*
X1102054Y556186D1*
X1095355Y553312D2*
Y543740D1*
X1081958Y534690D2*
X1102054D1*
X1081958Y515117D2*
X1102054D1*
X1081958Y528514D1*
X1102054D1*
X1081980Y503193D2*
X1082931Y506067D1*
X1085805Y507991D1*
X1090580Y508941D1*
X1093454D1*
X1098229Y507991D1*
X1101103Y506067D1*
X1102054Y503193D1*
Y501292D1*
X1101103Y498418D1*
X1098229Y496517D1*
X1093454Y495544D1*
X1090580D1*
X1085805Y496517D1*
X1082931Y498418D1*
X1081980Y501292D1*
Y503193D1*
X1085805Y496517D2*
X1098229Y507991D1*
X1203922Y500220D2*
X1211593Y520316D1*
X1219243Y500220D1*
X1216369Y506919D2*
X1206796D1*
X1197746Y520316D2*
Y500220D1*
X1178173Y520316D2*
Y500220D1*
X1191571Y520316D1*
Y500220D1*
X1171997Y516470D2*
X1170074Y517442D1*
X1167200Y520294D1*
Y500220D1*
X1314482Y498270D2*
X1322154Y518366D1*
X1329803Y498270D1*
X1326929Y504969D2*
X1317357D1*
X1308307Y518366D2*
Y498270D1*
X1288734Y518366D2*
Y498270D1*
X1302131Y518366D1*
Y498270D1*
X1281585Y513569D2*
Y514519D1*
X1280635Y516443D1*
X1279684Y517393D1*
X1277761Y518344D1*
X1273936D1*
X1272035Y517393D1*
X1271084Y516443D1*
X1270111Y514519D1*
Y512618D1*
X1271084Y510695D1*
X1272985Y507843D1*
X1282558Y498270D1*
X1269161D1*
X1408336Y540866D2*
X1388240Y548537D1*
X1408336Y556186D1*
X1401638Y553312D2*
Y543740D1*
X1388240Y534690D2*
X1408336D1*
X1388240Y515117D2*
X1408336D1*
X1388240Y528514D1*
X1408336D1*
X1388262Y507018D2*
Y496517D1*
X1395912Y502243D1*
Y499369D1*
X1396862Y497467D1*
X1397813Y496517D1*
X1400687Y495544D1*
X1402588D1*
X1405462Y496517D1*
X1407386Y498418D1*
X1408336Y501292D1*
Y504166D1*
X1407386Y507018D1*
X1406413Y507969D1*
X1404512Y508941D1*
X1409356Y844605D2*
D47*
X1405056D1*
X1403619Y845092D1*
X1403133Y845567D1*
X1402658Y846518D1*
Y847479D1*
X1403133Y848430D1*
X1403619Y848916D1*
X1405056Y849392D1*
X1409356D1*
Y839344D1*
X1406007Y844605D2*
X1402658Y839344D1*
X1399570Y846042D2*
Y841256D1*
X1399094Y839830D1*
X1398133Y839344D1*
X1396696D1*
X1395745Y839830D1*
X1394308Y841256D1*
Y846042D2*
Y839344D1*
X1385959Y844605D2*
X1386434Y845567D1*
X1387871Y846042D1*
X1389308D1*
X1390745Y845567D1*
X1391220Y844605D1*
X1390745Y843655D1*
X1389783Y843168D1*
X1387396Y842693D1*
X1386434Y842218D1*
X1385959Y841256D1*
Y840781D1*
X1386434Y839830D1*
X1387871Y839344D1*
X1389308D1*
X1390745Y839830D1*
X1391220Y840781D1*
X1377609Y844605D2*
X1378084Y845567D1*
X1379521Y846042D1*
X1380958D1*
X1382395Y845567D1*
X1382871Y844605D1*
X1382395Y843655D1*
X1381434Y843168D1*
X1379046Y842693D1*
X1378084Y842218D1*
X1377609Y841256D1*
Y840781D1*
X1378084Y839830D1*
X1379521Y839344D1*
X1380958D1*
X1382395Y839830D1*
X1382871Y840781D1*
X1374521Y843168D2*
X1368784D1*
Y844130D1*
X1369260Y845092D1*
X1369735Y845567D1*
X1370697Y846042D1*
X1372134D1*
X1373084Y845567D1*
X1374046Y844605D1*
X1374521Y843168D1*
Y842218D1*
X1374046Y840781D1*
X1373084Y839830D1*
X1372134Y839344D1*
X1370697D1*
X1369735Y839830D1*
X1368784Y840781D1*
X1365696Y849392D2*
Y839344D1*
X1362608Y849392D2*
Y839344D1*
X1346451Y849392D2*
Y839344D1*
X1349800Y849392D2*
X1343102D1*
X1340014Y846042D2*
Y839344D1*
Y843168D2*
X1339528Y844605D1*
X1338577Y845567D1*
X1337615Y846042D1*
X1336178D1*
X1327353D2*
Y839344D1*
Y844605D2*
X1328304Y845567D1*
X1329266Y846042D1*
X1330692D1*
X1331653Y845567D1*
X1332604Y844605D1*
X1333090Y843168D1*
Y842218D1*
X1332604Y840781D1*
X1331653Y839830D1*
X1330692Y839344D1*
X1329266D1*
X1328304Y839830D1*
X1327353Y840781D1*
X1320441Y849392D2*
X1321392D1*
X1322353Y848916D1*
X1322829Y847479D1*
Y839344D1*
X1324266Y846042D2*
X1320916D1*
X1313528Y849392D2*
X1314479D1*
X1315441Y848916D1*
X1315916Y847479D1*
Y839344D1*
X1317353Y846042D2*
X1314004D1*
X1308053D2*
X1309004Y845567D1*
X1309965Y844605D1*
X1310441Y843168D1*
Y842218D1*
X1309965Y840781D1*
X1309004Y839830D1*
X1308053Y839344D1*
X1306616D1*
X1305654Y839830D1*
X1304704Y840781D1*
X1304217Y842218D1*
Y843168D1*
X1304704Y844605D1*
X1305654Y845567D1*
X1306616Y846042D1*
X1308053D1*
X1301129D2*
Y839344D1*
Y843168D2*
X1300643Y844605D1*
X1299692Y845567D1*
X1298731Y846042D1*
X1297294D1*
X1288469Y849392D2*
Y839344D1*
Y844605D2*
X1289419Y845567D1*
X1290381Y846042D1*
X1291818D1*
X1292769Y845567D1*
X1293730Y844605D1*
X1294206Y843168D1*
Y842218D1*
X1293730Y840781D1*
X1292769Y839830D1*
X1291818Y839344D1*
X1290381D1*
X1289419Y839830D1*
X1288469Y840781D1*
X1403089Y814341D2*
X1406925Y824389D1*
X1410750Y814341D1*
X1409313Y817690D2*
X1404526D1*
X1400001Y824389D2*
Y814341D1*
X1396652D1*
X1395215Y814827D1*
X1394253Y815778D1*
X1393778Y816740D1*
X1393303Y818166D1*
Y820564D1*
X1393778Y822001D1*
X1394253Y822952D1*
X1395215Y823914D1*
X1396652Y824389D1*
X1400001D1*
X1383516Y822952D2*
X1384467Y823914D1*
X1385904Y824389D1*
X1387816D1*
X1389253Y823914D1*
X1390215Y822952D1*
Y822001D1*
X1389729Y821040D1*
X1389253Y820564D1*
X1388303Y820089D1*
X1385429Y819127D1*
X1384467Y818652D1*
X1383992Y818166D1*
X1383516Y817215D1*
Y815778D1*
X1384467Y814827D1*
X1385904Y814341D1*
X1387816D1*
X1389253Y814827D1*
X1390215Y815778D1*
X1380428Y822466D2*
X1379467Y822952D1*
X1378030Y824378D1*
Y814341D1*
X1374942Y822466D2*
X1373980Y822952D1*
X1372543Y824378D1*
Y814341D1*
X1363718Y824378D2*
X1368494D1*
X1368969Y820078D1*
X1368494Y820553D1*
X1367057Y821040D1*
X1365631D1*
X1364194Y820553D1*
X1363232Y819603D1*
X1362757Y818166D1*
Y817215D1*
X1363232Y815778D1*
X1364194Y814816D1*
X1365631Y814341D1*
X1367057D1*
X1368494Y814816D1*
X1368969Y815303D1*
X1369455Y816253D1*
X1352970Y822952D2*
X1353921Y823914D1*
X1355358Y824389D1*
X1357270D1*
X1358707Y823914D1*
X1359669Y822952D1*
Y822001D1*
X1359182Y821040D1*
X1358707Y820564D1*
X1357756Y820089D1*
X1354882Y819127D1*
X1353921Y818652D1*
X1353445Y818166D1*
X1352970Y817215D1*
Y815778D1*
X1353921Y814827D1*
X1355358Y814341D1*
X1357270D1*
X1358707Y814827D1*
X1359669Y815778D1*
X1340162Y824389D2*
Y814341D1*
X1335851D1*
X1334414Y814827D1*
X1333939Y815303D1*
X1333463Y816253D1*
Y817690D1*
X1333939Y818652D1*
X1334414Y819127D1*
X1335851Y819603D1*
X1334414Y820089D1*
X1333939Y820564D1*
X1333463Y821515D1*
Y822477D1*
X1333939Y823427D1*
X1334414Y823914D1*
X1335851Y824389D1*
X1340162D1*
Y819603D2*
X1335851D1*
X1330376Y821040D2*
Y814341D1*
Y818166D2*
X1329889Y819603D1*
X1328939Y820564D1*
X1327977Y821040D1*
X1326540D1*
X1323452Y818166D2*
X1317715D1*
Y819127D1*
X1318190Y820089D1*
X1318666Y820564D1*
X1319627Y821040D1*
X1321064D1*
X1322015Y820564D1*
X1322977Y819603D1*
X1323452Y818166D1*
Y817215D1*
X1322977Y815778D1*
X1322015Y814827D1*
X1321064Y814341D1*
X1319627D1*
X1318666Y814827D1*
X1317715Y815778D1*
X1308890Y821040D2*
Y814341D1*
Y819603D2*
X1309841Y820564D1*
X1310803Y821040D1*
X1312228D1*
X1313190Y820564D1*
X1314141Y819603D1*
X1314627Y818166D1*
Y817215D1*
X1314141Y815778D1*
X1313190Y814827D1*
X1312228Y814341D1*
X1310803D1*
X1309841Y814827D1*
X1308890Y815778D1*
X1305802Y824389D2*
Y814341D1*
X1301016Y821040D2*
X1305802Y816253D1*
X1303890Y818166D2*
X1300541Y814341D1*
X1295065Y821040D2*
X1296016Y820564D1*
X1296978Y819603D1*
X1297453Y818166D1*
Y817215D1*
X1296978Y815778D1*
X1296016Y814827D1*
X1295065Y814341D1*
X1293628D1*
X1292667Y814827D1*
X1291716Y815778D1*
X1291230Y817215D1*
Y818166D1*
X1291716Y819603D1*
X1292667Y820564D1*
X1293628Y821040D1*
X1295065D1*
X1288142D2*
Y816253D1*
X1287666Y814827D1*
X1286705Y814341D1*
X1285268D1*
X1284317Y814827D1*
X1282880Y816253D1*
Y821040D2*
Y814341D1*
X1278355Y824389D2*
Y816253D1*
X1277880Y814827D1*
X1276918Y814341D1*
X1275968D1*
X1279792Y821040D2*
X1276443D1*
X1410617Y794600D2*
X1406317D1*
X1404880Y795087D1*
X1404394Y795562D1*
X1403918Y796512D1*
Y797474D1*
X1404394Y798425D1*
X1404880Y798911D1*
X1406317Y799386D1*
X1410617D1*
Y789338D1*
X1407268Y794600D2*
X1403918Y789338D1*
X1400831Y793163D2*
X1395094D1*
Y794125D1*
X1395569Y795087D1*
X1396044Y795562D1*
X1397006Y796037D1*
X1398443D1*
X1399394Y795562D1*
X1400355Y794600D1*
X1400831Y793163D1*
Y792212D1*
X1400355Y790775D1*
X1399394Y789825D1*
X1398443Y789338D1*
X1397006D1*
X1396044Y789825D1*
X1395094Y790775D1*
X1392006Y796037D2*
X1389132Y789338D1*
X1386269Y796037D1*
X1373461Y797463D2*
X1372499Y797949D1*
X1371062Y799375D1*
Y789338D1*
X1367499Y790300D2*
X1367974Y789814D1*
X1367499Y789338D1*
X1367013Y789814D1*
X1367499Y790300D1*
X1361051Y799375D2*
X1362488Y798900D1*
X1363449Y797463D1*
X1363925Y795075D1*
Y793638D1*
X1363449Y791251D1*
X1362488Y789814D1*
X1361051Y789338D1*
X1360100D1*
X1358663Y789814D1*
X1357712Y791251D1*
X1357226Y793638D1*
Y795075D1*
X1357712Y797463D1*
X1358663Y798900D1*
X1360100Y799375D1*
X1361051D1*
X1357712Y797463D2*
X1363449Y791251D1*
M02*
