G04 DipTrace 3.1.0.0*
G04 ADS115SBreakout.gto*
%MOIN*%
G04 #@! TF.FileFunction,Legend,Top*
G04 #@! TF.Part,Single*
%ADD10C,0.009843*%
%ADD17O,0.013865X0.014127*%
%ADD44C,0.006176*%
%ADD45C,0.004632*%
%ADD46C,0.003088*%
%FSLAX26Y26*%
G04*
G70*
G90*
G75*
G01*
G04 TopSilk*
%LPD*%
D17*
X1124577Y676346D3*
X1192856Y685571D2*
D10*
X1309140D1*
Y555364D1*
X1192856D1*
Y685571D1*
X445228Y494002D2*
X1445268D1*
Y394000D1*
X445228D1*
Y494002D1*
X1212834Y697707D2*
D44*
X1197491Y737899D1*
X1182192Y697707D1*
X1187940Y711104D2*
X1207086D1*
X1225185Y737899D2*
Y697707D1*
X1238582D1*
X1244330Y699652D1*
X1248177Y703455D1*
X1250078Y707301D1*
X1251980Y713005D1*
Y722600D1*
X1250078Y728348D1*
X1248177Y732151D1*
X1244330Y735997D1*
X1238582Y737899D1*
X1225185D1*
X1293027Y728348D2*
X1291126Y732151D1*
X1287279Y735997D1*
X1283476Y737899D1*
X1275827D1*
X1271980Y735997D1*
X1268178Y732151D1*
X1266232Y728348D1*
X1264331Y722600D1*
Y713005D1*
X1266232Y707301D1*
X1268178Y703455D1*
X1271980Y699652D1*
X1275827Y697707D1*
X1283476D1*
X1287279Y699652D1*
X1291126Y703455D1*
X1293027Y707301D1*
X1305378Y730205D2*
X1309225Y732151D1*
X1314973Y737854D1*
Y697707D1*
X445826Y615209D2*
X443925Y619012D1*
X440078Y622858D1*
X436276Y624760D1*
X428626D1*
X424780Y622858D1*
X420977Y619012D1*
X419032Y615209D1*
X417130Y609461D1*
Y599866D1*
X419032Y594162D1*
X420977Y590316D1*
X424780Y586513D1*
X428626Y584568D1*
X436276D1*
X440078Y586513D1*
X443925Y590316D1*
X445826Y594162D1*
X458178Y617066D2*
X462024Y619012D1*
X467773Y624715D1*
Y584568D1*
X1255258Y846489D2*
X1253357Y850291D1*
X1249510Y854138D1*
X1245707Y856039D1*
X1238058D1*
X1234211Y854138D1*
X1230409Y850291D1*
X1228463Y846489D1*
X1226562Y840740D1*
Y831146D1*
X1228463Y825442D1*
X1230409Y821595D1*
X1234211Y817793D1*
X1238058Y815847D1*
X1245707D1*
X1249510Y817793D1*
X1253357Y821595D1*
X1255258Y825442D1*
X1269555Y846444D2*
Y848346D1*
X1271456Y852192D1*
X1273357Y854094D1*
X1277204Y855995D1*
X1284853D1*
X1288656Y854094D1*
X1290557Y852192D1*
X1292503Y848346D1*
Y844543D1*
X1290557Y840696D1*
X1286755Y834992D1*
X1267609Y815847D1*
X1294404D1*
X486628Y869819D2*
Y829627D1*
X509576D1*
X521927Y862125D2*
X525774Y864071D1*
X531522Y869774D1*
Y829627D1*
X559286Y801061D2*
Y760869D1*
X582234D1*
X596531Y791467D2*
Y793368D1*
X598432Y797215D1*
X600334Y799116D1*
X604180Y801017D1*
X611830D1*
X615632Y799116D1*
X617534Y797215D1*
X619479Y793368D1*
Y789565D1*
X617534Y785719D1*
X613731Y780015D1*
X594586Y760869D1*
X621380D1*
X676195Y726903D2*
X693395D1*
X699143Y728848D1*
X701089Y730750D1*
X702990Y734552D1*
Y738399D1*
X701089Y742202D1*
X699143Y744147D1*
X693395Y746048D1*
X676195D1*
Y705856D1*
X689593Y726903D2*
X702990Y705856D1*
X715341Y738355D2*
X719188Y740300D1*
X724936Y746004D1*
Y705856D1*
X773846Y726903D2*
X791046D1*
X796794Y728848D1*
X798739Y730750D1*
X800641Y734552D1*
Y738399D1*
X798739Y742202D1*
X796794Y744147D1*
X791046Y746048D1*
X773846D1*
Y705856D1*
X787243Y726903D2*
X800641Y705856D1*
X814937Y736453D2*
Y738355D1*
X816839Y742202D1*
X818740Y744103D1*
X822587Y746004D1*
X830236D1*
X834039Y744103D1*
X835940Y742202D1*
X837885Y738355D1*
Y734552D1*
X835940Y730705D1*
X832137Y725002D1*
X812992Y705856D1*
X839787D1*
X873846Y723723D2*
X891046D1*
X896794Y725669D1*
X898739Y727570D1*
X900641Y731372D1*
Y735219D1*
X898739Y739022D1*
X896794Y740967D1*
X891046Y742868D1*
X873846D1*
Y702676D1*
X887243Y723723D2*
X900641Y702676D1*
X916839Y742824D2*
X937841D1*
X926389Y727526D1*
X932137D1*
X935940Y725624D1*
X937841Y723723D1*
X939787Y717975D1*
Y714173D1*
X937841Y708425D1*
X934039Y704578D1*
X928291Y702676D1*
X922543D1*
X916839Y704578D1*
X914937Y706523D1*
X912992Y710326D1*
X982610Y727188D2*
X999810D1*
X1005558Y729133D1*
X1007504Y731034D1*
X1009405Y734837D1*
Y738684D1*
X1007504Y742486D1*
X1005558Y744432D1*
X999810Y746333D1*
X982610D1*
Y706141D1*
X996008Y727188D2*
X1009405Y706141D1*
X1040902D2*
Y746289D1*
X1021757Y719538D1*
X1050453D1*
X623105Y827282D2*
D45*
X611598Y857426D1*
X600124Y827282D1*
X604435Y837330D2*
X618794D1*
X632369Y857426D2*
Y827282D1*
X642417D1*
X646728Y828741D1*
X649613Y831593D1*
X651039Y834478D1*
X652465Y838756D1*
Y845952D1*
X651039Y850263D1*
X649613Y853115D1*
X646728Y856000D1*
X642417Y857426D1*
X632369D1*
X681824Y853115D2*
X678973Y856000D1*
X674662Y857426D1*
X668925D1*
X664614Y856000D1*
X661728Y853115D1*
Y850263D1*
X663188Y847378D1*
X664614Y845952D1*
X667465Y844526D1*
X676087Y841641D1*
X678973Y840215D1*
X680399Y838756D1*
X681824Y835904D1*
Y831593D1*
X678973Y828741D1*
X674662Y827282D1*
X668925D1*
X664614Y828741D1*
X661728Y831593D1*
X691088Y851656D2*
X693973Y853115D1*
X698284Y857393D1*
Y827282D1*
X707548Y851656D2*
X710433Y853115D1*
X714744Y857393D1*
Y827282D1*
X724007Y851656D2*
X726892Y853115D1*
X731203Y857393D1*
Y827282D1*
X757678Y857393D2*
X743352D1*
X741926Y844493D1*
X743352Y845919D1*
X747663Y847378D1*
X751941D1*
X756252Y845919D1*
X759137Y843067D1*
X760563Y838756D1*
Y835904D1*
X759137Y831593D1*
X756252Y828708D1*
X751941Y827282D1*
X747663D1*
X743352Y828708D1*
X741926Y830167D1*
X740467Y833019D1*
X798987Y857426D2*
Y827282D1*
X811920D1*
X816231Y828741D1*
X817657Y830167D1*
X819083Y833019D1*
Y837330D1*
X817657Y840215D1*
X816231Y841641D1*
X811920Y843067D1*
X816231Y844526D1*
X817657Y845952D1*
X819083Y848804D1*
Y851689D1*
X817657Y854541D1*
X816231Y856000D1*
X811920Y857426D1*
X798987D1*
Y843067D2*
X811920D1*
X828347Y847378D2*
Y827282D1*
Y838756D2*
X829806Y843067D1*
X832658Y845952D1*
X835543Y847378D1*
X839854D1*
X849117Y838756D2*
X866328D1*
Y841641D1*
X864902Y844526D1*
X863476Y845952D1*
X860591Y847378D1*
X856280D1*
X853428Y845952D1*
X850543Y843067D1*
X849117Y838756D1*
Y835904D1*
X850543Y831593D1*
X853428Y828741D1*
X856280Y827282D1*
X860591D1*
X863476Y828741D1*
X866328Y831593D1*
X892803Y847378D2*
Y827282D1*
Y843067D2*
X889951Y845952D1*
X887066Y847378D1*
X882788D1*
X879903Y845952D1*
X877051Y843067D1*
X875592Y838756D1*
Y835904D1*
X877051Y831593D1*
X879903Y828741D1*
X882788Y827282D1*
X887066D1*
X889951Y828741D1*
X892803Y831593D1*
X902066Y857426D2*
Y827282D1*
X916425Y847378D2*
X902066Y833019D1*
X907803Y838756D2*
X917851Y827282D1*
X934278Y847378D2*
X931426Y845952D1*
X928541Y843067D1*
X927115Y838756D1*
Y835904D1*
X928541Y831593D1*
X931426Y828741D1*
X934278Y827282D1*
X938589D1*
X941474Y828741D1*
X944326Y831593D1*
X945785Y835904D1*
Y838756D1*
X944326Y843067D1*
X941474Y845952D1*
X938589Y847378D1*
X934278D1*
X955048D2*
Y833019D1*
X956474Y828741D1*
X959359Y827282D1*
X963670D1*
X966522Y828741D1*
X970833Y833019D1*
Y847378D2*
Y827282D1*
X984408Y857426D2*
Y833019D1*
X985834Y828741D1*
X988719Y827282D1*
X991571D1*
X980097Y847378D2*
X990145D1*
X1029995Y857426D2*
Y827282D1*
X1042928D1*
X1047239Y828741D1*
X1048665Y830167D1*
X1050091Y833019D1*
Y837330D1*
X1048665Y840215D1*
X1047239Y841641D1*
X1042928Y843067D1*
X1047239Y844526D1*
X1048665Y845952D1*
X1050091Y848804D1*
Y851689D1*
X1048665Y854541D1*
X1047239Y856000D1*
X1042928Y857426D1*
X1029995D1*
Y843067D2*
X1042928D1*
X1066517Y847378D2*
X1063666Y845952D1*
X1060780Y843067D1*
X1059355Y838756D1*
Y835904D1*
X1060780Y831593D1*
X1063666Y828741D1*
X1066517Y827282D1*
X1070828D1*
X1073714Y828741D1*
X1076565Y831593D1*
X1078025Y835904D1*
Y838756D1*
X1076565Y843067D1*
X1073714Y845952D1*
X1070828Y847378D1*
X1066517D1*
X1104499D2*
Y827282D1*
Y843067D2*
X1101647Y845952D1*
X1098762Y847378D1*
X1094484D1*
X1091599Y845952D1*
X1088747Y843067D1*
X1087288Y838756D1*
Y835904D1*
X1088747Y831593D1*
X1091599Y828741D1*
X1094484Y827282D1*
X1098762D1*
X1101647Y828741D1*
X1104499Y831593D1*
X1113763Y847378D2*
Y827282D1*
Y838756D2*
X1115222Y843067D1*
X1118074Y845952D1*
X1120959Y847378D1*
X1125270D1*
X1151744Y857426D2*
Y827282D1*
Y843067D2*
X1148892Y845952D1*
X1146007Y847378D1*
X1141696D1*
X1138844Y845952D1*
X1135959Y843067D1*
X1134533Y838756D1*
Y835904D1*
X1135959Y831593D1*
X1138844Y828741D1*
X1141696Y827282D1*
X1146007D1*
X1148892Y828741D1*
X1151744Y831593D1*
X481895Y508045D2*
D46*
X501991Y515695D1*
X481895Y523344D1*
Y540994D2*
X501991D1*
X491468D2*
X489544Y539092D1*
X488594Y537169D1*
Y534295D1*
X489544Y532394D1*
X491468Y530470D1*
X494342Y529520D1*
X496243D1*
X499117Y530470D1*
X501018Y532394D1*
X501991Y534295D1*
Y537169D1*
X501018Y539092D1*
X499117Y540994D1*
X481895Y558643D2*
X501991D1*
X491468D2*
X489544Y556742D1*
X488594Y554819D1*
Y551945D1*
X489544Y550043D1*
X491468Y548120D1*
X494342Y547169D1*
X496243D1*
X499117Y548120D1*
X501018Y550043D1*
X501991Y551944D1*
Y554819D1*
X501018Y556742D1*
X499117Y558643D1*
X586681Y522393D2*
X584780Y521443D1*
X582856Y519519D1*
X581906Y517618D1*
Y513793D1*
X582856Y511870D1*
X584780Y509969D1*
X586681Y508996D1*
X589555Y508045D1*
X594352D1*
X597204Y508996D1*
X599128Y509969D1*
X601029Y511870D1*
X602002Y513793D1*
Y517618D1*
X601029Y519519D1*
X599128Y521443D1*
X597204Y522393D1*
X594352D1*
Y517618D1*
X581906Y541966D2*
X602002D1*
X581906Y528569D1*
X602002D1*
X581906Y548142D2*
X602002D1*
Y554841D1*
X601029Y557715D1*
X599128Y559638D1*
X597204Y560589D1*
X594352Y561539D1*
X589555D1*
X586681Y560589D1*
X584780Y559638D1*
X582856Y557715D1*
X581906Y554841D1*
Y548142D1*
X684790Y521443D2*
X682867Y519541D1*
X681916Y516667D1*
Y512843D1*
X682867Y509969D1*
X684790Y508045D1*
X686691D1*
X688615Y509018D1*
X689565Y509969D1*
X690516Y511870D1*
X692439Y517618D1*
X693390Y519541D1*
X694363Y520492D1*
X696264Y521443D1*
X699138D1*
X701039Y519541D1*
X702012Y516667D1*
Y512843D1*
X701039Y509969D1*
X699138Y508045D1*
X686691Y541966D2*
X684790Y541016D1*
X682867Y539092D1*
X681916Y537191D1*
Y533366D1*
X682867Y531443D1*
X684790Y529542D1*
X686691Y528569D1*
X689565Y527618D1*
X694363D1*
X697215Y528569D1*
X699138Y529542D1*
X701039Y531443D1*
X702012Y533366D1*
Y537191D1*
X701039Y539092D1*
X699138Y541016D1*
X697215Y541966D1*
X681916Y548142D2*
X702012D1*
Y559616D1*
X784801Y521443D2*
X782877Y519541D1*
X781927Y516667D1*
Y512843D1*
X782877Y509969D1*
X784801Y508045D1*
X786702D1*
X788625Y509018D1*
X789576Y509969D1*
X790526Y511870D1*
X792450Y517618D1*
X793401Y519541D1*
X794373Y520492D1*
X796275Y521443D1*
X799149D1*
X801050Y519541D1*
X802023Y516667D1*
Y512843D1*
X801050Y509969D1*
X799149Y508045D1*
X781927Y527618D2*
X802023D1*
Y534317D1*
X801050Y537191D1*
X799149Y539114D1*
X797225Y540065D1*
X794373Y541016D1*
X789576D1*
X786702Y540065D1*
X784801Y539114D1*
X782877Y537191D1*
X781927Y534317D1*
Y527618D1*
X802023Y562512D2*
X781927Y554841D1*
X802023Y547191D1*
X795324Y550065D2*
Y559638D1*
X902033Y523366D2*
X881937Y515695D1*
X902033Y508045D1*
X895334Y510919D2*
Y520492D1*
X881937Y541016D2*
X902033D1*
X891510D2*
X889586Y539114D1*
X888636Y537191D1*
Y534317D1*
X889586Y532416D1*
X891510Y530492D1*
X894384Y529542D1*
X896285D1*
X899159Y530492D1*
X901060Y532416D1*
X902033Y534317D1*
Y537191D1*
X901060Y539114D1*
X899159Y541016D1*
X881937Y558665D2*
X902033D1*
X891510D2*
X889586Y556764D1*
X888636Y554841D1*
Y551967D1*
X889586Y550065D1*
X891510Y548142D1*
X894384Y547191D1*
X896285D1*
X899159Y548142D1*
X901060Y550065D1*
X902033Y551967D1*
Y554841D1*
X901060Y556764D1*
X899159Y558665D1*
X888636Y564841D2*
X902033D1*
X894384D2*
X891510Y565814D1*
X889586Y567715D1*
X888636Y569638D1*
Y572512D1*
X1002044Y523366D2*
X981948Y515695D1*
X1002044Y508045D1*
X995345Y510919D2*
Y520492D1*
X981948Y529542D2*
X1002044D1*
X994394Y535717D2*
Y547191D1*
X992471D1*
X990548Y546241D1*
X989597Y545290D1*
X988646Y543367D1*
Y540493D1*
X989597Y538591D1*
X991520Y536668D1*
X994394Y535717D1*
X996296D1*
X999170Y536668D1*
X1001071Y538591D1*
X1002044Y540493D1*
Y543367D1*
X1001071Y545290D1*
X999170Y547191D1*
X988646Y553367D2*
X1002044D1*
X994394D2*
X991520Y554340D1*
X989597Y556241D1*
X988646Y558164D1*
Y561038D1*
X981948Y570088D2*
X998219D1*
X1001071Y571039D1*
X1002044Y572962D1*
Y574863D1*
X988646Y567214D2*
Y573913D1*
X1102054Y523366D2*
X1081958Y515695D1*
X1102054Y508045D1*
X1095355Y510919D2*
Y520492D1*
X1081958Y529542D2*
X1102054D1*
X1081958Y549115D2*
X1102054D1*
X1081958Y535717D1*
X1102054D1*
X1081980Y561038D2*
X1082931Y558164D1*
X1085805Y556241D1*
X1090580Y555290D1*
X1093454D1*
X1098229Y556241D1*
X1101103Y558164D1*
X1102054Y561038D1*
Y562940D1*
X1101103Y565814D1*
X1098229Y567715D1*
X1093454Y568688D1*
X1090580D1*
X1085805Y567715D1*
X1082931Y565814D1*
X1081980Y562940D1*
Y561038D1*
X1085805Y567715D2*
X1098229Y556241D1*
X1182521Y512722D2*
X1174849Y532818D1*
X1167200Y512722D1*
X1170074Y519420D2*
X1179647D1*
X1188697Y532818D2*
Y512722D1*
X1208270Y532818D2*
Y512722D1*
X1194872Y532818D1*
Y512722D1*
X1214445Y528971D2*
X1216369Y529944D1*
X1219243Y532795D1*
Y512722D1*
X1284481Y510771D2*
X1276810Y530867D1*
X1269161Y510771D1*
X1272035Y517470D2*
X1281607D1*
X1290657Y530867D2*
Y510771D1*
X1310230Y530867D2*
Y510771D1*
X1296833Y530867D1*
Y510771D1*
X1317379Y526070D2*
Y527021D1*
X1318329Y528944D1*
X1319280Y529895D1*
X1321203Y530845D1*
X1325028D1*
X1326929Y529895D1*
X1327880Y528944D1*
X1328853Y527021D1*
Y525119D1*
X1327880Y523196D1*
X1325979Y520344D1*
X1316406Y510771D1*
X1329803D1*
X1408336Y523366D2*
X1388240Y515695D1*
X1408336Y508045D1*
X1401638Y510919D2*
Y520492D1*
X1388240Y529542D2*
X1408336D1*
X1388240Y549115D2*
X1408336D1*
X1388240Y535717D1*
X1408336D1*
X1388262Y557214D2*
Y567715D1*
X1395912Y561989D1*
Y564863D1*
X1396862Y566764D1*
X1397813Y567715D1*
X1400687Y568688D1*
X1402588D1*
X1405462Y567715D1*
X1407386Y565814D1*
X1408336Y562940D1*
Y560066D1*
X1407386Y557214D1*
X1406413Y556263D1*
X1404512Y555290D1*
M02*
